0
SECTION
2
HEADER
0
ENDSEC
0
SECTION
2
BLOCKS
0
BLOCK
8
1
2
SS CL C NB_M
70
64
10
0.0000
20
0.0000
0
TEXT
8
1
10
0.0000
20
0.0000
40
0.0000
1
PIECE NAME: SS CL C NB
7
STANDARD
0
TEXT
8
1
10
0.0000
20
0.0000
40
0.0000
1
SIZE: M
7
STANDARD
0
TEXT
8
1
10
0.0000
20
0.0000
40
0.0000
1
ANNOTATION: BX1 710281385C
7
STANDARD
0
TEXT
8
1
10
0.0000
20
0.0000
40
0.0000
1
CATEGORY: 710281385C ANCL
7
STANDARD
0
TEXT
8
1
10
0.0000
20
0.0000
40
0.0000
1
QUANTITY: 1
7
STANDARD
0
POLYLINE
8
1
66
1
70
1
0
VERTEX
8
1
10
0.0000
20
-0.0000
0
VERTEX
8
1
10
0.0000
20
19.0500
0
VERTEX
8
1
10
0.0000
20
21.0795
0
VERTEX
8
1
10
0.0000
20
247.6500
0
VERTEX
8
1
10
0.0000
20
416.3085
0
VERTEX
8
1
10
17.5260
20
416.3085
0
VERTEX
8
1
10
17.5260
20
-0.0000
0
VERTEX
8
1
10
0.0000
20
-0.0000
0
SEQEND
8
1
0
POINT
8
2
10
0.0000
20
-0.0000
0
TEXT
8
2
10
0.0000
20
-0.0000
40
0.0000
7
STANDARD
0
POINT
8
4
10
0.0000
20
19.0500
30
0.7000
38
0.7000
39
0.2000
50
90.0000
0
POINT
8
3
10
0.0000
20
19.0500
0
TEXT
8
2
10
0.0000
20
19.0500
40
0.0000
7
STANDARD
0
POINT
8
2
10
0.0000
20
21.0795
0
TEXT
8
2
10
0.0000
20
21.0795
40
0.0000
1
# 2
7
STANDARD
0
POINT
8
3
10
0.0000
20
247.6500
0
TEXT
8
2
10
0.0000
20
247.6500
40
0.0000
1
# 3
7
STANDARD
0
POINT
8
2
10
0.0000
20
416.3085
0
TEXT
8
2
10
0.0000
20
416.3085
40
0.0000
1
# 4
7
STANDARD
0
POINT
8
2
10
17.5260
20
416.3085
0
TEXT
8
2
10
17.5260
20
416.3085
40
0.0000
1
# 5
7
STANDARD
0
POINT
8
2
10
17.5260
20
-0.0000
0
TEXT
8
2
10
17.5260
20
-0.0000
40
0.0000
1
# 6
7
STANDARD
0
POINT
8
2
10
0.0000
20
-0.0000
0
TEXT
8
2
10
0.0000
20
-0.0000
40
0.0000
1
# 0
7
STANDARD
0
LINE
8
7
10
2.9210
20
208.1543
11
14.6050
21
208.1543
0
LINE
8
5
10
2.9210
20
208.1543
11
14.6050
21
208.1543
0
ENDBLK
0
BLOCK
8
1
2
SS CL C FR_M
70
64
10
0.0000
20
0.0000
0
TEXT
8
1
10
0.0000
20
0.0000
40
0.0000
1
PIECE NAME: SS CL C FR
7
STANDARD
0
TEXT
8
1
10
0.0000
20
0.0000
40
0.0000
1
SIZE: M
7
STANDARD
0
TEXT
8
1
10
0.0000
20
0.0000
40
0.0000
1
ANNOTATION: AX1 710281385C
7
STANDARD
0
TEXT
8
1
10
0.0000
20
0.0000
40
0.0000
1
CATEGORY: 710281385C ANFR
7
STANDARD
0
TEXT
8
1
10
0.0000
20
0.0000
40
0.0000
1
QUANTITY: 1
7
STANDARD
0
POLYLINE
8
1
66
1
70
1
0
VERTEX
8
1
10
711.9696
20
371.6706
0
VERTEX
8
1
10
694.2715
20
365.9780
0
VERTEX
8
1
10
678.0323
20
358.8302
0
VERTEX
8
1
10
663.4990
20
350.0845
0
VERTEX
8
1
10
650.9142
20
339.5958
0
VERTEX
8
1
10
640.5264
20
327.2224
0
VERTEX
8
1
10
632.5808
20
312.8208
0
VERTEX
8
1
10
627.3234
20
296.2479
0
VERTEX
8
1
10
625.0001
20
277.3604
0
VERTEX
8
1
10
627.3235
20
258.4725
0
VERTEX
8
1
10
632.5809
20
241.9001
0
VERTEX
8
1
10
640.5264
20
227.4995
0
VERTEX
8
1
10
650.9140
20
215.1272
0
VERTEX
8
1
10
663.4976
20
204.6400
0
VERTEX
8
1
10
678.0315
20
195.8939
0
VERTEX
8
1
10
694.2711
20
188.7449
0
VERTEX
8
1
10
711.9696
20
183.0502
0
VERTEX
8
1
10
653.6411
20
28.9103
0
VERTEX
8
1
10
600.7356
20
41.2532
0
VERTEX
8
1
10
574.1996
20
46.6445
0
VERTEX
8
1
10
560.8394
20
49.0778
0
VERTEX
8
1
10
547.3903
20
51.3105
0
VERTEX
8
1
10
543.9055
20
51.6407
0
VERTEX
8
1
10
540.4205
20
51.9709
0
VERTEX
8
1
10
536.9255
20
52.2275
0
VERTEX
8
1
10
533.4304
20
52.4815
0
VERTEX
8
1
10
502.0380
20
51.0877
0
VERTEX
8
1
10
485.8282
20
48.8923
0
VERTEX
8
1
10
470.3680
20
44.9337
0
VERTEX
8
1
10
456.4761
20
38.6385
0
VERTEX
8
1
10
444.9714
20
29.4333
0
VERTEX
8
1
10
436.6729
20
16.7449
0
VERTEX
8
1
10
433.9819
20
8.9153
0
VERTEX
8
1
10
432.3994
20
-0.0000
0
VERTEX
8
1
10
0.0000
20
0.0203
0
VERTEX
8
1
10
0.0000
20
277.3299
0
VERTEX
8
1
10
0.0000
20
554.7004
0
VERTEX
8
1
10
432.3994
20
554.7207
0
VERTEX
8
1
10
433.9819
20
545.8056
0
VERTEX
8
1
10
436.6730
20
537.9763
0
VERTEX
8
1
10
444.9717
20
525.2885
0
VERTEX
8
1
10
456.4766
20
516.0837
0
VERTEX
8
1
10
470.3687
20
509.7888
0
VERTEX
8
1
10
485.8290
20
505.8306
0
VERTEX
8
1
10
502.0387
20
503.6356
0
VERTEX
8
1
10
533.4304
20
502.2418
0
VERTEX
8
1
10
536.9255
20
502.4958
0
VERTEX
8
1
10
540.4205
20
502.7498
0
VERTEX
8
1
10
543.9055
20
503.0800
0
VERTEX
8
1
10
547.3903
20
503.4102
0
VERTEX
8
1
10
560.8394
20
505.6430
0
VERTEX
8
1
10
574.1996
20
508.0762
0
VERTEX
8
1
10
600.7356
20
513.4675
0
VERTEX
8
1
10
653.6411
20
525.8105
0
VERTEX
8
1
10
711.9696
20
371.6706
0
SEQEND
8
1
0
POINT
8
2
10
711.9696
20
371.6706
0
TEXT
8
2
10
711.9696
20
371.6706
40
0.0000
7
STANDARD
0
POINT
8
3
10
694.2715
20
365.9780
0
TEXT
8
2
10
694.2715
20
365.9780
40
0.0000
7
STANDARD
0
POINT
8
3
10
678.0323
20
358.8302
0
TEXT
8
2
10
678.0323
20
358.8302
40
0.0000
7
STANDARD
0
POINT
8
3
10
663.4990
20
350.0845
0
TEXT
8
2
10
663.4990
20
350.0845
40
0.0000
7
STANDARD
0
POINT
8
3
10
650.9142
20
339.5958
0
TEXT
8
2
10
650.9142
20
339.5958
40
0.0000
7
STANDARD
0
POINT
8
3
10
640.5264
20
327.2224
0
TEXT
8
2
10
640.5264
20
327.2224
40
0.0000
7
STANDARD
0
POINT
8
3
10
632.5808
20
312.8208
0
TEXT
8
2
10
632.5808
20
312.8208
40
0.0000
7
STANDARD
0
POINT
8
3
10
627.3234
20
296.2479
0
TEXT
8
2
10
627.3234
20
296.2479
40
0.0000
7
STANDARD
0
POINT
8
3
10
625.0001
20
277.3604
0
TEXT
8
2
10
625.0001
20
277.3604
40
0.0000
1
# 15
7
STANDARD
0
POINT
8
3
10
627.3235
20
258.4725
0
TEXT
8
2
10
627.3235
20
258.4725
40
0.0000
7
STANDARD
0
POINT
8
3
10
632.5809
20
241.9001
0
TEXT
8
2
10
632.5809
20
241.9001
40
0.0000
7
STANDARD
0
POINT
8
3
10
640.5264
20
227.4995
0
TEXT
8
2
10
640.5264
20
227.4995
40
0.0000
7
STANDARD
0
POINT
8
3
10
650.9140
20
215.1272
0
TEXT
8
2
10
650.9140
20
215.1272
40
0.0000
7
STANDARD
0
POINT
8
3
10
663.4976
20
204.6400
0
TEXT
8
2
10
663.4976
20
204.6400
40
0.0000
7
STANDARD
0
POINT
8
3
10
678.0315
20
195.8939
0
TEXT
8
2
10
678.0315
20
195.8939
40
0.0000
7
STANDARD
0
POINT
8
3
10
694.2711
20
188.7449
0
TEXT
8
2
10
694.2711
20
188.7449
40
0.0000
7
STANDARD
0
POINT
8
2
10
711.9696
20
183.0502
0
TEXT
8
2
10
711.9696
20
183.0502
40
0.0000
1
# 23
7
STANDARD
0
POINT
8
2
10
653.6411
20
28.9103
0
TEXT
8
2
10
653.6411
20
28.9103
40
0.0000
1
# 24
7
STANDARD
0
POINT
8
3
10
600.7356
20
41.2532
0
TEXT
8
2
10
600.7356
20
41.2532
40
0.0000
7
STANDARD
0
POINT
8
3
10
574.1996
20
46.6445
0
TEXT
8
2
10
574.1996
20
46.6445
40
0.0000
7
STANDARD
0
POINT
8
3
10
560.8394
20
49.0778
0
TEXT
8
2
10
560.8394
20
49.0778
40
0.0000
7
STANDARD
0
POINT
8
3
10
547.3903
20
51.3105
0
TEXT
8
2
10
547.3903
20
51.3105
40
0.0000
1
# 26
7
STANDARD
0
POINT
8
3
10
543.9055
20
51.6407
0
TEXT
8
2
10
543.9055
20
51.6407
40
0.0000
1
# 27
7
STANDARD
0
POINT
8
3
10
540.4205
20
51.9709
0
TEXT
8
2
10
540.4205
20
51.9709
40
0.0000
1
# 28
7
STANDARD
0
POINT
8
3
10
536.9255
20
52.2275
0
TEXT
8
2
10
536.9255
20
52.2275
40
0.0000
1
# 29
7
STANDARD
0
POINT
8
4
10
533.4304
20
52.4815
30
0.7000
38
0.7000
39
0.2000
50
178.4563
0
POINT
8
1
10
533.4304
20
52.4815
0
TEXT
8
2
10
533.4304
20
52.4815
40
0.0000
1
# 30
7
STANDARD
0
POINT
8
3
10
502.0380
20
51.0877
0
TEXT
8
2
10
502.0380
20
51.0877
40
0.0000
7
STANDARD
0
POINT
8
3
10
485.8282
20
48.8923
0
TEXT
8
2
10
485.8282
20
48.8923
40
0.0000
7
STANDARD
0
POINT
8
3
10
470.3680
20
44.9337
0
TEXT
8
2
10
470.3680
20
44.9337
40
0.0000
7
STANDARD
0
POINT
8
3
10
456.4761
20
38.6385
0
TEXT
8
2
10
456.4761
20
38.6385
40
0.0000
7
STANDARD
0
POINT
8
3
10
444.9714
20
29.4333
0
TEXT
8
2
10
444.9714
20
29.4333
40
0.0000
7
STANDARD
0
POINT
8
3
10
436.6729
20
16.7449
0
TEXT
8
2
10
436.6729
20
16.7449
40
0.0000
7
STANDARD
0
POINT
8
3
10
433.9819
20
8.9153
0
TEXT
8
2
10
433.9819
20
8.9153
40
0.0000
7
STANDARD
0
POINT
8
2
10
432.3994
20
-0.0000
0
TEXT
8
2
10
432.3994
20
-0.0000
40
0.0000
1
# 38
7
STANDARD
0
POINT
8
2
10
0.0000
20
0.0203
0
TEXT
8
2
10
0.0000
20
0.0203
40
0.0000
1
# 39
7
STANDARD
0
POINT
8
3
10
0.0000
20
277.3299
0
TEXT
8
2
10
0.0000
20
277.3299
40
0.0000
1
# 40
7
STANDARD
0
POINT
8
2
10
0.0000
20
554.7004
0
TEXT
8
2
10
0.0000
20
554.7004
40
0.0000
1
# 41
7
STANDARD
0
POINT
8
2
10
432.3994
20
554.7207
0
TEXT
8
2
10
432.3994
20
554.7207
40
0.0000
1
# 42
7
STANDARD
0
POINT
8
3
10
433.9819
20
545.8056
0
TEXT
8
2
10
433.9819
20
545.8056
40
0.0000
7
STANDARD
0
POINT
8
3
10
436.6730
20
537.9763
0
TEXT
8
2
10
436.6730
20
537.9763
40
0.0000
7
STANDARD
0
POINT
8
3
10
444.9717
20
525.2885
0
TEXT
8
2
10
444.9717
20
525.2885
40
0.0000
7
STANDARD
0
POINT
8
3
10
456.4766
20
516.0837
0
TEXT
8
2
10
456.4766
20
516.0837
40
0.0000
7
STANDARD
0
POINT
8
3
10
470.3687
20
509.7888
0
TEXT
8
2
10
470.3687
20
509.7888
40
0.0000
7
STANDARD
0
POINT
8
3
10
485.8290
20
505.8306
0
TEXT
8
2
10
485.8290
20
505.8306
40
0.0000
7
STANDARD
0
POINT
8
3
10
502.0387
20
503.6356
0
TEXT
8
2
10
502.0387
20
503.6356
40
0.0000
7
STANDARD
0
POINT
8
4
10
533.4304
20
502.2418
30
0.7000
38
0.7000
39
0.2000
50
1.5439
0
POINT
8
1
10
533.4304
20
502.2418
0
TEXT
8
2
10
533.4304
20
502.2418
40
0.0000
1
# 50
7
STANDARD
0
POINT
8
3
10
536.9255
20
502.4958
0
TEXT
8
2
10
536.9255
20
502.4958
40
0.0000
1
# 51
7
STANDARD
0
POINT
8
3
10
540.4205
20
502.7498
0
TEXT
8
2
10
540.4205
20
502.7498
40
0.0000
1
# 52
7
STANDARD
0
POINT
8
3
10
543.9055
20
503.0800
0
TEXT
8
2
10
543.9055
20
503.0800
40
0.0000
1
# 53
7
STANDARD
0
POINT
8
3
10
547.3903
20
503.4102
0
TEXT
8
2
10
547.3903
20
503.4102
40
0.0000
1
# 54
7
STANDARD
0
POINT
8
3
10
560.8394
20
505.6430
0
TEXT
8
2
10
560.8394
20
505.6430
40
0.0000
7
STANDARD
0
POINT
8
3
10
574.1996
20
508.0762
0
TEXT
8
2
10
574.1996
20
508.0762
40
0.0000
7
STANDARD
0
POINT
8
3
10
600.7356
20
513.4675
0
TEXT
8
2
10
600.7356
20
513.4675
40
0.0000
7
STANDARD
0
POINT
8
2
10
653.6411
20
525.8105
0
TEXT
8
2
10
653.6411
20
525.8105
40
0.0000
1
# 56
7
STANDARD
0
POINT
8
2
10
711.9696
20
371.6706
0
TEXT
8
2
10
711.9696
20
371.6706
40
0.0000
1
# 7
7
STANDARD
0
LINE
8
7
10
118.6616
20
277.3604
11
593.3080
21
277.3604
0
LINE
8
5
10
118.6616
20
277.3604
11
593.3080
21
277.3604
0
ENDBLK
0
BLOCK
8
1
2
SS CL C SLV_M
70
64
10
0.0000
20
0.0000
0
TEXT
8
1
10
0.0000
20
0.0000
40
0.0000
1
PIECE NAME: SS CL C SLV
7
STANDARD
0
TEXT
8
1
10
0.0000
20
0.0000
40
0.0000
1
SIZE: M
7
STANDARD
0
TEXT
8
1
10
0.0000
20
0.0000
40
0.0000
1
ANNOTATION: AX2 710281385C
7
STANDARD
0
TEXT
8
1
10
0.0000
20
0.0000
40
0.0000
1
CATEGORY: 710281385C ANSL
7
STANDARD
0
TEXT
8
1
10
0.0000
20
0.0000
40
0.0000
1
QUANTITY: 1
7
STANDARD
0
POLYLINE
8
1
66
1
70
1
0
VERTEX
8
1
10
146.2608
20
95.1103
0
VERTEX
8
1
10
145.7122
20
94.6099
0
VERTEX
8
1
10
143.0858
20
92.3569
0
VERTEX
8
1
10
140.4620
20
90.1014
0
VERTEX
8
1
10
137.1422
20
87.3608
0
VERTEX
8
1
10
106.2860
20
63.9727
0
VERTEX
8
1
10
91.2742
20
51.8287
0
VERTEX
8
1
10
76.9620
20
38.7909
0
VERTEX
8
1
10
63.1883
20
20.1807
0
VERTEX
8
1
10
51.8008
20
-0.0000
0
VERTEX
8
1
10
39.4424
20
7.3066
0
VERTEX
8
1
10
26.8478
20
14.1961
0
VERTEX
8
1
10
13.8216
20
19.8981
0
VERTEX
8
1
10
7.0032
20
21.9121
0
VERTEX
8
1
10
0.0000
20
22.6593
0
VERTEX
8
1
10
0.0000
20
379.0213
0
VERTEX
8
1
10
7.0032
20
379.7690
0
VERTEX
8
1
10
13.8217
20
381.7838
0
VERTEX
8
1
10
26.8478
20
387.4872
0
VERTEX
8
1
10
51.8008
20
401.6807
0
VERTEX
8
1
10
57.2414
20
391.0344
0
VERTEX
8
1
10
63.1645
20
381.1764
0
VERTEX
8
1
10
76.9620
20
362.1304
0
VERTEX
8
1
10
96.1517
20
344.7821
0
VERTEX
8
1
10
114.1628
20
331.6808
0
VERTEX
8
1
10
139.8321
20
312.5623
0
VERTEX
8
1
10
162.2115
20
290.8575
0
VERTEX
8
1
10
182.1322
20
267.4742
0
VERTEX
8
1
10
190.3606
20
254.7859
0
VERTEX
8
1
10
197.0025
20
241.2375
0
VERTEX
8
1
10
201.7340
20
226.6819
0
VERTEX
8
1
10
204.2312
20
210.9724
0
VERTEX
8
1
10
204.3141
20
206.3422
0
VERTEX
8
1
10
203.9620
20
200.8403
0
VERTEX
8
1
10
202.4308
20
190.0112
0
VERTEX
8
1
10
200.7332
20
179.2467
0
VERTEX
8
1
10
198.3904
20
168.6346
0
VERTEX
8
1
10
194.9236
20
158.2627
0
VERTEX
8
1
10
185.7091
20
140.6483
0
VERTEX
8
1
10
173.9621
20
124.6674
0
VERTEX
8
1
10
160.6680
20
109.8212
0
VERTEX
8
1
10
146.8120
20
95.6107
0
VERTEX
8
1
10
146.2608
20
95.1103
0
SEQEND
8
1
0
POINT
8
2
10
146.2608
20
95.1103
0
TEXT
8
2
10
146.2608
20
95.1103
40
0.0000
1
# 64
7
STANDARD
0
POINT
8
2
10
145.7122
20
94.6099
0
TEXT
8
2
10
145.7122
20
94.6099
40
0.0000
1
# 65
7
STANDARD
0
POINT
8
3
10
143.0858
20
92.3569
0
TEXT
8
2
10
143.0858
20
92.3569
40
0.0000
1
# 66
7
STANDARD
0
POINT
8
3
10
140.4620
20
90.1014
0
TEXT
8
2
10
140.4620
20
90.1014
40
0.0000
1
# 67
7
STANDARD
0
POINT
8
4
10
137.1422
20
87.3608
30
0.7000
38
0.7000
39
0.2000
50
-51.4430
0
POINT
8
3
10
137.1422
20
87.3608
0
TEXT
8
2
10
137.1422
20
87.3608
40
0.0000
1
# 68
7
STANDARD
0
POINT
8
3
10
106.2860
20
63.9727
0
TEXT
8
2
10
106.2860
20
63.9727
40
0.0000
7
STANDARD
0
POINT
8
3
10
91.2742
20
51.8287
0
TEXT
8
2
10
91.2742
20
51.8287
40
0.0000
7
STANDARD
0
POINT
8
1
10
76.9620
20
38.7909
0
TEXT
8
2
10
76.9620
20
38.7909
40
0.0000
1
# 72
7
STANDARD
0
POINT
8
3
10
63.1883
20
20.1807
0
TEXT
8
2
10
63.1883
20
20.1807
40
0.0000
7
STANDARD
0
POINT
8
2
10
51.8008
20
-0.0000
0
TEXT
8
2
10
51.8008
20
-0.0000
40
0.0000
1
# 74
7
STANDARD
0
POINT
8
3
10
39.4424
20
7.3066
0
TEXT
8
2
10
39.4424
20
7.3066
40
0.0000
7
STANDARD
0
POINT
8
3
10
26.8478
20
14.1961
0
TEXT
8
2
10
26.8478
20
14.1961
40
0.0000
1
# 79
7
STANDARD
0
POINT
8
3
10
13.8216
20
19.8981
0
TEXT
8
2
10
13.8216
20
19.8981
40
0.0000
7
STANDARD
0
POINT
8
3
10
7.0032
20
21.9121
0
TEXT
8
2
10
7.0032
20
21.9121
40
0.0000
7
STANDARD
0
POINT
8
2
10
0.0000
20
22.6593
0
TEXT
8
2
10
0.0000
20
22.6593
40
0.0000
1
# 84
7
STANDARD
0
POINT
8
2
10
0.0000
20
379.0213
0
TEXT
8
2
10
0.0000
20
379.0213
40
0.0000
1
# 85
7
STANDARD
0
POINT
8
3
10
7.0032
20
379.7690
0
TEXT
8
2
10
7.0032
20
379.7690
40
0.0000
7
STANDARD
0
POINT
8
3
10
13.8217
20
381.7838
0
TEXT
8
2
10
13.8217
20
381.7838
40
0.0000
7
STANDARD
0
POINT
8
3
10
26.8478
20
387.4872
0
TEXT
8
2
10
26.8478
20
387.4872
40
0.0000
1
# 90
7
STANDARD
0
POINT
8
2
10
51.8008
20
401.6807
0
TEXT
8
2
10
51.8008
20
401.6807
40
0.0000
1
# 95
7
STANDARD
0
POINT
8
3
10
57.2414
20
391.0344
0
TEXT
8
2
10
57.2414
20
391.0344
40
0.0000
7
STANDARD
0
POINT
8
3
10
63.1645
20
381.1764
0
TEXT
8
2
10
63.1645
20
381.1764
40
0.0000
7
STANDARD
0
POINT
8
1
10
76.9620
20
362.1304
0
TEXT
8
2
10
76.9620
20
362.1304
40
0.0000
1
# 97
7
STANDARD
0
POINT
8
3
10
96.1517
20
344.7821
0
TEXT
8
2
10
96.1517
20
344.7821
40
0.0000
1
# 99
7
STANDARD
0
POINT
8
3
10
114.1628
20
331.6808
0
TEXT
8
2
10
114.1628
20
331.6808
40
0.0000
1
# 100
7
STANDARD
0
POINT
8
1
10
139.8321
20
312.5623
0
TEXT
8
2
10
139.8321
20
312.5623
40
0.0000
1
# 101
7
STANDARD
0
POINT
8
3
10
162.2115
20
290.8575
0
TEXT
8
2
10
162.2115
20
290.8575
40
0.0000
7
STANDARD
0
POINT
8
3
10
182.1322
20
267.4742
0
TEXT
8
2
10
182.1322
20
267.4742
40
0.0000
7
STANDARD
0
POINT
8
3
10
190.3606
20
254.7859
0
TEXT
8
2
10
190.3606
20
254.7859
40
0.0000
7
STANDARD
0
POINT
8
3
10
197.0025
20
241.2375
0
TEXT
8
2
10
197.0025
20
241.2375
40
0.0000
7
STANDARD
0
POINT
8
3
10
201.7340
20
226.6819
0
TEXT
8
2
10
201.7340
20
226.6819
40
0.0000
7
STANDARD
0
POINT
8
4
10
204.2312
20
210.9724
30
0.7000
38
0.7000
39
0.2000
50
2.8513
0
POINT
8
3
10
204.2312
20
210.9724
0
TEXT
8
2
10
204.2312
20
210.9724
40
0.0000
1
# 57
7
STANDARD
0
POINT
8
3
10
204.3141
20
206.3422
0
TEXT
8
2
10
204.3141
20
206.3422
40
0.0000
7
STANDARD
0
POINT
8
3
10
203.9620
20
200.8403
0
TEXT
8
2
10
203.9620
20
200.8403
40
0.0000
1
# 59
7
STANDARD
0
POINT
8
3
10
202.4308
20
190.0112
0
TEXT
8
2
10
202.4308
20
190.0112
40
0.0000
7
STANDARD
0
POINT
8
3
10
200.7332
20
179.2467
0
TEXT
8
2
10
200.7332
20
179.2467
40
0.0000
7
STANDARD
0
POINT
8
3
10
198.3904
20
168.6346
0
TEXT
8
2
10
198.3904
20
168.6346
40
0.0000
7
STANDARD
0
POINT
8
3
10
194.9236
20
158.2627
0
TEXT
8
2
10
194.9236
20
158.2627
40
0.0000
7
STANDARD
0
POINT
8
3
10
185.7091
20
140.6483
0
TEXT
8
2
10
185.7091
20
140.6483
40
0.0000
7
STANDARD
0
POINT
8
3
10
173.9621
20
124.6674
0
TEXT
8
2
10
173.9621
20
124.6674
40
0.0000
7
STANDARD
0
POINT
8
3
10
160.6680
20
109.8212
0
TEXT
8
2
10
160.6680
20
109.8212
40
0.0000
7
STANDARD
0
POINT
8
4
10
146.8120
20
95.6107
30
0.7000
38
0.7000
39
0.2000
50
-46.1249
0
POINT
8
3
10
146.8120
20
95.6107
0
TEXT
8
2
10
146.8120
20
95.6107
40
0.0000
1
# 63
7
STANDARD
0
POINT
8
2
10
146.2608
20
95.1103
0
TEXT
8
2
10
146.2608
20
95.1103
40
0.0000
1
# 64
7
STANDARD
0
POLYLINE
8
8
66
1
70
0
0
VERTEX
8
8
10
25.4000
20
14.8565
0
VERTEX
8
8
10
25.4000
20
386.8242
0
SEQEND
8
1
0
POINT
8
2
10
25.4000
20
14.8565
0
TEXT
8
2
10
25.4000
20
14.8565
40
0.0000
7
STANDARD
0
POINT
8
1
10
25.4000
20
386.8242
0
TEXT
8
2
10
25.4000
20
386.8242
40
0.0000
7
STANDARD
0
LINE
8
7
10
34.0538
20
200.8403
11
170.2691
21
200.8403
0
LINE
8
5
10
34.0538
20
200.8403
11
170.2691
21
200.8403
0
ENDBLK
0
BLOCK
8
1
2
SS CL C BK_M
70
64
10
0.0000
20
0.0000
0
TEXT
8
1
10
0.0000
20
0.0000
40
0.0000
1
PIECE NAME: SS CL C BK
7
STANDARD
0
TEXT
8
1
10
0.0000
20
0.0000
40
0.0000
1
SIZE: M
7
STANDARD
0
TEXT
8
1
10
0.0000
20
0.0000
40
0.0000
1
ANNOTATION: AX1 710281385C
7
STANDARD
0
TEXT
8
1
10
0.0000
20
0.0000
40
0.0000
1
CATEGORY: 710281385C ANBK
7
STANDARD
0
TEXT
8
1
10
0.0000
20
0.0000
40
0.0000
1
QUANTITY: 1
7
STANDARD
0
POLYLINE
8
1
66
1
70
1
0
VERTEX
8
1
10
737.6312
20
379.0213
0
VERTEX
8
1
10
731.9416
20
375.2215
0
VERTEX
8
1
10
726.7803
20
371.5995
0
VERTEX
8
1
10
722.8387
20
366.9351
0
VERTEX
8
1
10
719.2899
20
361.9500
0
VERTEX
8
1
10
714.8361
20
351.5744
0
VERTEX
8
1
10
711.6136
20
341.1920
0
VERTEX
8
1
10
708.0833
20
320.2356
0
VERTEX
8
1
10
707.1414
20
298.7397
0
VERTEX
8
1
10
707.2300
20
276.3596
0
VERTEX
8
1
10
706.9809
20
251.1154
0
VERTEX
8
1
10
708.3390
20
226.3344
0
VERTEX
8
1
10
710.4711
20
214.3487
0
VERTEX
8
1
10
714.0252
20
202.7561
0
VERTEX
8
1
10
719.3414
20
191.6490
0
VERTEX
8
1
10
726.7600
20
181.1198
0
VERTEX
8
1
10
728.3602
20
179.9412
0
VERTEX
8
1
10
737.6110
20
173.6801
0
VERTEX
8
1
10
679.3103
20
18.8697
0
VERTEX
8
1
10
614.5225
20
34.3144
0
VERTEX
8
1
10
582.1028
20
40.4166
0
VERTEX
8
1
10
548.9397
20
45.2120
0
VERTEX
8
1
10
544.3754
20
45.6413
0
VERTEX
8
1
10
540.3329
20
45.9854
0
VERTEX
8
1
10
536.2905
20
46.3296
0
VERTEX
8
1
10
520.2659
20
46.2794
0
VERTEX
8
1
10
504.5053
20
45.4375
0
VERTEX
8
1
10
489.2923
20
43.3795
0
VERTEX
8
1
10
474.9106
20
39.6812
0
VERTEX
8
1
10
461.6439
20
33.9184
0
VERTEX
8
1
10
449.7759
20
25.6667
0
VERTEX
8
1
10
439.5902
20
14.5020
0
VERTEX
8
1
10
435.2170
20
7.6947
0
VERTEX
8
1
10
431.3707
20
-0.0000
0
VERTEX
8
1
10
0.0000
20
0.0203
0
VERTEX
8
1
10
0.0203
20
276.3698
0
VERTEX
8
1
10
0.0610
20
552.8209
0
VERTEX
8
1
10
431.4317
20
552.7599
0
VERTEX
8
1
10
435.2731
20
545.0648
0
VERTEX
8
1
10
439.6424
20
538.2573
0
VERTEX
8
1
10
449.8224
20
527.0925
0
VERTEX
8
1
10
461.6873
20
518.8407
0
VERTEX
8
1
10
474.9521
20
513.0771
0
VERTEX
8
1
10
489.3326
20
509.3771
0
VERTEX
8
1
10
504.5439
20
507.3157
0
VERTEX
8
1
10
520.3016
20
506.4682
0
VERTEX
8
1
10
536.3210
20
506.4099
0
VERTEX
8
1
10
544.4160
20
507.1008
0
VERTEX
8
1
10
548.9803
20
507.5301
0
VERTEX
8
1
10
582.1420
20
512.3212
0
VERTEX
8
1
10
614.5621
20
518.4189
0
VERTEX
8
1
10
679.3509
20
533.8496
0
VERTEX
8
1
10
737.6312
20
379.0213
0
SEQEND
8
1
0
POINT
8
2
10
737.6312
20
379.0213
0
TEXT
8
2
10
737.6312
20
379.0213
40
0.0000
7
STANDARD
0
POINT
8
3
10
731.9416
20
375.2215
0
TEXT
8
2
10
731.9416
20
375.2215
40
0.0000
1
# 106
7
STANDARD
0
POINT
8
1
10
726.7803
20
371.5995
0
TEXT
8
2
10
726.7803
20
371.5995
40
0.0000
1
# 107
7
STANDARD
0
POINT
8
3
10
722.8387
20
366.9351
0
TEXT
8
2
10
722.8387
20
366.9351
40
0.0000
7
STANDARD
0
POINT
8
4
10
719.2899
20
361.9500
30
0.7000
38
0.7000
39
0.2000
50
-120.3958
0
POINT
8
2
10
719.2899
20
361.9500
0
TEXT
8
2
10
719.2899
20
361.9500
40
0.0000
1
# 109
7
STANDARD
0
POINT
8
3
10
714.8361
20
351.5744
0
TEXT
8
2
10
714.8361
20
351.5744
40
0.0000
7
STANDARD
0
POINT
8
3
10
711.6136
20
341.1920
0
TEXT
8
2
10
711.6136
20
341.1920
40
0.0000
7
STANDARD
0
POINT
8
3
10
708.0833
20
320.2356
0
TEXT
8
2
10
708.0833
20
320.2356
40
0.0000
7
STANDARD
0
POINT
8
3
10
707.1414
20
298.7397
0
TEXT
8
2
10
707.1414
20
298.7397
40
0.0000
7
STANDARD
0
POINT
8
3
10
707.2300
20
276.3596
0
TEXT
8
2
10
707.2300
20
276.3596
40
0.0000
1
# 113
7
STANDARD
0
POINT
8
3
10
706.9809
20
251.1154
0
TEXT
8
2
10
706.9809
20
251.1154
40
0.0000
7
STANDARD
0
POINT
8
3
10
708.3390
20
226.3344
0
TEXT
8
2
10
708.3390
20
226.3344
40
0.0000
7
STANDARD
0
POINT
8
3
10
710.4711
20
214.3487
0
TEXT
8
2
10
710.4711
20
214.3487
40
0.0000
7
STANDARD
0
POINT
8
3
10
714.0252
20
202.7561
0
TEXT
8
2
10
714.0252
20
202.7561
40
0.0000
7
STANDARD
0
POINT
8
3
10
719.3414
20
191.6490
0
TEXT
8
2
10
719.3414
20
191.6490
40
0.0000
7
STANDARD
0
POINT
8
1
10
726.7600
20
181.1198
0
TEXT
8
2
10
726.7600
20
181.1198
40
0.0000
1
# 119
7
STANDARD
0
POINT
8
3
10
728.3602
20
179.9412
0
TEXT
8
2
10
728.3602
20
179.9412
40
0.0000
1
# 120
7
STANDARD
0
POINT
8
2
10
737.6110
20
173.6801
0
TEXT
8
2
10
737.6110
20
173.6801
40
0.0000
1
# 121
7
STANDARD
0
POINT
8
2
10
679.3103
20
18.8697
0
TEXT
8
2
10
679.3103
20
18.8697
40
0.0000
1
# 122
7
STANDARD
0
POINT
8
3
10
614.5225
20
34.3144
0
TEXT
8
2
10
614.5225
20
34.3144
40
0.0000
7
STANDARD
0
POINT
8
3
10
582.1028
20
40.4166
0
TEXT
8
2
10
582.1028
20
40.4166
40
0.0000
7
STANDARD
0
POINT
8
3
10
548.9397
20
45.2120
0
TEXT
8
2
10
548.9397
20
45.2120
40
0.0000
1
# 124
7
STANDARD
0
POINT
8
3
10
544.3754
20
45.6413
0
TEXT
8
2
10
544.3754
20
45.6413
40
0.0000
1
# 125
7
STANDARD
0
POINT
8
3
10
540.3329
20
45.9854
0
TEXT
8
2
10
540.3329
20
45.9854
40
0.0000
7
STANDARD
0
POINT
8
4
10
536.2905
20
46.3296
30
0.7000
38
0.7000
39
0.2000
50
177.2025
0
POINT
8
3
10
536.2905
20
46.3296
0
TEXT
8
2
10
536.2905
20
46.3296
40
0.0000
1
# 126
7
STANDARD
0
POINT
8
3
10
520.2659
20
46.2794
0
TEXT
8
2
10
520.2659
20
46.2794
40
0.0000
7
STANDARD
0
POINT
8
3
10
504.5053
20
45.4375
0
TEXT
8
2
10
504.5053
20
45.4375
40
0.0000
7
STANDARD
0
POINT
8
3
10
489.2923
20
43.3795
0
TEXT
8
2
10
489.2923
20
43.3795
40
0.0000
7
STANDARD
0
POINT
8
3
10
474.9106
20
39.6812
0
TEXT
8
2
10
474.9106
20
39.6812
40
0.0000
7
STANDARD
0
POINT
8
3
10
461.6439
20
33.9184
0
TEXT
8
2
10
461.6439
20
33.9184
40
0.0000
7
STANDARD
0
POINT
8
3
10
449.7759
20
25.6667
0
TEXT
8
2
10
449.7759
20
25.6667
40
0.0000
7
STANDARD
0
POINT
8
3
10
439.5902
20
14.5020
0
TEXT
8
2
10
439.5902
20
14.5020
40
0.0000
7
STANDARD
0
POINT
8
3
10
435.2170
20
7.6947
0
TEXT
8
2
10
435.2170
20
7.6947
40
0.0000
7
STANDARD
0
POINT
8
2
10
431.3707
20
-0.0000
0
TEXT
8
2
10
431.3707
20
-0.0000
40
0.0000
1
# 132
7
STANDARD
0
POINT
8
2
10
0.0000
20
0.0203
0
TEXT
8
2
10
0.0000
20
0.0203
40
0.0000
1
# 133
7
STANDARD
0
POINT
8
3
10
0.0203
20
276.3698
0
TEXT
8
2
10
0.0203
20
276.3698
40
0.0000
1
# 134
7
STANDARD
0
POINT
8
2
10
0.0610
20
552.8209
0
TEXT
8
2
10
0.0610
20
552.8209
40
0.0000
1
# 135
7
STANDARD
0
POINT
8
2
10
431.4317
20
552.7599
0
TEXT
8
2
10
431.4317
20
552.7599
40
0.0000
1
# 136
7
STANDARD
0
POINT
8
3
10
435.2731
20
545.0648
0
TEXT
8
2
10
435.2731
20
545.0648
40
0.0000
7
STANDARD
0
POINT
8
3
10
439.6424
20
538.2573
0
TEXT
8
2
10
439.6424
20
538.2573
40
0.0000
7
STANDARD
0
POINT
8
3
10
449.8224
20
527.0925
0
TEXT
8
2
10
449.8224
20
527.0925
40
0.0000
7
STANDARD
0
POINT
8
3
10
461.6873
20
518.8407
0
TEXT
8
2
10
461.6873
20
518.8407
40
0.0000
7
STANDARD
0
POINT
8
3
10
474.9521
20
513.0771
0
TEXT
8
2
10
474.9521
20
513.0771
40
0.0000
7
STANDARD
0
POINT
8
3
10
489.3326
20
509.3771
0
TEXT
8
2
10
489.3326
20
509.3771
40
0.0000
7
STANDARD
0
POINT
8
3
10
504.5439
20
507.3157
0
TEXT
8
2
10
504.5439
20
507.3157
40
0.0000
7
STANDARD
0
POINT
8
3
10
520.3016
20
506.4682
0
TEXT
8
2
10
520.3016
20
506.4682
40
0.0000
7
STANDARD
0
POINT
8
4
10
536.3210
20
506.4099
30
0.7000
38
0.7000
39
0.2000
50
2.7865
0
POINT
8
3
10
536.3210
20
506.4099
0
TEXT
8
2
10
536.3210
20
506.4099
40
0.0000
1
# 142
7
STANDARD
0
POINT
8
3
10
544.4160
20
507.1008
0
TEXT
8
2
10
544.4160
20
507.1008
40
0.0000
1
# 143
7
STANDARD
0
POINT
8
3
10
548.9803
20
507.5301
0
TEXT
8
2
10
548.9803
20
507.5301
40
0.0000
1
# 144
7
STANDARD
0
POINT
8
3
10
582.1420
20
512.3212
0
TEXT
8
2
10
582.1420
20
512.3212
40
0.0000
7
STANDARD
0
POINT
8
3
10
614.5621
20
518.4189
0
TEXT
8
2
10
614.5621
20
518.4189
40
0.0000
7
STANDARD
0
POINT
8
2
10
679.3509
20
533.8496
0
TEXT
8
2
10
679.3509
20
533.8496
40
0.0000
1
# 146
7
STANDARD
0
POINT
8
2
10
737.6312
20
379.0213
0
TEXT
8
2
10
737.6312
20
379.0213
40
0.0000
1
# 105
7
STANDARD
0
LINE
8
7
10
122.9385
20
276.4104
11
614.6927
21
276.4104
0
LINE
8
5
10
122.9385
20
276.4104
11
614.6927
21
276.4104
0
ENDBLK
0
ENDSEC
0
SECTION
2
ENTITIES
0
TEXT
8
1
10
0.0000
20
0.0000
40
0.0000
1
STYLE NAME: SS CL CREW TEE
7
STANDARD
0
TEXT
8
1
10
0.0000
20
0.0000
40
0.0000
1
CREATION DATE: 04/21/2020
7
STANDARD
0
TEXT
8
1
10
0.0000
20
0.0000
40
0.0000
1
CREATION TIME: 15:33:51
7
STANDARD
0
TEXT
8
1
10
0.0000
20
0.0000
40
0.0000
1
VERSION: 3.0.0
7
STANDARD
0
TEXT
8
1
10
0.0000
20
0.0000
40
0.0000
1
AUTHOR: Browzwear Solutions Pte Ltd
7
STANDARD
0
TEXT
8
1
10
0.0000
20
0.0000
40
0.0000
1
SAMPLE SIZE: M
7
STANDARD
0
TEXT
8
1
10
0.0000
20
0.0000
40
0.0000
1
GRADE RULE TABLE: T Shirt_SS CL CREW TEE
7
STANDARD
0
TEXT
8
1
10
0.0000
20
0.0000
40
0.0000
1
UNITS: METRIC
7
STANDARD
0
TEXT
8
1
10
0.0000
20
0.0000
40
0.0000
1
TOLERANCE: 0.000000
7
STANDARD
0
INSERT
8
1
2
SS CL C NB_M
10
57.6209
20
114.6739
0
INSERT
8
1
2
SS CL C FR_M
10
91.8528
20
104.9257
0
INSERT
8
1
2
SS CL C SLV_M
10
26.4069
20
121.7177
0
INSERT
8
1
2
SS CL C BK_M
10
92.7959
20
199.4066
0
INSERT
8
1
2
SS CL C SLV_1_M
10
102.6593
20
116.9170
0
ENDSEC
0
EOF
