  0
SECTION
  2
HEADER
  0
ENDSEC
  0
SECTION
  2
BLOCKS
  0
BLOCK
  8
0
  2
LDM000222D-VS-WB_22
 70
64
 10
0.0000
 20
0.0000
  0
TEXT
  8
1
 10
-52.6423
 20
120.0255
 40
0.250
 50
0.0000
  1
Piece Name: LDM000222D-VS-WB
  7
STANDARD
  0
TEXT
  8
1
 10
-52.6423
 20
120.1655
 40
0.250
 50
0.0000
  1
SIZE: 22
  7
STANDARD
  0
POLYLINE
  8
1
 66
1
 70
0
  0
VERTEX
  8
1
 10
-53.3923
 20
113.9005
  0
VERTEX
  8
1
 10
-53.3923
 20
113.9005
  0
VERTEX
  8
1
 10
-53.3923
 20
126.1505
  0
VERTEX
  8
1
 10
-53.3923
 20
126.1505
  0
VERTEX
  8
1
 10
-51.8923
 20
126.1505
  0
VERTEX
  8
1
 10
-51.8923
 20
126.1505
  0
VERTEX
  8
1
 10
-51.8923
 20
113.9005
  0
VERTEX
  8
1
 10
-53.3923
 20
113.9005
  0
SEQEND
  8
1
  0
LINE
  8
7
 10
-52.2016
 20
122.5457
 11
-51.4516
 21
122.5457
  0
LINE
  8
5
 10
-52.2016
 20
122.5457
 11
-51.4516
 21
122.5457
  0
LINE
  8
8
 10
-52.6866
 20
124.6846
 11
-52.6866
 21
120.6003
  0
LINE
  8
6
 10
-51.8923
 20
113.9005
 11
-53.3923
 21
113.9005
  0
ENDBLK
  0
BLOCK
  8
0
  2
LDM000222D-VS-WB_23
 70
64
 10
0.0000
 20
0.0000
  0
TEXT
  8
1
 10
-52.6423
 20
120.0255
 40
0.250
 50
0.0000
  1
Piece Name: LDM000222D-VS-WB
  7
STANDARD
  0
TEXT
  8
1
 10
-52.6423
 20
120.1655
 40
0.250
 50
0.0000
  1
SIZE: 23
  7
STANDARD
  0
POLYLINE
  8
1
 66
1
 70
0
  0
VERTEX
  8
1
 10
-53.3923
 20
113.6505
  0
VERTEX
  8
1
 10
-53.3923
 20
113.6505
  0
VERTEX
  8
1
 10
-53.3923
 20
126.4005
  0
VERTEX
  8
1
 10
-53.3923
 20
126.4005
  0
VERTEX
  8
1
 10
-51.8923
 20
126.4005
  0
VERTEX
  8
1
 10
-51.8923
 20
126.4005
  0
VERTEX
  8
1
 10
-51.8923
 20
113.6505
  0
VERTEX
  8
1
 10
-53.3923
 20
113.6505
  0
SEQEND
  8
1
  0
LINE
  8
7
 10
-52.2016
 20
122.2957
 11
-51.4516
 21
122.2957
  0
LINE
  8
5
 10
-52.2016
 20
122.2957
 11
-51.4516
 21
122.2957
  0
LINE
  8
8
 10
-52.6866
 20
124.4346
 11
-52.6866
 21
120.3503
  0
LINE
  8
6
 10
-51.8923
 20
113.6505
 11
-53.3923
 21
113.6505
  0
ENDBLK
  0
BLOCK
  8
0
  2
LDM000222D-VS-WB_24
 70
64
 10
0.0000
 20
0.0000
  0
TEXT
  8
1
 10
-52.6423
 20
120.0255
 40
0.250
 50
0.0000
  1
Piece Name: LDM000222D-VS-WB
  7
STANDARD
  0
TEXT
  8
1
 10
-52.6423
 20
120.1655
 40
0.250
 50
0.0000
  1
SIZE: 24
  7
STANDARD
  0
POLYLINE
  8
1
 66
1
 70
0
  0
VERTEX
  8
1
 10
-53.3923
 20
113.4005
  0
VERTEX
  8
1
 10
-53.3923
 20
113.4005
  0
VERTEX
  8
1
 10
-53.3923
 20
126.6505
  0
VERTEX
  8
1
 10
-53.3923
 20
126.6505
  0
VERTEX
  8
1
 10
-51.8923
 20
126.6505
  0
VERTEX
  8
1
 10
-51.8923
 20
126.6505
  0
VERTEX
  8
1
 10
-51.8923
 20
113.4005
  0
VERTEX
  8
1
 10
-53.3923
 20
113.4005
  0
SEQEND
  8
1
  0
LINE
  8
7
 10
-52.2016
 20
122.0457
 11
-51.4516
 21
122.0457
  0
LINE
  8
5
 10
-52.2016
 20
122.0457
 11
-51.4516
 21
122.0457
  0
LINE
  8
8
 10
-52.6866
 20
124.1846
 11
-52.6866
 21
120.1003
  0
LINE
  8
6
 10
-51.8923
 20
113.4005
 11
-53.3923
 21
113.4005
  0
ENDBLK
  0
BLOCK
  8
0
  2
LDM000222D-VS-WB_25
 70
64
 10
0.0000
 20
0.0000
  0
TEXT
  8
1
 10
-52.6423
 20
120.0255
 40
0.250
 50
0.0000
  1
Piece Name: LDM000222D-VS-WB
  7
STANDARD
  0
TEXT
  8
1
 10
-52.6423
 20
120.1655
 40
0.250
 50
0.0000
  1
SIZE: 25
  7
STANDARD
  0
POLYLINE
  8
1
 66
1
 70
0
  0
VERTEX
  8
1
 10
-53.3923
 20
113.1505
  0
VERTEX
  8
1
 10
-53.3923
 20
113.1505
  0
VERTEX
  8
1
 10
-53.3923
 20
126.9005
  0
VERTEX
  8
1
 10
-53.3923
 20
126.9005
  0
VERTEX
  8
1
 10
-51.8923
 20
126.9005
  0
VERTEX
  8
1
 10
-51.8923
 20
126.9005
  0
VERTEX
  8
1
 10
-51.8923
 20
113.1505
  0
VERTEX
  8
1
 10
-53.3923
 20
113.1505
  0
SEQEND
  8
1
  0
LINE
  8
7
 10
-52.2016
 20
121.7957
 11
-51.4516
 21
121.7957
  0
LINE
  8
5
 10
-52.2016
 20
121.7957
 11
-51.4516
 21
121.7957
  0
LINE
  8
8
 10
-52.6866
 20
123.9346
 11
-52.6866
 21
119.8503
  0
LINE
  8
6
 10
-51.8923
 20
113.1505
 11
-53.3923
 21
113.1505
  0
ENDBLK
  0
BLOCK
  8
0
  2
LDM000222D-VS-WB_26
 70
64
 10
0.0000
 20
0.0000
  0
TEXT
  8
1
 10
-52.6423
 20
120.0255
 40
0.250
 50
0.0000
  1
Piece Name: LDM000222D-VS-WB
  7
STANDARD
  0
TEXT
  8
1
 10
-52.6423
 20
120.1655
 40
0.250
 50
0.0000
  1
SIZE: 26
  7
STANDARD
  0
POLYLINE
  8
1
 66
1
 70
0
  0
VERTEX
  8
1
 10
-53.3923
 20
112.9005
  0
VERTEX
  8
1
 10
-53.3923
 20
112.9005
  0
VERTEX
  8
1
 10
-53.3923
 20
127.1505
  0
VERTEX
  8
1
 10
-53.3923
 20
127.1505
  0
VERTEX
  8
1
 10
-51.8923
 20
127.1505
  0
VERTEX
  8
1
 10
-51.8923
 20
127.1505
  0
VERTEX
  8
1
 10
-51.8923
 20
112.9005
  0
VERTEX
  8
1
 10
-53.3923
 20
112.9005
  0
SEQEND
  8
1
  0
LINE
  8
7
 10
-52.2016
 20
121.5457
 11
-51.4516
 21
121.5457
  0
LINE
  8
5
 10
-52.2016
 20
121.5457
 11
-51.4516
 21
121.5457
  0
LINE
  8
8
 10
-52.6866
 20
123.6846
 11
-52.6866
 21
119.6003
  0
LINE
  8
6
 10
-51.8923
 20
112.9005
 11
-53.3923
 21
112.9005
  0
ENDBLK
  0
BLOCK
  8
0
  2
LDM000222D-VS-WB_27
 70
64
 10
0.0000
 20
0.0000
  0
TEXT
  8
1
 10
-52.6423
 20
120.0255
 40
0.250
 50
0.0000
  1
Piece Name: LDM000222D-VS-WB
  7
STANDARD
  0
TEXT
  8
1
 10
-52.6423
 20
120.1655
 40
0.250
 50
0.0000
  1
SIZE: 27
  7
STANDARD
  0
POLYLINE
  8
1
 66
1
 70
0
  0
VERTEX
  8
1
 10
-53.3923
 20
112.6505
  0
VERTEX
  8
1
 10
-53.3923
 20
112.6505
  0
VERTEX
  8
1
 10
-53.3923
 20
127.4005
  0
VERTEX
  8
1
 10
-53.3923
 20
127.4005
  0
VERTEX
  8
1
 10
-51.8923
 20
127.4005
  0
VERTEX
  8
1
 10
-51.8923
 20
127.4005
  0
VERTEX
  8
1
 10
-51.8923
 20
112.6505
  0
VERTEX
  8
1
 10
-53.3923
 20
112.6505
  0
SEQEND
  8
1
  0
LINE
  8
7
 10
-52.2016
 20
121.2957
 11
-51.4516
 21
121.2957
  0
LINE
  8
5
 10
-52.2016
 20
121.2957
 11
-51.4516
 21
121.2957
  0
LINE
  8
8
 10
-52.6866
 20
123.4346
 11
-52.6866
 21
119.3503
  0
LINE
  8
6
 10
-51.8923
 20
112.6505
 11
-53.3923
 21
112.6505
  0
ENDBLK
  0
BLOCK
  8
0
  2
LDM000222D-VS-WB_28
 70
64
 10
0.0000
 20
0.0000
  0
TEXT
  8
1
 10
-52.6423
 20
120.0255
 40
0.250
 50
0.0000
  1
Piece Name: LDM000222D-VS-WB
  7
STANDARD
  0
TEXT
  8
1
 10
-52.6423
 20
120.1655
 40
0.250
 50
0.0000
  1
SIZE: 28
  7
STANDARD
  0
POLYLINE
  8
1
 66
1
 70
0
  0
VERTEX
  8
1
 10
-53.3923
 20
112.4005
  0
VERTEX
  8
1
 10
-53.3923
 20
112.4005
  0
VERTEX
  8
1
 10
-53.3923
 20
127.6505
  0
VERTEX
  8
1
 10
-53.3923
 20
127.6505
  0
VERTEX
  8
1
 10
-51.8923
 20
127.6505
  0
VERTEX
  8
1
 10
-51.8923
 20
127.6505
  0
VERTEX
  8
1
 10
-51.8923
 20
112.4005
  0
VERTEX
  8
1
 10
-53.3923
 20
112.4005
  0
SEQEND
  8
1
  0
LINE
  8
7
 10
-52.2016
 20
121.0457
 11
-51.4516
 21
121.0457
  0
LINE
  8
5
 10
-52.2016
 20
121.0457
 11
-51.4516
 21
121.0457
  0
LINE
  8
8
 10
-52.6866
 20
123.1846
 11
-52.6866
 21
119.1003
  0
LINE
  8
6
 10
-51.8923
 20
112.4005
 11
-53.3923
 21
112.4005
  0
ENDBLK
  0
BLOCK
  8
0
  2
LDM000222D-VS-WB_29
 70
64
 10
0.0000
 20
0.0000
  0
TEXT
  8
1
 10
-52.6423
 20
120.0255
 40
0.250
 50
0.0000
  1
Piece Name: LDM000222D-VS-WB
  7
STANDARD
  0
TEXT
  8
1
 10
-52.6423
 20
120.1655
 40
0.250
 50
0.0000
  1
SIZE: 29
  7
STANDARD
  0
POLYLINE
  8
1
 66
1
 70
0
  0
VERTEX
  8
1
 10
-53.3923
 20
112.1505
  0
VERTEX
  8
1
 10
-53.3923
 20
112.1505
  0
VERTEX
  8
1
 10
-53.3923
 20
127.9005
  0
VERTEX
  8
1
 10
-53.3923
 20
127.9005
  0
VERTEX
  8
1
 10
-51.8923
 20
127.9005
  0
VERTEX
  8
1
 10
-51.8923
 20
127.9005
  0
VERTEX
  8
1
 10
-51.8923
 20
112.1505
  0
VERTEX
  8
1
 10
-53.3923
 20
112.1505
  0
SEQEND
  8
1
  0
LINE
  8
7
 10
-52.2016
 20
120.7957
 11
-51.4516
 21
120.7957
  0
LINE
  8
5
 10
-52.2016
 20
120.7957
 11
-51.4516
 21
120.7957
  0
LINE
  8
8
 10
-52.6866
 20
122.9346
 11
-52.6866
 21
118.8503
  0
LINE
  8
6
 10
-51.8923
 20
112.1505
 11
-53.3923
 21
112.1505
  0
ENDBLK
  0
BLOCK
  8
0
  2
LDM000222D-VS-WB_30
 70
64
 10
0.0000
 20
0.0000
  0
TEXT
  8
1
 10
-52.6423
 20
120.0255
 40
0.250
 50
0.0000
  1
Piece Name: LDM000222D-VS-WB
  7
STANDARD
  0
TEXT
  8
1
 10
-52.6423
 20
120.1655
 40
0.250
 50
0.0000
  1
SIZE: 30
  7
STANDARD
  0
POLYLINE
  8
1
 66
1
 70
0
  0
VERTEX
  8
1
 10
-53.3923
 20
111.9005
  0
VERTEX
  8
1
 10
-53.3923
 20
111.9005
  0
VERTEX
  8
1
 10
-53.3923
 20
128.1505
  0
VERTEX
  8
1
 10
-53.3923
 20
128.1505
  0
VERTEX
  8
1
 10
-51.8923
 20
128.1505
  0
VERTEX
  8
1
 10
-51.8923
 20
128.1505
  0
VERTEX
  8
1
 10
-51.8923
 20
111.9005
  0
VERTEX
  8
1
 10
-53.3923
 20
111.9005
  0
SEQEND
  8
1
  0
LINE
  8
7
 10
-52.2016
 20
120.5457
 11
-51.4516
 21
120.5457
  0
LINE
  8
5
 10
-52.2016
 20
120.5457
 11
-51.4516
 21
120.5457
  0
LINE
  8
8
 10
-52.6866
 20
122.6846
 11
-52.6866
 21
118.6003
  0
LINE
  8
6
 10
-51.8923
 20
111.9005
 11
-53.3923
 21
111.9005
  0
ENDBLK
  0
BLOCK
  8
0
  2
LDM000222D-VS-WB_31
 70
64
 10
0.0000
 20
0.0000
  0
TEXT
  8
1
 10
-52.6423
 20
120.0255
 40
0.250
 50
0.0000
  1
Piece Name: LDM000222D-VS-WB
  7
STANDARD
  0
TEXT
  8
1
 10
-52.6423
 20
120.1655
 40
0.250
 50
0.0000
  1
SIZE: 31
  7
STANDARD
  0
POLYLINE
  8
1
 66
1
 70
0
  0
VERTEX
  8
1
 10
-53.3923
 20
111.6505
  0
VERTEX
  8
1
 10
-53.3923
 20
111.6505
  0
VERTEX
  8
1
 10
-53.3923
 20
128.4005
  0
VERTEX
  8
1
 10
-53.3923
 20
128.4005
  0
VERTEX
  8
1
 10
-51.8923
 20
128.4005
  0
VERTEX
  8
1
 10
-51.8923
 20
128.4005
  0
VERTEX
  8
1
 10
-51.8923
 20
111.6505
  0
VERTEX
  8
1
 10
-53.3923
 20
111.6505
  0
SEQEND
  8
1
  0
LINE
  8
7
 10
-52.2016
 20
120.2957
 11
-51.4516
 21
120.2957
  0
LINE
  8
5
 10
-52.2016
 20
120.2957
 11
-51.4516
 21
120.2957
  0
LINE
  8
8
 10
-52.6866
 20
122.4346
 11
-52.6866
 21
118.3503
  0
LINE
  8
6
 10
-51.8923
 20
111.6505
 11
-53.3923
 21
111.6505
  0
ENDBLK
  0
BLOCK
  8
0
  2
LDM000222D-VS-WB_32
 70
64
 10
0.0000
 20
0.0000
  0
TEXT
  8
1
 10
-52.6423
 20
120.0255
 40
0.250
 50
0.0000
  1
Piece Name: LDM000222D-VS-WB
  7
STANDARD
  0
TEXT
  8
1
 10
-52.6423
 20
120.1655
 40
0.250
 50
0.0000
  1
Quantity: 1
  7
STANDARD
  0
TEXT
  8
1
 10
-52.6423
 20
120.3055
 40
0.250
 50
0.0000
  1
ANNOTATION: MAIN FABRIC
  7
STANDARD
  0
TEXT
  8
1
 10
-52.6423
 20
120.4455
 40
0.250
 50
0.0000
  1
CATEGORY: WAISTBAND
  7
STANDARD
  0
TEXT
  8
1
 10
-52.6423
 20
120.5855
 40
0.250
 50
0.0000
  1
Material: A
  7
STANDARD
  0
TEXT
  8
1
 10
-52.6423
 20
120.7255
 40
0.250
 50
0.0000
  1
SIZE: 32
  7
STANDARD
  0
POLYLINE
  8
1
 66
1
 70
0
  0
VERTEX
  8
1
 10
-53.3923
 20
111.4005
  0
VERTEX
  8
1
 10
-53.3923
 20
111.4005
  0
VERTEX
  8
1
 10
-53.3923
 20
128.6505
  0
VERTEX
  8
1
 10
-53.3923
 20
128.6505
  0
VERTEX
  8
1
 10
-51.8923
 20
128.6505
  0
VERTEX
  8
1
 10
-51.8923
 20
128.6505
  0
VERTEX
  8
1
 10
-51.8923
 20
111.4005
  0
VERTEX
  8
1
 10
-53.3923
 20
111.4005
  0
SEQEND
  8
1
  0
POINT
  8
2
 10
-53.3923
 20
111.4005
  0
TEXT
  8
2
 10
-53.3923
 20
111.4005
 40
0.250
 50
0.0000
  1
# 1
  7
STANDARD
  0
POINT
  8
4
 10
-53.3923
 20
111.4005
 30
0.1574
 39
0.0000
  0
POINT
  8
2
 10
-53.3923
 20
111.4005
  0
POINT
  8
2
 10
-53.3923
 20
128.6505
  0
TEXT
  8
2
 10
-53.3923
 20
128.6505
 40
0.250
 50
0.0000
  1
# 2
  7
STANDARD
  0
POINT
  8
2
 10
-53.3923
 20
128.6505
  0
TEXT
  8
2
 10
-53.3923
 20
128.6505
 40
0.250
 50
0.0000
  1
# 2
  7
STANDARD
  0
POINT
  8
2
 10
-51.8923
 20
128.6505
  0
TEXT
  8
2
 10
-51.8923
 20
128.6505
 40
0.250
 50
0.0000
  1
# 3
  7
STANDARD
  0
POINT
  8
2
 10
-51.8923
 20
128.6505
  0
TEXT
  8
2
 10
-51.8923
 20
128.6505
 40
0.250
 50
0.0000
  1
# 3
  7
STANDARD
  0
POINT
  8
4
 10
-51.8923
 20
111.4005
 30
0.1574
 39
0.0000
  0
POINT
  8
2
 10
-51.8923
 20
111.4005
  0
TEXT
  8
2
 10
-51.8923
 20
111.4005
 40
0.250
 50
0.0000
  1
# 4
  7
STANDARD
  0
LINE
  8
7
 10
-52.2016
 20
120.0457
 11
-51.4516
 21
120.0457
  0
LINE
  8
5
 10
-52.2016
 20
120.0457
 11
-51.4516
 21
120.0457
  0
POINT
  8
2
 10
-52.2016
 20
120.0457
  0
POINT
  8
2
 10
-51.4516
 20
120.0457
  0
LINE
  8
8
 10
-52.6866
 20
122.1846
 11
-52.6866
 21
118.1003
  0
TEXT
  8
8
 10
-52.6866
 20
122.1846
 40
0.250
 50
0.0000
  1
NM
  7
STANDARD
  0
POINT
  8
2
 10
-52.6866
 20
122.1846
  0
POINT
  8
2
 10
-52.6866
 20
118.1003
  0
LINE
  8
6
 10
-51.8923
 20
111.4005
 11
-53.3923
 21
111.4005
  0
ENDBLK
  0
BLOCK
  8
0
  2
LDM000222D-VS-WB_33
 70
64
 10
0.0000
 20
0.0000
  0
TEXT
  8
1
 10
-52.6423
 20
120.0255
 40
0.250
 50
0.0000
  1
Piece Name: LDM000222D-VS-WB
  7
STANDARD
  0
TEXT
  8
1
 10
-52.6423
 20
120.1655
 40
0.250
 50
0.0000
  1
SIZE: 33
  7
STANDARD
  0
POLYLINE
  8
1
 66
1
 70
0
  0
VERTEX
  8
1
 10
-53.3923
 20
111.1505
  0
VERTEX
  8
1
 10
-53.3923
 20
111.1505
  0
VERTEX
  8
1
 10
-53.3923
 20
128.9005
  0
VERTEX
  8
1
 10
-53.3923
 20
128.9005
  0
VERTEX
  8
1
 10
-51.8923
 20
128.9005
  0
VERTEX
  8
1
 10
-51.8923
 20
128.9005
  0
VERTEX
  8
1
 10
-51.8923
 20
111.1505
  0
VERTEX
  8
1
 10
-53.3923
 20
111.1505
  0
SEQEND
  8
1
  0
LINE
  8
7
 10
-52.2016
 20
119.7957
 11
-51.4516
 21
119.7957
  0
LINE
  8
5
 10
-52.2016
 20
119.7957
 11
-51.4516
 21
119.7957
  0
LINE
  8
8
 10
-52.6866
 20
121.9346
 11
-52.6866
 21
117.8503
  0
LINE
  8
6
 10
-51.8923
 20
111.1505
 11
-53.3923
 21
111.1505
  0
ENDBLK
  0
BLOCK
  8
0
  2
LDM000222D-VS-WB_34
 70
64
 10
0.0000
 20
0.0000
  0
TEXT
  8
1
 10
-52.6423
 20
120.0255
 40
0.250
 50
0.0000
  1
Piece Name: LDM000222D-VS-WB
  7
STANDARD
  0
TEXT
  8
1
 10
-52.6423
 20
120.1655
 40
0.250
 50
0.0000
  1
SIZE: 34
  7
STANDARD
  0
POLYLINE
  8
1
 66
1
 70
0
  0
VERTEX
  8
1
 10
-53.3923
 20
110.9005
  0
VERTEX
  8
1
 10
-53.3923
 20
110.9005
  0
VERTEX
  8
1
 10
-53.3923
 20
129.1505
  0
VERTEX
  8
1
 10
-53.3923
 20
129.1505
  0
VERTEX
  8
1
 10
-51.8923
 20
129.1505
  0
VERTEX
  8
1
 10
-51.8923
 20
129.1505
  0
VERTEX
  8
1
 10
-51.8923
 20
110.9005
  0
VERTEX
  8
1
 10
-53.3923
 20
110.9005
  0
SEQEND
  8
1
  0
LINE
  8
7
 10
-52.2016
 20
119.5457
 11
-51.4516
 21
119.5457
  0
LINE
  8
5
 10
-52.2016
 20
119.5457
 11
-51.4516
 21
119.5457
  0
LINE
  8
8
 10
-52.6866
 20
121.6846
 11
-52.6866
 21
117.6003
  0
LINE
  8
6
 10
-51.8923
 20
110.9005
 11
-53.3923
 21
110.9005
  0
ENDBLK
  0
BLOCK
  8
0
  2
LDM000222D-VS-WB_35
 70
64
 10
0.0000
 20
0.0000
  0
TEXT
  8
1
 10
-52.6423
 20
120.0255
 40
0.250
 50
0.0000
  1
Piece Name: LDM000222D-VS-WB
  7
STANDARD
  0
TEXT
  8
1
 10
-52.6423
 20
120.1655
 40
0.250
 50
0.0000
  1
SIZE: 35
  7
STANDARD
  0
POLYLINE
  8
1
 66
1
 70
0
  0
VERTEX
  8
1
 10
-53.3923
 20
110.6505
  0
VERTEX
  8
1
 10
-53.3923
 20
110.6505
  0
VERTEX
  8
1
 10
-53.3923
 20
129.4005
  0
VERTEX
  8
1
 10
-53.3923
 20
129.4005
  0
VERTEX
  8
1
 10
-51.8923
 20
129.4005
  0
VERTEX
  8
1
 10
-51.8923
 20
129.4005
  0
VERTEX
  8
1
 10
-51.8923
 20
110.6505
  0
VERTEX
  8
1
 10
-53.3923
 20
110.6505
  0
SEQEND
  8
1
  0
LINE
  8
7
 10
-52.2016
 20
119.2957
 11
-51.4516
 21
119.2957
  0
LINE
  8
5
 10
-52.2016
 20
119.2957
 11
-51.4516
 21
119.2957
  0
LINE
  8
8
 10
-52.6866
 20
121.4346
 11
-52.6866
 21
117.3503
  0
LINE
  8
6
 10
-51.8923
 20
110.6505
 11
-53.3923
 21
110.6505
  0
ENDBLK
  0
BLOCK
  8
0
  2
LDM000222D-VS-WB_36
 70
64
 10
0.0000
 20
0.0000
  0
TEXT
  8
1
 10
-52.6423
 20
120.0255
 40
0.250
 50
0.0000
  1
Piece Name: LDM000222D-VS-WB
  7
STANDARD
  0
TEXT
  8
1
 10
-52.6423
 20
120.1655
 40
0.250
 50
0.0000
  1
SIZE: 36
  7
STANDARD
  0
POLYLINE
  8
1
 66
1
 70
0
  0
VERTEX
  8
1
 10
-53.3923
 20
110.4005
  0
VERTEX
  8
1
 10
-53.3923
 20
110.4005
  0
VERTEX
  8
1
 10
-53.3923
 20
129.6505
  0
VERTEX
  8
1
 10
-53.3923
 20
129.6505
  0
VERTEX
  8
1
 10
-51.8923
 20
129.6505
  0
VERTEX
  8
1
 10
-51.8923
 20
129.6505
  0
VERTEX
  8
1
 10
-51.8923
 20
110.4005
  0
VERTEX
  8
1
 10
-53.3923
 20
110.4005
  0
SEQEND
  8
1
  0
LINE
  8
7
 10
-52.2016
 20
119.0457
 11
-51.4516
 21
119.0457
  0
LINE
  8
5
 10
-52.2016
 20
119.0457
 11
-51.4516
 21
119.0457
  0
LINE
  8
8
 10
-52.6866
 20
121.1846
 11
-52.6866
 21
117.1003
  0
LINE
  8
6
 10
-51.8923
 20
110.4005
 11
-53.3923
 21
110.4005
  0
ENDBLK
  0
BLOCK
  8
0
  2
LDM000222D-VS-WB_37
 70
64
 10
0.0000
 20
0.0000
  0
TEXT
  8
1
 10
-52.6423
 20
120.0255
 40
0.250
 50
0.0000
  1
Piece Name: LDM000222D-VS-WB
  7
STANDARD
  0
TEXT
  8
1
 10
-52.6423
 20
120.1655
 40
0.250
 50
0.0000
  1
SIZE: 37
  7
STANDARD
  0
POLYLINE
  8
1
 66
1
 70
0
  0
VERTEX
  8
1
 10
-53.3923
 20
110.1505
  0
VERTEX
  8
1
 10
-53.3923
 20
110.1505
  0
VERTEX
  8
1
 10
-53.3923
 20
129.9005
  0
VERTEX
  8
1
 10
-53.3923
 20
129.9005
  0
VERTEX
  8
1
 10
-51.8923
 20
129.9005
  0
VERTEX
  8
1
 10
-51.8923
 20
129.9005
  0
VERTEX
  8
1
 10
-51.8923
 20
110.1505
  0
VERTEX
  8
1
 10
-53.3923
 20
110.1505
  0
SEQEND
  8
1
  0
LINE
  8
7
 10
-52.2016
 20
118.7957
 11
-51.4516
 21
118.7957
  0
LINE
  8
5
 10
-52.2016
 20
118.7957
 11
-51.4516
 21
118.7957
  0
LINE
  8
8
 10
-52.6866
 20
120.9346
 11
-52.6866
 21
116.8503
  0
LINE
  8
6
 10
-51.8923
 20
110.1505
 11
-53.3923
 21
110.1505
  0
ENDBLK
  0
BLOCK
  8
0
  2
LDM000222D-VS-WB_38
 70
64
 10
0.0000
 20
0.0000
  0
TEXT
  8
1
 10
-52.6423
 20
120.0255
 40
0.250
 50
0.0000
  1
Piece Name: LDM000222D-VS-WB
  7
STANDARD
  0
TEXT
  8
1
 10
-52.6423
 20
120.1655
 40
0.250
 50
0.0000
  1
SIZE: 38
  7
STANDARD
  0
POLYLINE
  8
1
 66
1
 70
0
  0
VERTEX
  8
1
 10
-53.3923
 20
109.9005
  0
VERTEX
  8
1
 10
-53.3923
 20
109.9005
  0
VERTEX
  8
1
 10
-53.3923
 20
130.1505
  0
VERTEX
  8
1
 10
-53.3923
 20
130.1505
  0
VERTEX
  8
1
 10
-51.8923
 20
130.1505
  0
VERTEX
  8
1
 10
-51.8923
 20
130.1505
  0
VERTEX
  8
1
 10
-51.8923
 20
109.9005
  0
VERTEX
  8
1
 10
-53.3923
 20
109.9005
  0
SEQEND
  8
1
  0
LINE
  8
7
 10
-52.2016
 20
118.5457
 11
-51.4516
 21
118.5457
  0
LINE
  8
5
 10
-52.2016
 20
118.5457
 11
-51.4516
 21
118.5457
  0
LINE
  8
8
 10
-52.6866
 20
120.6846
 11
-52.6866
 21
116.6003
  0
LINE
  8
6
 10
-51.8923
 20
109.9005
 11
-53.3923
 21
109.9005
  0
ENDBLK
  0
BLOCK
  8
0
  2
LDM000222D-VS-WB_40
 70
64
 10
0.0000
 20
0.0000
  0
TEXT
  8
1
 10
-52.6423
 20
120.0255
 40
0.250
 50
0.0000
  1
Piece Name: LDM000222D-VS-WB
  7
STANDARD
  0
TEXT
  8
1
 10
-52.6423
 20
120.1655
 40
0.250
 50
0.0000
  1
SIZE: 40
  7
STANDARD
  0
POLYLINE
  8
1
 66
1
 70
0
  0
VERTEX
  8
1
 10
-53.3923
 20
109.4005
  0
VERTEX
  8
1
 10
-53.3923
 20
109.4005
  0
VERTEX
  8
1
 10
-53.3923
 20
130.6505
  0
VERTEX
  8
1
 10
-53.3923
 20
130.6505
  0
VERTEX
  8
1
 10
-51.8923
 20
130.6505
  0
VERTEX
  8
1
 10
-51.8923
 20
130.6505
  0
VERTEX
  8
1
 10
-51.8923
 20
109.4005
  0
VERTEX
  8
1
 10
-53.3923
 20
109.4005
  0
SEQEND
  8
1
  0
LINE
  8
7
 10
-52.2016
 20
118.0457
 11
-51.4516
 21
118.0457
  0
LINE
  8
5
 10
-52.2016
 20
118.0457
 11
-51.4516
 21
118.0457
  0
LINE
  8
8
 10
-52.6866
 20
120.1846
 11
-52.6866
 21
116.1003
  0
LINE
  8
6
 10
-51.8923
 20
109.4005
 11
-53.3923
 21
109.4005
  0
ENDBLK
  0
BLOCK
  8
0
  2
LDM000222D-VS-WB_42
 70
64
 10
0.0000
 20
0.0000
  0
TEXT
  8
1
 10
-52.6423
 20
120.0255
 40
0.250
 50
0.0000
  1
Piece Name: LDM000222D-VS-WB
  7
STANDARD
  0
TEXT
  8
1
 10
-52.6423
 20
120.1655
 40
0.250
 50
0.0000
  1
SIZE: 42
  7
STANDARD
  0
POLYLINE
  8
1
 66
1
 70
0
  0
VERTEX
  8
1
 10
-53.3923
 20
108.9005
  0
VERTEX
  8
1
 10
-53.3923
 20
108.9005
  0
VERTEX
  8
1
 10
-53.3923
 20
131.1505
  0
VERTEX
  8
1
 10
-53.3923
 20
131.1505
  0
VERTEX
  8
1
 10
-51.8923
 20
131.1505
  0
VERTEX
  8
1
 10
-51.8923
 20
131.1505
  0
VERTEX
  8
1
 10
-51.8923
 20
108.9005
  0
VERTEX
  8
1
 10
-53.3923
 20
108.9005
  0
SEQEND
  8
1
  0
LINE
  8
7
 10
-52.2016
 20
117.5457
 11
-51.4516
 21
117.5457
  0
LINE
  8
5
 10
-52.2016
 20
117.5457
 11
-51.4516
 21
117.5457
  0
LINE
  8
8
 10
-52.6866
 20
119.6846
 11
-52.6866
 21
115.6003
  0
LINE
  8
6
 10
-51.8923
 20
108.9005
 11
-53.3923
 21
108.9005
  0
ENDBLK
  0
BLOCK
  8
0
  2
LDM000222D-VS-WB_44
 70
64
 10
0.0000
 20
0.0000
  0
TEXT
  8
1
 10
-52.6423
 20
120.0255
 40
0.250
 50
0.0000
  1
Piece Name: LDM000222D-VS-WB
  7
STANDARD
  0
TEXT
  8
1
 10
-52.6423
 20
120.1655
 40
0.250
 50
0.0000
  1
SIZE: 44
  7
STANDARD
  0
POLYLINE
  8
1
 66
1
 70
0
  0
VERTEX
  8
1
 10
-53.3923
 20
108.4005
  0
VERTEX
  8
1
 10
-53.3923
 20
108.4005
  0
VERTEX
  8
1
 10
-53.3923
 20
131.6505
  0
VERTEX
  8
1
 10
-53.3923
 20
131.6505
  0
VERTEX
  8
1
 10
-51.8923
 20
131.6505
  0
VERTEX
  8
1
 10
-51.8923
 20
131.6505
  0
VERTEX
  8
1
 10
-51.8923
 20
108.4005
  0
VERTEX
  8
1
 10
-53.3923
 20
108.4005
  0
SEQEND
  8
1
  0
LINE
  8
7
 10
-52.2016
 20
117.0457
 11
-51.4516
 21
117.0457
  0
LINE
  8
5
 10
-52.2016
 20
117.0457
 11
-51.4516
 21
117.0457
  0
LINE
  8
8
 10
-52.6866
 20
119.1846
 11
-52.6866
 21
115.1003
  0
LINE
  8
6
 10
-51.8923
 20
108.4005
 11
-53.3923
 21
108.4005
  0
ENDBLK
  0
BLOCK
  8
0
  2
LDM000222D-VS-WB_46
 70
64
 10
0.0000
 20
0.0000
  0
TEXT
  8
1
 10
-52.6423
 20
120.0255
 40
0.250
 50
0.0000
  1
Piece Name: LDM000222D-VS-WB
  7
STANDARD
  0
TEXT
  8
1
 10
-52.6423
 20
120.1655
 40
0.250
 50
0.0000
  1
SIZE: 46
  7
STANDARD
  0
POLYLINE
  8
1
 66
1
 70
0
  0
VERTEX
  8
1
 10
-53.3923
 20
107.9005
  0
VERTEX
  8
1
 10
-53.3923
 20
107.9005
  0
VERTEX
  8
1
 10
-53.3923
 20
132.1505
  0
VERTEX
  8
1
 10
-53.3923
 20
132.1505
  0
VERTEX
  8
1
 10
-51.8923
 20
132.1505
  0
VERTEX
  8
1
 10
-51.8923
 20
132.1505
  0
VERTEX
  8
1
 10
-51.8923
 20
107.9005
  0
VERTEX
  8
1
 10
-53.3923
 20
107.9005
  0
SEQEND
  8
1
  0
LINE
  8
7
 10
-52.2016
 20
116.5457
 11
-51.4516
 21
116.5457
  0
LINE
  8
5
 10
-52.2016
 20
116.5457
 11
-51.4516
 21
116.5457
  0
LINE
  8
8
 10
-52.6866
 20
118.6846
 11
-52.6866
 21
114.6003
  0
LINE
  8
6
 10
-51.8923
 20
107.9005
 11
-53.3923
 21
107.9005
  0
ENDBLK
  0
BLOCK
  8
0
  2
LDM000222D-VS-WB_48
 70
64
 10
0.0000
 20
0.0000
  0
TEXT
  8
1
 10
-52.6423
 20
120.0255
 40
0.250
 50
0.0000
  1
Piece Name: LDM000222D-VS-WB
  7
STANDARD
  0
TEXT
  8
1
 10
-52.6423
 20
120.1655
 40
0.250
 50
0.0000
  1
SIZE: 48
  7
STANDARD
  0
POLYLINE
  8
1
 66
1
 70
0
  0
VERTEX
  8
1
 10
-53.3923
 20
107.4005
  0
VERTEX
  8
1
 10
-53.3923
 20
107.4005
  0
VERTEX
  8
1
 10
-53.3923
 20
132.6505
  0
VERTEX
  8
1
 10
-53.3923
 20
132.6505
  0
VERTEX
  8
1
 10
-51.8923
 20
132.6505
  0
VERTEX
  8
1
 10
-51.8923
 20
132.6505
  0
VERTEX
  8
1
 10
-51.8923
 20
107.4005
  0
VERTEX
  8
1
 10
-53.3923
 20
107.4005
  0
SEQEND
  8
1
  0
LINE
  8
7
 10
-52.2016
 20
116.0457
 11
-51.4516
 21
116.0457
  0
LINE
  8
5
 10
-52.2016
 20
116.0457
 11
-51.4516
 21
116.0457
  0
LINE
  8
8
 10
-52.6866
 20
118.1846
 11
-52.6866
 21
114.1003
  0
LINE
  8
6
 10
-51.8923
 20
107.4005
 11
-53.3923
 21
107.4005
  0
ENDBLK
  0
BLOCK
  8
0
  2
LDM000222D-VS-WB_50
 70
64
 10
0.0000
 20
0.0000
  0
TEXT
  8
1
 10
-52.6423
 20
120.0255
 40
0.250
 50
0.0000
  1
Piece Name: LDM000222D-VS-WB
  7
STANDARD
  0
TEXT
  8
1
 10
-52.6423
 20
120.1655
 40
0.250
 50
0.0000
  1
SIZE: 50
  7
STANDARD
  0
POLYLINE
  8
1
 66
1
 70
0
  0
VERTEX
  8
1
 10
-53.3923
 20
106.9005
  0
VERTEX
  8
1
 10
-53.3923
 20
106.9005
  0
VERTEX
  8
1
 10
-53.3923
 20
133.1505
  0
VERTEX
  8
1
 10
-53.3923
 20
133.1505
  0
VERTEX
  8
1
 10
-51.8923
 20
133.1505
  0
VERTEX
  8
1
 10
-51.8923
 20
133.1505
  0
VERTEX
  8
1
 10
-51.8923
 20
106.9005
  0
VERTEX
  8
1
 10
-53.3923
 20
106.9005
  0
SEQEND
  8
1
  0
LINE
  8
7
 10
-52.2016
 20
115.5457
 11
-51.4516
 21
115.5457
  0
LINE
  8
5
 10
-52.2016
 20
115.5457
 11
-51.4516
 21
115.5457
  0
LINE
  8
8
 10
-52.6866
 20
117.6846
 11
-52.6866
 21
113.6003
  0
LINE
  8
6
 10
-51.8923
 20
106.9005
 11
-53.3923
 21
106.9005
  0
ENDBLK
  0
BLOCK
  8
0
  2
LDM000222D-VS-WB_52
 70
64
 10
0.0000
 20
0.0000
  0
TEXT
  8
1
 10
-52.6423
 20
120.0255
 40
0.250
 50
0.0000
  1
Piece Name: LDM000222D-VS-WB
  7
STANDARD
  0
TEXT
  8
1
 10
-52.6423
 20
120.1655
 40
0.250
 50
0.0000
  1
SIZE: 52
  7
STANDARD
  0
POLYLINE
  8
1
 66
1
 70
0
  0
VERTEX
  8
1
 10
-53.3923
 20
106.4005
  0
VERTEX
  8
1
 10
-53.3923
 20
106.4005
  0
VERTEX
  8
1
 10
-53.3923
 20
133.6505
  0
VERTEX
  8
1
 10
-53.3923
 20
133.6505
  0
VERTEX
  8
1
 10
-51.8923
 20
133.6505
  0
VERTEX
  8
1
 10
-51.8923
 20
133.6505
  0
VERTEX
  8
1
 10
-51.8923
 20
106.4005
  0
VERTEX
  8
1
 10
-53.3923
 20
106.4005
  0
SEQEND
  8
1
  0
LINE
  8
7
 10
-52.2016
 20
115.0457
 11
-51.4516
 21
115.0457
  0
LINE
  8
5
 10
-52.2016
 20
115.0457
 11
-51.4516
 21
115.0457
  0
LINE
  8
8
 10
-52.6866
 20
117.1846
 11
-52.6866
 21
113.1003
  0
LINE
  8
6
 10
-51.8923
 20
106.4005
 11
-53.3923
 21
106.4005
  0
ENDBLK
  0
BLOCK
  8
0
  2
LDM000222D-VS-WB_54
 70
64
 10
0.0000
 20
0.0000
  0
TEXT
  8
1
 10
-52.6423
 20
120.0255
 40
0.250
 50
0.0000
  1
Piece Name: LDM000222D-VS-WB
  7
STANDARD
  0
TEXT
  8
1
 10
-52.6423
 20
120.1655
 40
0.250
 50
0.0000
  1
SIZE: 54
  7
STANDARD
  0
POLYLINE
  8
1
 66
1
 70
0
  0
VERTEX
  8
1
 10
-53.3923
 20
105.9005
  0
VERTEX
  8
1
 10
-53.3923
 20
105.9005
  0
VERTEX
  8
1
 10
-53.3923
 20
134.1505
  0
VERTEX
  8
1
 10
-53.3923
 20
134.1505
  0
VERTEX
  8
1
 10
-51.8923
 20
134.1505
  0
VERTEX
  8
1
 10
-51.8923
 20
134.1505
  0
VERTEX
  8
1
 10
-51.8923
 20
105.9005
  0
VERTEX
  8
1
 10
-53.3923
 20
105.9005
  0
SEQEND
  8
1
  0
LINE
  8
7
 10
-52.2016
 20
114.5457
 11
-51.4516
 21
114.5457
  0
LINE
  8
5
 10
-52.2016
 20
114.5457
 11
-51.4516
 21
114.5457
  0
LINE
  8
8
 10
-52.6866
 20
116.6846
 11
-52.6866
 21
112.6003
  0
LINE
  8
6
 10
-51.8923
 20
105.9005
 11
-53.3923
 21
105.9005
  0
ENDBLK
  0
BLOCK
  8
0
  2
LDM000222D-VS-WB_56
 70
64
 10
0.0000
 20
0.0000
  0
TEXT
  8
1
 10
-52.6423
 20
120.0255
 40
0.250
 50
0.0000
  1
Piece Name: LDM000222D-VS-WB
  7
STANDARD
  0
TEXT
  8
1
 10
-52.6423
 20
120.1655
 40
0.250
 50
0.0000
  1
SIZE: 56
  7
STANDARD
  0
POLYLINE
  8
1
 66
1
 70
0
  0
VERTEX
  8
1
 10
-53.3923
 20
105.4005
  0
VERTEX
  8
1
 10
-53.3923
 20
105.4005
  0
VERTEX
  8
1
 10
-53.3923
 20
134.6505
  0
VERTEX
  8
1
 10
-53.3923
 20
134.6505
  0
VERTEX
  8
1
 10
-51.8923
 20
134.6505
  0
VERTEX
  8
1
 10
-51.8923
 20
134.6505
  0
VERTEX
  8
1
 10
-51.8923
 20
105.4005
  0
VERTEX
  8
1
 10
-53.3923
 20
105.4005
  0
SEQEND
  8
1
  0
LINE
  8
7
 10
-52.2016
 20
114.0457
 11
-51.4516
 21
114.0457
  0
LINE
  8
5
 10
-52.2016
 20
114.0457
 11
-51.4516
 21
114.0457
  0
LINE
  8
8
 10
-52.6866
 20
116.1846
 11
-52.6866
 21
112.1003
  0
LINE
  8
6
 10
-51.8923
 20
105.4005
 11
-53.3923
 21
105.4005
  0
ENDBLK
  0
BLOCK
  8
0
  2
LDM000222D-VS-WB_58
 70
64
 10
0.0000
 20
0.0000
  0
TEXT
  8
1
 10
-52.6423
 20
120.0255
 40
0.250
 50
0.0000
  1
Piece Name: LDM000222D-VS-WB
  7
STANDARD
  0
TEXT
  8
1
 10
-52.6423
 20
120.1655
 40
0.250
 50
0.0000
  1
SIZE: 58
  7
STANDARD
  0
POLYLINE
  8
1
 66
1
 70
0
  0
VERTEX
  8
1
 10
-53.3923
 20
104.9005
  0
VERTEX
  8
1
 10
-53.3923
 20
104.9005
  0
VERTEX
  8
1
 10
-53.3923
 20
135.1505
  0
VERTEX
  8
1
 10
-53.3923
 20
135.1505
  0
VERTEX
  8
1
 10
-51.8923
 20
135.1505
  0
VERTEX
  8
1
 10
-51.8923
 20
135.1505
  0
VERTEX
  8
1
 10
-51.8923
 20
104.9005
  0
VERTEX
  8
1
 10
-53.3923
 20
104.9005
  0
SEQEND
  8
1
  0
LINE
  8
7
 10
-52.2016
 20
113.5457
 11
-51.4516
 21
113.5457
  0
LINE
  8
5
 10
-52.2016
 20
113.5457
 11
-51.4516
 21
113.5457
  0
LINE
  8
8
 10
-52.6866
 20
115.6846
 11
-52.6866
 21
111.6003
  0
LINE
  8
6
 10
-51.8923
 20
104.9005
 11
-53.3923
 21
104.9005
  0
ENDBLK
  0
BLOCK
  8
0
  2
LDM000222D-VS-WB_60
 70
64
 10
0.0000
 20
0.0000
  0
TEXT
  8
1
 10
-52.6423
 20
120.0255
 40
0.250
 50
0.0000
  1
Piece Name: LDM000222D-VS-WB
  7
STANDARD
  0
TEXT
  8
1
 10
-52.6423
 20
120.1655
 40
0.250
 50
0.0000
  1
SIZE: 60
  7
STANDARD
  0
POLYLINE
  8
1
 66
1
 70
0
  0
VERTEX
  8
1
 10
-53.3923
 20
104.4005
  0
VERTEX
  8
1
 10
-53.3923
 20
104.4005
  0
VERTEX
  8
1
 10
-53.3923
 20
135.6505
  0
VERTEX
  8
1
 10
-53.3923
 20
135.6505
  0
VERTEX
  8
1
 10
-51.8923
 20
135.6505
  0
VERTEX
  8
1
 10
-51.8923
 20
135.6505
  0
VERTEX
  8
1
 10
-51.8923
 20
104.4005
  0
VERTEX
  8
1
 10
-53.3923
 20
104.4005
  0
SEQEND
  8
1
  0
LINE
  8
7
 10
-52.2016
 20
113.0457
 11
-51.4516
 21
113.0457
  0
LINE
  8
5
 10
-52.2016
 20
113.0457
 11
-51.4516
 21
113.0457
  0
LINE
  8
8
 10
-52.6866
 20
115.1846
 11
-52.6866
 21
111.1003
  0
LINE
  8
6
 10
-51.8923
 20
104.4005
 11
-53.3923
 21
104.4005
  0
ENDBLK
  0
BLOCK
  8
0
  2
LDM000222D-VS-F-FR_22
 70
64
 10
0.0000
 20
0.0000
  0
TEXT
  8
1
 10
-78.7545
 20
138.2189
 40
0.250
 50
0.0000
  1
Piece Name: LDM000222D-VS-F-FR
  7
STANDARD
  0
TEXT
  8
1
 10
-78.7545
 20
138.3589
 40
0.250
 50
0.0000
  1
SIZE: 22
  7
STANDARD
  0
POLYLINE
  8
1
 66
1
 70
1
  0
VERTEX
  8
1
 10
-98.4003
 20
141.5563
  0
VERTEX
  8
1
 10
-82.4192
 20
142.1103
  0
VERTEX
  8
1
 10
-82.4192
 20
142.1103
  0
VERTEX
  8
1
 10
-73.9113
 20
142.3400
  0
VERTEX
  8
1
 10
-69.3831
 20
142.4428
  0
VERTEX
  8
1
 10
-68.3800
 20
142.4675
  0
VERTEX
  8
1
 10
-68.3800
 20
142.4675
  0
VERTEX
  8
1
 10
-68.1589
 20
141.9711
  0
VERTEX
  8
1
 10
-67.7292
 20
141.4656
  0
VERTEX
  8
1
 10
-66.9949
 20
141.0436
  0
VERTEX
  8
1
 10
-66.1728
 20
140.8312
  0
VERTEX
  8
1
 10
-65.1200
 20
140.6834
  0
VERTEX
  8
1
 10
-65.1200
 20
140.6834
  0
VERTEX
  8
1
 10
-59.3905
 20
140.2153
  0
VERTEX
  8
1
 10
-59.3905
 20
140.2153
  0
VERTEX
  8
1
 10
-59.4421
 20
139.0219
  0
VERTEX
  8
1
 10
-59.4159
 20
137.1766
  0
VERTEX
  8
1
 10
-59.2768
 20
135.4676
  0
VERTEX
  8
1
 10
-59.2768
 20
135.4676
  0
VERTEX
  8
1
 10
-59.1087
 20
134.2293
  0
VERTEX
  8
1
 10
-59.1087
 20
134.2293
  0
VERTEX
  8
1
 10
-64.6007
 20
133.9703
  0
VERTEX
  8
1
 10
-64.6007
 20
133.9703
  0
VERTEX
  8
1
 10
-64.8078
 20
133.9961
  0
VERTEX
  8
1
 10
-69.3777
 20
134.1404
  0
VERTEX
  8
1
 10
-69.3777
 20
134.1404
  0
VERTEX
  8
1
 10
-73.9156
 20
134.2783
  0
VERTEX
  8
1
 10
-82.4192
 20
134.6220
  0
VERTEX
  8
1
 10
-82.4192
 20
134.6220
  0
VERTEX
  8
1
 10
-98.4003
 20
135.1860
  0
VERTEX
  8
1
 10
-98.4003
 20
135.1860
  0
VERTEX
  8
1
 10
-98.4003
 20
141.5563
  0
SEQEND
  8
1
  0
LINE
  8
7
 10
-98.3120
 20
138.3711
 11
-70.2292
 21
138.3711
  0
LINE
  8
5
 10
-98.3120
 20
138.3711
 11
-70.2292
 21
138.3711
  0
LINE
  8
8
 10
-64.8078
 20
133.9961
 11
-65.1200
 21
140.6834
  0
LINE
  8
8
 10
-73.9113
 20
134.2781
 11
-73.9113
 21
142.3400
  0
LINE
  8
8
 10
-82.4192
 20
134.6220
 11
-82.4192
 21
142.1103
  0
LINE
  8
8
 10
-69.3831
 20
142.4428
 11
-69.3777
 21
134.1409
  0
LINE
  8
8
 10
-59.2768
 20
135.4676
 11
-64.6007
 21
133.9703
  0
POLYLINE
  8
8
 66
1
 70
0
  0
VERTEX
  8
8
 10
-59.4415
 20
138.7160
  0
VERTEX
  8
8
 10
-63.5502
 20
139.0515
  0
VERTEX
  8
8
 10
-63.9141
 20
139.0949
  0
VERTEX
  8
8
 10
-64.4931
 20
139.2705
  0
VERTEX
  8
8
 10
-64.9195
 20
139.7466
  0
VERTEX
  8
8
 10
-65.0914
 20
140.4469
  0
VERTEX
  8
8
 10
-65.1200
 20
140.6834
  0
SEQEND
  8
8
  0
ENDBLK
  0
BLOCK
  8
0
  2
LDM000222D-VS-F-FR_23
 70
64
 10
0.0000
 20
0.0000
  0
TEXT
  8
1
 10
-78.7545
 20
138.2189
 40
0.250
 50
0.0000
  1
Piece Name: LDM000222D-VS-F-FR
  7
STANDARD
  0
TEXT
  8
1
 10
-78.7545
 20
138.3589
 40
0.250
 50
0.0000
  1
SIZE: 23
  7
STANDARD
  0
POLYLINE
  8
1
 66
1
 70
1
  0
VERTEX
  8
1
 10
-98.4607
 20
141.5726
  0
VERTEX
  8
1
 10
-82.4812
 20
142.1586
  0
VERTEX
  8
1
 10
-82.4812
 20
142.1586
  0
VERTEX
  8
1
 10
-73.9744
 20
142.4083
  0
VERTEX
  8
1
 10
-69.4512
 20
142.5864
  0
VERTEX
  8
1
 10
-68.4486
 20
142.6278
  0
VERTEX
  8
1
 10
-68.4486
 20
142.6278
  0
VERTEX
  8
1
 10
-68.2579
 20
142.1533
  0
VERTEX
  8
1
 10
-67.8711
 20
141.6629
  0
VERTEX
  8
1
 10
-67.1952
 20
141.2405
  0
VERTEX
  8
1
 10
-66.4293
 20
141.0123
  0
VERTEX
  8
1
 10
-65.4443
 20
140.8367
  0
VERTEX
  8
1
 10
-65.4443
 20
140.8367
  0
VERTEX
  8
1
 10
-59.3408
 20
140.3291
  0
VERTEX
  8
1
 10
-59.3408
 20
140.3291
  0
VERTEX
  8
1
 10
-59.3944
 20
139.0728
  0
VERTEX
  8
1
 10
-59.3657
 20
137.1302
  0
VERTEX
  8
1
 10
-59.2182
 20
135.3313
  0
VERTEX
  8
1
 10
-59.2182
 20
135.3313
  0
VERTEX
  8
1
 10
-59.0483
 20
134.0932
  0
VERTEX
  8
1
 10
-59.0483
 20
134.0932
  0
VERTEX
  8
1
 10
-64.5397
 20
133.8100
  0
VERTEX
  8
1
 10
-64.5397
 20
133.8100
  0
VERTEX
  8
1
 10
-65.1259
 20
133.8364
  0
VERTEX
  8
1
 10
-69.4463
 20
133.9937
  0
VERTEX
  8
1
 10
-69.4463
 20
133.9937
  0
VERTEX
  8
1
 10
-73.9786
 20
134.1586
  0
VERTEX
  8
1
 10
-82.4812
 20
134.5443
  0
VERTEX
  8
1
 10
-82.4812
 20
134.5443
  0
VERTEX
  8
1
 10
-98.4607
 20
135.1403
  0
VERTEX
  8
1
 10
-98.4607
 20
135.1403
  0
VERTEX
  8
1
 10
-98.4607
 20
141.5726
  0
SEQEND
  8
1
  0
LINE
  8
7
 10
-98.3806
 20
138.3564
 11
-70.2978
 21
138.3564
  0
LINE
  8
5
 10
-98.3806
 20
138.3564
 11
-70.2978
 21
138.3564
  0
LINE
  8
8
 10
-65.1259
 20
133.8364
 11
-65.4443
 21
140.8367
  0
LINE
  8
8
 10
-73.9744
 20
134.1584
 11
-73.9744
 21
142.4083
  0
LINE
  8
8
 10
-82.4812
 20
134.5443
 11
-82.4812
 21
142.1586
  0
LINE
  8
8
 10
-69.4512
 20
142.5864
 11
-69.4463
 21
133.9942
  0
LINE
  8
8
 10
-59.2182
 20
135.3313
 11
-64.5397
 21
133.8100
  0
POLYLINE
  8
8
 66
1
 70
0
  0
VERTEX
  8
8
 10
-59.3940
 20
138.8299
  0
VERTEX
  8
8
 10
-63.8768
 20
139.2025
  0
VERTEX
  8
8
 10
-64.2407
 20
139.2464
  0
VERTEX
  8
8
 10
-64.8194
 20
139.4229
  0
VERTEX
  8
8
 10
-65.2452
 20
139.8996
  0
VERTEX
  8
8
 10
-65.4160
 20
140.6001
  0
VERTEX
  8
8
 10
-65.4443
 20
140.8367
  0
SEQEND
  8
8
  0
ENDBLK
  0
BLOCK
  8
0
  2
LDM000222D-VS-F-FR_24
 70
64
 10
0.0000
 20
0.0000
  0
TEXT
  8
1
 10
-78.7545
 20
138.2189
 40
0.250
 50
0.0000
  1
Piece Name: LDM000222D-VS-F-FR
  7
STANDARD
  0
TEXT
  8
1
 10
-78.7545
 20
138.3589
 40
0.250
 50
0.0000
  1
SIZE: 24
  7
STANDARD
  0
POLYLINE
  8
1
 66
1
 70
1
  0
VERTEX
  8
1
 10
-98.5213
 20
141.5863
  0
VERTEX
  8
1
 10
-82.5432
 20
142.2043
  0
VERTEX
  8
1
 10
-82.5432
 20
142.2043
  0
VERTEX
  8
1
 10
-74.0407
 20
142.5360
  0
VERTEX
  8
1
 10
-69.5195
 20
142.7386
  0
VERTEX
  8
1
 10
-68.5171
 20
142.7855
  0
VERTEX
  8
1
 10
-68.5171
 20
142.7855
  0
VERTEX
  8
1
 10
-68.3121
 20
142.2990
  0
VERTEX
  8
1
 10
-67.9049
 20
141.7994
  0
VERTEX
  8
1
 10
-67.2000
 20
141.3748
  0
VERTEX
  8
1
 10
-66.4058
 20
141.1523
  0
VERTEX
  8
1
 10
-65.3862
 20
140.9877
  0
VERTEX
  8
1
 10
-65.3862
 20
140.9877
  0
VERTEX
  8
1
 10
-59.2864
 20
140.4403
  0
VERTEX
  8
1
 10
-59.2864
 20
140.4403
  0
VERTEX
  8
1
 10
-59.3430
 20
139.1211
  0
VERTEX
  8
1
 10
-59.3133
 20
137.0812
  0
VERTEX
  8
1
 10
-59.1589
 20
135.1921
  0
VERTEX
  8
1
 10
-59.1589
 20
135.1921
  0
VERTEX
  8
1
 10
-58.9877
 20
133.9541
  0
VERTEX
  8
1
 10
-58.9877
 20
133.9541
  0
VERTEX
  8
1
 10
-64.4780
 20
133.6524
  0
VERTEX
  8
1
 10
-64.4780
 20
133.6524
  0
VERTEX
  8
1
 10
-65.0686
 20
133.6741
  0
VERTEX
  8
1
 10
-69.5148
 20
133.8444
  0
VERTEX
  8
1
 10
-69.5148
 20
133.8444
  0
VERTEX
  8
1
 10
-74.0450
 20
134.0363
  0
VERTEX
  8
1
 10
-82.5432
 20
134.4640
  0
VERTEX
  8
1
 10
-82.5432
 20
134.4640
  0
VERTEX
  8
1
 10
-98.5213
 20
135.0920
  0
VERTEX
  8
1
 10
-98.5213
 20
135.0920
  0
VERTEX
  8
1
 10
-98.5213
 20
141.5863
  0
SEQEND
  8
1
  0
LINE
  8
7
 10
-98.4491
 20
138.3391
 11
-70.3663
 21
138.3391
  0
LINE
  8
5
 10
-98.4491
 20
138.3391
 11
-70.3663
 21
138.3391
  0
LINE
  8
8
 10
-65.0686
 20
133.6741
 11
-65.3862
 21
140.9877
  0
LINE
  8
8
 10
-74.0407
 20
134.0361
 11
-74.0407
 21
142.5360
  0
LINE
  8
8
 10
-82.5432
 20
134.4640
 11
-82.5432
 21
142.2043
  0
LINE
  8
8
 10
-69.5195
 20
142.7386
 11
-69.5148
 21
133.8449
  0
LINE
  8
8
 10
-59.1589
 20
135.1921
 11
-64.4780
 21
133.6524
  0
POLYLINE
  8
8
 66
1
 70
0
  0
VERTEX
  8
8
 10
-59.3422
 20
138.9408
  0
VERTEX
  8
8
 10
-63.8295
 20
139.3433
  0
VERTEX
  8
8
 10
-64.1930
 20
139.3896
  0
VERTEX
  8
8
 10
-64.7706
 20
139.5699
  0
VERTEX
  8
8
 10
-65.1931
 20
140.0493
  0
VERTEX
  8
8
 10
-65.3595
 20
140.7510
  0
VERTEX
  8
8
 10
-65.3862
 20
140.9877
  0
SEQEND
  8
8
  0
ENDBLK
  0
BLOCK
  8
0
  2
LDM000222D-VS-F-FR_25
 70
64
 10
0.0000
 20
0.0000
  0
TEXT
  8
1
 10
-78.7544
 20
138.2189
 40
0.250
 50
0.0000
  1
Piece Name: LDM000222D-VS-F-FR
  7
STANDARD
  0
TEXT
  8
1
 10
-78.7544
 20
138.3589
 40
0.250
 50
0.0000
  1
SIZE: 25
  7
STANDARD
  0
POLYLINE
  8
1
 66
1
 70
1
  0
VERTEX
  8
1
 10
-98.5429
 20
141.5924
  0
VERTEX
  8
1
 10
-82.5664
 20
142.2424
  0
VERTEX
  8
1
 10
-82.5664
 20
142.2424
  0
VERTEX
  8
1
 10
-74.0655
 20
142.5941
  0
VERTEX
  8
1
 10
-69.5508
 20
142.8720
  0
VERTEX
  8
1
 10
-68.5493
 20
142.9356
  0
VERTEX
  8
1
 10
-68.5493
 20
142.9356
  0
VERTEX
  8
1
 10
-68.3749
 20
142.4714
  0
VERTEX
  8
1
 10
-68.0111
 20
141.9877
  0
VERTEX
  8
1
 10
-67.3651
 20
141.5633
  0
VERTEX
  8
1
 10
-66.6279
 20
141.3252
  0
VERTEX
  8
1
 10
-65.6771
 20
141.1333
  0
VERTEX
  8
1
 10
-65.6771
 20
141.1333
  0
VERTEX
  8
1
 10
-59.2011
 20
140.5489
  0
VERTEX
  8
1
 10
-59.2011
 20
140.5489
  0
VERTEX
  8
1
 10
-59.2748
 20
139.1667
  0
VERTEX
  8
1
 10
-59.2661
 20
137.0282
  0
VERTEX
  8
1
 10
-59.1250
 20
135.0464
  0
VERTEX
  8
1
 10
-59.1250
 20
135.0464
  0
VERTEX
  8
1
 10
-58.9660
 20
133.8067
  0
VERTEX
  8
1
 10
-58.9660
 20
133.8067
  0
VERTEX
  8
1
 10
-64.4560
 20
133.5023
  0
VERTEX
  8
1
 10
-64.4560
 20
133.5023
  0
VERTEX
  8
1
 10
-65.4254
 20
133.5042
  0
VERTEX
  8
1
 10
-69.5470
 20
133.6875
  0
VERTEX
  8
1
 10
-69.5470
 20
133.6875
  0
VERTEX
  8
1
 10
-74.0698
 20
133.9064
  0
VERTEX
  8
1
 10
-82.5664
 20
134.3761
  0
VERTEX
  8
1
 10
-82.5664
 20
134.3761
  0
VERTEX
  8
1
 10
-98.5429
 20
135.0361
  0
VERTEX
  8
1
 10
-98.5429
 20
135.0361
  0
VERTEX
  8
1
 10
-98.5429
 20
141.5924
  0
SEQEND
  8
1
  0
LINE
  8
7
 10
-98.4814
 20
138.3142
 11
-70.3985
 21
138.3142
  0
LINE
  8
5
 10
-98.4814
 20
138.3142
 11
-70.3985
 21
138.3142
  0
LINE
  8
8
 10
-65.4254
 20
133.5042
 11
-65.6771
 21
141.1333
  0
LINE
  8
8
 10
-74.0655
 20
133.9062
 11
-74.0655
 21
142.5941
  0
LINE
  8
8
 10
-82.5664
 20
134.3761
 11
-82.5664
 21
142.2424
  0
LINE
  8
8
 10
-69.5508
 20
142.8720
 11
-69.5470
 21
133.6880
  0
LINE
  8
8
 10
-59.1250
 20
135.0464
 11
-64.4560
 21
133.5023
  0
POLYLINE
  8
8
 66
1
 70
0
  0
VERTEX
  8
8
 10
-59.2755
 20
139.0510
  0
VERTEX
  8
8
 10
-64.1211
 20
139.4881
  0
VERTEX
  8
8
 10
-64.4846
 20
139.5346
  0
VERTEX
  8
8
 10
-65.0621
 20
139.7151
  0
VERTEX
  8
8
 10
-65.4845
 20
140.1948
  0
VERTEX
  8
8
 10
-65.6505
 20
140.8965
  0
VERTEX
  8
8
 10
-65.6771
 20
141.1333
  0
SEQEND
  8
8
  0
ENDBLK
  0
BLOCK
  8
0
  2
LDM000222D-VS-F-FR_26
 70
64
 10
0.0000
 20
0.0000
  0
TEXT
  8
1
 10
-78.7545
 20
138.2189
 40
0.250
 50
0.0000
  1
Piece Name: LDM000222D-VS-F-FR
  7
STANDARD
  0
TEXT
  8
1
 10
-78.7545
 20
138.3589
 40
0.250
 50
0.0000
  1
SIZE: 26
  7
STANDARD
  0
POLYLINE
  8
1
 66
1
 70
1
  0
VERTEX
  8
1
 10
-98.6025
 20
141.6074
  0
VERTEX
  8
1
 10
-82.6277
 20
142.2894
  0
VERTEX
  8
1
 10
-82.6277
 20
142.2894
  0
VERTEX
  8
1
 10
-74.1322
 20
142.7231
  0
VERTEX
  8
1
 10
-69.6199
 20
143.0255
  0
VERTEX
  8
1
 10
-68.6188
 20
143.0946
  0
VERTEX
  8
1
 10
-68.6188
 20
143.0946
  0
VERTEX
  8
1
 10
-68.4301
 20
142.6183
  0
VERTEX
  8
1
 10
-68.0453
 20
142.1252
  0
VERTEX
  8
1
 10
-67.3703
 20
141.6987
  0
VERTEX
  8
1
 10
-66.6044
 20
141.4663
  0
VERTEX
  8
1
 10
-65.6186
 20
141.2855
  0
VERTEX
  8
1
 10
-65.6186
 20
141.2855
  0
VERTEX
  8
1
 10
-59.1473
 20
140.6603
  0
VERTEX
  8
1
 10
-59.1473
 20
140.6603
  0
VERTEX
  8
1
 10
-59.2243
 20
139.2152
  0
VERTEX
  8
1
 10
-59.2149
 20
136.9795
  0
VERTEX
  8
1
 10
-59.0672
 20
134.9076
  0
VERTEX
  8
1
 10
-59.0672
 20
134.9076
  0
VERTEX
  8
1
 10
-58.9065
 20
133.6681
  0
VERTEX
  8
1
 10
-58.9065
 20
133.6681
  0
VERTEX
  8
1
 10
-64.3953
 20
133.3467
  0
VERTEX
  8
1
 10
-64.3953
 20
133.3467
  0
VERTEX
  8
1
 10
-65.3689
 20
133.3432
  0
VERTEX
  8
1
 10
-69.6165
 20
133.5395
  0
VERTEX
  8
1
 10
-69.6165
 20
133.5395
  0
VERTEX
  8
1
 10
-74.1365
 20
133.7854
  0
VERTEX
  8
1
 10
-82.6277
 20
134.2971
  0
VERTEX
  8
1
 10
-82.6277
 20
134.2971
  0
VERTEX
  8
1
 10
-98.6025
 20
134.9891
  0
VERTEX
  8
1
 10
-98.6025
 20
134.9891
  0
VERTEX
  8
1
 10
-98.6025
 20
141.6074
  0
SEQEND
  8
1
  0
LINE
  8
7
 10
-98.5508
 20
138.2982
 11
-70.4680
 21
138.2982
  0
LINE
  8
5
 10
-98.5508
 20
138.2982
 11
-70.4680
 21
138.2982
  0
LINE
  8
8
 10
-65.3689
 20
133.3432
 11
-65.6186
 21
141.2855
  0
LINE
  8
8
 10
-74.1322
 20
133.7852
 11
-74.1322
 21
142.7231
  0
LINE
  8
8
 10
-82.6277
 20
134.2971
 11
-82.6277
 21
142.2894
  0
LINE
  8
8
 10
-69.6199
 20
143.0255
 11
-69.6165
 21
133.5400
  0
LINE
  8
8
 10
-59.0672
 20
134.9076
 11
-64.3953
 21
133.3467
  0
POLYLINE
  8
8
 66
1
 70
0
  0
VERTEX
  8
8
 10
-59.2244
 20
139.1622
  0
VERTEX
  8
8
 10
-64.0731
 20
139.6305
  0
VERTEX
  8
8
 10
-64.4364
 20
139.6793
  0
VERTEX
  8
8
 10
-65.0126
 20
139.8635
  0
VERTEX
  8
8
 10
-65.4320
 20
140.3458
  0
VERTEX
  8
8
 10
-65.5935
 20
141.0486
  0
VERTEX
  8
8
 10
-65.6186
 20
141.2855
  0
SEQEND
  8
8
  0
ENDBLK
  0
BLOCK
  8
0
  2
LDM000222D-VS-F-FR_27
 70
64
 10
0.0000
 20
0.0000
  0
TEXT
  8
1
 10
-78.7544
 20
138.2189
 40
0.250
 50
0.0000
  1
Piece Name: LDM000222D-VS-F-FR
  7
STANDARD
  0
TEXT
  8
1
 10
-78.7544
 20
138.3589
 40
0.250
 50
0.0000
  1
SIZE: 27
  7
STANDARD
  0
POLYLINE
  8
1
 66
1
 70
1
  0
VERTEX
  8
1
 10
-98.6604
 20
141.6327
  0
VERTEX
  8
1
 10
-82.6874
 20
142.3467
  0
VERTEX
  8
1
 10
-82.6874
 20
142.3467
  0
VERTEX
  8
1
 10
-74.1936
 20
142.8004
  0
VERTEX
  8
1
 10
-69.6896
 20
143.1781
  0
VERTEX
  8
1
 10
-68.6899
 20
143.2639
  0
VERTEX
  8
1
 10
-68.6899
 20
143.2639
  0
VERTEX
  8
1
 10
-68.4867
 20
142.7754
  0
VERTEX
  8
1
 10
-68.0808
 20
142.2730
  0
VERTEX
  8
1
 10
-67.3766
 20
141.8443
  0
VERTEX
  8
1
 10
-66.5816
 20
141.6176
  0
VERTEX
  8
1
 10
-65.5607
 20
141.4480
  0
VERTEX
  8
1
 10
-65.5607
 20
141.4480
  0
VERTEX
  8
1
 10
-59.0937
 20
140.7817
  0
VERTEX
  8
1
 10
-59.0937
 20
140.7817
  0
VERTEX
  8
1
 10
-59.1745
 20
139.3052
  0
VERTEX
  8
1
 10
-59.1685
 20
137.0207
  0
VERTEX
  8
1
 10
-59.0206
 20
134.9034
  0
VERTEX
  8
1
 10
-59.0206
 20
134.9034
  0
VERTEX
  8
1
 10
-58.8485
 20
133.5394
  0
VERTEX
  8
1
 10
-58.8485
 20
133.5394
  0
VERTEX
  8
1
 10
-64.7101
 20
133.1740
  0
VERTEX
  8
1
 10
-64.7101
 20
133.1740
  0
VERTEX
  8
1
 10
-65.3141
 20
133.1925
  0
VERTEX
  8
1
 10
-69.6875
 20
133.4019
  0
VERTEX
  8
1
 10
-69.6875
 20
133.4019
  0
VERTEX
  8
1
 10
-74.1980
 20
133.6747
  0
VERTEX
  8
1
 10
-82.6874
 20
134.2284
  0
VERTEX
  8
1
 10
-82.6874
 20
134.2284
  0
VERTEX
  8
1
 10
-98.6604
 20
134.9524
  0
VERTEX
  8
1
 10
-98.6604
 20
134.9524
  0
VERTEX
  8
1
 10
-98.6604
 20
141.6327
  0
SEQEND
  8
1
  0
LINE
  8
7
 10
-98.6219
 20
138.2925
 11
-70.5390
 21
138.2925
  0
LINE
  8
5
 10
-98.6219
 20
138.2925
 11
-70.5390
 21
138.2925
  0
LINE
  8
8
 10
-65.3141
 20
133.1925
 11
-65.5607
 21
141.4480
  0
LINE
  8
8
 10
-74.1936
 20
133.6745
 11
-74.1936
 21
142.8004
  0
LINE
  8
8
 10
-82.6874
 20
134.2284
 11
-82.6874
 21
142.3467
  0
LINE
  8
8
 10
-69.6896
 20
143.1781
 11
-69.6875
 21
133.4024
  0
LINE
  8
8
 10
-59.0206
 20
134.9034
 11
-64.7101
 21
133.1740
  0
POLYLINE
  8
8
 66
1
 70
0
  0
VERTEX
  8
8
 10
-59.1741
 20
139.2835
  0
VERTEX
  8
8
 10
-64.0257
 20
139.7832
  0
VERTEX
  8
8
 10
-64.3887
 20
139.8343
  0
VERTEX
  8
8
 10
-64.9637
 20
140.0221
  0
VERTEX
  8
8
 10
-65.3801
 20
140.5071
  0
VERTEX
  8
8
 10
-65.5371
 20
141.2109
  0
VERTEX
  8
8
 10
-65.5607
 20
141.4480
  0
SEQEND
  8
8
  0
ENDBLK
  0
BLOCK
  8
0
  2
LDM000222D-VS-F-FR_28
 70
64
 10
0.0000
 20
0.0000
  0
TEXT
  8
1
 10
-78.7545
 20
138.2189
 40
0.250
 50
0.0000
  1
Piece Name: LDM000222D-VS-F-FR
  7
STANDARD
  0
TEXT
  8
1
 10
-78.7545
 20
138.3589
 40
0.250
 50
0.0000
  1
SIZE: 28
  7
STANDARD
  0
POLYLINE
  8
1
 66
1
 70
1
  0
VERTEX
  8
1
 10
-98.7191
 20
141.6465
  0
VERTEX
  8
1
 10
-82.7479
 20
142.3925
  0
VERTEX
  8
1
 10
-82.7479
 20
142.3925
  0
VERTEX
  8
1
 10
-74.2606
 20
142.9282
  0
VERTEX
  8
1
 10
-69.7595
 20
143.3305
  0
VERTEX
  8
1
 10
-68.7603
 20
143.4217
  0
VERTEX
  8
1
 10
-68.7603
 20
143.4217
  0
VERTEX
  8
1
 10
-68.5432
 20
142.9212
  0
VERTEX
  8
1
 10
-68.1166
 20
142.4096
  0
VERTEX
  8
1
 10
-67.3836
 20
141.9787
  0
VERTEX
  8
1
 10
-66.5603
 20
141.7575
  0
VERTEX
  8
1
 10
-65.5047
 20
141.5989
  0
VERTEX
  8
1
 10
-65.5047
 20
141.5989
  0
VERTEX
  8
1
 10
-59.0423
 20
140.8912
  0
VERTEX
  8
1
 10
-59.0423
 20
140.8912
  0
VERTEX
  8
1
 10
-59.1260
 20
139.3519
  0
VERTEX
  8
1
 10
-59.1188
 20
136.9702
  0
VERTEX
  8
1
 10
-58.9640
 20
134.7628
  0
VERTEX
  8
1
 10
-58.9640
 20
134.7628
  0
VERTEX
  8
1
 10
-58.7900
 20
133.3990
  0
VERTEX
  8
1
 10
-58.7900
 20
133.3990
  0
VERTEX
  8
1
 10
-64.6503
 20
133.0161
  0
VERTEX
  8
1
 10
-64.6503
 20
133.0161
  0
VERTEX
  8
1
 10
-65.2585
 20
133.0303
  0
VERTEX
  8
1
 10
-69.7580
 20
133.2527
  0
VERTEX
  8
1
 10
-69.7580
 20
133.2527
  0
VERTEX
  8
1
 10
-74.2649
 20
133.5525
  0
VERTEX
  8
1
 10
-82.7479
 20
134.1482
  0
VERTEX
  8
1
 10
-82.7479
 20
134.1482
  0
VERTEX
  8
1
 10
-98.7191
 20
134.9042
  0
VERTEX
  8
1
 10
-98.7191
 20
134.9042
  0
VERTEX
  8
1
 10
-98.7191
 20
141.6465
  0
SEQEND
  8
1
  0
LINE
  8
7
 10
-98.6923
 20
138.2753
 11
-70.6095
 21
138.2753
  0
LINE
  8
5
 10
-98.6923
 20
138.2753
 11
-70.6095
 21
138.2753
  0
LINE
  8
8
 10
-65.2585
 20
133.0303
 11
-65.5047
 21
141.5989
  0
LINE
  8
8
 10
-74.2606
 20
133.5523
 11
-74.2606
 21
142.9282
  0
LINE
  8
8
 10
-82.7479
 20
134.1482
 11
-82.7479
 21
142.3925
  0
LINE
  8
8
 10
-69.7595
 20
143.3305
 11
-69.7580
 21
133.2532
  0
LINE
  8
8
 10
-58.9640
 20
134.7628
 11
-64.6503
 21
133.0161
  0
POLYLINE
  8
8
 66
1
 70
0
  0
VERTEX
  8
8
 10
-59.1233
 20
139.3926
  0
VERTEX
  8
8
 10
-63.9806
 20
139.9243
  0
VERTEX
  8
8
 10
-64.3432
 20
139.9777
  0
VERTEX
  8
8
 10
-64.9171
 20
140.1692
  0
VERTEX
  8
8
 10
-65.3303
 20
140.6569
  0
VERTEX
  8
8
 10
-65.4827
 20
141.3617
  0
VERTEX
  8
8
 10
-65.5047
 20
141.5989
  0
SEQEND
  8
8
  0
ENDBLK
  0
BLOCK
  8
0
  2
LDM000222D-VS-F-FR_29
 70
64
 10
0.0000
 20
0.0000
  0
TEXT
  8
1
 10
-78.7545
 20
138.2189
 40
0.250
 50
0.0000
  1
Piece Name: LDM000222D-VS-F-FR
  7
STANDARD
  0
TEXT
  8
1
 10
-78.7545
 20
138.3589
 40
0.250
 50
0.0000
  1
SIZE: 29
  7
STANDARD
  0
POLYLINE
  8
1
 66
1
 70
1
  0
VERTEX
  8
1
 10
-98.7422
 20
141.6964
  0
VERTEX
  8
1
 10
-82.7728
 20
142.4734
  0
VERTEX
  8
1
 10
-82.7728
 20
142.4734
  0
VERTEX
  8
1
 10
-74.2848
 20
142.9981
  0
VERTEX
  8
1
 10
-69.7895
 20
143.4446
  0
VERTEX
  8
1
 10
-68.7912
 20
143.5456
  0
VERTEX
  8
1
 10
-68.7912
 20
143.5456
  0
VERTEX
  8
1
 10
-68.6054
 20
143.0671
  0
VERTEX
  8
1
 10
-68.2231
 20
142.5704
  0
VERTEX
  8
1
 10
-67.5499
 20
142.1384
  0
VERTEX
  8
1
 10
-66.7839
 20
141.9002
  0
VERTEX
  8
1
 10
-65.7975
 20
141.7123
  0
VERTEX
  8
1
 10
-65.7975
 20
141.7123
  0
VERTEX
  8
1
 10
-58.9556
 20
141.0083
  0
VERTEX
  8
1
 10
-58.9556
 20
141.0083
  0
VERTEX
  8
1
 10
-59.0569
 20
139.4064
  0
VERTEX
  8
1
 10
-59.0711
 20
136.9265
  0
VERTEX
  8
1
 10
-58.9301
 20
134.6268
  0
VERTEX
  8
1
 10
-58.9301
 20
134.6268
  0
VERTEX
  8
1
 10
-58.7669
 20
133.2616
  0
VERTEX
  8
1
 10
-58.7669
 20
133.2616
  0
VERTEX
  8
1
 10
-64.6285
 20
132.8956
  0
VERTEX
  8
1
 10
-64.6285
 20
132.8956
  0
VERTEX
  8
1
 10
-65.6148
 20
132.8922
  0
VERTEX
  8
1
 10
-69.7889
 20
133.1282
  0
VERTEX
  8
1
 10
-69.7889
 20
133.1282
  0
VERTEX
  8
1
 10
-74.2892
 20
133.4344
  0
VERTEX
  8
1
 10
-82.7728
 20
134.0411
  0
VERTEX
  8
1
 10
-82.7728
 20
134.0411
  0
VERTEX
  8
1
 10
-98.7422
 20
134.8281
  0
VERTEX
  8
1
 10
-98.7422
 20
134.8281
  0
VERTEX
  8
1
 10
-98.7422
 20
141.6964
  0
SEQEND
  8
1
  0
LINE
  8
7
 10
-98.7232
 20
138.2622
 11
-70.6404
 21
138.2622
  0
LINE
  8
5
 10
-98.7232
 20
138.2622
 11
-70.6404
 21
138.2622
  0
LINE
  8
8
 10
-65.6148
 20
132.8922
 11
-65.7975
 21
141.7123
  0
LINE
  8
8
 10
-74.2848
 20
133.4342
 11
-74.2848
 21
142.9981
  0
LINE
  8
8
 10
-82.7728
 20
134.0411
 11
-82.7728
 21
142.4734
  0
LINE
  8
8
 10
-69.7895
 20
143.4446
 11
-69.7889
 21
133.1287
  0
LINE
  8
8
 10
-58.9301
 20
134.6268
 11
-64.6285
 21
132.8956
  0
POLYLINE
  8
8
 66
1
 70
0
  0
VERTEX
  8
8
 10
-59.0496
 20
139.5115
  0
VERTEX
  8
8
 10
-64.2624
 20
140.0477
  0
VERTEX
  8
8
 10
-64.6253
 20
140.0987
  0
VERTEX
  8
8
 10
-65.2004
 20
140.2865
  0
VERTEX
  8
8
 10
-65.6168
 20
140.7714
  0
VERTEX
  8
8
 10
-65.7739
 20
141.4752
  0
VERTEX
  8
8
 10
-65.7975
 20
141.7123
  0
SEQEND
  8
8
  0
ENDBLK
  0
BLOCK
  8
0
  2
LDM000222D-VS-F-FR_30
 70
64
 10
0.0000
 20
0.0000
  0
TEXT
  8
1
 10
-78.7545
 20
138.2189
 40
0.250
 50
0.0000
  1
Piece Name: LDM000222D-VS-F-FR
  7
STANDARD
  0
TEXT
  8
1
 10
-78.7545
 20
138.3589
 40
0.250
 50
0.0000
  1
SIZE: 30
  7
STANDARD
  0
POLYLINE
  8
1
 66
1
 70
1
  0
VERTEX
  8
1
 10
-98.8040
 20
141.7534
  0
VERTEX
  8
1
 10
-82.8367
 20
142.5614
  0
VERTEX
  8
1
 10
-82.8367
 20
142.5614
  0
VERTEX
  8
1
 10
-74.3530
 20
143.1371
  0
VERTEX
  8
1
 10
-69.8567
 20
143.5770
  0
VERTEX
  8
1
 10
-68.8583
 20
143.6766
  0
VERTEX
  8
1
 10
-68.8583
 20
143.6766
  0
VERTEX
  8
1
 10
-68.6591
 20
143.1857
  0
VERTEX
  8
1
 10
-68.2570
 20
142.6790
  0
VERTEX
  8
1
 10
-67.5552
 20
142.2437
  0
VERTEX
  8
1
 10
-66.7612
 20
142.0099
  0
VERTEX
  8
1
 10
-65.7402
 20
141.8313
  0
VERTEX
  8
1
 10
-65.7402
 20
141.8313
  0
VERTEX
  8
1
 10
-58.8995
 20
141.1286
  0
VERTEX
  8
1
 10
-58.8995
 20
141.1286
  0
VERTEX
  8
1
 10
-59.0036
 20
139.4639
  0
VERTEX
  8
1
 10
-59.0167
 20
136.8869
  0
VERTEX
  8
1
 10
-58.8686
 20
134.4973
  0
VERTEX
  8
1
 10
-58.8686
 20
134.4973
  0
VERTEX
  8
1
 10
-58.7050
 20
133.1321
  0
VERTEX
  8
1
 10
-58.7050
 20
133.1321
  0
VERTEX
  8
1
 10
-64.5664
 20
132.7651
  0
VERTEX
  8
1
 10
-64.5664
 20
132.7651
  0
VERTEX
  8
1
 10
-65.5569
 20
132.7612
  0
VERTEX
  8
1
 10
-69.8560
 20
133.0106
  0
VERTEX
  8
1
 10
-69.8560
 20
133.0106
  0
VERTEX
  8
1
 10
-74.3573
 20
133.3234
  0
VERTEX
  8
1
 10
-82.8367
 20
133.9411
  0
VERTEX
  8
1
 10
-82.8367
 20
133.9411
  0
VERTEX
  8
1
 10
-98.8040
 20
134.7591
  0
VERTEX
  8
1
 10
-98.8040
 20
134.7591
  0
VERTEX
  8
1
 10
-98.8040
 20
141.7534
  0
SEQEND
  8
1
  0
LINE
  8
7
 10
-98.7903
 20
138.2562
 11
-70.7075
 21
138.2562
  0
LINE
  8
5
 10
-98.7903
 20
138.2562
 11
-70.7075
 21
138.2562
  0
LINE
  8
8
 10
-65.5569
 20
132.7612
 11
-65.7402
 21
141.8313
  0
LINE
  8
8
 10
-74.3530
 20
133.3232
 11
-74.3530
 21
143.1371
  0
LINE
  8
8
 10
-82.8367
 20
133.9411
 11
-82.8367
 21
142.5614
  0
LINE
  8
8
 10
-69.8567
 20
143.5770
 11
-69.8560
 21
133.0111
  0
LINE
  8
8
 10
-58.8686
 20
134.4973
 11
-64.5664
 21
132.7651
  0
POLYLINE
  8
8
 66
1
 70
0
  0
VERTEX
  8
8
 10
-58.9929
 20
139.6318
  0
VERTEX
  8
8
 10
-64.2047
 20
140.1670
  0
VERTEX
  8
8
 10
-64.5677
 20
140.2180
  0
VERTEX
  8
8
 10
-65.1429
 20
140.4056
  0
VERTEX
  8
8
 10
-65.5593
 20
140.8905
  0
VERTEX
  8
8
 10
-65.7165
 20
141.5942
  0
VERTEX
  8
8
 10
-65.7402
 20
141.8313
  0
SEQEND
  8
8
  0
ENDBLK
  0
BLOCK
  8
0
  2
LDM000222D-VS-F-FR_31
 70
64
 10
0.0000
 20
0.0000
  0
TEXT
  8
1
 10
-78.7545
 20
138.2189
 40
0.250
 50
0.0000
  1
Piece Name: LDM000222D-VS-F-FR
  7
STANDARD
  0
TEXT
  8
1
 10
-78.7545
 20
138.3589
 40
0.250
 50
0.0000
  1
SIZE: 31
  7
STANDARD
  0
POLYLINE
  8
1
 66
1
 70
1
  0
VERTEX
  8
1
 10
-98.8644
 20
141.8218
  0
VERTEX
  8
1
 10
-82.8989
 20
142.6608
  0
VERTEX
  8
1
 10
-82.8989
 20
142.6608
  0
VERTEX
  8
1
 10
-74.4145
 20
143.2255
  0
VERTEX
  8
1
 10
-69.9244
 20
143.7096
  0
VERTEX
  8
1
 10
-68.9269
 20
143.8190
  0
VERTEX
  8
1
 10
-68.9269
 20
143.8190
  0
VERTEX
  8
1
 10
-68.7142
 20
143.3156
  0
VERTEX
  8
1
 10
-68.2919
 20
142.7989
  0
VERTEX
  8
1
 10
-67.5617
 20
142.3602
  0
VERTEX
  8
1
 10
-66.7392
 20
142.1308
  0
VERTEX
  8
1
 10
-65.6834
 20
141.9617
  0
VERTEX
  8
1
 10
-65.6834
 20
141.9617
  0
VERTEX
  8
1
 10
-58.8433
 20
141.2602
  0
VERTEX
  8
1
 10
-58.8433
 20
141.2602
  0
VERTEX
  8
1
 10
-58.9516
 20
139.5641
  0
VERTEX
  8
1
 10
-58.9683
 20
136.9385
  0
VERTEX
  8
1
 10
-58.8205
 20
134.5034
  0
VERTEX
  8
1
 10
-58.8205
 20
134.5034
  0
VERTEX
  8
1
 10
-58.6446
 20
133.0138
  0
VERTEX
  8
1
 10
-58.6446
 20
133.0138
  0
VERTEX
  8
1
 10
-64.8800
 20
132.6188
  0
VERTEX
  8
1
 10
-64.8800
 20
132.6188
  0
VERTEX
  8
1
 10
-65.5005
 20
132.6416
  0
VERTEX
  8
1
 10
-69.9246
 20
132.9046
  0
VERTEX
  8
1
 10
-69.9246
 20
132.9046
  0
VERTEX
  8
1
 10
-74.4188
 20
133.2238
  0
VERTEX
  8
1
 10
-82.8989
 20
133.8525
  0
VERTEX
  8
1
 10
-82.8989
 20
133.8525
  0
VERTEX
  8
1
 10
-98.8644
 20
134.7015
  0
VERTEX
  8
1
 10
-98.8644
 20
134.7015
  0
VERTEX
  8
1
 10
-98.8644
 20
141.8218
  0
SEQEND
  8
1
  0
LINE
  8
7
 10
-98.8589
 20
138.2616
 11
-70.7761
 21
138.2616
  0
LINE
  8
5
 10
-98.8589
 20
138.2616
 11
-70.7761
 21
138.2616
  0
LINE
  8
8
 10
-65.5005
 20
132.6416
 11
-65.6834
 21
141.9617
  0
LINE
  8
8
 10
-74.4145
 20
133.2236
 11
-74.4145
 21
143.2255
  0
LINE
  8
8
 10
-82.8989
 20
133.8525
 11
-82.8989
 21
142.6608
  0
LINE
  8
8
 10
-69.9244
 20
143.7096
 11
-69.9246
 21
132.9051
  0
LINE
  8
8
 10
-58.8205
 20
134.5034
 11
-64.8800
 21
132.6188
  0
POLYLINE
  8
8
 66
1
 70
0
  0
VERTEX
  8
8
 10
-58.9387
 20
139.7636
  0
VERTEX
  8
8
 10
-64.1477
 20
140.2977
  0
VERTEX
  8
8
 10
-64.5106
 20
140.3486
  0
VERTEX
  8
8
 10
-65.0858
 20
140.5362
  0
VERTEX
  8
8
 10
-65.5024
 20
141.0209
  0
VERTEX
  8
8
 10
-65.6597
 20
141.7246
  0
VERTEX
  8
8
 10
-65.6834
 20
141.9617
  0
SEQEND
  8
8
  0
ENDBLK
  0
BLOCK
  8
0
  2
LDM000222D-VS-F-FR_32
 70
64
 10
0.0000
 20
0.0000
  0
TEXT
  8
1
 10
-78.7545
 20
138.2189
 40
0.250
 50
0.0000
  1
Piece Name: LDM000222D-VS-F-FR
  7
STANDARD
  0
TEXT
  8
1
 10
-78.7545
 20
138.3589
 40
0.250
 50
0.0000
  1
Quantity: 2
  7
STANDARD
  0
TEXT
  8
1
 10
-78.7545
 20
138.4989
 40
0.250
 50
0.0000
  1
ANNOTATION: MAIN FABRIC
  7
STANDARD
  0
TEXT
  8
1
 10
-78.7545
 20
138.6389
 40
0.250
 50
0.0000
  1
CATEGORY: FRONT
  7
STANDARD
  0
TEXT
  8
1
 10
-78.7545
 20
138.7789
 40
0.250
 50
0.0000
  1
Material: A
  7
STANDARD
  0
TEXT
  8
1
 10
-78.7545
 20
138.9189
 40
0.250
 50
0.0000
  1
SIZE: 32
  7
STANDARD
  0
POLYLINE
  8
1
 66
1
 70
1
  0
VERTEX
  8
1
 10
-98.9262
 20
141.8788
  0
VERTEX
  8
1
 10
-82.9627
 20
142.7488
  0
VERTEX
  8
1
 10
-82.9627
 20
142.7488
  0
VERTEX
  8
1
 10
-74.4829
 20
143.3645
  0
VERTEX
  8
1
 10
-69.9919
 20
143.8421
  0
VERTEX
  8
1
 10
-68.9942
 20
143.9500
  0
VERTEX
  8
1
 10
-68.9942
 20
143.9500
  0
VERTEX
  8
1
 10
-68.7682
 20
143.4343
  0
VERTEX
  8
1
 10
-68.3261
 20
142.9078
  0
VERTEX
  8
1
 10
-67.5679
 20
142.4658
  0
VERTEX
  8
1
 10
-66.7174
 20
142.2406
  0
VERTEX
  8
1
 10
-65.6275
 20
142.0807
  0
VERTEX
  8
1
 10
-65.6275
 20
142.0807
  0
VERTEX
  8
1
 10
-58.7879
 20
141.3802
  0
VERTEX
  8
1
 10
-58.7879
 20
141.3802
  0
VERTEX
  8
1
 10
-58.8993
 20
139.6214
  0
VERTEX
  8
1
 10
-58.9154
 20
136.8986
  0
VERTEX
  8
1
 10
-58.7610
 20
134.3735
  0
VERTEX
  8
1
 10
-58.7610
 20
134.3735
  0
VERTEX
  8
1
 10
-58.5829
 20
132.8841
  0
VERTEX
  8
1
 10
-58.5829
 20
132.8841
  0
VERTEX
  8
1
 10
-64.8182
 20
132.4878
  0
VERTEX
  8
1
 10
-64.8182
 20
132.4878
  0
VERTEX
  8
1
 10
-65.4428
 20
132.5106
  0
VERTEX
  8
1
 10
-69.9919
 20
132.7876
  0
VERTEX
  8
1
 10
-69.9919
 20
132.7876
  0
VERTEX
  8
1
 10
-74.4872
 20
133.1128
  0
VERTEX
  8
1
 10
-82.9627
 20
133.7525
  0
VERTEX
  8
1
 10
-82.9627
 20
133.7525
  0
VERTEX
  8
1
 10
-98.9262
 20
134.6325
  0
VERTEX
  8
1
 10
-98.9262
 20
134.6325
  0
VERTEX
  8
1
 10
-98.9262
 20
141.8788
  0
SEQEND
  8
1
  0
POINT
  8
2
 10
-98.9262
 20
141.8788
  0
TEXT
  8
2
 10
-98.9262
 20
141.8788
 40
0.250
 50
0.0000
  1
# 1
  7
STANDARD
  0
POINT
  8
2
 10
-82.9627
 20
142.7488
  0
TEXT
  8
2
 10
-82.9627
 20
142.7488
 40
0.250
 50
0.0000
  1
# 2
  7
STANDARD
  0
POINT
  8
4
 10
-82.9627
 20
142.7488
 30
0.1574
 39
0.0000
  0
POINT
  8
2
 10
-82.9627
 20
142.7488
  0
POINT
  8
3
 10
-74.4829
 20
143.3645
  0
TEXT
  8
3
 10
-74.4829
 20
143.3645
 40
0.250
 50
0.0000
  1
# 3
  7
STANDARD
  0
POINT
  8
3
 10
-69.9919
 20
143.8421
  0
TEXT
  8
3
 10
-69.9919
 20
143.8421
 40
0.250
 50
0.0000
  1
# 4
  7
STANDARD
  0
POINT
  8
2
 10
-68.9942
 20
143.9500
  0
TEXT
  8
2
 10
-68.9942
 20
143.9500
 40
0.250
 50
0.0000
  1
# 5
  7
STANDARD
  0
POINT
  8
2
 10
-68.9942
 20
143.9500
  0
TEXT
  8
2
 10
-68.9942
 20
143.9500
 40
0.250
 50
0.0000
  1
# 5
  7
STANDARD
  0
POINT
  8
3
 10
-68.7682
 20
143.4343
  0
POINT
  8
3
 10
-68.3261
 20
142.9078
  0
POINT
  8
3
 10
-67.5679
 20
142.4658
  0
POINT
  8
3
 10
-66.7174
 20
142.2406
  0
POINT
  8
2
 10
-65.6275
 20
142.0807
  0
TEXT
  8
2
 10
-65.6275
 20
142.0807
 40
0.250
 50
0.0000
  1
# 6
  7
STANDARD
  0
POINT
  8
4
 10
-65.6275
 20
142.0807
 30
0.1574
 39
0.0000
  0
POINT
  8
2
 10
-65.6275
 20
142.0807
  0
POINT
  8
2
 10
-58.7879
 20
141.3802
  0
TEXT
  8
2
 10
-58.7879
 20
141.3802
 40
0.250
 50
0.0000
  1
# 7
  7
STANDARD
  0
POINT
  8
2
 10
-58.7879
 20
141.3802
  0
TEXT
  8
2
 10
-58.7879
 20
141.3802
 40
0.250
 50
0.0000
  1
# 7
  7
STANDARD
  0
POINT
  8
3
 10
-58.8993
 20
139.6214
  0
POINT
  8
3
 10
-58.9154
 20
136.8986
  0
POINT
  8
2
 10
-58.7610
 20
134.3735
  0
TEXT
  8
2
 10
-58.7610
 20
134.3735
 40
0.250
 50
0.0000
  1
# 8
  7
STANDARD
  0
POINT
  8
4
 10
-58.7610
 20
134.3735
 30
0.1574
 39
0.0000
 50
-162.1630
  0
POINT
  8
2
 10
-58.7610
 20
134.3735
  0
POINT
  8
2
 10
-58.5829
 20
132.8841
  0
TEXT
  8
2
 10
-58.5829
 20
132.8841
 40
0.250
 50
0.0000
  1
# 9
  7
STANDARD
  0
POINT
  8
2
 10
-58.5829
 20
132.8841
  0
TEXT
  8
2
 10
-58.5829
 20
132.8841
 40
0.250
 50
0.0000
  1
# 9
  7
STANDARD
  0
POINT
  8
3
 10
-64.8182
 20
132.4878
  0
TEXT
  8
3
 10
-64.8182
 20
132.4878
 40
0.250
 50
0.0000
  1
# 10
  7
STANDARD
  0
POINT
  8
4
 10
-64.8182
 20
132.4878
 30
0.1574
 39
0.0000
 50
16.7552
  0
POINT
  8
2
 10
-64.8182
 20
132.4878
  0
POINT
  8
3
 10
-65.4428
 20
132.5106
  0
TEXT
  8
3
 10
-65.4428
 20
132.5106
 40
0.250
 50
0.0000
  1
# 11
  7
STANDARD
  0
POINT
  8
3
 10
-69.9919
 20
132.7876
  0
TEXT
  8
3
 10
-69.9919
 20
132.7876
 40
0.250
 50
0.0000
  1
# 12
  7
STANDARD
  0
POINT
  8
4
 10
-69.9919
 20
132.7876
 30
0.1574
 39
0.0000
  0
POINT
  8
2
 10
-69.9919
 20
132.7876
  0
POINT
  8
2
 10
-74.4872
 20
133.1128
  0
TEXT
  8
2
 10
-74.4872
 20
133.1128
 40
0.250
 50
0.0000
  1
# 13
  7
STANDARD
  0
POINT
  8
2
 10
-82.9627
 20
133.7525
  0
TEXT
  8
2
 10
-82.9627
 20
133.7525
 40
0.250
 50
0.0000
  1
# 14
  7
STANDARD
  0
POINT
  8
4
 10
-82.9627
 20
133.7525
 30
0.1574
 39
0.0000
  0
POINT
  8
2
 10
-82.9627
 20
133.7525
  0
POINT
  8
2
 10
-98.9262
 20
134.6325
  0
TEXT
  8
2
 10
-98.9262
 20
134.6325
 40
0.250
 50
0.0000
  1
# 15
  7
STANDARD
  0
POINT
  8
2
 10
-98.9262
 20
134.6325
  0
TEXT
  8
2
 10
-98.9262
 20
134.6325
 40
0.250
 50
0.0000
  1
# 15
  7
STANDARD
  0
POINT
  8
2
 10
-98.9262
 20
141.8788
  0
LINE
  8
7
 10
-98.9262
 20
138.2556
 11
-70.8434
 21
138.2556
  0
LINE
  8
5
 10
-98.9262
 20
138.2556
 11
-70.8434
 21
138.2556
  0
POINT
  8
2
 10
-98.9262
 20
138.2556
  0
POINT
  8
2
 10
-70.8434
 20
138.2556
  0
LINE
  8
8
 10
-65.4428
 20
132.5106
 11
-65.6275
 21
142.0807
  0
TEXT
  8
8
 10
-65.4428
 20
132.5106
 40
0.250
 50
0.0000
  1
NM
  7
STANDARD
  0
POINT
  8
2
 10
-65.4428
 20
132.5106
  0
TEXT
  8
2
 10
-65.4428
 20
132.5106
 40
0.250
 50
0.0000
  1
# 11
  7
STANDARD
  0
POINT
  8
2
 10
-65.6275
 20
142.0807
  0
TEXT
  8
2
 10
-65.6275
 20
142.0807
 40
0.250
 50
0.0000
  1
# 6
  7
STANDARD
  0
LINE
  8
8
 10
-74.4829
 20
133.1126
 11
-74.4829
 21
143.3645
  0
TEXT
  8
8
 10
-74.4829
 20
133.1126
 40
0.250
 50
0.0000
  1
NM
  7
STANDARD
  0
POINT
  8
2
 10
-74.4829
 20
133.1126
  0
TEXT
  8
2
 10
-74.4829
 20
133.1126
 40
0.250
 50
0.0000
  1
# 13
  7
STANDARD
  0
POINT
  8
2
 10
-74.4829
 20
143.3645
  0
TEXT
  8
2
 10
-74.4829
 20
143.3645
 40
0.250
 50
0.0000
  1
# 3
  7
STANDARD
  0
LINE
  8
8
 10
-82.9627
 20
133.7525
 11
-82.9627
 21
142.7488
  0
TEXT
  8
8
 10
-82.9627
 20
133.7525
 40
0.250
 50
0.0000
  1
NM
  7
STANDARD
  0
POINT
  8
2
 10
-82.9627
 20
133.7525
  0
TEXT
  8
2
 10
-82.9627
 20
133.7525
 40
0.250
 50
0.0000
  1
# 14
  7
STANDARD
  0
POINT
  8
2
 10
-82.9627
 20
142.7488
  0
TEXT
  8
2
 10
-82.9627
 20
142.7488
 40
0.250
 50
0.0000
  1
# 2
  7
STANDARD
  0
LINE
  8
8
 10
-69.9919
 20
143.8421
 11
-69.9919
 21
132.7881
  0
TEXT
  8
8
 10
-69.9919
 20
143.8421
 40
0.250
 50
0.0000
  1
NM
  7
STANDARD
  0
POINT
  8
2
 10
-69.9919
 20
143.8421
  0
TEXT
  8
2
 10
-69.9919
 20
143.8421
 40
0.250
 50
0.0000
  1
# 4
  7
STANDARD
  0
POINT
  8
2
 10
-69.9919
 20
132.7881
  0
TEXT
  8
2
 10
-69.9919
 20
132.7881
 40
0.250
 50
0.0000
  1
# 12
  7
STANDARD
  0
LINE
  8
8
 10
-58.7610
 20
134.3735
 11
-64.8182
 21
132.4878
  0
TEXT
  8
8
 10
-58.7610
 20
134.3735
 40
0.250
 50
0.0000
  1
NM
  7
STANDARD
  0
POINT
  8
2
 10
-58.7610
 20
134.3735
  0
TEXT
  8
2
 10
-58.7610
 20
134.3735
 40
0.250
 50
0.0000
  1
# 16
  7
STANDARD
  0
POINT
  8
2
 10
-64.8182
 20
132.4878
  0
TEXT
  8
2
 10
-64.8182
 20
132.4878
 40
0.250
 50
0.0000
  1
# 10
  7
STANDARD
  0
POLYLINE
  8
8
 66
1
 70
0
  0
VERTEX
  8
8
 10
-58.8845
 20
139.8837
  0
VERTEX
  8
8
 10
-64.0916
 20
140.4169
  0
VERTEX
  8
8
 10
-64.4545
 20
140.4678
  0
VERTEX
  8
8
 10
-65.0297
 20
140.6553
  0
VERTEX
  8
8
 10
-65.4463
 20
141.1400
  0
VERTEX
  8
8
 10
-65.6037
 20
141.8437
  0
VERTEX
  8
8
 10
-65.6275
 20
142.0807
  0
SEQEND
  8
8
  0
TEXT
  8
8
 10
-58.8845
 20
139.8837
 40
0.250
 50
0.0000
  1
NM
  7
STANDARD
  0
POINT
  8
2
 10
-58.8845
 20
139.8837
  0
TEXT
  8
2
 10
-58.8845
 20
139.8837
 40
0.250
 50
0.0000
  1
# 17
  7
STANDARD
  0
POINT
  8
2
 10
-64.0916
 20
140.4169
  0
TEXT
  8
2
 10
-64.0916
 20
140.4169
 40
0.250
 50
0.0000
  1
# 18
  7
STANDARD
  0
POINT
  8
3
 10
-64.4545
 20
140.4678
  0
POINT
  8
3
 10
-65.0297
 20
140.6553
  0
POINT
  8
3
 10
-65.4463
 20
141.1400
  0
POINT
  8
3
 10
-65.6037
 20
141.8437
  0
POINT
  8
2
 10
-65.6275
 20
142.0807
  0
TEXT
  8
2
 10
-65.6275
 20
142.0807
 40
0.250
 50
0.0000
  1
# 19
  7
STANDARD
  0
ENDBLK
  0
BLOCK
  8
0
  2
LDM000222D-VS-F-FR_33
 70
64
 10
0.0000
 20
0.0000
  0
TEXT
  8
1
 10
-78.7508
 20
138.2189
 40
0.250
 50
0.0000
  1
Piece Name: LDM000222D-VS-F-FR
  7
STANDARD
  0
TEXT
  8
1
 10
-78.7508
 20
138.3589
 40
0.250
 50
0.0000
  1
SIZE: 33
  7
STANDARD
  0
POLYLINE
  8
1
 66
1
 70
1
  0
VERTEX
  8
1
 10
-99.0599
 20
141.9276
  0
VERTEX
  8
1
 10
-83.0985
 20
142.8286
  0
VERTEX
  8
1
 10
-83.0985
 20
142.8286
  0
VERTEX
  8
1
 10
-74.6207
 20
143.4643
  0
VERTEX
  8
1
 10
-70.1323
 20
143.9607
  0
VERTEX
  8
1
 10
-69.1352
 20
144.0728
  0
VERTEX
  8
1
 10
-69.1352
 20
144.0728
  0
VERTEX
  8
1
 10
-68.9413
 20
143.5784
  0
VERTEX
  8
1
 10
-68.5444
 20
143.0658
  0
VERTEX
  8
1
 10
-67.8462
 20
142.6211
  0
VERTEX
  8
1
 10
-67.0532
 20
142.3772
  0
VERTEX
  8
1
 10
-66.0320
 20
142.1861
  0
VERTEX
  8
1
 10
-66.0320
 20
142.1861
  0
VERTEX
  8
1
 10
-58.8156
 20
141.4853
  0
VERTEX
  8
1
 10
-58.8156
 20
141.4853
  0
VERTEX
  8
1
 10
-58.8960
 20
139.6632
  0
VERTEX
  8
1
 10
-58.8584
 20
136.8455
  0
VERTEX
  8
1
 10
-58.6482
 20
134.2359
  0
VERTEX
  8
1
 10
-58.6482
 20
134.2359
  0
VERTEX
  8
1
 10
-58.4418
 20
132.7502
  0
VERTEX
  8
1
 10
-58.4418
 20
132.7502
  0
VERTEX
  8
1
 10
-64.6780
 20
132.3651
  0
VERTEX
  8
1
 10
-64.6780
 20
132.3651
  0
VERTEX
  8
1
 10
-65.6451
 20
132.3714
  0
VERTEX
  8
1
 10
-70.1328
 20
132.6613
  0
VERTEX
  8
1
 10
-70.1328
 20
132.6613
  0
VERTEX
  8
1
 10
-74.6250
 20
132.9936
  0
VERTEX
  8
1
 10
-83.0985
 20
133.6443
  0
VERTEX
  8
1
 10
-83.0985
 20
133.6443
  0
VERTEX
  8
1
 10
-99.0599
 20
134.5553
  0
VERTEX
  8
1
 10
-99.0599
 20
134.5553
  0
VERTEX
  8
1
 10
-99.0599
 20
141.9276
  0
SEQEND
  8
1
  0
LINE
  8
7
 10
-99.0672
 20
138.2414
 11
-70.9844
 21
138.2414
  0
LINE
  8
5
 10
-99.0672
 20
138.2414
 11
-70.9844
 21
138.2414
  0
LINE
  8
8
 10
-65.6451
 20
132.3714
 11
-66.0320
 21
142.1861
  0
LINE
  8
8
 10
-74.6207
 20
132.9934
 11
-74.6207
 21
143.4643
  0
LINE
  8
8
 10
-83.0985
 20
133.6443
 11
-83.0985
 21
142.8286
  0
LINE
  8
8
 10
-70.1323
 20
143.9607
 11
-70.1328
 21
132.6618
  0
LINE
  8
8
 10
-58.6482
 20
134.2359
 11
-64.6780
 21
132.3651
  0
POLYLINE
  8
8
 66
1
 70
0
  0
VERTEX
  8
8
 10
-58.8843
 20
139.9864
  0
VERTEX
  8
8
 10
-64.4874
 20
140.5304
  0
VERTEX
  8
8
 10
-64.8505
 20
140.5793
  0
VERTEX
  8
8
 10
-65.4267
 20
140.7638
  0
VERTEX
  8
8
 10
-65.8459
 20
141.2463
  0
VERTEX
  8
8
 10
-66.0070
 20
141.9492
  0
VERTEX
  8
8
 10
-66.0320
 20
142.1861
  0
SEQEND
  8
8
  0
ENDBLK
  0
BLOCK
  8
0
  2
LDM000222D-VS-F-FR_34
 70
64
 10
0.0000
 20
0.0000
  0
TEXT
  8
1
 10
-78.7472
 20
138.2189
 40
0.250
 50
0.0000
  1
Piece Name: LDM000222D-VS-F-FR
  7
STANDARD
  0
TEXT
  8
1
 10
-78.7472
 20
138.3589
 40
0.250
 50
0.0000
  1
SIZE: 34
  7
STANDARD
  0
POLYLINE
  8
1
 66
1
 70
1
  0
VERTEX
  8
1
 10
-99.1935
 20
141.9849
  0
VERTEX
  8
1
 10
-83.2342
 20
142.9169
  0
VERTEX
  8
1
 10
-83.2342
 20
142.9169
  0
VERTEX
  8
1
 10
-74.7584
 20
143.5726
  0
VERTEX
  8
1
 10
-70.2728
 20
144.0878
  0
VERTEX
  8
1
 10
-69.2762
 20
144.2041
  0
VERTEX
  8
1
 10
-69.2762
 20
144.2041
  0
VERTEX
  8
1
 10
-69.0698
 20
143.6963
  0
VERTEX
  8
1
 10
-68.6536
 20
143.1724
  0
VERTEX
  8
1
 10
-67.9275
 20
142.7224
  0
VERTEX
  8
1
 10
-67.1058
 20
142.4809
  0
VERTEX
  8
1
 10
-66.0496
 20
142.2967
  0
VERTEX
  8
1
 10
-66.0496
 20
142.2967
  0
VERTEX
  8
1
 10
-58.8363
 20
141.5954
  0
VERTEX
  8
1
 10
-58.8363
 20
141.5954
  0
VERTEX
  8
1
 10
-58.8865
 20
139.7106
  0
VERTEX
  8
1
 10
-58.7969
 20
136.7988
  0
VERTEX
  8
1
 10
-58.5328
 20
134.1052
  0
VERTEX
  8
1
 10
-58.5328
 20
134.1052
  0
VERTEX
  8
1
 10
-58.3009
 20
132.6233
  0
VERTEX
  8
1
 10
-58.3009
 20
132.6233
  0
VERTEX
  8
1
 10
-64.5367
 20
132.2338
  0
VERTEX
  8
1
 10
-64.5367
 20
132.2338
  0
VERTEX
  8
1
 10
-65.4721
 20
132.2407
  0
VERTEX
  8
1
 10
-70.2739
 20
132.5442
  0
VERTEX
  8
1
 10
-70.2739
 20
132.5442
  0
VERTEX
  8
1
 10
-74.7627
 20
132.8829
  0
VERTEX
  8
1
 10
-83.2342
 20
133.5446
  0
VERTEX
  8
1
 10
-83.2342
 20
133.5446
  0
VERTEX
  8
1
 10
-99.1935
 20
134.4866
  0
VERTEX
  8
1
 10
-99.1935
 20
134.4866
  0
VERTEX
  8
1
 10
-99.1935
 20
141.9849
  0
SEQEND
  8
1
  0
LINE
  8
7
 10
-99.2082
 20
138.2357
 11
-71.1254
 21
138.2357
  0
LINE
  8
5
 10
-99.2082
 20
138.2357
 11
-71.1254
 21
138.2357
  0
LINE
  8
8
 10
-65.4721
 20
132.2407
 11
-66.0496
 21
142.2967
  0
LINE
  8
8
 10
-74.7584
 20
132.8827
 11
-74.7584
 21
143.5726
  0
LINE
  8
8
 10
-83.2342
 20
133.5446
 11
-83.2342
 21
142.9169
  0
LINE
  8
8
 10
-70.2728
 20
144.0878
 11
-70.2739
 21
132.5447
  0
LINE
  8
8
 10
-58.5328
 20
134.1052
 11
-64.5367
 21
132.2338
  0
POLYLINE
  8
8
 66
1
 70
0
  0
VERTEX
  8
8
 10
-58.8793
 20
140.0940
  0
VERTEX
  8
8
 10
-64.5052
 20
140.6408
  0
VERTEX
  8
8
 10
-64.8684
 20
140.6898
  0
VERTEX
  8
8
 10
-65.4446
 20
140.8743
  0
VERTEX
  8
8
 10
-65.8635
 20
141.3569
  0
VERTEX
  8
8
 10
-66.0245
 20
142.0598
  0
VERTEX
  8
8
 10
-66.0496
 20
142.2967
  0
SEQEND
  8
8
  0
ENDBLK
  0
BLOCK
  8
0
  2
LDM000222D-VS-F-FR_35
 70
64
 10
0.0000
 20
0.0000
  0
TEXT
  8
1
 10
-78.7432
 20
138.2189
 40
0.250
 50
0.0000
  1
Piece Name: LDM000222D-VS-F-FR
  7
STANDARD
  0
TEXT
  8
1
 10
-78.7432
 20
138.3589
 40
0.250
 50
0.0000
  1
SIZE: 35
  7
STANDARD
  0
POLYLINE
  8
1
 66
1
 70
1
  0
VERTEX
  8
1
 10
-99.3267
 20
142.0494
  0
VERTEX
  8
1
 10
-83.3697
 20
143.0124
  0
VERTEX
  8
1
 10
-83.3697
 20
143.0124
  0
VERTEX
  8
1
 10
-74.8959
 20
143.6881
  0
VERTEX
  8
1
 10
-70.4134
 20
144.2221
  0
VERTEX
  8
1
 10
-69.4172
 20
144.3426
  0
VERTEX
  8
1
 10
-69.4172
 20
144.3426
  0
VERTEX
  8
1
 10
-69.1827
 20
143.8107
  0
VERTEX
  8
1
 10
-68.7252
 20
143.2681
  0
VERTEX
  8
1
 10
-67.9416
 20
142.8134
  0
VERTEX
  8
1
 10
-67.0630
 20
142.5828
  0
VERTEX
  8
1
 10
-65.9375
 20
142.4201
  0
VERTEX
  8
1
 10
-65.9375
 20
142.4201
  0
VERTEX
  8
1
 10
-58.7266
 20
141.7208
  0
VERTEX
  8
1
 10
-58.7266
 20
141.7208
  0
VERTEX
  8
1
 10
-58.7766
 20
139.8045
  0
VERTEX
  8
1
 10
-58.6841
 20
136.8442
  0
VERTEX
  8
1
 10
-58.4140
 20
134.1057
  0
VERTEX
  8
1
 10
-58.4140
 20
134.1057
  0
VERTEX
  8
1
 10
-58.1598
 20
132.5008
  0
VERTEX
  8
1
 10
-58.1598
 20
132.5008
  0
VERTEX
  8
1
 10
-64.7698
 20
132.0953
  0
VERTEX
  8
1
 10
-64.7698
 20
132.0953
  0
VERTEX
  8
1
 10
-65.2991
 20
132.1172
  0
VERTEX
  8
1
 10
-70.4148
 20
132.4342
  0
VERTEX
  8
1
 10
-70.4148
 20
132.4342
  0
VERTEX
  8
1
 10
-74.9002
 20
132.7794
  0
VERTEX
  8
1
 10
-83.3697
 20
133.4521
  0
VERTEX
  8
1
 10
-83.3697
 20
133.4521
  0
VERTEX
  8
1
 10
-99.3267
 20
134.4251
  0
VERTEX
  8
1
 10
-99.3267
 20
134.4251
  0
VERTEX
  8
1
 10
-99.3267
 20
142.0494
  0
SEQEND
  8
1
  0
LINE
  8
7
 10
-99.3492
 20
138.2372
 11
-71.2663
 21
138.2372
  0
LINE
  8
5
 10
-99.3492
 20
138.2372
 11
-71.2663
 21
138.2372
  0
LINE
  8
8
 10
-65.2991
 20
132.1172
 11
-65.9375
 21
142.4201
  0
LINE
  8
8
 10
-74.8959
 20
132.7792
 11
-74.8959
 21
143.6881
  0
LINE
  8
8
 10
-83.3697
 20
133.4521
 11
-83.3697
 21
143.0124
  0
LINE
  8
8
 10
-70.4134
 20
144.2221
 11
-70.4148
 21
132.4347
  0
LINE
  8
8
 10
-58.4140
 20
134.1057
 11
-64.7698
 21
132.0953
  0
POLYLINE
  8
8
 66
1
 70
0
  0
VERTEX
  8
8
 10
-58.7697
 20
140.2194
  0
VERTEX
  8
8
 10
-64.3928
 20
140.7646
  0
VERTEX
  8
8
 10
-64.7560
 20
140.8135
  0
VERTEX
  8
8
 10
-65.3322
 20
140.9979
  0
VERTEX
  8
8
 10
-65.7513
 20
141.4803
  0
VERTEX
  8
8
 10
-65.9126
 20
142.1832
  0
VERTEX
  8
8
 10
-65.9375
 20
142.4201
  0
SEQEND
  8
8
  0
ENDBLK
  0
BLOCK
  8
0
  2
LDM000222D-VS-F-FR_36
 70
64
 10
0.0000
 20
0.0000
  0
TEXT
  8
1
 10
-78.7393
 20
138.2189
 40
0.250
 50
0.0000
  1
Piece Name: LDM000222D-VS-F-FR
  7
STANDARD
  0
TEXT
  8
1
 10
-78.7393
 20
138.3589
 40
0.250
 50
0.0000
  1
SIZE: 36
  7
STANDARD
  0
POLYLINE
  8
1
 66
1
 70
1
  0
VERTEX
  8
1
 10
-99.4598
 20
142.1059
  0
VERTEX
  8
1
 10
-83.5051
 20
143.0999
  0
VERTEX
  8
1
 10
-83.5051
 20
143.0999
  0
VERTEX
  8
1
 10
-75.0335
 20
143.7956
  0
VERTEX
  8
1
 10
-70.5539
 20
144.3484
  0
VERTEX
  8
1
 10
-69.5582
 20
144.4731
  0
VERTEX
  8
1
 10
-69.5582
 20
144.4731
  0
VERTEX
  8
1
 10
-69.2961
 20
143.9172
  0
VERTEX
  8
1
 10
-68.7979
 20
143.3561
  0
VERTEX
  8
1
 10
-67.9573
 20
142.8967
  0
VERTEX
  8
1
 10
-67.0225
 20
142.6766
  0
VERTEX
  8
1
 10
-65.8284
 20
142.5351
  0
VERTEX
  8
1
 10
-65.8284
 20
142.5351
  0
VERTEX
  8
1
 10
-58.6189
 20
141.8379
  0
VERTEX
  8
1
 10
-58.6189
 20
141.8379
  0
VERTEX
  8
1
 10
-58.6655
 20
139.8588
  0
VERTEX
  8
1
 10
-58.5621
 20
136.8019
  0
VERTEX
  8
1
 10
-58.2760
 20
133.9746
  0
VERTEX
  8
1
 10
-58.2760
 20
133.9746
  0
VERTEX
  8
1
 10
-58.0189
 20
132.3702
  0
VERTEX
  8
1
 10
-58.0189
 20
132.3702
  0
VERTEX
  8
1
 10
-64.6288
 20
131.9648
  0
VERTEX
  8
1
 10
-64.6288
 20
131.9648
  0
VERTEX
  8
1
 10
-65.1261
 20
131.9857
  0
VERTEX
  8
1
 10
-70.5559
 20
132.3163
  0
VERTEX
  8
1
 10
-70.5559
 20
132.3163
  0
VERTEX
  8
1
 10
-75.0377
 20
132.6679
  0
VERTEX
  8
1
 10
-83.5051
 20
133.3516
  0
VERTEX
  8
1
 10
-83.5051
 20
133.3516
  0
VERTEX
  8
1
 10
-99.4598
 20
134.3556
  0
VERTEX
  8
1
 10
-99.4598
 20
134.3556
  0
VERTEX
  8
1
 10
-99.4598
 20
142.1059
  0
SEQEND
  8
1
  0
LINE
  8
7
 10
-99.4902
 20
138.2307
 11
-71.4074
 21
138.2307
  0
LINE
  8
5
 10
-99.4902
 20
138.2307
 11
-71.4074
 21
138.2307
  0
LINE
  8
8
 10
-65.1261
 20
131.9857
 11
-65.8284
 21
142.5351
  0
LINE
  8
8
 10
-75.0335
 20
132.6677
 11
-75.0335
 21
143.7956
  0
LINE
  8
8
 10
-83.5051
 20
133.3516
 11
-83.5051
 21
143.0999
  0
LINE
  8
8
 10
-70.5539
 20
144.3484
 11
-70.5559
 21
132.3168
  0
LINE
  8
8
 10
-58.2760
 20
133.9746
 11
-64.6288
 21
131.9648
  0
POLYLINE
  8
8
 66
1
 70
0
  0
VERTEX
  8
8
 10
-58.6581
 20
140.3362
  0
VERTEX
  8
8
 10
-64.2833
 20
140.8800
  0
VERTEX
  8
8
 10
-64.6465
 20
140.9288
  0
VERTEX
  8
8
 10
-65.2228
 20
141.1131
  0
VERTEX
  8
8
 10
-65.6421
 20
141.5954
  0
VERTEX
  8
8
 10
-65.8034
 20
142.2982
  0
VERTEX
  8
8
 10
-65.8284
 20
142.5351
  0
SEQEND
  8
8
  0
ENDBLK
  0
BLOCK
  8
0
  2
LDM000222D-VS-F-FR_37
 70
64
 10
0.0000
 20
0.0000
  0
TEXT
  8
1
 10
-78.7350
 20
138.2189
 40
0.250
 50
0.0000
  1
Piece Name: LDM000222D-VS-F-FR
  7
STANDARD
  0
TEXT
  8
1
 10
-78.7350
 20
138.3589
 40
0.250
 50
0.0000
  1
SIZE: 37
  7
STANDARD
  0
POLYLINE
  8
1
 66
1
 70
1
  0
VERTEX
  8
1
 10
-99.5921
 20
142.1608
  0
VERTEX
  8
1
 10
-83.6397
 20
143.1858
  0
VERTEX
  8
1
 10
-83.6397
 20
143.1858
  0
VERTEX
  8
1
 10
-75.1703
 20
143.9015
  0
VERTEX
  8
1
 10
-70.6943
 20
144.4764
  0
VERTEX
  8
1
 10
-69.6992
 20
144.6060
  0
VERTEX
  8
1
 10
-69.6992
 20
144.6060
  0
VERTEX
  8
1
 10
-69.4632
 20
144.0545
  0
VERTEX
  8
1
 10
-68.9971
 20
143.4895
  0
VERTEX
  8
1
 10
-68.1934
 20
143.0117
  0
VERTEX
  8
1
 10
-67.2894
 20
142.7639
  0
VERTEX
  8
1
 10
-66.1297
 20
142.5836
  0
VERTEX
  8
1
 10
-66.1297
 20
142.5836
  0
VERTEX
  8
1
 10
-58.5392
 20
141.9523
  0
VERTEX
  8
1
 10
-58.5392
 20
141.9523
  0
VERTEX
  8
1
 10
-58.5765
 20
139.9105
  0
VERTEX
  8
1
 10
-58.4532
 20
136.7577
  0
VERTEX
  8
1
 10
-58.1427
 20
133.8428
  0
VERTEX
  8
1
 10
-58.1427
 20
133.8428
  0
VERTEX
  8
1
 10
-57.8779
 20
132.2396
  0
VERTEX
  8
1
 10
-57.8779
 20
132.2396
  0
VERTEX
  8
1
 10
-64.4884
 20
131.8319
  0
VERTEX
  8
1
 10
-64.4884
 20
131.8319
  0
VERTEX
  8
1
 10
-65.3284
 20
131.8526
  0
VERTEX
  8
1
 10
-70.6969
 20
132.2000
  0
VERTEX
  8
1
 10
-70.6969
 20
132.2000
  0
VERTEX
  8
1
 10
-75.1746
 20
132.5548
  0
VERTEX
  8
1
 10
-83.6397
 20
133.2495
  0
VERTEX
  8
1
 10
-83.6397
 20
133.2495
  0
VERTEX
  8
1
 10
-99.5921
 20
134.2845
  0
VERTEX
  8
1
 10
-99.5921
 20
134.2845
  0
VERTEX
  8
1
 10
-99.5921
 20
142.1608
  0
SEQEND
  8
1
  0
LINE
  8
7
 10
-99.6312
 20
138.2226
 11
-71.5484
 21
138.2226
  0
LINE
  8
5
 10
-99.6312
 20
138.2226
 11
-71.5484
 21
138.2226
  0
LINE
  8
8
 10
-65.3284
 20
131.8526
 11
-66.1297
 21
142.5836
  0
LINE
  8
8
 10
-75.1703
 20
132.5546
 11
-75.1703
 21
143.9015
  0
LINE
  8
8
 10
-83.6397
 20
133.2495
 11
-83.6397
 21
143.1858
  0
LINE
  8
8
 10
-70.6943
 20
144.4764
 11
-70.6969
 21
132.2005
  0
LINE
  8
8
 10
-58.1427
 20
133.8428
 11
-64.4884
 21
131.8319
  0
POLYLINE
  8
8
 66
1
 70
0
  0
VERTEX
  8
8
 10
-58.5717
 20
140.4513
  0
VERTEX
  8
8
 10
-64.5624
 20
140.9494
  0
VERTEX
  8
8
 10
-64.9262
 20
140.9933
  0
VERTEX
  8
8
 10
-65.5048
 20
141.1698
  0
VERTEX
  8
8
 10
-65.9307
 20
141.6465
  0
VERTEX
  8
8
 10
-66.1014
 20
142.3471
  0
VERTEX
  8
8
 10
-66.1297
 20
142.5836
  0
SEQEND
  8
8
  0
ENDBLK
  0
BLOCK
  8
0
  2
LDM000222D-VS-F-FR_38
 70
64
 10
0.0000
 20
0.0000
  0
TEXT
  8
1
 10
-78.7304
 20
138.2189
 40
0.250
 50
0.0000
  1
Piece Name: LDM000222D-VS-F-FR
  7
STANDARD
  0
TEXT
  8
1
 10
-78.7304
 20
138.3589
 40
0.250
 50
0.0000
  1
SIZE: 38
  7
STANDARD
  0
POLYLINE
  8
1
 66
1
 70
1
  0
VERTEX
  8
1
 10
-99.7240
 20
142.2163
  0
VERTEX
  8
1
 10
-83.7740
 20
143.2723
  0
VERTEX
  8
1
 10
-83.7740
 20
143.2723
  0
VERTEX
  8
1
 10
-75.3069
 20
144.0080
  0
VERTEX
  8
1
 10
-70.8346
 20
144.6050
  0
VERTEX
  8
1
 10
-69.8402
 20
144.7395
  0
VERTEX
  8
1
 10
-69.8402
 20
144.7395
  0
VERTEX
  8
1
 10
-69.5857
 20
144.1583
  0
VERTEX
  8
1
 10
-69.0876
 20
143.5650
  0
VERTEX
  8
1
 10
-68.2333
 20
143.0669
  0
VERTEX
  8
1
 10
-67.2751
 20
142.8130
  0
VERTEX
  8
1
 10
-66.0471
 20
142.6327
  0
VERTEX
  8
1
 10
-66.0471
 20
142.6327
  0
VERTEX
  8
1
 10
-58.4536
 20
142.0669
  0
VERTEX
  8
1
 10
-58.4536
 20
142.0669
  0
VERTEX
  8
1
 10
-58.4827
 20
139.9624
  0
VERTEX
  8
1
 10
-58.3413
 20
136.7137
  0
VERTEX
  8
1
 10
-58.0080
 20
133.7109
  0
VERTEX
  8
1
 10
-58.0080
 20
133.7109
  0
VERTEX
  8
1
 10
-57.7368
 20
132.1088
  0
VERTEX
  8
1
 10
-57.7368
 20
132.1088
  0
VERTEX
  8
1
 10
-64.3471
 20
131.6984
  0
VERTEX
  8
1
 10
-64.3471
 20
131.6984
  0
VERTEX
  8
1
 10
-65.1553
 20
131.7201
  0
VERTEX
  8
1
 10
-70.8378
 20
132.0844
  0
VERTEX
  8
1
 10
-70.8378
 20
132.0844
  0
VERTEX
  8
1
 10
-75.3112
 20
132.4423
  0
VERTEX
  8
1
 10
-83.7740
 20
133.1480
  0
VERTEX
  8
1
 10
-83.7740
 20
133.1480
  0
VERTEX
  8
1
 10
-99.7240
 20
134.2140
  0
VERTEX
  8
1
 10
-99.7240
 20
134.2140
  0
VERTEX
  8
1
 10
-99.7240
 20
142.2163
  0
SEQEND
  8
1
  0
LINE
  8
7
 10
-99.7722
 20
138.2151
 11
-71.6893
 21
138.2151
  0
LINE
  8
5
 10
-99.7722
 20
138.2151
 11
-71.6893
 21
138.2151
  0
LINE
  8
8
 10
-65.1553
 20
131.7201
 11
-66.0471
 21
142.6327
  0
LINE
  8
8
 10
-75.3069
 20
132.4421
 11
-75.3069
 21
144.0080
  0
LINE
  8
8
 10
-83.7740
 20
133.1480
 11
-83.7740
 21
143.2723
  0
LINE
  8
8
 10
-70.8346
 20
144.6050
 11
-70.8378
 21
132.0849
  0
LINE
  8
8
 10
-58.0080
 20
133.7109
 11
-64.3471
 21
131.6984
  0
POLYLINE
  8
8
 66
1
 70
0
  0
VERTEX
  8
8
 10
-58.4799
 20
140.5662
  0
VERTEX
  8
8
 10
-64.4657
 20
141.0120
  0
VERTEX
  8
8
 10
-64.8299
 20
141.0528
  0
VERTEX
  8
8
 10
-65.4102
 20
141.2243
  0
VERTEX
  8
8
 10
-65.8400
 20
141.6973
  0
VERTEX
  8
8
 10
-66.0167
 20
142.3964
  0
VERTEX
  8
8
 10
-66.0471
 20
142.6327
  0
SEQEND
  8
8
  0
ENDBLK
  0
BLOCK
  8
0
  2
LDM000222D-VS-F-FR_40
 70
64
 10
0.0000
 20
0.0000
  0
TEXT
  8
1
 10
-78.7221
 20
138.2189
 40
0.250
 50
0.0000
  1
Piece Name: LDM000222D-VS-F-FR
  7
STANDARD
  0
TEXT
  8
1
 10
-78.7221
 20
138.3589
 40
0.250
 50
0.0000
  1
SIZE: 40
  7
STANDARD
  0
POLYLINE
  8
1
 66
1
 70
1
  0
VERTEX
  8
1
 10
-99.8483
 20
142.2719
  0
VERTEX
  8
1
 10
-83.9007
 20
143.3589
  0
VERTEX
  8
1
 10
-83.9007
 20
143.3589
  0
VERTEX
  8
1
 10
-75.4449
 20
144.1916
  0
VERTEX
  8
1
 10
-70.9751
 20
144.8042
  0
VERTEX
  8
1
 10
-69.9812
 20
144.9421
  0
VERTEX
  8
1
 10
-69.9812
 20
144.9421
  0
VERTEX
  8
1
 10
-69.7004
 20
144.3360
  0
VERTEX
  8
1
 10
-69.1630
 20
143.7225
  0
VERTEX
  8
1
 10
-68.2528
 20
143.2170
  0
VERTEX
  8
1
 10
-67.2385
 20
142.9709
  0
VERTEX
  8
1
 10
-65.9418
 20
142.8083
  0
VERTEX
  8
1
 10
-65.9418
 20
142.8083
  0
VERTEX
  8
1
 10
-58.3453
 20
142.3125
  0
VERTEX
  8
1
 10
-58.3453
 20
142.3125
  0
VERTEX
  8
1
 10
-58.3776
 20
140.1136
  0
VERTEX
  8
1
 10
-58.2326
 20
136.7191
  0
VERTEX
  8
1
 10
-57.8871
 20
133.5813
  0
VERTEX
  8
1
 10
-57.8871
 20
133.5813
  0
VERTEX
  8
1
 10
-57.5959
 20
131.8558
  0
VERTEX
  8
1
 10
-57.5959
 20
131.8558
  0
VERTEX
  8
1
 10
-64.5841
 20
131.4958
  0
VERTEX
  8
1
 10
-64.5841
 20
131.4958
  0
VERTEX
  8
1
 10
-64.9859
 20
131.5247
  0
VERTEX
  8
1
 10
-70.9789
 20
131.9213
  0
VERTEX
  8
1
 10
-70.9789
 20
131.9213
  0
VERTEX
  8
1
 10
-75.4491
 20
132.3209
  0
VERTEX
  8
1
 10
-83.9007
 20
133.0466
  0
VERTEX
  8
1
 10
-83.9007
 20
133.0466
  0
VERTEX
  8
1
 10
-99.8483
 20
134.1436
  0
VERTEX
  8
1
 10
-99.8483
 20
134.1436
  0
VERTEX
  8
1
 10
-99.8483
 20
142.2719
  0
SEQEND
  8
1
  0
LINE
  8
7
 10
-99.9132
 20
138.2077
 11
-71.8304
 21
138.2077
  0
LINE
  8
5
 10
-99.9132
 20
138.2077
 11
-71.8304
 21
138.2077
  0
LINE
  8
8
 10
-64.9859
 20
131.5247
 11
-65.9418
 21
142.8083
  0
LINE
  8
8
 10
-75.4449
 20
132.3207
 11
-75.4449
 21
144.1916
  0
LINE
  8
8
 10
-83.9007
 20
133.0466
 11
-83.9007
 21
143.3589
  0
LINE
  8
8
 10
-70.9751
 20
144.8042
 11
-70.9789
 21
131.9218
  0
LINE
  8
8
 10
-57.8871
 20
133.5813
 11
-64.5841
 21
131.4958
  0
POLYLINE
  8
8
 66
1
 70
0
  0
VERTEX
  8
8
 10
-58.3740
 20
140.8127
  0
VERTEX
  8
8
 10
-64.3457
 20
141.2022
  0
VERTEX
  8
8
 10
-64.7102
 20
141.2397
  0
VERTEX
  8
8
 10
-65.2920
 20
141.4058
  0
VERTEX
  8
8
 10
-65.7261
 20
141.8749
  0
VERTEX
  8
8
 10
-65.9093
 20
142.5723
  0
VERTEX
  8
8
 10
-65.9418
 20
142.8083
  0
SEQEND
  8
8
  0
ENDBLK
  0
BLOCK
  8
0
  2
LDM000222D-VS-F-FR_42
 70
64
 10
0.0000
 20
0.0000
  0
TEXT
  8
1
 10
-78.7113
 20
138.2189
 40
0.250
 50
0.0000
  1
Piece Name: LDM000222D-VS-F-FR
  7
STANDARD
  0
TEXT
  8
1
 10
-78.7113
 20
138.3589
 40
0.250
 50
0.0000
  1
SIZE: 42
  7
STANDARD
  0
POLYLINE
  8
1
 66
1
 70
1
  0
VERTEX
  8
1
 10
-99.9679
 20
142.3272
  0
VERTEX
  8
1
 10
-84.0228
 20
143.4452
  0
VERTEX
  8
1
 10
-84.0228
 20
143.4452
  0
VERTEX
  8
1
 10
-75.5718
 20
144.3129
  0
VERTEX
  8
1
 10
-71.1139
 20
144.9917
  0
VERTEX
  8
1
 10
-70.1222
 20
145.1444
  0
VERTEX
  8
1
 10
-70.1222
 20
145.1444
  0
VERTEX
  8
1
 10
-69.8152
 20
144.5133
  0
VERTEX
  8
1
 10
-69.2384
 20
143.8795
  0
VERTEX
  8
1
 10
-68.2721
 20
143.3666
  0
VERTEX
  8
1
 10
-67.2016
 20
143.1284
  0
VERTEX
  8
1
 10
-65.8362
 20
142.9834
  0
VERTEX
  8
1
 10
-65.8362
 20
142.9834
  0
VERTEX
  8
1
 10
-58.2366
 20
142.5588
  0
VERTEX
  8
1
 10
-58.2366
 20
142.5588
  0
VERTEX
  8
1
 10
-58.2690
 20
140.2343
  0
VERTEX
  8
1
 10
-58.1131
 20
136.6459
  0
VERTEX
  8
1
 10
-57.7454
 20
133.3291
  0
VERTEX
  8
1
 10
-57.7454
 20
133.3291
  0
VERTEX
  8
1
 10
-57.4548
 20
131.6035
  0
VERTEX
  8
1
 10
-57.4548
 20
131.6035
  0
VERTEX
  8
1
 10
-64.4458
 20
131.2934
  0
VERTEX
  8
1
 10
-64.4458
 20
131.2934
  0
VERTEX
  8
1
 10
-64.8156
 20
131.3290
  0
VERTEX
  8
1
 10
-71.1199
 20
131.7582
  0
VERTEX
  8
1
 10
-71.1199
 20
131.7582
  0
VERTEX
  8
1
 10
-75.5761
 20
132.1992
  0
VERTEX
  8
1
 10
-84.0228
 20
132.9449
  0
VERTEX
  8
1
 10
-84.0228
 20
132.9449
  0
VERTEX
  8
1
 10
-99.9679
 20
134.0729
  0
VERTEX
  8
1
 10
-99.9679
 20
134.0729
  0
VERTEX
  8
1
 10
-99.9679
 20
142.3272
  0
SEQEND
  8
1
  0
LINE
  8
7
 10
-100.0542
 20
138.2000
 11
-71.9714
 21
138.2000
  0
LINE
  8
5
 10
-100.0542
 20
138.2000
 11
-71.9714
 21
138.2000
  0
LINE
  8
8
 10
-64.8156
 20
131.3290
 11
-65.8362
 21
142.9834
  0
LINE
  8
8
 10
-75.5718
 20
132.1990
 11
-75.5718
 21
144.3129
  0
LINE
  8
8
 10
-84.0228
 20
132.9449
 11
-84.0228
 21
143.4452
  0
LINE
  8
8
 10
-71.1139
 20
144.9917
 11
-71.1199
 21
131.7587
  0
LINE
  8
8
 10
-57.7454
 20
133.3291
 11
-64.4458
 21
131.2934
  0
POLYLINE
  8
8
 66
1
 70
0
  0
VERTEX
  8
8
 10
-58.2650
 20
141.0596
  0
VERTEX
  8
8
 10
-64.2251
 20
141.3923
  0
VERTEX
  8
8
 10
-64.5900
 20
141.4263
  0
VERTEX
  8
8
 10
-65.1733
 20
141.5871
  0
VERTEX
  8
8
 10
-65.6118
 20
142.0520
  0
VERTEX
  8
8
 10
-65.8015
 20
142.7477
  0
VERTEX
  8
8
 10
-65.8362
 20
142.9834
  0
SEQEND
  8
8
  0
ENDBLK
  0
BLOCK
  8
0
  2
LDM000222D-VS-F-FR_44
 70
64
 10
0.0000
 20
0.0000
  0
TEXT
  8
1
 10
-78.7019
 20
138.2189
 40
0.250
 50
0.0000
  1
Piece Name: LDM000222D-VS-F-FR
  7
STANDARD
  0
TEXT
  8
1
 10
-78.7019
 20
138.3589
 40
0.250
 50
0.0000
  1
SIZE: 44
  7
STANDARD
  0
POLYLINE
  8
1
 66
1
 70
1
  0
VERTEX
  8
1
 10
-100.0900
 20
142.3911
  0
VERTEX
  8
1
 10
-84.1475
 20
143.5401
  0
VERTEX
  8
1
 10
-84.1475
 20
143.5401
  0
VERTEX
  8
1
 10
-75.7094
 20
144.5048
  0
VERTEX
  8
1
 10
-71.2544
 20
145.1991
  0
VERTEX
  8
1
 10
-70.2633
 20
145.3553
  0
VERTEX
  8
1
 10
-70.2633
 20
145.3553
  0
VERTEX
  8
1
 10
-69.9748
 20
144.7331
  0
VERTEX
  8
1
 10
-69.4226
 20
144.1034
  0
VERTEX
  8
1
 10
-68.4879
 20
143.5847
  0
VERTEX
  8
1
 10
-67.4464
 20
143.3325
  0
VERTEX
  8
1
 10
-66.1149
 20
143.1661
  0
VERTEX
  8
1
 10
-66.1149
 20
143.1661
  0
VERTEX
  8
1
 10
-58.1367
 20
142.8137
  0
VERTEX
  8
1
 10
-58.1367
 20
142.8137
  0
VERTEX
  8
1
 10
-58.1674
 20
140.3635
  0
VERTEX
  8
1
 10
-57.9977
 20
136.5816
  0
VERTEX
  8
1
 10
-57.6051
 20
133.0862
  0
VERTEX
  8
1
 10
-57.6051
 20
133.0862
  0
VERTEX
  8
1
 10
-57.3138
 20
131.3607
  0
VERTEX
  8
1
 10
-57.3138
 20
131.3607
  0
VERTEX
  8
1
 10
-64.3076
 20
131.0825
  0
VERTEX
  8
1
 10
-64.3076
 20
131.0825
  0
VERTEX
  8
1
 10
-65.0193
 20
131.1419
  0
VERTEX
  8
1
 10
-71.2610
 20
131.6035
  0
VERTEX
  8
1
 10
-71.2610
 20
131.6035
  0
VERTEX
  8
1
 10
-75.7136
 20
132.0861
  0
VERTEX
  8
1
 10
-84.1475
 20
132.8518
  0
VERTEX
  8
1
 10
-84.1475
 20
132.8518
  0
VERTEX
  8
1
 10
-100.0900
 20
134.0108
  0
VERTEX
  8
1
 10
-100.0900
 20
134.0108
  0
VERTEX
  8
1
 10
-100.0900
 20
142.3911
  0
SEQEND
  8
1
  0
LINE
  8
7
 10
-100.1953
 20
138.2009
 11
-72.1125
 21
138.2009
  0
LINE
  8
5
 10
-100.1953
 20
138.2009
 11
-72.1125
 21
138.2009
  0
LINE
  8
8
 10
-65.0193
 20
131.1419
 11
-66.1149
 21
143.1661
  0
LINE
  8
8
 10
-75.7094
 20
132.0859
 11
-75.7094
 21
144.5048
  0
LINE
  8
8
 10
-84.1475
 20
132.8518
 11
-84.1475
 21
143.5401
  0
LINE
  8
8
 10
-71.2544
 20
145.1991
 11
-71.2610
 21
131.6040
  0
LINE
  8
8
 10
-57.6051
 20
133.0862
 11
-64.3076
 21
131.0825
  0
POLYLINE
  8
8
 66
1
 70
0
  0
VERTEX
  8
8
 10
-58.1641
 20
141.3150
  0
VERTEX
  8
8
 10
-64.4853
 20
141.5939
  0
VERTEX
  8
8
 10
-64.8506
 20
141.6237
  0
VERTEX
  8
8
 10
-65.4357
 20
141.7776
  0
VERTEX
  8
8
 10
-65.8796
 20
142.2374
  0
VERTEX
  8
8
 10
-66.0775
 20
142.9308
  0
VERTEX
  8
8
 10
-66.1149
 20
143.1661
  0
SEQEND
  8
8
  0
ENDBLK
  0
BLOCK
  8
0
  2
LDM000222D-VS-F-FR_46
 70
64
 10
0.0000
 20
0.0000
  0
TEXT
  8
1
 10
-78.6899
 20
138.2189
 40
0.250
 50
0.0000
  1
Piece Name: LDM000222D-VS-F-FR
  7
STANDARD
  0
TEXT
  8
1
 10
-78.6899
 20
138.3589
 40
0.250
 50
0.0000
  1
SIZE: 46
  7
STANDARD
  0
POLYLINE
  8
1
 66
1
 70
1
  0
VERTEX
  8
1
 10
-100.2072
 20
142.4470
  0
VERTEX
  8
1
 10
-84.2673
 20
143.6270
  0
VERTEX
  8
1
 10
-84.2673
 20
143.6270
  0
VERTEX
  8
1
 10
-75.8347
 20
144.6267
  0
VERTEX
  8
1
 10
-71.3930
 20
145.3872
  0
VERTEX
  8
1
 10
-70.4043
 20
145.5582
  0
VERTEX
  8
1
 10
-70.4043
 20
145.5582
  0
VERTEX
  8
1
 10
-70.0895
 20
144.9109
  0
VERTEX
  8
1
 10
-69.4981
 20
144.2609
  0
VERTEX
  8
1
 10
-68.5072
 20
143.7348
  0
VERTEX
  8
1
 10
-67.4094
 20
143.4903
  0
VERTEX
  8
1
 10
-66.0091
 20
143.3415
  0
VERTEX
  8
1
 10
-66.0091
 20
143.3415
  0
VERTEX
  8
1
 10
-58.0287
 20
143.0616
  0
VERTEX
  8
1
 10
-58.0287
 20
143.0616
  0
VERTEX
  8
1
 10
-58.0594
 20
140.4858
  0
VERTEX
  8
1
 10
-57.8785
 20
136.5100
  0
VERTEX
  8
1
 10
-57.4636
 20
132.8357
  0
VERTEX
  8
1
 10
-57.4636
 20
132.8357
  0
VERTEX
  8
1
 10
-57.1727
 20
131.1101
  0
VERTEX
  8
1
 10
-57.1727
 20
131.1101
  0
VERTEX
  8
1
 10
-64.1686
 20
130.8796
  0
VERTEX
  8
1
 10
-64.1686
 20
130.8796
  0
VERTEX
  8
1
 10
-64.8472
 20
130.9468
  0
VERTEX
  8
1
 10
-71.4020
 20
131.4410
  0
VERTEX
  8
1
 10
-71.4020
 20
131.4410
  0
VERTEX
  8
1
 10
-75.8390
 20
131.9650
  0
VERTEX
  8
1
 10
-84.2673
 20
132.7507
  0
VERTEX
  8
1
 10
-84.2673
 20
132.7507
  0
VERTEX
  8
1
 10
-100.2072
 20
133.9407
  0
VERTEX
  8
1
 10
-100.2072
 20
133.9407
  0
VERTEX
  8
1
 10
-100.2072
 20
142.4470
  0
SEQEND
  8
1
  0
LINE
  8
7
 10
-100.3363
 20
138.1938
 11
-72.2535
 21
138.1938
  0
LINE
  8
5
 10
-100.3363
 20
138.1938
 11
-72.2535
 21
138.1938
  0
LINE
  8
8
 10
-64.8472
 20
130.9468
 11
-66.0091
 21
143.3415
  0
LINE
  8
8
 10
-75.8347
 20
131.9648
 11
-75.8347
 21
144.6267
  0
LINE
  8
8
 10
-84.2673
 20
132.7507
 11
-84.2673
 21
143.6270
  0
LINE
  8
8
 10
-71.3930
 20
145.3872
 11
-71.4020
 21
131.4415
  0
LINE
  8
8
 10
-57.4636
 20
132.8357
 11
-64.1686
 21
130.8796
  0
POLYLINE
  8
8
 66
1
 70
0
  0
VERTEX
  8
8
 10
-58.0558
 20
141.5632
  0
VERTEX
  8
8
 10
-64.3653
 20
141.7842
  0
VERTEX
  8
8
 10
-64.7308
 20
141.8107
  0
VERTEX
  8
8
 10
-65.3173
 20
141.9592
  0
VERTEX
  8
8
 10
-65.7654
 20
142.4150
  0
VERTEX
  8
8
 10
-65.9695
 20
143.1066
  0
VERTEX
  8
8
 10
-66.0091
 20
143.3415
  0
SEQEND
  8
8
  0
ENDBLK
  0
BLOCK
  8
0
  2
LDM000222D-VS-F-FR_48
 70
64
 10
0.0000
 20
0.0000
  0
TEXT
  8
1
 10
-78.6815
 20
138.2189
 40
0.250
 50
0.0000
  1
Piece Name: LDM000222D-VS-F-FR
  7
STANDARD
  0
TEXT
  8
1
 10
-78.6815
 20
138.3589
 40
0.250
 50
0.0000
  1
SIZE: 48
  7
STANDARD
  0
POLYLINE
  8
1
 66
1
 70
1
  0
VERTEX
  8
1
 10
-100.3313
 20
142.5481
  0
VERTEX
  8
1
 10
-84.3939
 20
143.7591
  0
VERTEX
  8
1
 10
-84.3939
 20
143.7591
  0
VERTEX
  8
1
 10
-75.9699
 20
144.8148
  0
VERTEX
  8
1
 10
-71.5332
 20
145.5991
  0
VERTEX
  8
1
 10
-70.5454
 20
145.7753
  0
VERTEX
  8
1
 10
-70.5454
 20
145.7753
  0
VERTEX
  8
1
 10
-70.2329
 20
145.1266
  0
VERTEX
  8
1
 10
-69.6438
 20
144.4741
  0
VERTEX
  8
1
 10
-68.6545
 20
143.9441
  0
VERTEX
  8
1
 10
-67.5573
 20
143.6953
  0
VERTEX
  8
1
 10
-66.1571
 20
143.5411
  0
VERTEX
  8
1
 10
-66.1571
 20
143.5411
  0
VERTEX
  8
1
 10
-57.7980
 20
143.3317
  0
VERTEX
  8
1
 10
-57.7980
 20
143.3317
  0
VERTEX
  8
1
 10
-57.8581
 20
140.6613
  0
VERTEX
  8
1
 10
-57.7142
 20
136.5371
  0
VERTEX
  8
1
 10
-57.3243
 20
132.7228
  0
VERTEX
  8
1
 10
-57.3243
 20
132.7228
  0
VERTEX
  8
1
 10
-57.0317
 20
130.8708
  0
VERTEX
  8
1
 10
-57.0317
 20
130.8708
  0
VERTEX
  8
1
 10
-64.4034
 20
130.6626
  0
VERTEX
  8
1
 10
-64.4034
 20
130.6626
  0
VERTEX
  8
1
 10
-65.0492
 20
130.7339
  0
VERTEX
  8
1
 10
-71.5431
 20
131.2852
  0
VERTEX
  8
1
 10
-71.5431
 20
131.2852
  0
VERTEX
  8
1
 10
-75.9742
 20
131.8171
  0
VERTEX
  8
1
 10
-84.3939
 20
132.6328
  0
VERTEX
  8
1
 10
-84.3939
 20
132.6328
  0
VERTEX
  8
1
 10
-100.3313
 20
133.8538
  0
VERTEX
  8
1
 10
-100.3313
 20
133.8538
  0
VERTEX
  8
1
 10
-100.3313
 20
142.5481
  0
SEQEND
  8
1
  0
LINE
  8
7
 10
-100.4774
 20
138.2009
 11
-72.3946
 21
138.2009
  0
LINE
  8
5
 10
-100.4774
 20
138.2009
 11
-72.3946
 21
138.2009
  0
LINE
  8
8
 10
-65.0492
 20
130.7339
 11
-66.1571
 21
143.5411
  0
LINE
  8
8
 10
-75.9699
 20
131.8169
 11
-75.9699
 21
144.8148
  0
LINE
  8
8
 10
-84.3939
 20
132.6328
 11
-84.3939
 21
143.7591
  0
LINE
  8
8
 10
-71.5332
 20
145.5991
 11
-71.5431
 21
131.2857
  0
LINE
  8
8
 10
-57.3243
 20
132.7228
 11
-64.4034
 21
130.6626
  0
POLYLINE
  8
8
 66
1
 70
0
  0
VERTEX
  8
8
 10
-57.8415
 20
141.8339
  0
VERTEX
  8
8
 10
-64.4977
 20
142.0003
  0
VERTEX
  8
8
 10
-64.8635
 20
142.0231
  0
VERTEX
  8
8
 10
-65.4515
 20
142.1658
  0
VERTEX
  8
8
 10
-65.9042
 20
142.6171
  0
VERTEX
  8
8
 10
-66.1152
 20
143.3066
  0
VERTEX
  8
8
 10
-66.1571
 20
143.5411
  0
SEQEND
  8
8
  0
ENDBLK
  0
BLOCK
  8
0
  2
LDM000222D-VS-F-FR_50
 70
64
 10
0.0000
 20
0.0000
  0
TEXT
  8
1
 10
-78.6704
 20
138.2189
 40
0.250
 50
0.0000
  1
Piece Name: LDM000222D-VS-F-FR
  7
STANDARD
  0
TEXT
  8
1
 10
-78.6704
 20
138.3589
 40
0.250
 50
0.0000
  1
SIZE: 50
  7
STANDARD
  0
POLYLINE
  8
1
 66
1
 70
1
  0
VERTEX
  8
1
 10
-100.6058
 20
142.6478
  0
VERTEX
  8
1
 10
-84.6713
 20
143.8898
  0
VERTEX
  8
1
 10
-84.6713
 20
143.8898
  0
VERTEX
  8
1
 10
-76.2471
 20
144.9395
  0
VERTEX
  8
1
 10
-71.8266
 20
145.7980
  0
VERTEX
  8
1
 10
-70.8420
 20
145.9910
  0
VERTEX
  8
1
 10
-70.8420
 20
145.9910
  0
VERTEX
  8
1
 10
-70.4909
 20
145.3043
  0
VERTEX
  8
1
 10
-69.8434
 20
144.6205
  0
VERTEX
  8
1
 10
-68.7706
 20
144.0782
  0
VERTEX
  8
1
 10
-67.5893
 20
143.8397
  0
VERTEX
  8
1
 10
-66.0860
 20
143.7102
  0
VERTEX
  8
1
 10
-66.0860
 20
143.7102
  0
VERTEX
  8
1
 10
-57.7274
 20
143.5774
  0
VERTEX
  8
1
 10
-57.7274
 20
143.5774
  0
VERTEX
  8
1
 10
-57.7461
 20
140.7819
  0
VERTEX
  8
1
 10
-57.5272
 20
136.4682
  0
VERTEX
  8
1
 10
-57.0560
 20
132.4830
  0
VERTEX
  8
1
 10
-57.0560
 20
132.4830
  0
VERTEX
  8
1
 10
-56.7351
 20
130.6357
  0
VERTEX
  8
1
 10
-56.7351
 20
130.6357
  0
VERTEX
  8
1
 10
-64.1074
 20
130.4469
  0
VERTEX
  8
1
 10
-64.1074
 20
130.4469
  0
VERTEX
  8
1
 10
-64.7204
 20
130.5196
  0
VERTEX
  8
1
 10
-71.8397
 20
131.1282
  0
VERTEX
  8
1
 10
-71.8397
 20
131.1282
  0
VERTEX
  8
1
 10
-76.2514
 20
131.6678
  0
VERTEX
  8
1
 10
-84.6713
 20
132.5135
  0
VERTEX
  8
1
 10
-84.6713
 20
132.5135
  0
VERTEX
  8
1
 10
-100.6058
 20
133.7655
  0
VERTEX
  8
1
 10
-100.6058
 20
133.7655
  0
VERTEX
  8
1
 10
-100.6058
 20
142.6478
  0
SEQEND
  8
1
  0
LINE
  8
7
 10
-100.7740
 20
138.2066
 11
-72.6912
 21
138.2066
  0
LINE
  8
5
 10
-100.7740
 20
138.2066
 11
-72.6912
 21
138.2066
  0
LINE
  8
8
 10
-64.7204
 20
130.5196
 11
-66.0860
 21
143.7102
  0
LINE
  8
8
 10
-76.2471
 20
131.6676
 11
-76.2471
 21
144.9395
  0
LINE
  8
8
 10
-84.6713
 20
132.5135
 11
-84.6713
 21
143.8898
  0
LINE
  8
8
 10
-71.8266
 20
145.7980
 11
-71.8397
 21
131.1287
  0
LINE
  8
8
 10
-57.0560
 20
132.4830
 11
-64.1074
 21
130.4469
  0
POLYLINE
  8
8
 66
1
 70
0
  0
VERTEX
  8
8
 10
-57.7481
 20
142.0791
  0
VERTEX
  8
8
 10
-64.4127
 20
142.1847
  0
VERTEX
  8
8
 10
-64.7786
 20
142.2041
  0
VERTEX
  8
8
 10
-65.3678
 20
142.3415
  0
VERTEX
  8
8
 10
-65.8246
 20
142.7885
  0
VERTEX
  8
8
 10
-66.0420
 20
143.4761
  0
VERTEX
  8
8
 10
-66.0860
 20
143.7102
  0
SEQEND
  8
8
  0
ENDBLK
  0
BLOCK
  8
0
  2
LDM000222D-VS-F-FR_52
 70
64
 10
0.0000
 20
0.0000
  0
TEXT
  8
1
 10
-78.6613
 20
138.2189
 40
0.250
 50
0.0000
  1
Piece Name: LDM000222D-VS-F-FR
  7
STANDARD
  0
TEXT
  8
1
 10
-78.6613
 20
138.3589
 40
0.250
 50
0.0000
  1
SIZE: 52
  7
STANDARD
  0
POLYLINE
  8
1
 66
1
 70
1
  0
VERTEX
  8
1
 10
-100.7286
 20
142.7561
  0
VERTEX
  8
1
 10
-84.7969
 20
144.0291
  0
VERTEX
  8
1
 10
-84.7969
 20
144.0291
  0
VERTEX
  8
1
 10
-76.3816
 20
145.1348
  0
VERTEX
  8
1
 10
-71.9668
 20
146.0170
  0
VERTEX
  8
1
 10
-70.9831
 20
146.2153
  0
VERTEX
  8
1
 10
-70.9831
 20
146.2153
  0
VERTEX
  8
1
 10
-70.6342
 20
145.5272
  0
VERTEX
  8
1
 10
-69.9888
 20
144.8411
  0
VERTEX
  8
1
 10
-68.9175
 20
144.2949
  0
VERTEX
  8
1
 10
-67.7366
 20
144.0525
  0
VERTEX
  8
1
 10
-66.2333
 20
143.9179
  0
VERTEX
  8
1
 10
-66.2333
 20
143.9179
  0
VERTEX
  8
1
 10
-57.4973
 20
143.8557
  0
VERTEX
  8
1
 10
-57.4973
 20
143.8557
  0
VERTEX
  8
1
 10
-57.5424
 20
140.9342
  0
VERTEX
  8
1
 10
-57.3531
 20
136.4238
  0
VERTEX
  8
1
 10
-56.8971
 20
132.2544
  0
VERTEX
  8
1
 10
-56.8971
 20
132.2544
  0
VERTEX
  8
1
 10
-56.5940
 20
130.4041
  0
VERTEX
  8
1
 10
-56.5940
 20
130.4041
  0
VERTEX
  8
1
 10
-63.9674
 20
130.2226
  0
VERTEX
  8
1
 10
-63.9674
 20
130.2226
  0
VERTEX
  8
1
 10
-64.9217
 20
130.3139
  0
VERTEX
  8
1
 10
-71.9808
 20
130.9796
  0
VERTEX
  8
1
 10
-71.9808
 20
130.9796
  0
VERTEX
  8
1
 10
-76.3859
 20
131.5271
  0
VERTEX
  8
1
 10
-84.7969
 20
132.4028
  0
VERTEX
  8
1
 10
-84.7969
 20
132.4028
  0
VERTEX
  8
1
 10
-100.7286
 20
133.6858
  0
VERTEX
  8
1
 10
-100.7286
 20
133.6858
  0
VERTEX
  8
1
 10
-100.7286
 20
142.7561
  0
SEQEND
  8
1
  0
LINE
  8
7
 10
-100.9151
 20
138.2209
 11
-72.8323
 21
138.2209
  0
LINE
  8
5
 10
-100.9151
 20
138.2209
 11
-72.8323
 21
138.2209
  0
LINE
  8
8
 10
-64.9217
 20
130.3139
 11
-66.2333
 21
143.9179
  0
LINE
  8
8
 10
-76.3816
 20
131.5269
 11
-76.3816
 21
145.1348
  0
LINE
  8
8
 10
-84.7969
 20
132.4028
 11
-84.7969
 21
144.0291
  0
LINE
  8
8
 10
-71.9668
 20
146.0170
 11
-71.9808
 21
130.9801
  0
LINE
  8
8
 10
-56.8971
 20
132.2544
 11
-63.9674
 21
130.2226
  0
POLYLINE
  8
8
 66
1
 70
0
  0
VERTEX
  8
8
 10
-57.5314
 20
142.3575
  0
VERTEX
  8
8
 10
-64.5467
 20
142.4071
  0
VERTEX
  8
8
 10
-64.9128
 20
142.4233
  0
VERTEX
  8
8
 10
-65.5032
 20
142.5555
  0
VERTEX
  8
8
 10
-65.9638
 20
142.9986
  0
VERTEX
  8
8
 10
-66.1872
 20
143.6842
  0
VERTEX
  8
8
 10
-66.2333
 20
143.9179
  0
SEQEND
  8
8
  0
ENDBLK
  0
BLOCK
  8
0
  2
LDM000222D-VS-F-FR_54
 70
64
 10
0.0000
 20
0.0000
  0
TEXT
  8
1
 10
-78.6487
 20
138.2189
 40
0.250
 50
0.0000
  1
Piece Name: LDM000222D-VS-F-FR
  7
STANDARD
  0
TEXT
  8
1
 10
-78.6487
 20
138.3589
 40
0.250
 50
0.0000
  1
SIZE: 54
  7
STANDARD
  0
POLYLINE
  8
1
 66
1
 70
1
  0
VERTEX
  8
1
 10
-101.0002
 20
142.8572
  0
VERTEX
  8
1
 10
-85.0713
 20
144.1612
  0
VERTEX
  8
1
 10
-85.0713
 20
144.1612
  0
VERTEX
  8
1
 10
-76.6559
 20
145.2609
  0
VERTEX
  8
1
 10
-72.2598
 20
146.2174
  0
VERTEX
  8
1
 10
-71.2796
 20
146.4324
  0
VERTEX
  8
1
 10
-71.2796
 20
146.4324
  0
VERTEX
  8
1
 10
-70.8925
 20
145.7062
  0
VERTEX
  8
1
 10
-70.1893
 20
144.9886
  0
VERTEX
  8
1
 10
-69.0350
 20
144.4296
  0
VERTEX
  8
1
 10
-67.7704
 20
144.1968
  0
VERTEX
  8
1
 10
-66.1643
 20
144.0861
  0
VERTEX
  8
1
 10
-66.1643
 20
144.0861
  0
VERTEX
  8
1
 10
-57.4292
 20
144.1018
  0
VERTEX
  8
1
 10
-57.4292
 20
144.1018
  0
VERTEX
  8
1
 10
-57.4316
 20
141.0553
  0
VERTEX
  8
1
 10
-57.1656
 20
136.3559
  0
VERTEX
  8
1
 10
-56.6266
 20
132.0161
  0
VERTEX
  8
1
 10
-56.6266
 20
132.0161
  0
VERTEX
  8
1
 10
-56.2973
 20
130.1703
  0
VERTEX
  8
1
 10
-56.2973
 20
130.1703
  0
VERTEX
  8
1
 10
-63.6712
 20
130.0054
  0
VERTEX
  8
1
 10
-63.6712
 20
130.0054
  0
VERTEX
  8
1
 10
-64.5921
 20
130.1010
  0
VERTEX
  8
1
 10
-72.2773
 20
130.8241
  0
VERTEX
  8
1
 10
-72.2773
 20
130.8241
  0
VERTEX
  8
1
 10
-76.6602
 20
131.3792
  0
VERTEX
  8
1
 10
-85.0713
 20
132.2849
  0
VERTEX
  8
1
 10
-85.0713
 20
132.2849
  0
VERTEX
  8
1
 10
-101.0002
 20
133.5989
  0
VERTEX
  8
1
 10
-101.0002
 20
133.5989
  0
VERTEX
  8
1
 10
-101.0002
 20
142.8572
  0
SEQEND
  8
1
  0
LINE
  8
7
 10
-101.2117
 20
138.2280
 11
-73.1288
 21
138.2280
  0
LINE
  8
5
 10
-101.2117
 20
138.2280
 11
-73.1288
 21
138.2280
  0
LINE
  8
8
 10
-64.5921
 20
130.1010
 11
-66.1643
 21
144.0861
  0
LINE
  8
8
 10
-76.6559
 20
131.3790
 11
-76.6559
 21
145.2609
  0
LINE
  8
8
 10
-85.0713
 20
132.2849
 11
-85.0713
 21
144.1612
  0
LINE
  8
8
 10
-72.2598
 20
146.2174
 11
-72.2773
 21
130.8246
  0
LINE
  8
8
 10
-56.6266
 20
132.0161
 11
-63.6712
 21
130.0054
  0
POLYLINE
  8
8
 66
1
 70
0
  0
VERTEX
  8
8
 10
-57.4417
 20
142.6034
  0
VERTEX
  8
8
 10
-64.4642
 20
142.5904
  0
VERTEX
  8
8
 10
-64.8305
 20
142.6034
  0
VERTEX
  8
8
 10
-65.4220
 20
142.7303
  0
VERTEX
  8
8
 10
-65.8866
 20
143.1692
  0
VERTEX
  8
8
 10
-66.1160
 20
143.8528
  0
VERTEX
  8
8
 10
-66.1643
 20
144.0861
  0
SEQEND
  8
8
  0
ENDBLK
  0
BLOCK
  8
0
  2
LDM000222D-VS-F-FR_56
 70
64
 10
0.0000
 20
0.0000
  0
TEXT
  8
1
 10
-78.6391
 20
138.2189
 40
0.250
 50
0.0000
  1
Piece Name: LDM000222D-VS-F-FR
  7
STANDARD
  0
TEXT
  8
1
 10
-78.6391
 20
138.3589
 40
0.250
 50
0.0000
  1
SIZE: 56
  7
STANDARD
  0
POLYLINE
  8
1
 66
1
 70
1
  0
VERTEX
  8
1
 10
-101.1219
 20
142.9598
  0
VERTEX
  8
1
 10
-85.1960
 20
144.2948
  0
VERTEX
  8
1
 10
-85.1960
 20
144.2948
  0
VERTEX
  8
1
 10
-76.7897
 20
145.4505
  0
VERTEX
  8
1
 10
-72.3998
 20
146.4306
  0
VERTEX
  8
1
 10
-71.4208
 20
146.6510
  0
VERTEX
  8
1
 10
-71.4208
 20
146.6510
  0
VERTEX
  8
1
 10
-71.0358
 20
145.9235
  0
VERTEX
  8
1
 10
-70.3344
 20
145.2037
  0
VERTEX
  8
1
 10
-69.1815
 20
144.6411
  0
VERTEX
  8
1
 10
-67.9174
 20
144.4045
  0
VERTEX
  8
1
 10
-66.3112
 20
144.2890
  0
VERTEX
  8
1
 10
-66.3112
 20
144.2890
  0
VERTEX
  8
1
 10
-57.1995
 20
144.3754
  0
VERTEX
  8
1
 10
-57.1995
 20
144.3754
  0
VERTEX
  8
1
 10
-57.2317
 20
141.2341
  0
VERTEX
  8
1
 10
-57.0031
 20
136.3858
  0
VERTEX
  8
1
 10
-56.4896
 20
131.9056
  0
VERTEX
  8
1
 10
-56.4896
 20
131.9056
  0
VERTEX
  8
1
 10
-56.1563
 20
129.9336
  0
VERTEX
  8
1
 10
-56.1563
 20
129.9336
  0
VERTEX
  8
1
 10
-63.9057
 20
129.7868
  0
VERTEX
  8
1
 10
-63.9057
 20
129.7868
  0
VERTEX
  8
1
 10
-64.7929
 20
129.8896
  0
VERTEX
  8
1
 10
-72.4185
 20
130.6698
  0
VERTEX
  8
1
 10
-72.4185
 20
130.6698
  0
VERTEX
  8
1
 10
-76.7940
 20
131.2328
  0
VERTEX
  8
1
 10
-85.1960
 20
132.1685
  0
VERTEX
  8
1
 10
-85.1960
 20
132.1685
  0
VERTEX
  8
1
 10
-101.1219
 20
133.5135
  0
VERTEX
  8
1
 10
-101.1219
 20
133.5135
  0
VERTEX
  8
1
 10
-101.1219
 20
142.9598
  0
SEQEND
  8
1
  0
LINE
  8
7
 10
-101.3528
 20
138.2366
 11
-73.2700
 21
138.2366
  0
LINE
  8
5
 10
-101.3528
 20
138.2366
 11
-73.2700
 21
138.2366
  0
LINE
  8
8
 10
-64.7929
 20
129.8896
 11
-66.3112
 21
144.2890
  0
LINE
  8
8
 10
-76.7897
 20
131.2326
 11
-76.7897
 21
145.4505
  0
LINE
  8
8
 10
-85.1960
 20
132.1685
 11
-85.1960
 21
144.2948
  0
LINE
  8
8
 10
-72.3998
 20
146.4306
 11
-72.4185
 21
130.6703
  0
LINE
  8
8
 10
-56.4896
 20
131.9056
 11
-63.9057
 21
129.7868
  0
POLYLINE
  8
8
 66
1
 70
0
  0
VERTEX
  8
8
 10
-57.2255
 20
142.8767
  0
VERTEX
  8
8
 10
-64.5997
 20
142.8064
  0
VERTEX
  8
8
 10
-64.9662
 20
142.8166
  0
VERTEX
  8
8
 10
-65.5586
 20
142.9389
  0
VERTEX
  8
8
 10
-66.0265
 20
143.3743
  0
VERTEX
  8
8
 10
-66.2612
 20
144.0561
  0
VERTEX
  8
8
 10
-66.3112
 20
144.2890
  0
SEQEND
  8
8
  0
ENDBLK
  0
BLOCK
  8
0
  2
LDM000222D-VS-F-FR_58
 70
64
 10
0.0000
 20
0.0000
  0
TEXT
  8
1
 10
-78.6254
 20
138.2189
 40
0.250
 50
0.0000
  1
Piece Name: LDM000222D-VS-F-FR
  7
STANDARD
  0
TEXT
  8
1
 10
-78.6254
 20
138.3589
 40
0.250
 50
0.0000
  1
SIZE: 58
  7
STANDARD
  0
POLYLINE
  8
1
 66
1
 70
1
  0
VERTEX
  8
1
 10
-101.3913
 20
143.0595
  0
VERTEX
  8
1
 10
-85.4684
 20
144.4255
  0
VERTEX
  8
1
 10
-85.4684
 20
144.4255
  0
VERTEX
  8
1
 10
-77.0622
 20
145.5752
  0
VERTEX
  8
1
 10
-72.6925
 20
146.6295
  0
VERTEX
  8
1
 10
-71.7174
 20
146.8667
  0
VERTEX
  8
1
 10
-71.7174
 20
146.8667
  0
VERTEX
  8
1
 10
-71.2946
 20
146.1011
  0
VERTEX
  8
1
 10
-70.5360
 20
145.3495
  0
VERTEX
  8
1
 10
-69.3004
 20
144.7735
  0
VERTEX
  8
1
 10
-67.9528
 20
144.5460
  0
VERTEX
  8
1
 10
-66.2442
 20
144.4536
  0
VERTEX
  8
1
 10
-66.2442
 20
144.4536
  0
VERTEX
  8
1
 10
-57.1340
 20
144.6201
  0
VERTEX
  8
1
 10
-57.1340
 20
144.6201
  0
VERTEX
  8
1
 10
-57.1229
 20
141.3539
  0
VERTEX
  8
1
 10
-56.8164
 20
136.3169
  0
VERTEX
  8
1
 10
-56.2190
 20
131.6666
  0
VERTEX
  8
1
 10
-56.2190
 20
131.6666
  0
VERTEX
  8
1
 10
-55.8596
 20
129.6992
  0
VERTEX
  8
1
 10
-55.8596
 20
129.6992
  0
VERTEX
  8
1
 10
-63.6094
 20
129.5712
  0
VERTEX
  8
1
 10
-63.6094
 20
129.5712
  0
VERTEX
  8
1
 10
-64.4628
 20
129.6753
  0
VERTEX
  8
1
 10
-72.7151
 20
130.5130
  0
VERTEX
  8
1
 10
-72.7151
 20
130.5130
  0
VERTEX
  8
1
 10
-77.0665
 20
131.0835
  0
VERTEX
  8
1
 10
-85.4684
 20
132.0492
  0
VERTEX
  8
1
 10
-85.4684
 20
132.0492
  0
VERTEX
  8
1
 10
-101.3913
 20
133.4252
  0
VERTEX
  8
1
 10
-101.3913
 20
133.4252
  0
VERTEX
  8
1
 10
-101.3913
 20
143.0595
  0
SEQEND
  8
1
  0
LINE
  8
7
 10
-101.6494
 20
138.2423
 11
-73.5666
 21
138.2423
  0
LINE
  8
5
 10
-101.6494
 20
138.2423
 11
-73.5666
 21
138.2423
  0
LINE
  8
8
 10
-64.4628
 20
129.6753
 11
-66.2442
 21
144.4536
  0
LINE
  8
8
 10
-77.0622
 20
131.0833
 11
-77.0622
 21
145.5752
  0
LINE
  8
8
 10
-85.4684
 20
132.0492
 11
-85.4684
 21
144.4255
  0
LINE
  8
8
 10
-72.6925
 20
146.6295
 11
-72.7151
 21
130.5135
  0
LINE
  8
8
 10
-56.2190
 20
131.6666
 11
-63.6094
 21
129.5712
  0
POLYLINE
  8
8
 66
1
 70
0
  0
VERTEX
  8
8
 10
-57.1395
 20
143.1214
  0
VERTEX
  8
8
 10
-64.5198
 20
142.9861
  0
VERTEX
  8
8
 10
-64.8862
 20
142.9930
  0
VERTEX
  8
8
 10
-65.4798
 20
143.1102
  0
VERTEX
  8
8
 10
-65.9515
 20
143.5414
  0
VERTEX
  8
8
 10
-66.1922
 20
144.2211
  0
VERTEX
  8
8
 10
-66.2442
 20
144.4536
  0
SEQEND
  8
8
  0
ENDBLK
  0
BLOCK
  8
0
  2
LDM000222D-VS-F-FR_60
 70
64
 10
0.0000
 20
0.0000
  0
TEXT
  8
1
 10
-78.6151
 20
138.2189
 40
0.250
 50
0.0000
  1
Piece Name: LDM000222D-VS-F-FR
  7
STANDARD
  0
TEXT
  8
1
 10
-78.6151
 20
138.3589
 40
0.250
 50
0.0000
  1
SIZE: 60
  7
STANDARD
  0
POLYLINE
  8
1
 66
1
 70
1
  0
VERTEX
  8
1
 10
-101.5118
 20
143.1633
  0
VERTEX
  8
1
 10
-85.5919
 20
144.5603
  0
VERTEX
  8
1
 10
-85.5919
 20
144.5603
  0
VERTEX
  8
1
 10
-77.1952
 20
145.7660
  0
VERTEX
  8
1
 10
-72.8323
 20
146.8439
  0
VERTEX
  8
1
 10
-71.8586
 20
147.0865
  0
VERTEX
  8
1
 10
-71.8586
 20
147.0865
  0
VERTEX
  8
1
 10
-71.4376
 20
146.3196
  0
VERTEX
  8
1
 10
-70.6809
 20
145.5659
  0
VERTEX
  8
1
 10
-69.4465
 20
144.9866
  0
VERTEX
  8
1
 10
-68.0994
 20
144.7555
  0
VERTEX
  8
1
 10
-66.3907
 20
144.6585
  0
VERTEX
  8
1
 10
-66.3907
 20
144.6585
  0
VERTEX
  8
1
 10
-56.9045
 20
144.8959
  0
VERTEX
  8
1
 10
-56.9045
 20
144.8959
  0
VERTEX
  8
1
 10
-56.9198
 20
141.5035
  0
VERTEX
  8
1
 10
-56.6430
 20
136.2696
  0
VERTEX
  8
1
 10
-56.0609
 20
131.4348
  0
VERTEX
  8
1
 10
-56.0609
 20
131.4348
  0
VERTEX
  8
1
 10
-55.7184
 20
129.4644
  0
VERTEX
  8
1
 10
-55.7184
 20
129.4644
  0
VERTEX
  8
1
 10
-63.4690
 20
129.3513
  0
VERTEX
  8
1
 10
-63.4690
 20
129.3513
  0
VERTEX
  8
1
 10
-64.6630
 20
129.4651
  0
VERTEX
  8
1
 10
-72.8562
 20
130.3600
  0
VERTEX
  8
1
 10
-72.8562
 20
130.3600
  0
VERTEX
  8
1
 10
-77.1995
 20
130.9383
  0
VERTEX
  8
1
 10
-85.5919
 20
131.9340
  0
VERTEX
  8
1
 10
-85.5919
 20
131.9340
  0
VERTEX
  8
1
 10
-101.5118
 20
133.3410
  0
VERTEX
  8
1
 10
-101.5118
 20
133.3410
  0
VERTEX
  8
1
 10
-101.5118
 20
143.1633
  0
SEQEND
  8
1
  0
LINE
  8
7
 10
-101.7906
 20
138.2521
 11
-73.7077
 21
138.2521
  0
LINE
  8
5
 10
-101.7906
 20
138.2521
 11
-73.7077
 21
138.2521
  0
LINE
  8
8
 10
-64.6630
 20
129.4651
 11
-66.3907
 21
144.6585
  0
LINE
  8
8
 10
-77.1952
 20
130.9381
 11
-77.1952
 21
145.7660
  0
LINE
  8
8
 10
-85.5919
 20
131.9340
 11
-85.5919
 21
144.5603
  0
LINE
  8
8
 10
-72.8323
 20
146.8439
 11
-72.8562
 21
130.3605
  0
LINE
  8
8
 10
-56.0609
 20
131.4348
 11
-63.4690
 21
129.3513
  0
POLYLINE
  8
8
 66
1
 70
0
  0
VERTEX
  8
8
 10
-56.9212
 20
143.3967
  0
VERTEX
  8
8
 10
-64.6563
 20
143.2027
  0
VERTEX
  8
8
 10
-65.0228
 20
143.2072
  0
VERTEX
  8
8
 10
-65.6172
 20
143.3203
  0
VERTEX
  8
8
 10
-66.0917
 20
143.7483
  0
VERTEX
  8
8
 10
-66.3370
 20
144.4264
  0
VERTEX
  8
8
 10
-66.3907
 20
144.6585
  0
SEQEND
  8
8
  0
ENDBLK
  0
BLOCK
  8
0
  2
LDM000222D-VS-F-BK_22
 70
64
 10
0.0000
 20
0.0000
  0
TEXT
  8
1
 10
-78.4716
 20
120.9501
 40
0.250
 50
0.0000
  1
Piece Name: LDM000222D-VS-F-BK
  7
STANDARD
  0
TEXT
  8
1
 10
-78.4716
 20
121.0901
 40
0.250
 50
0.0000
  1
SIZE: 22
  7
STANDARD
  0
POLYLINE
  8
1
 66
1
 70
1
  0
VERTEX
  8
1
 10
-69.0644
 20
127.2520
  0
VERTEX
  8
1
 10
-68.9755
 20
127.0184
  0
VERTEX
  8
1
 10
-68.7944
 20
126.5620
  0
VERTEX
  8
1
 10
-68.2810
 20
125.6293
  0
VERTEX
  8
1
 10
-67.3414
 20
124.7828
  0
VERTEX
  8
1
 10
-66.0506
 20
124.1355
  0
VERTEX
  8
1
 10
-64.9324
 20
123.6804
  0
VERTEX
  8
1
 10
-58.3886
 20
121.6266
  0
VERTEX
  8
1
 10
-58.3886
 20
121.6266
  0
VERTEX
  8
1
 10
-58.5845
 20
120.4807
  0
VERTEX
  8
1
 10
-58.6412
 20
119.6602
  0
VERTEX
  8
1
 10
-58.6449
 20
118.6152
  0
VERTEX
  8
1
 10
-58.6449
 20
118.6152
  0
VERTEX
  8
1
 10
-61.4053
 20
118.5426
  0
VERTEX
  8
1
 10
-61.4053
 20
118.5426
  0
VERTEX
  8
1
 10
-58.7469
 20
117.7963
  0
VERTEX
  8
1
 10
-58.7469
 20
117.7963
  0
VERTEX
  8
1
 10
-58.9899
 20
116.8648
  0
VERTEX
  8
1
 10
-59.1559
 20
115.8003
  0
VERTEX
  8
1
 10
-59.2403
 20
114.6482
  0
VERTEX
  8
1
 10
-59.2403
 20
114.6482
  0
VERTEX
  8
1
 10
-61.8287
 20
114.6795
  0
VERTEX
  8
1
 10
-64.9444
 20
114.9518
  0
VERTEX
  8
1
 10
-69.5087
 20
115.2537
  0
VERTEX
  8
1
 10
-69.5087
 20
115.2537
  0
VERTEX
  8
1
 10
-74.0444
 20
115.4865
  0
VERTEX
  8
1
 10
-82.5399
 20
115.9475
  0
VERTEX
  8
1
 10
-82.5399
 20
115.9475
  0
VERTEX
  8
1
 10
-98.5210
 20
116.5115
  0
VERTEX
  8
1
 10
-98.5210
 20
116.5115
  0
VERTEX
  8
1
 10
-98.5546
 20
124.8905
  0
VERTEX
  8
1
 10
-98.5546
 20
124.8905
  0
VERTEX
  8
1
 10
-82.5299
 20
125.4445
  0
VERTEX
  8
1
 10
-82.5299
 20
125.4445
  0
VERTEX
  8
1
 10
-74.4346
 20
126.0404
  0
VERTEX
  8
1
 10
-70.0121
 20
126.9355
  0
VERTEX
  8
1
 10
-69.0644
 20
127.2520
  0
SEQEND
  8
1
  0
LINE
  8
7
 10
-87.9194
 20
121.1085
 11
-66.8929
 21
121.1085
  0
LINE
  8
5
 10
-87.9194
 20
121.1085
 11
-66.8929
 21
121.1085
  0
LINE
  8
8
 10
-82.5399
 20
115.9475
 11
-82.5299
 21
125.4445
  0
LINE
  8
8
 10
-74.0444
 20
115.4865
 11
-74.4346
 21
126.0404
  0
LINE
  8
8
 10
-70.0121
 20
126.9355
 11
-69.5087
 21
115.2537
  0
LINE
  8
8
 10
-64.9444
 20
114.9518
 11
-64.9324
 21
123.6804
  0
LINE
  8
8
 10
-61.5308
 20
118.5580
 11
-62.1909
 21
116.3019
  0
LINE
  8
8
 10
-62.1909
 20
116.3019
 11
-61.7110
 21
116.1616
  0
LINE
  8
8
 10
-61.5308
 20
118.5580
 11
-61.6241
 21
120.8824
  0
LINE
  8
8
 10
-61.0443
 20
118.4412
 11
-61.7110
 21
116.1616
  0
LINE
  8
8
 10
-61.0305
 20
118.5531
 11
-61.1244
 21
120.9024
  0
LINE
  8
8
 10
-61.6241
 20
120.8824
 11
-61.1244
 21
120.9024
  0
ENDBLK
  0
BLOCK
  8
0
  2
LDM000222D-VS-F-BK_23
 70
64
 10
0.0000
 20
0.0000
  0
TEXT
  8
1
 10
-78.4715
 20
120.9501
 40
0.250
 50
0.0000
  1
Piece Name: LDM000222D-VS-F-BK
  7
STANDARD
  0
TEXT
  8
1
 10
-78.4715
 20
121.0901
 40
0.250
 50
0.0000
  1
SIZE: 23
  7
STANDARD
  0
POLYLINE
  8
1
 66
1
 70
1
  0
VERTEX
  8
1
 10
-69.1848
 20
127.4002
  0
VERTEX
  8
1
 10
-69.0919
 20
127.1682
  0
VERTEX
  8
1
 10
-68.9243
 20
126.7191
  0
VERTEX
  8
1
 10
-68.4420
 20
125.7984
  0
VERTEX
  8
1
 10
-67.5420
 20
124.9533
  0
VERTEX
  8
1
 10
-66.2951
 20
124.2956
  0
VERTEX
  8
1
 10
-65.2129
 20
123.8289
  0
VERTEX
  8
1
 10
-58.2977
 20
121.7224
  0
VERTEX
  8
1
 10
-58.2977
 20
121.7224
  0
VERTEX
  8
1
 10
-58.5139
 20
120.5187
  0
VERTEX
  8
1
 10
-58.5807
 20
119.6560
  0
VERTEX
  8
1
 10
-58.5938
 20
118.5567
  0
VERTEX
  8
1
 10
-58.5938
 20
118.5567
  0
VERTEX
  8
1
 10
-61.3545
 20
118.4965
  0
VERTEX
  8
1
 10
-61.3545
 20
118.4965
  0
VERTEX
  8
1
 10
-58.6995
 20
117.7382
  0
VERTEX
  8
1
 10
-58.6995
 20
117.7382
  0
VERTEX
  8
1
 10
-58.9526
 20
116.7804
  0
VERTEX
  8
1
 10
-59.1269
 20
115.6854
  0
VERTEX
  8
1
 10
-59.2175
 20
114.5001
  0
VERTEX
  8
1
 10
-59.2175
 20
114.5001
  0
VERTEX
  8
1
 10
-61.9768
 20
114.5137
  0
VERTEX
  8
1
 10
-65.3001
 20
114.7802
  0
VERTEX
  8
1
 10
-69.6149
 20
115.0951
  0
VERTEX
  8
1
 10
-69.6149
 20
115.0951
  0
VERTEX
  8
1
 10
-74.1451
 20
115.3549
  0
VERTEX
  8
1
 10
-82.6395
 20
115.8579
  0
VERTEX
  8
1
 10
-82.6395
 20
115.8579
  0
VERTEX
  8
1
 10
-98.6191
 20
116.4539
  0
VERTEX
  8
1
 10
-98.6191
 20
116.4539
  0
VERTEX
  8
1
 10
-98.6454
 20
124.8949
  0
VERTEX
  8
1
 10
-98.6454
 20
124.8949
  0
VERTEX
  8
1
 10
-82.6295
 20
125.4809
  0
VERTEX
  8
1
 10
-82.6295
 20
125.4809
  0
VERTEX
  8
1
 10
-74.5353
 20
126.0967
  0
VERTEX
  8
1
 10
-70.1269
 20
127.0675
  0
VERTEX
  8
1
 10
-69.1848
 20
127.4002
  0
SEQEND
  8
1
  0
LINE
  8
7
 10
-88.0256
 20
121.0819
 11
-66.9991
 21
121.0819
  0
LINE
  8
5
 10
-88.0256
 20
121.0819
 11
-66.9991
 21
121.0819
  0
LINE
  8
8
 10
-82.6395
 20
115.8579
 11
-82.6295
 21
125.4809
  0
LINE
  8
8
 10
-74.1451
 20
115.3549
 11
-74.5353
 21
126.0967
  0
LINE
  8
8
 10
-70.1269
 20
127.0675
 11
-69.6149
 21
115.0951
  0
LINE
  8
8
 10
-65.3001
 20
114.7802
 11
-65.2129
 21
123.8289
  0
LINE
  8
8
 10
-61.4799
 20
118.5125
 11
-62.1524
 21
116.2607
  0
LINE
  8
8
 10
-62.1524
 20
116.2607
 11
-61.6732
 21
116.1177
  0
LINE
  8
8
 10
-61.4799
 20
118.5125
 11
-61.5660
 21
120.8372
  0
LINE
  8
8
 10
-60.9939
 20
118.3935
 11
-61.6732
 21
116.1177
  0
LINE
  8
8
 10
-60.9796
 20
118.5053
 11
-61.0662
 21
120.8556
  0
LINE
  8
8
 10
-61.5660
 20
120.8372
 11
-61.0662
 21
120.8556
  0
ENDBLK
  0
BLOCK
  8
0
  2
LDM000222D-VS-F-BK_24
 70
64
 10
0.0000
 20
0.0000
  0
TEXT
  8
1
 10
-78.4716
 20
120.9501
 40
0.250
 50
0.0000
  1
Piece Name: LDM000222D-VS-F-BK
  7
STANDARD
  0
TEXT
  8
1
 10
-78.4716
 20
121.0901
 40
0.250
 50
0.0000
  1
SIZE: 24
  7
STANDARD
  0
POLYLINE
  8
1
 66
1
 70
1
  0
VERTEX
  8
1
 10
-69.3532
 20
127.5451
  0
VERTEX
  8
1
 10
-69.2589
 20
127.3137
  0
VERTEX
  8
1
 10
-69.0643
 20
126.8503
  0
VERTEX
  8
1
 10
-68.5200
 20
125.9062
  0
VERTEX
  8
1
 10
-67.5413
 20
125.0590
  0
VERTEX
  8
1
 10
-66.2072
 20
124.4228
  0
VERTEX
  8
1
 10
-65.0536
 20
123.9797
  0
VERTEX
  8
1
 10
-58.1497
 20
121.8090
  0
VERTEX
  8
1
 10
-58.1497
 20
121.8090
  0
VERTEX
  8
1
 10
-58.4044
 20
120.5449
  0
VERTEX
  8
1
 10
-58.4941
 20
119.6369
  0
VERTEX
  8
1
 10
-58.5324
 20
118.4784
  0
VERTEX
  8
1
 10
-58.5324
 20
118.4784
  0
VERTEX
  8
1
 10
-61.2937
 20
118.4691
  0
VERTEX
  8
1
 10
-61.2937
 20
118.4691
  0
VERTEX
  8
1
 10
-58.6532
 20
117.6617
  0
VERTEX
  8
1
 10
-58.6532
 20
117.6617
  0
VERTEX
  8
1
 10
-58.9301
 20
116.6855
  0
VERTEX
  8
1
 10
-59.1289
 20
115.5674
  0
VERTEX
  8
1
 10
-59.2436
 20
114.3552
  0
VERTEX
  8
1
 10
-59.2436
 20
114.3552
  0
VERTEX
  8
1
 10
-62.0038
 20
114.3552
  0
VERTEX
  8
1
 10
-65.3294
 20
114.6053
  0
VERTEX
  8
1
 10
-69.7700
 20
114.9332
  0
VERTEX
  8
1
 10
-69.7700
 20
114.9332
  0
VERTEX
  8
1
 10
-74.2981
 20
115.2200
  0
VERTEX
  8
1
 10
-82.7881
 20
115.7650
  0
VERTEX
  8
1
 10
-82.7881
 20
115.7650
  0
VERTEX
  8
1
 10
-98.7662
 20
116.3930
  0
VERTEX
  8
1
 10
-98.7662
 20
116.3930
  0
VERTEX
  8
1
 10
-98.7936
 20
124.8960
  0
VERTEX
  8
1
 10
-98.7936
 20
124.8960
  0
VERTEX
  8
1
 10
-82.7781
 20
125.5140
  0
VERTEX
  8
1
 10
-82.7781
 20
125.5140
  0
VERTEX
  8
1
 10
-74.6883
 20
126.2117
  0
VERTEX
  8
1
 10
-70.2933
 20
127.2068
  0
VERTEX
  8
1
 10
-69.3532
 20
127.5451
  0
SEQEND
  8
1
  0
LINE
  8
7
 10
-88.1807
 20
121.0520
 11
-67.1542
 21
121.0520
  0
LINE
  8
5
 10
-88.1807
 20
121.0520
 11
-67.1542
 21
121.0520
  0
LINE
  8
8
 10
-82.7881
 20
115.7650
 11
-82.7781
 21
125.5140
  0
LINE
  8
8
 10
-74.2981
 20
115.2200
 11
-74.6883
 21
126.2117
  0
LINE
  8
8
 10
-70.2933
 20
127.2068
 11
-69.7700
 21
114.9332
  0
LINE
  8
8
 10
-65.3294
 20
114.6053
 11
-65.0536
 21
123.9797
  0
LINE
  8
8
 10
-61.4188
 20
118.4874
 11
-62.1370
 21
116.2508
  0
LINE
  8
8
 10
-62.1370
 20
116.2508
 11
-61.6608
 21
116.0980
  0
LINE
  8
8
 10
-61.4188
 20
118.4874
 11
-61.4651
 21
120.8181
  0
LINE
  8
8
 10
-60.9351
 20
118.3594
 11
-61.6608
 21
116.0980
  0
LINE
  8
8
 10
-60.9187
 20
118.4709
 11
-60.9651
 21
120.8279
  0
LINE
  8
8
 10
-61.4651
 20
120.8181
 11
-60.9651
 21
120.8279
  0
ENDBLK
  0
BLOCK
  8
0
  2
LDM000222D-VS-F-BK_25
 70
64
 10
0.0000
 20
0.0000
  0
TEXT
  8
1
 10
-78.4716
 20
120.9501
 40
0.250
 50
0.0000
  1
Piece Name: LDM000222D-VS-F-BK
  7
STANDARD
  0
TEXT
  8
1
 10
-78.4716
 20
121.0901
 40
0.250
 50
0.0000
  1
SIZE: 25
  7
STANDARD
  0
POLYLINE
  8
1
 66
1
 70
1
  0
VERTEX
  8
1
 10
-69.4688
 20
127.7012
  0
VERTEX
  8
1
 10
-69.3705
 20
127.4715
  0
VERTEX
  8
1
 10
-69.1903
 20
127.0158
  0
VERTEX
  8
1
 10
-68.6791
 20
126.0844
  0
VERTEX
  8
1
 10
-67.7424
 20
125.2385
  0
VERTEX
  8
1
 10
-66.4551
 20
124.5910
  0
VERTEX
  8
1
 10
-65.3397
 20
124.1355
  0
VERTEX
  8
1
 10
-58.0654
 20
121.9065
  0
VERTEX
  8
1
 10
-58.0654
 20
121.9065
  0
VERTEX
  8
1
 10
-58.3536
 20
120.5784
  0
VERTEX
  8
1
 10
-58.4622
 20
119.6230
  0
VERTEX
  8
1
 10
-58.5207
 20
118.4028
  0
VERTEX
  8
1
 10
-58.5207
 20
118.4028
  0
VERTEX
  8
1
 10
-61.2819
 20
118.4270
  0
VERTEX
  8
1
 10
-61.2819
 20
118.4270
  0
VERTEX
  8
1
 10
-58.6514
 20
117.5875
  0
VERTEX
  8
1
 10
-58.6514
 20
117.5875
  0
VERTEX
  8
1
 10
-58.9452
 20
116.5940
  0
VERTEX
  8
1
 10
-59.1610
 20
115.4547
  0
VERTEX
  8
1
 10
-59.2919
 20
114.2184
  0
VERTEX
  8
1
 10
-59.2919
 20
114.2184
  0
VERTEX
  8
1
 10
-62.2230
 20
114.1991
  0
VERTEX
  8
1
 10
-65.7562
 20
114.4415
  0
VERTEX
  8
1
 10
-69.8723
 20
114.7824
  0
VERTEX
  8
1
 10
-69.8723
 20
114.7824
  0
VERTEX
  8
1
 10
-74.3929
 20
115.0962
  0
VERTEX
  8
1
 10
-82.8814
 20
115.6832
  0
VERTEX
  8
1
 10
-82.8814
 20
115.6832
  0
VERTEX
  8
1
 10
-98.8579
 20
116.3432
  0
VERTEX
  8
1
 10
-98.8579
 20
116.3432
  0
VERTEX
  8
1
 10
-98.8778
 20
124.9082
  0
VERTEX
  8
1
 10
-98.8778
 20
124.9082
  0
VERTEX
  8
1
 10
-82.8714
 20
125.5582
  0
VERTEX
  8
1
 10
-82.8714
 20
125.5582
  0
VERTEX
  8
1
 10
-74.7831
 20
126.2758
  0
VERTEX
  8
1
 10
-70.4029
 20
127.3468
  0
VERTEX
  8
1
 10
-69.4688
 20
127.7012
  0
SEQEND
  8
1
  0
LINE
  8
7
 10
-88.2830
 20
121.0332
 11
-67.2565
 21
121.0332
  0
LINE
  8
5
 10
-88.2830
 20
121.0332
 11
-67.2565
 21
121.0332
  0
LINE
  8
8
 10
-82.8814
 20
115.6832
 11
-82.8714
 21
125.5582
  0
LINE
  8
8
 10
-74.3929
 20
115.0962
 11
-74.7831
 21
126.2758
  0
LINE
  8
8
 10
-70.4029
 20
127.3468
 11
-69.8723
 21
114.7824
  0
LINE
  8
8
 10
-65.7562
 20
114.4415
 11
-65.3397
 21
124.1355
  0
LINE
  8
8
 10
-61.4068
 20
118.4468
 11
-62.1540
 21
116.2202
  0
LINE
  8
8
 10
-62.1540
 20
116.2202
 11
-61.6798
 21
116.0612
  0
LINE
  8
8
 10
-61.4068
 20
118.4468
 11
-61.4308
 21
120.7803
  0
LINE
  8
8
 10
-60.9247
 20
118.3129
 11
-61.6798
 21
116.0612
  0
LINE
  8
8
 10
-60.9069
 20
118.4242
 11
-60.9307
 21
120.7853
  0
LINE
  8
8
 10
-61.4308
 20
120.7803
 11
-60.9307
 21
120.7853
  0
ENDBLK
  0
BLOCK
  8
0
  2
LDM000222D-VS-F-BK_26
 70
64
 10
0.0000
 20
0.0000
  0
TEXT
  8
1
 10
-78.4716
 20
120.9501
 40
0.250
 50
0.0000
  1
Piece Name: LDM000222D-VS-F-BK
  7
STANDARD
  0
TEXT
  8
1
 10
-78.4716
 20
121.0901
 40
0.250
 50
0.0000
  1
SIZE: 26
  7
STANDARD
  0
POLYLINE
  8
1
 66
1
 70
1
  0
VERTEX
  8
1
 10
-69.6328
 20
127.8535
  0
VERTEX
  8
1
 10
-69.5331
 20
127.6244
  0
VERTEX
  8
1
 10
-69.3273
 20
127.1544
  0
VERTEX
  8
1
 10
-68.7573
 20
126.1991
  0
VERTEX
  8
1
 10
-67.7453
 20
125.3494
  0
VERTEX
  8
1
 10
-66.3738
 20
124.7205
  0
VERTEX
  8
1
 10
-65.1896
 20
124.2859
  0
VERTEX
  8
1
 10
-57.9265
 20
121.9952
  0
VERTEX
  8
1
 10
-57.9265
 20
121.9952
  0
VERTEX
  8
1
 10
-58.2526
 20
120.6111
  0
VERTEX
  8
1
 10
-58.3840
 20
119.6136
  0
VERTEX
  8
1
 10
-58.4678
 20
118.3381
  0
VERTEX
  8
1
 10
-58.4678
 20
118.3381
  0
VERTEX
  8
1
 10
-61.2283
 20
118.4023
  0
VERTEX
  8
1
 10
-61.2283
 20
118.4023
  0
VERTEX
  8
1
 10
-58.6103
 20
117.5246
  0
VERTEX
  8
1
 10
-58.6103
 20
117.5246
  0
VERTEX
  8
1
 10
-58.9261
 20
116.5100
  0
VERTEX
  8
1
 10
-59.1639
 20
115.3448
  0
VERTEX
  8
1
 10
-59.3161
 20
114.0788
  0
VERTEX
  8
1
 10
-59.3161
 20
114.0788
  0
VERTEX
  8
1
 10
-62.2481
 20
114.0468
  0
VERTEX
  8
1
 10
-65.7835
 20
114.2739
  0
VERTEX
  8
1
 10
-70.0255
 20
114.6278
  0
VERTEX
  8
1
 10
-70.0255
 20
114.6278
  0
VERTEX
  8
1
 10
-74.5433
 20
114.9686
  0
VERTEX
  8
1
 10
-83.0264
 20
115.5976
  0
VERTEX
  8
1
 10
-83.0264
 20
115.5976
  0
VERTEX
  8
1
 10
-99.0012
 20
116.2896
  0
VERTEX
  8
1
 10
-99.0012
 20
116.2896
  0
VERTEX
  8
1
 10
-99.0167
 20
124.9166
  0
VERTEX
  8
1
 10
-99.0167
 20
124.9166
  0
VERTEX
  8
1
 10
-83.0164
 20
125.5986
  0
VERTEX
  8
1
 10
-83.0164
 20
125.5986
  0
VERTEX
  8
1
 10
-74.9335
 20
126.3980
  0
VERTEX
  8
1
 10
-70.5648
 20
127.4936
  0
VERTEX
  8
1
 10
-69.6328
 20
127.8535
  0
SEQEND
  8
1
  0
LINE
  8
7
 10
-88.4362
 20
121.0106
 11
-67.4097
 21
121.0106
  0
LINE
  8
5
 10
-88.4362
 20
121.0106
 11
-67.4097
 21
121.0106
  0
LINE
  8
8
 10
-83.0264
 20
115.5976
 11
-83.0164
 21
125.5986
  0
LINE
  8
8
 10
-74.5433
 20
114.9686
 11
-74.9335
 21
126.3980
  0
LINE
  8
8
 10
-70.5648
 20
127.4936
 11
-70.0255
 21
114.6278
  0
LINE
  8
8
 10
-65.7835
 20
114.2739
 11
-65.1896
 21
124.2859
  0
LINE
  8
8
 10
-61.3529
 20
118.4239
 11
-62.1371
 21
116.2113
  0
LINE
  8
8
 10
-62.1371
 20
116.2113
 11
-61.6656
 21
116.0443
  0
LINE
  8
8
 10
-61.3529
 20
118.4239
 11
-61.3450
 21
120.7614
  0
LINE
  8
8
 10
-60.8728
 20
118.2830
 11
-61.6656
 21
116.0443
  0
LINE
  8
8
 10
-60.8534
 20
118.3940
 11
-60.8449
 21
120.7595
  0
LINE
  8
8
 10
-61.3450
 20
120.7614
 11
-60.8449
 21
120.7595
  0
ENDBLK
  0
BLOCK
  8
0
  2
LDM000222D-VS-F-BK_27
 70
64
 10
0.0000
 20
0.0000
  0
TEXT
  8
1
 10
-78.4716
 20
120.9501
 40
0.250
 50
0.0000
  1
Piece Name: LDM000222D-VS-F-BK
  7
STANDARD
  0
TEXT
  8
1
 10
-78.4716
 20
121.0901
 40
0.250
 50
0.0000
  1
SIZE: 27
  7
STANDARD
  0
POLYLINE
  8
1
 66
1
 70
1
  0
VERTEX
  8
1
 10
-69.7960
 20
128.0065
  0
VERTEX
  8
1
 10
-69.6923
 20
127.7792
  0
VERTEX
  8
1
 10
-69.4622
 20
127.2951
  0
VERTEX
  8
1
 10
-68.8360
 20
126.3160
  0
VERTEX
  8
1
 10
-67.7517
 20
125.4615
  0
VERTEX
  8
1
 10
-66.2992
 20
124.8492
  0
VERTEX
  8
1
 10
-65.0485
 20
124.4338
  0
VERTEX
  8
1
 10
-57.7965
 20
122.0825
  0
VERTEX
  8
1
 10
-57.7965
 20
122.0825
  0
VERTEX
  8
1
 10
-58.1576
 20
120.6450
  0
VERTEX
  8
1
 10
-58.3098
 20
119.6073
  0
VERTEX
  8
1
 10
-58.4168
 20
118.2792
  0
VERTEX
  8
1
 10
-58.4168
 20
118.2792
  0
VERTEX
  8
1
 10
-61.1763
 20
118.3774
  0
VERTEX
  8
1
 10
-61.1763
 20
118.3774
  0
VERTEX
  8
1
 10
-58.5693
 20
117.4674
  0
VERTEX
  8
1
 10
-58.5693
 20
117.4674
  0
VERTEX
  8
1
 10
-58.9055
 20
116.4293
  0
VERTEX
  8
1
 10
-59.1634
 20
115.2355
  0
VERTEX
  8
1
 10
-59.3346
 20
113.9373
  0
VERTEX
  8
1
 10
-59.3346
 20
113.9373
  0
VERTEX
  8
1
 10
-62.2675
 20
113.8937
  0
VERTEX
  8
1
 10
-65.8051
 20
114.1071
  0
VERTEX
  8
1
 10
-70.1730
 20
114.4741
  0
VERTEX
  8
1
 10
-70.1730
 20
114.4741
  0
VERTEX
  8
1
 10
-74.6812
 20
114.8418
  0
VERTEX
  8
1
 10
-83.1626
 20
115.5128
  0
VERTEX
  8
1
 10
-83.1626
 20
115.5128
  0
VERTEX
  8
1
 10
-99.1356
 20
116.2368
  0
VERTEX
  8
1
 10
-99.1356
 20
116.2368
  0
VERTEX
  8
1
 10
-99.1467
 20
124.9258
  0
VERTEX
  8
1
 10
-99.1467
 20
124.9258
  0
VERTEX
  8
1
 10
-83.1526
 20
125.6398
  0
VERTEX
  8
1
 10
-83.1526
 20
125.6398
  0
VERTEX
  8
1
 10
-75.0714
 20
126.4590
  0
VERTEX
  8
1
 10
-70.7216
 20
127.6305
  0
VERTEX
  8
1
 10
-69.7960
 20
128.0065
  0
SEQEND
  8
1
  0
LINE
  8
7
 10
-88.5837
 20
120.9888
 11
-67.5572
 21
120.9888
  0
LINE
  8
5
 10
-88.5837
 20
120.9888
 11
-67.5572
 21
120.9888
  0
LINE
  8
8
 10
-83.1626
 20
115.5128
 11
-83.1526
 21
125.6398
  0
LINE
  8
8
 10
-74.6812
 20
114.8418
 11
-75.0714
 21
126.4590
  0
LINE
  8
8
 10
-70.7216
 20
127.6305
 11
-70.1730
 21
114.4741
  0
LINE
  8
8
 10
-65.8051
 20
114.1071
 11
-65.0485
 21
124.4338
  0
LINE
  8
8
 10
-61.3006
 20
118.4006
 11
-62.1524
 21
116.0072
  0
LINE
  8
8
 10
-62.1524
 20
116.0072
 11
-61.6812
 21
115.8395
  0
LINE
  8
8
 10
-61.3006
 20
118.4006
 11
-61.2261
 21
120.9414
  0
LINE
  8
8
 10
-60.8223
 20
118.2537
 11
-61.6812
 21
115.8395
  0
LINE
  8
8
 10
-60.8015
 20
118.3645
 11
-60.7262
 21
120.9266
  0
LINE
  8
8
 10
-61.2261
 20
120.9414
 11
-60.7262
 21
120.9266
  0
ENDBLK
  0
BLOCK
  8
0
  2
LDM000222D-VS-F-BK_28
 70
64
 10
0.0000
 20
0.0000
  0
TEXT
  8
1
 10
-78.4716
 20
120.9501
 40
0.250
 50
0.0000
  1
Piece Name: LDM000222D-VS-F-BK
  7
STANDARD
  0
TEXT
  8
1
 10
-78.4716
 20
121.0901
 40
0.250
 50
0.0000
  1
SIZE: 28
  7
STANDARD
  0
POLYLINE
  8
1
 66
1
 70
1
  0
VERTEX
  8
1
 10
-69.9498
 20
128.1600
  0
VERTEX
  8
1
 10
-69.8448
 20
127.9333
  0
VERTEX
  8
1
 10
-69.5912
 20
127.4353
  0
VERTEX
  8
1
 10
-68.9107
 20
126.4329
  0
VERTEX
  8
1
 10
-67.7563
 20
125.5733
  0
VERTEX
  8
1
 10
-66.2251
 20
124.9766
  0
VERTEX
  8
1
 10
-64.9099
 20
124.5794
  0
VERTEX
  8
1
 10
-57.6692
 20
122.1679
  0
VERTEX
  8
1
 10
-57.6692
 20
122.1679
  0
VERTEX
  8
1
 10
-58.0646
 20
120.6789
  0
VERTEX
  8
1
 10
-58.2373
 20
119.6027
  0
VERTEX
  8
1
 10
-58.3671
 20
118.2239
  0
VERTEX
  8
1
 10
-58.3671
 20
118.2239
  0
VERTEX
  8
1
 10
-61.1254
 20
118.3508
  0
VERTEX
  8
1
 10
-61.1254
 20
118.3508
  0
VERTEX
  8
1
 10
-58.5281
 20
117.4136
  0
VERTEX
  8
1
 10
-58.5281
 20
117.4136
  0
VERTEX
  8
1
 10
-58.8844
 20
116.3505
  0
VERTEX
  8
1
 10
-59.1619
 20
115.1267
  0
VERTEX
  8
1
 10
-59.3514
 20
113.7947
  0
VERTEX
  8
1
 10
-59.3514
 20
113.7947
  0
VERTEX
  8
1
 10
-62.2852
 20
113.7402
  0
VERTEX
  8
1
 10
-65.8249
 20
113.9405
  0
VERTEX
  8
1
 10
-70.3188
 20
114.3205
  0
VERTEX
  8
1
 10
-70.3188
 20
114.3205
  0
VERTEX
  8
1
 10
-74.8235
 20
114.7152
  0
VERTEX
  8
1
 10
-83.2984
 20
115.4282
  0
VERTEX
  8
1
 10
-83.2984
 20
115.4282
  0
VERTEX
  8
1
 10
-99.2696
 20
116.1842
  0
VERTEX
  8
1
 10
-99.2696
 20
116.1842
  0
VERTEX
  8
1
 10
-99.2740
 20
124.9352
  0
VERTEX
  8
1
 10
-99.2740
 20
124.9352
  0
VERTEX
  8
1
 10
-83.2884
 20
125.6812
  0
VERTEX
  8
1
 10
-83.2884
 20
125.6812
  0
VERTEX
  8
1
 10
-75.2137
 20
126.5823
  0
VERTEX
  8
1
 10
-70.8732
 20
127.7785
  0
VERTEX
  8
1
 10
-69.9498
 20
128.1600
  0
SEQEND
  8
1
  0
LINE
  8
7
 10
-88.7295
 20
120.9672
 11
-67.7030
 21
120.9672
  0
LINE
  8
5
 10
-88.7295
 20
120.9672
 11
-67.7030
 21
120.9672
  0
LINE
  8
8
 10
-83.2984
 20
115.4282
 11
-83.2884
 21
125.6812
  0
LINE
  8
8
 10
-74.8235
 20
114.7152
 11
-75.2137
 21
126.5823
  0
LINE
  8
8
 10
-70.8732
 20
127.7785
 11
-70.3188
 21
114.3205
  0
LINE
  8
8
 10
-65.8249
 20
113.9405
 11
-64.9099
 21
124.5794
  0
LINE
  8
8
 10
-61.2495
 20
118.3753
 11
-62.1318
 21
115.9942
  0
LINE
  8
8
 10
-62.1318
 20
115.9942
 11
-61.6628
 21
115.8205
  0
LINE
  8
8
 10
-61.2495
 20
118.3753
 11
-61.1504
 21
120.9179
  0
LINE
  8
8
 10
-60.7728
 20
118.2234
 11
-61.6628
 21
115.8205
  0
LINE
  8
8
 10
-60.7508
 20
118.3340
 11
-60.6507
 21
120.8983
  0
LINE
  8
8
 10
-61.1504
 20
120.9179
 11
-60.6507
 21
120.8983
  0
ENDBLK
  0
BLOCK
  8
0
  2
LDM000222D-VS-F-BK_29
 70
64
 10
0.0000
 20
0.0000
  0
TEXT
  8
1
 10
-78.4716
 20
120.9501
 40
0.250
 50
0.0000
  1
Piece Name: LDM000222D-VS-F-BK
  7
STANDARD
  0
TEXT
  8
1
 10
-78.4716
 20
121.0901
 40
0.250
 50
0.0000
  1
SIZE: 29
  7
STANDARD
  0
POLYLINE
  8
1
 66
1
 70
1
  0
VERTEX
  8
1
 10
-69.9931
 20
128.2953
  0
VERTEX
  8
1
 10
-69.8858
 20
128.0697
  0
VERTEX
  8
1
 10
-69.6586
 20
127.5848
  0
VERTEX
  8
1
 10
-69.0383
 20
126.6035
  0
VERTEX
  8
1
 10
-67.9599
 20
125.7440
  0
VERTEX
  8
1
 10
-66.5123
 20
125.1245
  0
VERTEX
  8
1
 10
-65.2652
 20
124.7028
  0
VERTEX
  8
1
 10
-57.6427
 20
122.2904
  0
VERTEX
  8
1
 10
-57.6427
 20
122.2904
  0
VERTEX
  8
1
 10
-58.0474
 20
120.7514
  0
VERTEX
  8
1
 10
-58.2231
 20
119.6392
  0
VERTEX
  8
1
 10
-58.3536
 20
118.2146
  0
VERTEX
  8
1
 10
-58.3536
 20
118.2146
  0
VERTEX
  8
1
 10
-61.1125
 20
118.3272
  0
VERTEX
  8
1
 10
-61.1125
 20
118.3272
  0
VERTEX
  8
1
 10
-58.5104
 20
117.4035
  0
VERTEX
  8
1
 10
-58.5104
 20
117.4035
  0
VERTEX
  8
1
 10
-58.8696
 20
116.3044
  0
VERTEX
  8
1
 10
-59.1463
 20
115.0401
  0
VERTEX
  8
1
 10
-59.3314
 20
113.6650
  0
VERTEX
  8
1
 10
-59.3314
 20
113.6650
  0
VERTEX
  8
1
 10
-62.4371
 20
113.6049
  0
VERTEX
  8
1
 10
-66.1843
 20
113.8139
  0
VERTEX
  8
1
 10
-70.3528
 20
114.2075
  0
VERTEX
  8
1
 10
-70.3528
 20
114.2075
  0
VERTEX
  8
1
 10
-74.8509
 20
114.6086
  0
VERTEX
  8
1
 10
-83.3265
 20
115.3326
  0
VERTEX
  8
1
 10
-83.3265
 20
115.3326
  0
VERTEX
  8
1
 10
-99.2958
 20
116.1196
  0
VERTEX
  8
1
 10
-99.2958
 20
116.1196
  0
VERTEX
  8
1
 10
-99.3005
 20
124.9966
  0
VERTEX
  8
1
 10
-99.3005
 20
124.9966
  0
VERTEX
  8
1
 10
-83.3165
 20
125.7736
  0
VERTEX
  8
1
 10
-83.3165
 20
125.7736
  0
VERTEX
  8
1
 10
-75.2411
 20
126.6635
  0
VERTEX
  8
1
 10
-70.9125
 20
127.9044
  0
VERTEX
  8
1
 10
-69.9931
 20
128.2953
  0
SEQEND
  8
1
  0
LINE
  8
7
 10
-88.7635
 20
120.9656
 11
-67.7370
 21
120.9656
  0
LINE
  8
5
 10
-88.7635
 20
120.9656
 11
-67.7370
 21
120.9656
  0
LINE
  8
8
 10
-83.3265
 20
115.3326
 11
-83.3165
 21
125.7736
  0
LINE
  8
8
 10
-74.8509
 20
114.6086
 11
-75.2411
 21
126.6635
  0
LINE
  8
8
 10
-70.9125
 20
127.9044
 11
-70.3528
 21
114.2075
  0
LINE
  8
8
 10
-66.1843
 20
113.8139
 11
-65.2652
 21
124.7028
  0
LINE
  8
8
 10
-61.2368
 20
118.3510
 11
-62.1074
 21
115.9658
  0
LINE
  8
8
 10
-62.1074
 20
115.9658
 11
-61.6376
 21
115.7944
  0
LINE
  8
8
 10
-61.2368
 20
118.3510
 11
-61.1572
 21
120.8905
  0
LINE
  8
8
 10
-60.7593
 20
118.2016
 11
-61.6376
 21
115.7944
  0
LINE
  8
8
 10
-60.7379
 20
118.3123
 11
-60.6574
 21
120.8747
  0
LINE
  8
8
 10
-61.1572
 20
120.8905
 11
-60.6574
 21
120.8747
  0
ENDBLK
  0
BLOCK
  8
0
  2
LDM000222D-VS-F-BK_30
 70
64
 10
0.0000
 20
0.0000
  0
TEXT
  8
1
 10
-78.4716
 20
120.9501
 40
0.250
 50
0.0000
  1
Piece Name: LDM000222D-VS-F-BK
  7
STANDARD
  0
TEXT
  8
1
 10
-78.4716
 20
121.0901
 40
0.250
 50
0.0000
  1
SIZE: 30
  7
STANDARD
  0
POLYLINE
  8
1
 66
1
 70
1
  0
VERTEX
  8
1
 10
-70.0675
 20
128.4270
  0
VERTEX
  8
1
 10
-69.9605
 20
128.2012
  0
VERTEX
  8
1
 10
-69.7220
 20
127.7089
  0
VERTEX
  8
1
 10
-69.0755
 20
126.7145
  0
VERTEX
  8
1
 10
-67.9625
 20
125.8506
  0
VERTEX
  8
1
 10
-66.4754
 20
125.2368
  0
VERTEX
  8
1
 10
-65.1959
 20
124.8223
  0
VERTEX
  8
1
 10
-57.5735
 20
122.4080
  0
VERTEX
  8
1
 10
-57.5735
 20
122.4080
  0
VERTEX
  8
1
 10
-57.9872
 20
120.8258
  0
VERTEX
  8
1
 10
-58.1662
 20
119.6825
  0
VERTEX
  8
1
 10
-58.2984
 20
118.2183
  0
VERTEX
  8
1
 10
-58.2984
 20
118.2183
  0
VERTEX
  8
1
 10
-61.0577
 20
118.3216
  0
VERTEX
  8
1
 10
-61.0577
 20
118.3216
  0
VERTEX
  8
1
 10
-58.4525
 20
117.4067
  0
VERTEX
  8
1
 10
-58.4525
 20
117.4067
  0
VERTEX
  8
1
 10
-58.8175
 20
116.2670
  0
VERTEX
  8
1
 10
-59.0961
 20
114.9568
  0
VERTEX
  8
1
 10
-59.2793
 20
113.5324
  0
VERTEX
  8
1
 10
-59.2793
 20
113.5324
  0
VERTEX
  8
1
 10
-62.3868
 20
113.4733
  0
VERTEX
  8
1
 10
-66.1362
 20
113.6837
  0
VERTEX
  8
1
 10
-70.4297
 20
114.0907
  0
VERTEX
  8
1
 10
-70.4297
 20
114.0907
  0
VERTEX
  8
1
 10
-74.9288
 20
114.4984
  0
VERTEX
  8
1
 10
-83.4001
 20
115.2334
  0
VERTEX
  8
1
 10
-83.4001
 20
115.2334
  0
VERTEX
  8
1
 10
-99.3675
 20
116.0514
  0
VERTEX
  8
1
 10
-99.3675
 20
116.0514
  0
VERTEX
  8
1
 10
-99.3697
 20
125.0544
  0
VERTEX
  8
1
 10
-99.3697
 20
125.0544
  0
VERTEX
  8
1
 10
-83.3901
 20
125.8624
  0
VERTEX
  8
1
 10
-83.3901
 20
125.8624
  0
VERTEX
  8
1
 10
-75.3190
 20
126.8032
  0
VERTEX
  8
1
 10
-70.9875
 20
128.0375
  0
VERTEX
  8
1
 10
-70.0675
 20
128.4270
  0
SEQEND
  8
1
  0
LINE
  8
7
 10
-88.8404
 20
120.9604
 11
-67.8139
 21
120.9604
  0
LINE
  8
5
 10
-88.8404
 20
120.9604
 11
-67.8139
 21
120.9604
  0
LINE
  8
8
 10
-83.4001
 20
115.2334
 11
-83.3901
 21
125.8624
  0
LINE
  8
8
 10
-74.9288
 20
114.4984
 11
-75.3190
 21
126.8032
  0
LINE
  8
8
 10
-70.9875
 20
128.0375
 11
-70.4297
 21
114.0907
  0
LINE
  8
8
 10
-66.1362
 20
113.6837
 11
-65.1959
 21
124.8223
  0
LINE
  8
8
 10
-61.1820
 20
118.3449
 11
-62.0464
 21
115.9580
  0
LINE
  8
8
 10
-62.0464
 20
115.9580
 11
-61.5762
 21
115.7878
  0
LINE
  8
8
 10
-61.1820
 20
118.3449
 11
-61.1149
 21
120.8822
  0
LINE
  8
8
 10
-60.7040
 20
118.1972
 11
-61.5762
 21
115.7878
  0
LINE
  8
8
 10
-60.6830
 20
118.3079
 11
-60.6151
 21
120.8688
  0
LINE
  8
8
 10
-61.1149
 20
120.8822
 11
-60.6151
 21
120.8688
  0
ENDBLK
  0
BLOCK
  8
0
  2
LDM000222D-VS-F-BK_31
 70
64
 10
0.0000
 20
0.0000
  0
TEXT
  8
1
 10
-78.4716
 20
120.9501
 40
0.250
 50
0.0000
  1
Piece Name: LDM000222D-VS-F-BK
  7
STANDARD
  0
TEXT
  8
1
 10
-78.4716
 20
121.0901
 40
0.250
 50
0.0000
  1
SIZE: 31
  7
STANDARD
  0
POLYLINE
  8
1
 66
1
 70
1
  0
VERTEX
  8
1
 10
-70.1506
 20
128.5589
  0
VERTEX
  8
1
 10
-70.0412
 20
128.3342
  0
VERTEX
  8
1
 10
-69.7915
 20
127.8343
  0
VERTEX
  8
1
 10
-69.1190
 20
126.8267
  0
VERTEX
  8
1
 10
-67.9716
 20
125.9582
  0
VERTEX
  8
1
 10
-66.4454
 20
125.3496
  0
VERTEX
  8
1
 10
-65.1335
 20
124.9421
  0
VERTEX
  8
1
 10
-57.5110
 20
122.5271
  0
VERTEX
  8
1
 10
-57.5110
 20
122.5271
  0
VERTEX
  8
1
 10
-57.9307
 20
120.9045
  0
VERTEX
  8
1
 10
-58.1111
 20
119.7325
  0
VERTEX
  8
1
 10
-58.2426
 20
118.2316
  0
VERTEX
  8
1
 10
-58.2426
 20
118.2316
  0
VERTEX
  8
1
 10
-61.0024
 20
118.3207
  0
VERTEX
  8
1
 10
-61.0024
 20
118.3207
  0
VERTEX
  8
1
 10
-58.3925
 20
117.4193
  0
VERTEX
  8
1
 10
-58.3925
 20
117.4193
  0
VERTEX
  8
1
 10
-58.7624
 20
116.2358
  0
VERTEX
  8
1
 10
-59.0415
 20
114.8763
  0
VERTEX
  8
1
 10
-59.2209
 20
113.3992
  0
VERTEX
  8
1
 10
-59.2209
 20
113.3992
  0
VERTEX
  8
1
 10
-62.3303
 20
113.3414
  0
VERTEX
  8
1
 10
-66.0818
 20
113.5536
  0
VERTEX
  8
1
 10
-70.5003
 20
113.9742
  0
VERTEX
  8
1
 10
-70.5003
 20
113.9742
  0
VERTEX
  8
1
 10
-74.9923
 20
114.3883
  0
VERTEX
  8
1
 10
-83.4643
 20
115.1343
  0
VERTEX
  8
1
 10
-83.4643
 20
115.1343
  0
VERTEX
  8
1
 10
-99.4298
 20
115.9833
  0
VERTEX
  8
1
 10
-99.4298
 20
115.9833
  0
VERTEX
  8
1
 10
-99.4323
 20
125.1123
  0
VERTEX
  8
1
 10
-99.4323
 20
125.1123
  0
VERTEX
  8
1
 10
-83.4543
 20
125.9513
  0
VERTEX
  8
1
 10
-83.4543
 20
125.9513
  0
VERTEX
  8
1
 10
-75.3825
 20
126.8809
  0
VERTEX
  8
1
 10
-71.0665
 20
128.1598
  0
VERTEX
  8
1
 10
-70.1506
 20
128.5589
  0
SEQEND
  8
1
  0
LINE
  8
7
 10
-88.9110
 20
120.9553
 11
-67.8845
 21
120.9553
  0
LINE
  8
5
 10
-88.9110
 20
120.9553
 11
-67.8845
 21
120.9553
  0
LINE
  8
8
 10
-83.4643
 20
115.1343
 11
-83.4543
 21
125.9513
  0
LINE
  8
8
 10
-74.9923
 20
114.3883
 11
-75.3825
 21
126.8809
  0
LINE
  8
8
 10
-71.0665
 20
128.1598
 11
-70.5003
 21
113.9742
  0
LINE
  8
8
 10
-66.0818
 20
113.5536
 11
-65.1335
 21
124.9421
  0
LINE
  8
8
 10
-61.1268
 20
118.3434
 11
-62.0163
 21
115.7609
  0
LINE
  8
8
 10
-62.0163
 20
115.7609
 11
-61.5435
 21
115.5981
  0
LINE
  8
8
 10
-61.1268
 20
118.3434
 11
-61.0354
 21
121.0766
  0
LINE
  8
8
 10
-60.6480
 20
118.1981
 11
-61.5435
 21
115.5981
  0
LINE
  8
8
 10
-60.6276
 20
118.3089
 11
-60.5357
 21
121.0598
  0
LINE
  8
8
 10
-61.0354
 20
121.0766
 11
-60.5357
 21
121.0598
  0
ENDBLK
  0
BLOCK
  8
0
  2
LDM000222D-VS-F-BK_32
 70
64
 10
0.0000
 20
0.0000
  0
TEXT
  8
1
 10
-78.4716
 20
120.9501
 40
0.250
 50
0.0000
  1
Piece Name: LDM000222D-VS-F-BK
  7
STANDARD
  0
TEXT
  8
1
 10
-78.4716
 20
121.0901
 40
0.250
 50
0.0000
  1
Quantity: 2
  7
STANDARD
  0
TEXT
  8
1
 10
-78.4716
 20
121.2301
 40
0.250
 50
0.0000
  1
ANNOTATION: MAIN FABRIC
  7
STANDARD
  0
TEXT
  8
1
 10
-78.4716
 20
121.3701
 40
0.250
 50
0.0000
  1
CATEGORY: BACK
  7
STANDARD
  0
TEXT
  8
1
 10
-78.4716
 20
121.5101
 40
0.250
 50
0.0000
  1
Material: A
  7
STANDARD
  0
TEXT
  8
1
 10
-78.4716
 20
121.6501
 40
0.250
 50
0.0000
  1
SIZE: 32
  7
STANDARD
  0
POLYLINE
  8
1
 66
1
 70
1
  0
VERTEX
  8
1
 10
-70.2261
 20
128.6906
  0
VERTEX
  8
1
 10
-70.1170
 20
128.4657
  0
VERTEX
  8
1
 10
-69.8562
 20
127.9585
  0
VERTEX
  8
1
 10
-69.1578
 20
126.9381
  0
VERTEX
  8
1
 10
-67.9764
 20
126.0652
  0
VERTEX
  8
1
 10
-66.4114
 20
125.4622
  0
VERTEX
  8
1
 10
-65.0676
 20
125.0618
  0
VERTEX
  8
1
 10
-57.4451
 20
122.6452
  0
VERTEX
  8
1
 10
-57.4451
 20
122.6452
  0
VERTEX
  8
1
 10
-57.8725
 20
120.9801
  0
VERTEX
  8
1
 10
-58.0553
 20
119.7775
  0
VERTEX
  8
1
 10
-58.1874
 20
118.2377
  0
VERTEX
  8
1
 10
-58.1874
 20
118.2377
  0
VERTEX
  8
1
 10
-60.9475
 20
118.3156
  0
VERTEX
  8
1
 10
-60.9475
 20
118.3156
  0
VERTEX
  8
1
 10
-58.3340
 20
117.4248
  0
VERTEX
  8
1
 10
-58.3340
 20
117.4248
  0
VERTEX
  8
1
 10
-58.7090
 20
116.1998
  0
VERTEX
  8
1
 10
-58.9892
 20
114.7935
  0
VERTEX
  8
1
 10
-59.1657
 20
113.2662
  0
VERTEX
  8
1
 10
-59.1657
 20
113.2662
  0
VERTEX
  8
1
 10
-62.2769
 20
113.2097
  0
VERTEX
  8
1
 10
-66.0306
 20
113.4235
  0
VERTEX
  8
1
 10
-70.5741
 20
113.8581
  0
VERTEX
  8
1
 10
-70.5741
 20
113.8581
  0
VERTEX
  8
1
 10
-75.0672
 20
114.2782
  0
VERTEX
  8
1
 10
-83.5346
 20
115.0352
  0
VERTEX
  8
1
 10
-83.5346
 20
115.0352
  0
VERTEX
  8
1
 10
-99.4981
 20
115.9152
  0
VERTEX
  8
1
 10
-99.4981
 20
115.9152
  0
VERTEX
  8
1
 10
-99.4981
 20
125.1702
  0
VERTEX
  8
1
 10
-99.4981
 20
125.1702
  0
VERTEX
  8
1
 10
-83.5246
 20
126.0402
  0
VERTEX
  8
1
 10
-83.5246
 20
126.0402
  0
VERTEX
  8
1
 10
-75.4574
 20
127.0207
  0
VERTEX
  8
1
 10
-71.1425
 20
128.2928
  0
VERTEX
  8
1
 10
-70.2261
 20
128.6906
  0
SEQEND
  8
1
  0
POINT
  8
2
 10
-70.2261
 20
128.6906
  0
TEXT
  8
2
 10
-70.2261
 20
128.6906
 40
0.250
 50
0.0000
  1
# 1
  7
STANDARD
  0
POINT
  8
3
 10
-70.1170
 20
128.4657
  0
TEXT
  8
3
 10
-70.1170
 20
128.4657
 40
0.250
 50
0.0000
  1
# 2
  7
STANDARD
  0
POINT
  8
3
 10
-69.8562
 20
127.9585
  0
POINT
  8
3
 10
-69.1578
 20
126.9381
  0
POINT
  8
3
 10
-67.9764
 20
126.0652
  0
POINT
  8
3
 10
-66.4114
 20
125.4622
  0
POINT
  8
2
 10
-65.0676
 20
125.0618
  0
TEXT
  8
2
 10
-65.0676
 20
125.0618
 40
0.250
 50
0.0000
  1
# 3
  7
STANDARD
  0
POINT
  8
2
 10
-57.4451
 20
122.6452
  0
TEXT
  8
2
 10
-57.4451
 20
122.6452
 40
0.250
 50
0.0000
  1
# 4
  7
STANDARD
  0
POINT
  8
2
 10
-57.4451
 20
122.6452
  0
TEXT
  8
2
 10
-57.4451
 20
122.6452
 40
0.250
 50
0.0000
  1
# 4
  7
STANDARD
  0
POINT
  8
3
 10
-57.8725
 20
120.9801
  0
POINT
  8
3
 10
-58.0553
 20
119.7775
  0
POINT
  8
2
 10
-58.1874
 20
118.2377
  0
TEXT
  8
2
 10
-58.1874
 20
118.2377
 40
0.250
 50
0.0000
  1
# 5
  7
STANDARD
  0
POINT
  8
2
 10
-58.1874
 20
118.2377
  0
TEXT
  8
2
 10
-58.1874
 20
118.2377
 40
0.250
 50
0.0000
  1
# 5
  7
STANDARD
  0
POINT
  8
2
 10
-60.9475
 20
118.3156
  0
TEXT
  8
2
 10
-60.9475
 20
118.3156
 40
0.250
 50
0.0000
  1
# 6
  7
STANDARD
  0
POINT
  8
2
 10
-60.9475
 20
118.3156
  0
TEXT
  8
2
 10
-60.9475
 20
118.3156
 40
0.250
 50
0.0000
  1
# 6
  7
STANDARD
  0
POINT
  8
2
 10
-58.3340
 20
117.4248
  0
TEXT
  8
2
 10
-58.3340
 20
117.4248
 40
0.250
 50
0.0000
  1
# 7
  7
STANDARD
  0
POINT
  8
2
 10
-58.3340
 20
117.4248
  0
TEXT
  8
2
 10
-58.3340
 20
117.4248
 40
0.250
 50
0.0000
  1
# 7
  7
STANDARD
  0
POINT
  8
3
 10
-58.7090
 20
116.1998
  0
POINT
  8
3
 10
-58.9892
 20
114.7935
  0
POINT
  8
2
 10
-59.1657
 20
113.2662
  0
TEXT
  8
2
 10
-59.1657
 20
113.2662
 40
0.250
 50
0.0000
  1
# 8
  7
STANDARD
  0
POINT
  8
2
 10
-59.1657
 20
113.2662
  0
TEXT
  8
2
 10
-59.1657
 20
113.2662
 40
0.250
 50
0.0000
  1
# 8
  7
STANDARD
  0
POINT
  8
3
 10
-62.2769
 20
113.2097
  0
POINT
  8
3
 10
-66.0306
 20
113.4235
  0
TEXT
  8
3
 10
-66.0306
 20
113.4235
 40
0.250
 50
0.0000
  1
# 9
  7
STANDARD
  0
POINT
  8
3
 10
-70.5741
 20
113.8581
  0
TEXT
  8
3
 10
-70.5741
 20
113.8581
 40
0.250
 50
0.0000
  1
# 10
  7
STANDARD
  0
POINT
  8
4
 10
-70.5741
 20
113.8581
 30
0.1574
 39
0.0000
  0
POINT
  8
2
 10
-70.5741
 20
113.8581
  0
POINT
  8
3
 10
-75.0672
 20
114.2782
  0
TEXT
  8
3
 10
-75.0672
 20
114.2782
 40
0.250
 50
0.0000
  1
# 11
  7
STANDARD
  0
POINT
  8
2
 10
-83.5346
 20
115.0352
  0
TEXT
  8
2
 10
-83.5346
 20
115.0352
 40
0.250
 50
0.0000
  1
# 12
  7
STANDARD
  0
POINT
  8
4
 10
-83.5346
 20
115.0352
 30
0.1574
 39
0.0000
  0
POINT
  8
2
 10
-83.5346
 20
115.0352
  0
POINT
  8
2
 10
-99.4981
 20
115.9152
  0
TEXT
  8
2
 10
-99.4981
 20
115.9152
 40
0.250
 50
0.0000
  1
# 13
  7
STANDARD
  0
POINT
  8
2
 10
-99.4981
 20
115.9152
  0
TEXT
  8
2
 10
-99.4981
 20
115.9152
 40
0.250
 50
0.0000
  1
# 13
  7
STANDARD
  0
POINT
  8
2
 10
-99.4981
 20
125.1702
  0
TEXT
  8
2
 10
-99.4981
 20
125.1702
 40
0.250
 50
0.0000
  1
# 14
  7
STANDARD
  0
POINT
  8
2
 10
-99.4981
 20
125.1702
  0
TEXT
  8
2
 10
-99.4981
 20
125.1702
 40
0.250
 50
0.0000
  1
# 14
  7
STANDARD
  0
POINT
  8
2
 10
-83.5246
 20
126.0402
  0
TEXT
  8
2
 10
-83.5246
 20
126.0402
 40
0.250
 50
0.0000
  1
# 15
  7
STANDARD
  0
POINT
  8
4
 10
-83.5246
 20
126.0402
 30
0.1574
 39
0.0000
  0
POINT
  8
2
 10
-83.5246
 20
126.0402
  0
POINT
  8
3
 10
-75.4574
 20
127.0207
  0
TEXT
  8
3
 10
-75.4574
 20
127.0207
 40
0.250
 50
0.0000
  1
# 16
  7
STANDARD
  0
POINT
  8
3
 10
-71.1425
 20
128.2928
  0
TEXT
  8
3
 10
-71.1425
 20
128.2928
 40
0.250
 50
0.0000
  1
# 17
  7
STANDARD
  0
POINT
  8
2
 10
-70.2261
 20
128.6906
  0
LINE
  8
7
 10
-88.9848
 20
120.9502
 11
-67.9583
 21
120.9502
  0
LINE
  8
5
 10
-88.9848
 20
120.9502
 11
-67.9583
 21
120.9502
  0
POINT
  8
2
 10
-88.9848
 20
120.9502
  0
POINT
  8
2
 10
-67.9583
 20
120.9502
  0
LINE
  8
8
 10
-83.5346
 20
115.0352
 11
-83.5246
 21
126.0402
  0
TEXT
  8
8
 10
-83.5346
 20
115.0352
 40
0.250
 50
0.0000
  1
NM
  7
STANDARD
  0
POINT
  8
2
 10
-83.5346
 20
115.0352
  0
TEXT
  8
2
 10
-83.5346
 20
115.0352
 40
0.250
 50
0.0000
  1
# 12
  7
STANDARD
  0
POINT
  8
2
 10
-83.5246
 20
126.0402
  0
TEXT
  8
2
 10
-83.5246
 20
126.0402
 40
0.250
 50
0.0000
  1
# 15
  7
STANDARD
  0
LINE
  8
8
 10
-75.0672
 20
114.2782
 11
-75.4574
 21
127.0207
  0
TEXT
  8
8
 10
-75.0672
 20
114.2782
 40
0.250
 50
0.0000
  1
NM
  7
STANDARD
  0
POINT
  8
2
 10
-75.0672
 20
114.2782
  0
TEXT
  8
2
 10
-75.0672
 20
114.2782
 40
0.250
 50
0.0000
  1
# 11
  7
STANDARD
  0
POINT
  8
2
 10
-75.4574
 20
127.0207
  0
TEXT
  8
2
 10
-75.4574
 20
127.0207
 40
0.250
 50
0.0000
  1
# 16
  7
STANDARD
  0
LINE
  8
8
 10
-71.1425
 20
128.2928
 11
-70.5741
 21
113.8581
  0
TEXT
  8
8
 10
-71.1425
 20
128.2928
 40
0.250
 50
0.0000
  1
NM
  7
STANDARD
  0
POINT
  8
2
 10
-71.1425
 20
128.2928
  0
TEXT
  8
2
 10
-71.1425
 20
128.2928
 40
0.250
 50
0.0000
  1
# 17
  7
STANDARD
  0
POINT
  8
2
 10
-70.5741
 20
113.8581
  0
TEXT
  8
2
 10
-70.5741
 20
113.8581
 40
0.250
 50
0.0000
  1
# 18
  7
STANDARD
  0
LINE
  8
8
 10
-66.0306
 20
113.4235
 11
-65.0676
 21
125.0618
  0
TEXT
  8
8
 10
-66.0306
 20
113.4235
 40
0.250
 50
0.0000
  1
NM
  7
STANDARD
  0
POINT
  8
2
 10
-66.0306
 20
113.4235
  0
TEXT
  8
2
 10
-66.0306
 20
113.4235
 40
0.250
 50
0.0000
  1
# 9
  7
STANDARD
  0
POINT
  8
2
 10
-65.0676
 20
125.0618
  0
TEXT
  8
2
 10
-65.0676
 20
125.0618
 40
0.250
 50
0.0000
  1
# 3
  7
STANDARD
  0
LINE
  8
8
 10
-61.0720
 20
118.3378
 11
-61.9544
 21
115.7536
  0
TEXT
  8
8
 10
-61.0720
 20
118.3378
 40
0.250
 50
0.0000
  1
NM
  7
STANDARD
  0
POINT
  8
2
 10
-61.0720
 20
118.3378
  0
TEXT
  8
2
 10
-61.0720
 20
118.3378
 40
0.250
 50
0.0000
  1
# 19
  7
STANDARD
  0
POINT
  8
2
 10
-61.9544
 20
115.7536
  0
TEXT
  8
2
 10
-61.9544
 20
115.7536
 40
0.250
 50
0.0000
  1
# 20
  7
STANDARD
  0
LINE
  8
8
 10
-61.9544
 20
115.7536
 11
-61.4812
 21
115.5920
  0
TEXT
  8
8
 10
-61.9544
 20
115.7536
 40
0.250
 50
0.0000
  1
NM
  7
STANDARD
  0
POINT
  8
2
 10
-61.9544
 20
115.7536
  0
TEXT
  8
2
 10
-61.9544
 20
115.7536
 40
0.250
 50
0.0000
  1
# 21
  7
STANDARD
  0
POINT
  8
2
 10
-61.4812
 20
115.5920
  0
TEXT
  8
2
 10
-61.4812
 20
115.5920
 40
0.250
 50
0.0000
  1
# 22
  7
STANDARD
  0
LINE
  8
8
 10
-61.0720
 20
118.3378
 11
-60.9964
 21
121.0681
  0
TEXT
  8
8
 10
-61.0720
 20
118.3378
 40
0.250
 50
0.0000
  1
NM
  7
STANDARD
  0
POINT
  8
2
 10
-61.0720
 20
118.3378
  0
TEXT
  8
2
 10
-61.0720
 20
118.3378
 40
0.250
 50
0.0000
  1
# 23
  7
STANDARD
  0
POINT
  8
2
 10
-60.9964
 20
121.0681
  0
TEXT
  8
2
 10
-60.9964
 20
121.0681
 40
0.250
 50
0.0000
  1
# 24
  7
STANDARD
  0
LINE
  8
8
 10
-60.5926
 20
118.1944
 11
-61.4812
 21
115.5920
  0
TEXT
  8
8
 10
-60.5926
 20
118.1944
 40
0.250
 50
0.0000
  1
NM
  7
STANDARD
  0
POINT
  8
2
 10
-60.5926
 20
118.1944
  0
TEXT
  8
2
 10
-60.5926
 20
118.1944
 40
0.250
 50
0.0000
  1
# 25
  7
STANDARD
  0
POINT
  8
2
 10
-61.4812
 20
115.5920
  0
TEXT
  8
2
 10
-61.4812
 20
115.5920
 40
0.250
 50
0.0000
  1
# 26
  7
STANDARD
  0
LINE
  8
8
 10
-60.5727
 20
118.3053
 11
-60.4966
 21
121.0542
  0
TEXT
  8
8
 10
-60.5727
 20
118.3053
 40
0.250
 50
0.0000
  1
NM
  7
STANDARD
  0
POINT
  8
2
 10
-60.5727
 20
118.3053
  0
TEXT
  8
2
 10
-60.5727
 20
118.3053
 40
0.250
 50
0.0000
  1
# 27
  7
STANDARD
  0
POINT
  8
2
 10
-60.4966
 20
121.0542
  0
TEXT
  8
2
 10
-60.4966
 20
121.0542
 40
0.250
 50
0.0000
  1
# 28
  7
STANDARD
  0
LINE
  8
8
 10
-60.9964
 20
121.0681
 11
-60.4966
 21
121.0542
  0
TEXT
  8
8
 10
-60.9964
 20
121.0681
 40
0.250
 50
0.0000
  1
NM
  7
STANDARD
  0
POINT
  8
2
 10
-60.9964
 20
121.0681
  0
TEXT
  8
2
 10
-60.9964
 20
121.0681
 40
0.250
 50
0.0000
  1
# 29
  7
STANDARD
  0
POINT
  8
2
 10
-60.4966
 20
121.0542
  0
TEXT
  8
2
 10
-60.4966
 20
121.0542
 40
0.250
 50
0.0000
  1
# 30
  7
STANDARD
  0
ENDBLK
  0
BLOCK
  8
0
  2
LDM000222D-VS-F-BK_33
 70
64
 10
0.0000
 20
0.0000
  0
TEXT
  8
1
 10
-78.4716
 20
120.9501
 40
0.250
 50
0.0000
  1
Piece Name: LDM000222D-VS-F-BK
  7
STANDARD
  0
TEXT
  8
1
 10
-78.4716
 20
121.0901
 40
0.250
 50
0.0000
  1
SIZE: 33
  7
STANDARD
  0
POLYLINE
  8
1
 66
1
 70
1
  0
VERTEX
  8
1
 10
-70.3936
 20
128.8866
  0
VERTEX
  8
1
 10
-70.2807
 20
128.6636
  0
VERTEX
  8
1
 10
-70.0343
 20
128.1497
  0
VERTEX
  8
1
 10
-69.3651
 20
127.1112
  0
VERTEX
  8
1
 10
-68.2093
 20
126.2066
  0
VERTEX
  8
1
 10
-66.6629
 20
125.5609
  0
VERTEX
  8
1
 10
-65.3318
 20
125.1238
  0
VERTEX
  8
1
 10
-57.3264
 20
122.7142
  0
VERTEX
  8
1
 10
-57.3264
 20
122.7142
  0
VERTEX
  8
1
 10
-57.7537
 20
121.0015
  0
VERTEX
  8
1
 10
-57.9330
 20
119.7655
  0
VERTEX
  8
1
 10
-58.0579
 20
118.1836
  0
VERTEX
  8
1
 10
-58.0579
 20
118.1836
  0
VERTEX
  8
1
 10
-60.8185
 20
118.2382
  0
VERTEX
  8
1
 10
-60.8185
 20
118.2382
  0
VERTEX
  8
1
 10
-58.1976
 20
117.3695
  0
VERTEX
  8
1
 10
-58.1976
 20
117.3695
  0
VERTEX
  8
1
 10
-58.5701
 20
116.1033
  0
VERTEX
  8
1
 10
-58.8429
 20
114.6515
  0
VERTEX
  8
1
 10
-59.0074
 20
113.0762
  0
VERTEX
  8
1
 10
-59.0074
 20
113.0762
  0
VERTEX
  8
1
 10
-62.2741
 20
113.0137
  0
VERTEX
  8
1
 10
-66.2156
 20
113.2345
  0
VERTEX
  8
1
 10
-70.6978
 20
113.6820
  0
VERTEX
  8
1
 10
-70.6978
 20
113.6820
  0
VERTEX
  8
1
 10
-75.1877
 20
114.1092
  0
VERTEX
  8
1
 10
-83.6532
 20
114.8772
  0
VERTEX
  8
1
 10
-83.6532
 20
114.8772
  0
VERTEX
  8
1
 10
-99.6146
 20
115.7882
  0
VERTEX
  8
1
 10
-99.6146
 20
115.7882
  0
VERTEX
  8
1
 10
-99.6168
 20
125.1692
  0
VERTEX
  8
1
 10
-99.6168
 20
125.1692
  0
VERTEX
  8
1
 10
-83.6432
 20
126.0702
  0
VERTEX
  8
1
 10
-83.6432
 20
126.0702
  0
VERTEX
  8
1
 10
-75.5779
 20
127.1321
  0
VERTEX
  8
1
 10
-71.3031
 20
128.4733
  0
VERTEX
  8
1
 10
-70.3936
 20
128.8866
  0
SEQEND
  8
1
  0
LINE
  8
7
 10
-89.1085
 20
120.8862
 11
-68.0820
 21
120.8862
  0
LINE
  8
5
 10
-89.1085
 20
120.8862
 11
-68.0820
 21
120.8862
  0
LINE
  8
8
 10
-83.6532
 20
114.8772
 11
-83.6432
 21
126.0702
  0
LINE
  8
8
 10
-75.1877
 20
114.1092
 11
-75.5779
 21
127.1321
  0
LINE
  8
8
 10
-71.3031
 20
128.4733
 11
-70.6978
 21
113.6820
  0
LINE
  8
8
 10
-66.2156
 20
113.2345
 11
-65.3318
 21
125.1238
  0
LINE
  8
8
 10
-60.9432
 20
118.2594
 11
-61.8032
 21
115.6675
  0
LINE
  8
8
 10
-61.8032
 20
115.6675
 11
-61.3286
 21
115.5100
  0
LINE
  8
8
 10
-60.9432
 20
118.2594
 11
-60.8925
 21
120.9863
  0
LINE
  8
8
 10
-60.4626
 20
118.1200
 11
-61.3286
 21
115.5100
  0
LINE
  8
8
 10
-60.4437
 20
118.2311
 11
-60.3926
 21
120.9769
  0
LINE
  8
8
 10
-60.8925
 20
120.9863
 11
-60.3926
 21
120.9769
  0
ENDBLK
  0
BLOCK
  8
0
  2
LDM000222D-VS-F-BK_34
 70
64
 10
0.0000
 20
0.0000
  0
TEXT
  8
1
 10
-78.4716
 20
120.9501
 40
0.250
 50
0.0000
  1
Piece Name: LDM000222D-VS-F-BK
  7
STANDARD
  0
TEXT
  8
1
 10
-78.4716
 20
121.0901
 40
0.250
 50
0.0000
  1
SIZE: 34
  7
STANDARD
  0
POLYLINE
  8
1
 66
1
 70
1
  0
VERTEX
  8
1
 10
-70.5968
 20
129.0784
  0
VERTEX
  8
1
 10
-70.4801
 20
128.8574
  0
VERTEX
  8
1
 10
-70.2111
 20
128.3165
  0
VERTEX
  8
1
 10
-69.4858
 20
127.2258
  0
VERTEX
  8
1
 10
-68.2469
 20
126.2845
  0
VERTEX
  8
1
 10
-66.5979
 20
125.6237
  0
VERTEX
  8
1
 10
-65.1802
 20
125.1806
  0
VERTEX
  8
1
 10
-57.1746
 20
122.7697
  0
VERTEX
  8
1
 10
-57.1746
 20
122.7697
  0
VERTEX
  8
1
 10
-57.6140
 20
121.0120
  0
VERTEX
  8
1
 10
-57.7987
 20
119.7435
  0
VERTEX
  8
1
 10
-57.9277
 20
118.1199
  0
VERTEX
  8
1
 10
-57.9277
 20
118.1199
  0
VERTEX
  8
1
 10
-60.6884
 20
118.1707
  0
VERTEX
  8
1
 10
-60.6884
 20
118.1707
  0
VERTEX
  8
1
 10
-58.0663
 20
117.3056
  0
VERTEX
  8
1
 10
-58.0663
 20
117.3056
  0
VERTEX
  8
1
 10
-58.4459
 20
116.0012
  0
VERTEX
  8
1
 10
-58.7224
 20
114.5061
  0
VERTEX
  8
1
 10
-58.8870
 20
112.8842
  0
VERTEX
  8
1
 10
-58.8870
 20
112.8842
  0
VERTEX
  8
1
 10
-62.1392
 20
112.8218
  0
VERTEX
  8
1
 10
-66.0632
 20
113.0413
  0
VERTEX
  8
1
 10
-70.8594
 20
113.5024
  0
VERTEX
  8
1
 10
-70.8594
 20
113.5024
  0
VERTEX
  8
1
 10
-75.3460
 20
113.9360
  0
VERTEX
  8
1
 10
-83.8094
 20
114.7150
  0
VERTEX
  8
1
 10
-83.8094
 20
114.7150
  0
VERTEX
  8
1
 10
-99.7687
 20
115.6570
  0
VERTEX
  8
1
 10
-99.7687
 20
115.6570
  0
VERTEX
  8
1
 10
-99.7666
 20
125.1640
  0
VERTEX
  8
1
 10
-99.7666
 20
125.1640
  0
VERTEX
  8
1
 10
-83.7994
 20
126.0960
  0
VERTEX
  8
1
 10
-83.7994
 20
126.0960
  0
VERTEX
  8
1
 10
-75.7362
 20
127.2387
  0
VERTEX
  8
1
 10
-71.4990
 20
128.6495
  0
VERTEX
  8
1
 10
-70.5968
 20
129.0784
  0
SEQEND
  8
1
  0
LINE
  8
7
 10
-89.2701
 20
120.8180
 11
-68.2436
 21
120.8180
  0
LINE
  8
5
 10
-89.2701
 20
120.8180
 11
-68.2436
 21
120.8180
  0
LINE
  8
8
 10
-83.8094
 20
114.7150
 11
-83.7994
 21
126.0960
  0
LINE
  8
8
 10
-75.3460
 20
113.9360
 11
-75.7362
 21
127.2387
  0
LINE
  8
8
 10
-71.4990
 20
128.6495
 11
-70.8594
 21
113.5024
  0
LINE
  8
8
 10
-66.0632
 20
113.0413
 11
-65.1802
 21
125.1806
  0
LINE
  8
8
 10
-60.8131
 20
118.1917
 11
-61.6703
 21
115.5991
  0
LINE
  8
8
 10
-61.6703
 20
115.5991
 11
-61.1955
 21
115.4421
  0
LINE
  8
8
 10
-60.8131
 20
118.1917
 11
-60.7661
 21
120.9180
  0
LINE
  8
8
 10
-60.3323
 20
118.0530
 11
-61.1955
 21
115.4421
  0
LINE
  8
8
 10
-60.3136
 20
118.1641
 11
-60.2662
 21
120.9093
  0
LINE
  8
8
 10
-60.7661
 20
120.9180
 11
-60.2662
 21
120.9093
  0
ENDBLK
  0
BLOCK
  8
0
  2
LDM000222D-VS-F-BK_35
 70
64
 10
0.0000
 20
0.0000
  0
TEXT
  8
1
 10
-78.4716
 20
120.9501
 40
0.250
 50
0.0000
  1
Piece Name: LDM000222D-VS-F-BK
  7
STANDARD
  0
TEXT
  8
1
 10
-78.4716
 20
121.0901
 40
0.250
 50
0.0000
  1
SIZE: 35
  7
STANDARD
  0
POLYLINE
  8
1
 66
1
 70
1
  0
VERTEX
  8
1
 10
-70.7980
 20
129.2707
  0
VERTEX
  8
1
 10
-70.6775
 20
129.0518
  0
VERTEX
  8
1
 10
-70.3862
 20
128.4838
  0
VERTEX
  8
1
 10
-69.6055
 20
127.3412
  0
VERTEX
  8
1
 10
-68.2842
 20
126.3631
  0
VERTEX
  8
1
 10
-66.5332
 20
125.6867
  0
VERTEX
  8
1
 10
-65.0296
 20
125.2373
  0
VERTEX
  8
1
 10
-57.0237
 20
122.8253
  0
VERTEX
  8
1
 10
-57.0237
 20
122.8253
  0
VERTEX
  8
1
 10
-57.4740
 20
121.0240
  0
VERTEX
  8
1
 10
-57.6633
 20
119.7239
  0
VERTEX
  8
1
 10
-57.7954
 20
118.0601
  0
VERTEX
  8
1
 10
-57.7954
 20
118.0601
  0
VERTEX
  8
1
 10
-60.5562
 20
118.1057
  0
VERTEX
  8
1
 10
-60.5562
 20
118.1057
  0
VERTEX
  8
1
 10
-57.9325
 20
117.2456
  0
VERTEX
  8
1
 10
-57.9325
 20
117.2456
  0
VERTEX
  8
1
 10
-58.3192
 20
115.9017
  0
VERTEX
  8
1
 10
-58.5991
 20
114.3618
  0
VERTEX
  8
1
 10
-58.7635
 20
112.6918
  0
VERTEX
  8
1
 10
-58.7635
 20
112.6918
  0
VERTEX
  8
1
 10
-62.0012
 20
112.6296
  0
VERTEX
  8
1
 10
-65.9077
 20
112.8480
  0
VERTEX
  8
1
 10
-71.0179
 20
113.3226
  0
VERTEX
  8
1
 10
-71.0179
 20
113.3226
  0
VERTEX
  8
1
 10
-75.5011
 20
113.7627
  0
VERTEX
  8
1
 10
-83.9624
 20
114.5527
  0
VERTEX
  8
1
 10
-83.9624
 20
114.5527
  0
VERTEX
  8
1
 10
-99.9195
 20
115.5257
  0
VERTEX
  8
1
 10
-99.9195
 20
115.5257
  0
VERTEX
  8
1
 10
-99.9163
 20
125.1587
  0
VERTEX
  8
1
 10
-99.9163
 20
125.1587
  0
VERTEX
  8
1
 10
-83.9524
 20
126.1217
  0
VERTEX
  8
1
 10
-83.9524
 20
126.1217
  0
VERTEX
  8
1
 10
-75.8913
 20
127.3453
  0
VERTEX
  8
1
 10
-71.6926
 20
128.8261
  0
VERTEX
  8
1
 10
-70.7980
 20
129.2707
  0
SEQEND
  8
1
  0
LINE
  8
7
 10
-89.4286
 20
120.7497
 11
-68.4021
 21
120.7497
  0
LINE
  8
5
 10
-89.4286
 20
120.7497
 11
-68.4021
 21
120.7497
  0
LINE
  8
8
 10
-83.9624
 20
114.5527
 11
-83.9524
 21
126.1217
  0
LINE
  8
8
 10
-75.5011
 20
113.7627
 11
-75.8913
 21
127.3453
  0
LINE
  8
8
 10
-71.6926
 20
128.8261
 11
-71.0179
 21
113.3226
  0
LINE
  8
8
 10
-65.9077
 20
112.8480
 11
-65.0296
 21
125.2373
  0
LINE
  8
8
 10
-60.6809
 20
118.1264
 11
-61.5695
 21
115.3424
  0
LINE
  8
8
 10
-61.5695
 20
115.3424
 11
-61.0931
 21
115.1903
  0
LINE
  8
8
 10
-60.6809
 20
118.1264
 11
-60.6096
 21
121.0475
  0
LINE
  8
8
 10
-60.1999
 20
117.9886
 11
-61.0931
 21
115.1903
  0
LINE
  8
8
 10
-60.1814
 20
118.0998
 11
-60.1098
 21
121.0352
  0
LINE
  8
8
 10
-60.6096
 20
121.0475
 11
-60.1098
 21
121.0352
  0
ENDBLK
  0
BLOCK
  8
0
  2
LDM000222D-VS-F-BK_36
 70
64
 10
0.0000
 20
0.0000
  0
TEXT
  8
1
 10
-78.4716
 20
120.9501
 40
0.250
 50
0.0000
  1
Piece Name: LDM000222D-VS-F-BK
  7
STANDARD
  0
TEXT
  8
1
 10
-78.4716
 20
121.0901
 40
0.250
 50
0.0000
  1
SIZE: 36
  7
STANDARD
  0
POLYLINE
  8
1
 66
1
 70
1
  0
VERTEX
  8
1
 10
-71.0008
 20
129.4631
  0
VERTEX
  8
1
 10
-70.8764
 20
129.2464
  0
VERTEX
  8
1
 10
-70.5628
 20
128.6515
  0
VERTEX
  8
1
 10
-69.7271
 20
127.4569
  0
VERTEX
  8
1
 10
-68.3236
 20
126.4421
  0
VERTEX
  8
1
 10
-66.4712
 20
125.7501
  0
VERTEX
  8
1
 10
-64.8820
 20
125.2944
  0
VERTEX
  8
1
 10
-56.8757
 20
122.8814
  0
VERTEX
  8
1
 10
-56.8757
 20
122.8814
  0
VERTEX
  8
1
 10
-57.3363
 20
121.0356
  0
VERTEX
  8
1
 10
-57.5296
 20
119.7035
  0
VERTEX
  8
1
 10
-57.6643
 20
117.9987
  0
VERTEX
  8
1
 10
-57.6643
 20
117.9987
  0
VERTEX
  8
1
 10
-60.4251
 20
118.0385
  0
VERTEX
  8
1
 10
-60.4251
 20
118.0385
  0
VERTEX
  8
1
 10
-57.7997
 20
117.1839
  0
VERTEX
  8
1
 10
-57.7997
 20
117.1839
  0
VERTEX
  8
1
 10
-58.1924
 20
115.8008
  0
VERTEX
  8
1
 10
-58.4745
 20
114.2165
  0
VERTEX
  8
1
 10
-58.6375
 20
112.4989
  0
VERTEX
  8
1
 10
-58.6375
 20
112.4989
  0
VERTEX
  8
1
 10
-61.8607
 20
112.4372
  0
VERTEX
  8
1
 10
-65.7496
 20
112.6550
  0
VERTEX
  8
1
 10
-71.1739
 20
113.1432
  0
VERTEX
  8
1
 10
-71.1739
 20
113.1432
  0
VERTEX
  8
1
 10
-75.6536
 20
113.5897
  0
VERTEX
  8
1
 10
-84.1127
 20
114.3907
  0
VERTEX
  8
1
 10
-84.1127
 20
114.3907
  0
VERTEX
  8
1
 10
-100.0676
 20
115.3947
  0
VERTEX
  8
1
 10
-100.0676
 20
115.3947
  0
VERTEX
  8
1
 10
-100.0633
 20
125.1537
  0
VERTEX
  8
1
 10
-100.0633
 20
125.1537
  0
VERTEX
  8
1
 10
-84.1028
 20
126.1477
  0
VERTEX
  8
1
 10
-84.1028
 20
126.1477
  0
VERTEX
  8
1
 10
-76.0437
 20
127.4519
  0
VERTEX
  8
1
 10
-71.8873
 20
129.0026
  0
VERTEX
  8
1
 10
-71.0008
 20
129.4631
  0
SEQEND
  8
1
  0
LINE
  8
7
 10
-89.5846
 20
120.6817
 11
-68.5581
 21
120.6817
  0
LINE
  8
5
 10
-89.5846
 20
120.6817
 11
-68.5581
 21
120.6817
  0
LINE
  8
8
 10
-84.1127
 20
114.3907
 11
-84.1028
 21
126.1477
  0
LINE
  8
8
 10
-75.6536
 20
113.5897
 11
-76.0437
 21
127.4519
  0
LINE
  8
8
 10
-71.8873
 20
129.0026
 11
-71.1739
 21
113.1432
  0
LINE
  8
8
 10
-65.7496
 20
112.6550
 11
-64.8820
 21
125.2944
  0
LINE
  8
8
 10
-60.5499
 20
118.0589
 11
-61.4333
 21
115.2735
  0
LINE
  8
8
 10
-61.4333
 20
115.2735
 11
-60.9568
 21
115.1223
  0
LINE
  8
8
 10
-60.5499
 20
118.0589
 11
-60.4849
 21
120.9791
  0
LINE
  8
8
 10
-60.0685
 20
117.9222
 11
-60.9568
 21
115.1223
  0
LINE
  8
8
 10
-60.0504
 20
118.0334
 11
-59.9851
 21
120.9679
  0
LINE
  8
8
 10
-60.4849
 20
120.9791
 11
-59.9851
 21
120.9679
  0
ENDBLK
  0
BLOCK
  8
0
  2
LDM000222D-VS-F-BK_37
 70
64
 10
0.0000
 20
0.0000
  0
TEXT
  8
1
 10
-78.4716
 20
120.9501
 40
0.250
 50
0.0000
  1
Piece Name: LDM000222D-VS-F-BK
  7
STANDARD
  0
TEXT
  8
1
 10
-78.4716
 20
121.0901
 40
0.250
 50
0.0000
  1
SIZE: 37
  7
STANDARD
  0
POLYLINE
  8
1
 66
1
 70
1
  0
VERTEX
  8
1
 10
-71.1567
 20
129.6614
  0
VERTEX
  8
1
 10
-71.0282
 20
129.4471
  0
VERTEX
  8
1
 10
-70.7359
 20
128.8422
  0
VERTEX
  8
1
 10
-69.9433
 20
127.6202
  0
VERTEX
  8
1
 10
-68.5775
 20
126.5579
  0
VERTEX
  8
1
 10
-66.7522
 20
125.8022
  0
VERTEX
  8
1
 10
-65.1814
 20
125.2916
  0
VERTEX
  8
1
 10
-56.7818
 20
122.9532
  0
VERTEX
  8
1
 10
-56.7818
 20
122.9532
  0
VERTEX
  8
1
 10
-57.2341
 20
121.0587
  0
VERTEX
  8
1
 10
-57.4181
 20
119.6928
  0
VERTEX
  8
1
 10
-57.5382
 20
117.9460
  0
VERTEX
  8
1
 10
-57.5382
 20
117.9460
  0
VERTEX
  8
1
 10
-60.2995
 20
117.9529
  0
VERTEX
  8
1
 10
-60.2995
 20
117.9529
  0
VERTEX
  8
1
 10
-57.6639
 20
117.1298
  0
VERTEX
  8
1
 10
-57.6639
 20
117.1298
  0
VERTEX
  8
1
 10
-58.0477
 20
115.7037
  0
VERTEX
  8
1
 10
-58.3150
 20
114.0725
  0
VERTEX
  8
1
 10
-58.4581
 20
112.3060
  0
VERTEX
  8
1
 10
-58.4581
 20
112.3060
  0
VERTEX
  8
1
 10
-61.8368
 20
112.2388
  0
VERTEX
  8
1
 10
-65.9136
 20
112.4640
  0
VERTEX
  8
1
 10
-71.2765
 20
112.9690
  0
VERTEX
  8
1
 10
-71.2765
 20
112.9690
  0
VERTEX
  8
1
 10
-75.7520
 20
113.4187
  0
VERTEX
  8
1
 10
-84.2090
 20
114.2307
  0
VERTEX
  8
1
 10
-84.2090
 20
114.2307
  0
VERTEX
  8
1
 10
-100.1614
 20
115.2657
  0
VERTEX
  8
1
 10
-100.1614
 20
115.2657
  0
VERTEX
  8
1
 10
-100.1557
 20
125.1507
  0
VERTEX
  8
1
 10
-100.1557
 20
125.1507
  0
VERTEX
  8
1
 10
-84.1990
 20
126.1757
  0
VERTEX
  8
1
 10
-84.1990
 20
126.1757
  0
VERTEX
  8
1
 10
-76.1422
 20
127.5603
  0
VERTEX
  8
1
 10
-72.0343
 20
129.1841
  0
VERTEX
  8
1
 10
-71.1567
 20
129.6614
  0
SEQEND
  8
1
  0
LINE
  8
7
 10
-89.6872
 20
120.6157
 11
-68.6607
 21
120.6157
  0
LINE
  8
5
 10
-89.6872
 20
120.6157
 11
-68.6607
 21
120.6157
  0
LINE
  8
8
 10
-84.2090
 20
114.2307
 11
-84.1990
 21
126.1757
  0
LINE
  8
8
 10
-75.7520
 20
113.4187
 11
-76.1422
 21
127.5603
  0
LINE
  8
8
 10
-72.0343
 20
129.1841
 11
-71.2765
 21
112.9690
  0
LINE
  8
8
 10
-65.9136
 20
112.4640
 11
-65.1814
 21
125.2916
  0
LINE
  8
8
 10
-60.4244
 20
117.9718
 11
-61.2734
 21
115.1755
  0
LINE
  8
8
 10
-61.2734
 20
115.1755
 11
-60.7949
 21
115.0302
  0
LINE
  8
8
 10
-60.4244
 20
117.9718
 11
-60.3960
 21
120.8872
  0
LINE
  8
8
 10
-59.9415
 20
117.8409
 11
-60.7949
 21
115.0302
  0
LINE
  8
8
 10
-59.9246
 20
117.9523
 11
-59.8961
 21
120.8823
  0
LINE
  8
8
 10
-60.3960
 20
120.8872
 11
-59.8961
 21
120.8823
  0
ENDBLK
  0
BLOCK
  8
0
  2
LDM000222D-VS-F-BK_38
 70
64
 10
0.0000
 20
0.0000
  0
TEXT
  8
1
 10
-78.4715
 20
120.9501
 40
0.250
 50
0.0000
  1
Piece Name: LDM000222D-VS-F-BK
  7
STANDARD
  0
TEXT
  8
1
 10
-78.4715
 20
121.0901
 40
0.250
 50
0.0000
  1
SIZE: 38
  7
STANDARD
  0
POLYLINE
  8
1
 66
1
 70
1
  0
VERTEX
  8
1
 10
-71.3452
 20
129.8560
  0
VERTEX
  8
1
 10
-71.2126
 20
129.6442
  0
VERTEX
  8
1
 10
-70.9049
 20
129.0090
  0
VERTEX
  8
1
 10
-70.0707
 20
127.7260
  0
VERTEX
  8
1
 10
-68.6346
 20
126.6113
  0
VERTEX
  8
1
 10
-66.7160
 20
125.8194
  0
VERTEX
  8
1
 10
-65.0651
 20
125.2846
  0
VERTEX
  8
1
 10
-56.6545
 20
123.0120
  0
VERTEX
  8
1
 10
-56.6545
 20
123.0120
  0
VERTEX
  8
1
 10
-57.1100
 20
121.0713
  0
VERTEX
  8
1
 10
-57.2930
 20
119.6727
  0
VERTEX
  8
1
 10
-57.4091
 20
117.8844
  0
VERTEX
  8
1
 10
-57.4091
 20
117.8844
  0
VERTEX
  8
1
 10
-60.1704
 20
117.8766
  0
VERTEX
  8
1
 10
-60.1704
 20
117.8766
  0
VERTEX
  8
1
 10
-57.5304
 20
117.0676
  0
VERTEX
  8
1
 10
-57.5304
 20
117.0676
  0
VERTEX
  8
1
 10
-57.9145
 20
115.6010
  0
VERTEX
  8
1
 10
-58.1777
 20
113.9248
  0
VERTEX
  8
1
 10
-58.3123
 20
112.1105
  0
VERTEX
  8
1
 10
-58.3123
 20
112.1105
  0
VERTEX
  8
1
 10
-61.6765
 20
112.0443
  0
VERTEX
  8
1
 10
-65.7358
 20
112.2694
  0
VERTEX
  8
1
 10
-71.4127
 20
112.7913
  0
VERTEX
  8
1
 10
-71.4127
 20
112.7913
  0
VERTEX
  8
1
 10
-75.8839
 20
113.2441
  0
VERTEX
  8
1
 10
-84.3386
 20
114.0671
  0
VERTEX
  8
1
 10
-84.3386
 20
114.0671
  0
VERTEX
  8
1
 10
-100.2886
 20
115.1331
  0
VERTEX
  8
1
 10
-100.2886
 20
115.1331
  0
VERTEX
  8
1
 10
-100.2815
 20
125.1441
  0
VERTEX
  8
1
 10
-100.2815
 20
125.1441
  0
VERTEX
  8
1
 10
-84.3286
 20
126.2001
  0
VERTEX
  8
1
 10
-84.3286
 20
126.2001
  0
VERTEX
  8
1
 10
-76.2741
 20
127.6649
  0
VERTEX
  8
1
 10
-72.2134
 20
129.3619
  0
VERTEX
  8
1
 10
-71.3452
 20
129.8560
  0
SEQEND
  8
1
  0
LINE
  8
7
 10
-89.8234
 20
120.5461
 11
-68.7969
 21
120.5461
  0
LINE
  8
5
 10
-89.8234
 20
120.5461
 11
-68.7969
 21
120.5461
  0
LINE
  8
8
 10
-84.3386
 20
114.0671
 11
-84.3286
 21
126.2001
  0
LINE
  8
8
 10
-75.8839
 20
113.2441
 11
-76.2741
 21
127.6649
  0
LINE
  8
8
 10
-72.2134
 20
129.3619
 11
-71.4127
 21
112.7913
  0
LINE
  8
8
 10
-65.7358
 20
112.2694
 11
-65.0651
 21
125.2846
  0
LINE
  8
8
 10
-60.2954
 20
117.8949
 11
-61.1300
 21
115.0944
  0
LINE
  8
8
 10
-61.1300
 20
115.0944
 11
-60.6508
 21
114.9516
  0
LINE
  8
8
 10
-60.2954
 20
117.8949
 11
-60.2836
 21
120.8078
  0
LINE
  8
8
 10
-59.8118
 20
117.7666
 11
-60.6508
 21
114.9516
  0
LINE
  8
8
 10
-59.7955
 20
117.8781
 11
-59.7837
 21
120.8058
  0
LINE
  8
8
 10
-60.2836
 20
120.8078
 11
-59.7837
 21
120.8058
  0
ENDBLK
  0
BLOCK
  8
0
  2
LDM000222D-VS-F-BK_40
 70
64
 10
0.0000
 20
0.0000
  0
TEXT
  8
1
 10
-78.4716
 20
120.9501
 40
0.250
 50
0.0000
  1
Piece Name: LDM000222D-VS-F-BK
  7
STANDARD
  0
TEXT
  8
1
 10
-78.4716
 20
121.0901
 40
0.250
 50
0.0000
  1
SIZE: 40
  7
STANDARD
  0
POLYLINE
  8
1
 66
1
 70
1
  0
VERTEX
  8
1
 10
-71.6293
 20
130.1399
  0
VERTEX
  8
1
 10
-71.4934
 20
129.9302
  0
VERTEX
  8
1
 10
-71.1524
 20
129.2609
  0
VERTEX
  8
1
 10
-70.2374
 20
127.9136
  0
VERTEX
  8
1
 10
-68.6855
 20
126.7583
  0
VERTEX
  8
1
 10
-66.6271
 20
125.9566
  0
VERTEX
  8
1
 10
-64.8591
 20
125.4229
  0
VERTEX
  8
1
 10
-56.4499
 20
123.1721
  0
VERTEX
  8
1
 10
-56.4499
 20
123.1721
  0
VERTEX
  8
1
 10
-56.9445
 20
121.1403
  0
VERTEX
  8
1
 10
-57.1486
 20
119.6747
  0
VERTEX
  8
1
 10
-57.2859
 20
117.7999
  0
VERTEX
  8
1
 10
-57.2859
 20
117.7999
  0
VERTEX
  8
1
 10
-60.0472
 20
117.8076
  0
VERTEX
  8
1
 10
-60.0472
 20
117.8076
  0
VERTEX
  8
1
 10
-57.4117
 20
116.9838
  0
VERTEX
  8
1
 10
-57.4117
 20
116.9838
  0
VERTEX
  8
1
 10
-57.8205
 20
115.4470
  0
VERTEX
  8
1
 10
-58.1033
 20
113.6897
  0
VERTEX
  8
1
 10
-58.2519
 20
111.7871
  0
VERTEX
  8
1
 10
-58.2519
 20
111.7871
  0
VERTEX
  8
1
 10
-61.6048
 20
111.7604
  0
VERTEX
  8
1
 10
-65.6470
 20
112.0322
  0
VERTEX
  8
1
 10
-71.6343
 20
112.5864
  0
VERTEX
  8
1
 10
-71.6343
 20
112.5864
  0
VERTEX
  8
1
 10
-76.1024
 20
113.0809
  0
VERTEX
  8
1
 10
-84.5458
 20
113.9239
  0
VERTEX
  8
1
 10
-84.5458
 20
113.9239
  0
VERTEX
  8
1
 10
-100.4934
 20
115.0209
  0
VERTEX
  8
1
 10
-100.4934
 20
115.0209
  0
VERTEX
  8
1
 10
-100.4798
 20
125.1579
  0
VERTEX
  8
1
 10
-100.4798
 20
125.1579
  0
VERTEX
  8
1
 10
-84.5358
 20
126.2449
  0
VERTEX
  8
1
 10
-84.5358
 20
126.2449
  0
VERTEX
  8
1
 10
-76.4926
 20
127.8824
  0
VERTEX
  8
1
 10
-72.4896
 20
129.6322
  0
VERTEX
  8
1
 10
-71.6293
 20
130.1399
  0
SEQEND
  8
1
  0
LINE
  8
7
 10
-90.0450
 20
120.4969
 11
-69.0185
 21
120.4969
  0
LINE
  8
5
 10
-90.0450
 20
120.4969
 11
-69.0185
 21
120.4969
  0
LINE
  8
8
 10
-84.5458
 20
113.9239
 11
-84.5358
 21
126.2449
  0
LINE
  8
8
 10
-76.1024
 20
113.0809
 11
-76.4926
 21
127.8824
  0
LINE
  8
8
 10
-72.4896
 20
129.6322
 11
-71.6343
 21
112.5864
  0
LINE
  8
8
 10
-65.6470
 20
112.0322
 11
-64.8591
 21
125.4229
  0
LINE
  8
8
 10
-60.1720
 20
117.8267
 11
-61.0574
 21
114.8420
  0
LINE
  8
8
 10
-61.0574
 20
114.8420
 11
-60.5780
 21
114.6998
  0
LINE
  8
8
 10
-60.1720
 20
117.8267
 11
-60.1168
 21
120.9363
  0
LINE
  8
8
 10
-59.6892
 20
117.6956
 11
-60.5780
 21
114.6998
  0
LINE
  8
8
 10
-59.6723
 20
117.8070
 11
-59.6170
 21
120.9274
  0
LINE
  8
8
 10
-60.1168
 20
120.9363
 11
-59.6170
 21
120.9274
  0
ENDBLK
  0
BLOCK
  8
0
  2
LDM000222D-VS-F-BK_42
 70
64
 10
0.0000
 20
0.0000
  0
TEXT
  8
1
 10
-78.4716
 20
120.9501
 40
0.250
 50
0.0000
  1
Piece Name: LDM000222D-VS-F-BK
  7
STANDARD
  0
TEXT
  8
1
 10
-78.4716
 20
121.0901
 40
0.250
 50
0.0000
  1
SIZE: 42
  7
STANDARD
  0
POLYLINE
  8
1
 66
1
 70
1
  0
VERTEX
  8
1
 10
-71.9219
 20
130.4302
  0
VERTEX
  8
1
 10
-71.7800
 20
130.2245
  0
VERTEX
  8
1
 10
-71.4061
 20
129.5211
  0
VERTEX
  8
1
 10
-70.4112
 20
128.1093
  0
VERTEX
  8
1
 10
-68.7445
 20
126.9127
  0
VERTEX
  8
1
 10
-66.5472
 20
126.1005
  0
VERTEX
  8
1
 10
-64.6627
 20
125.5670
  0
VERTEX
  8
1
 10
-56.2546
 20
123.3403
  0
VERTEX
  8
1
 10
-56.2546
 20
123.3403
  0
VERTEX
  8
1
 10
-56.7854
 20
121.2191
  0
VERTEX
  8
1
 10
-57.0087
 20
119.6881
  0
VERTEX
  8
1
 10
-57.1648
 20
117.7286
  0
VERTEX
  8
1
 10
-57.1648
 20
117.7286
  0
VERTEX
  8
1
 10
-59.9259
 20
117.7455
  0
VERTEX
  8
1
 10
-59.9259
 20
117.7455
  0
VERTEX
  8
1
 10
-57.2933
 20
116.9128
  0
VERTEX
  8
1
 10
-57.2933
 20
116.9128
  0
VERTEX
  8
1
 10
-57.7254
 20
115.3036
  0
VERTEX
  8
1
 10
-58.0261
 20
113.4631
  0
VERTEX
  8
1
 10
-58.1865
 20
111.4701
  0
VERTEX
  8
1
 10
-58.1865
 20
111.4701
  0
VERTEX
  8
1
 10
-61.5278
 20
111.4831
  0
VERTEX
  8
1
 10
-65.5522
 20
111.8017
  0
VERTEX
  8
1
 10
-71.8510
 20
112.3885
  0
VERTEX
  8
1
 10
-71.8510
 20
112.3885
  0
VERTEX
  8
1
 10
-76.3049
 20
112.9244
  0
VERTEX
  8
1
 10
-84.7435
 20
113.7874
  0
VERTEX
  8
1
 10
-84.7435
 20
113.7874
  0
VERTEX
  8
1
 10
-100.6887
 20
114.9154
  0
VERTEX
  8
1
 10
-100.6887
 20
114.9154
  0
VERTEX
  8
1
 10
-100.6721
 20
125.1784
  0
VERTEX
  8
1
 10
-100.6721
 20
125.1784
  0
VERTEX
  8
1
 10
-84.7336
 20
126.2964
  0
VERTEX
  8
1
 10
-84.7336
 20
126.2964
  0
VERTEX
  8
1
 10
-76.6951
 20
128.0430
  0
VERTEX
  8
1
 10
-72.7672
 20
129.8979
  0
VERTEX
  8
1
 10
-71.9219
 20
130.4302
  0
SEQEND
  8
1
  0
LINE
  8
7
 10
-90.2616
 20
120.4544
 11
-69.2351
 21
120.4544
  0
LINE
  8
5
 10
-90.2616
 20
120.4544
 11
-69.2351
 21
120.4544
  0
LINE
  8
8
 10
-84.7435
 20
113.7874
 11
-84.7336
 21
126.2964
  0
LINE
  8
8
 10
-76.3049
 20
112.9244
 11
-76.6951
 21
128.0430
  0
LINE
  8
8
 10
-72.7672
 20
129.8979
 11
-71.8510
 21
112.3885
  0
LINE
  8
8
 10
-65.5522
 20
111.8017
 11
-64.6627
 21
125.5670
  0
LINE
  8
8
 10
-60.0508
 20
117.7651
 11
-60.9528
 21
114.7865
  0
LINE
  8
8
 10
-60.9528
 20
114.7865
 11
-60.4742
 21
114.6416
  0
LINE
  8
8
 10
-60.0508
 20
117.7651
 11
-59.9893
 21
120.8742
  0
LINE
  8
8
 10
-59.5683
 20
117.6323
 11
-60.4742
 21
114.6416
  0
LINE
  8
8
 10
-59.5512
 20
117.7437
 11
-59.4896
 21
120.8643
  0
LINE
  8
8
 10
-59.9893
 20
120.8742
 11
-59.4896
 21
120.8643
  0
ENDBLK
  0
BLOCK
  8
0
  2
LDM000222D-VS-F-BK_44
 70
64
 10
0.0000
 20
0.0000
  0
TEXT
  8
1
 10
-78.4716
 20
120.9501
 40
0.250
 50
0.0000
  1
Piece Name: LDM000222D-VS-F-BK
  7
STANDARD
  0
TEXT
  8
1
 10
-78.4716
 20
121.0901
 40
0.250
 50
0.0000
  1
SIZE: 44
  7
STANDARD
  0
POLYLINE
  8
1
 66
1
 70
1
  0
VERTEX
  8
1
 10
-72.1775
 20
130.7342
  0
VERTEX
  8
1
 10
-72.0321
 20
130.5309
  0
VERTEX
  8
1
 10
-71.6617
 20
129.8135
  0
VERTEX
  8
1
 10
-70.6706
 20
128.3709
  0
VERTEX
  8
1
 10
-68.9961
 20
127.1382
  0
VERTEX
  8
1
 10
-66.7793
 20
126.2885
  0
VERTEX
  8
1
 10
-64.8761
 20
125.7251
  0
VERTEX
  8
1
 10
-56.0885
 20
123.5303
  0
VERTEX
  8
1
 10
-56.0885
 20
123.5303
  0
VERTEX
  8
1
 10
-56.6458
 20
121.3141
  0
VERTEX
  8
1
 10
-56.8809
 20
119.7143
  0
VERTEX
  8
1
 10
-57.0464
 20
117.6666
  0
VERTEX
  8
1
 10
-57.0464
 20
117.6666
  0
VERTEX
  8
1
 10
-59.8076
 20
117.6821
  0
VERTEX
  8
1
 10
-59.8076
 20
117.6821
  0
VERTEX
  8
1
 10
-57.1745
 20
116.8507
  0
VERTEX
  8
1
 10
-57.1745
 20
116.8507
  0
VERTEX
  8
1
 10
-57.6205
 20
115.1695
  0
VERTEX
  8
1
 10
-57.9285
 20
113.2472
  0
VERTEX
  8
1
 10
-58.0895
 20
111.1661
  0
VERTEX
  8
1
 10
-58.0895
 20
111.1661
  0
VERTEX
  8
1
 10
-61.5885
 20
111.2123
  0
VERTEX
  8
1
 10
-65.8001
 20
111.5851
  0
VERTEX
  8
1
 10
-72.0361
 20
112.2043
  0
VERTEX
  8
1
 10
-72.0361
 20
112.2043
  0
VERTEX
  8
1
 10
-76.4866
 20
112.7818
  0
VERTEX
  8
1
 10
-84.9123
 20
113.6648
  0
VERTEX
  8
1
 10
-84.9123
 20
113.6648
  0
VERTEX
  8
1
 10
-100.8548
 20
114.8238
  0
VERTEX
  8
1
 10
-100.8548
 20
114.8238
  0
VERTEX
  8
1
 10
-100.8334
 20
125.2128
  0
VERTEX
  8
1
 10
-100.8334
 20
125.2128
  0
VERTEX
  8
1
 10
-84.9023
 20
126.3618
  0
VERTEX
  8
1
 10
-84.9023
 20
126.3618
  0
VERTEX
  8
1
 10
-76.8768
 20
128.2803
  0
VERTEX
  8
1
 10
-73.0137
 20
130.1877
  0
VERTEX
  8
1
 10
-72.1775
 20
130.7342
  0
SEQEND
  8
1
  0
LINE
  8
7
 10
-90.4468
 20
120.4258
 11
-69.4203
 21
120.4258
  0
LINE
  8
5
 10
-90.4468
 20
120.4258
 11
-69.4203
 21
120.4258
  0
LINE
  8
8
 10
-84.9123
 20
113.6648
 11
-84.9023
 21
126.3618
  0
LINE
  8
8
 10
-76.4866
 20
112.7818
 11
-76.8768
 21
128.2803
  0
LINE
  8
8
 10
-73.0137
 20
130.1877
 11
-72.0361
 21
112.2043
  0
LINE
  8
8
 10
-65.8001
 20
111.5851
 11
-64.8761
 21
125.7251
  0
LINE
  8
8
 10
-59.9325
 20
117.7016
 11
-60.8347
 21
114.7234
  0
LINE
  8
8
 10
-60.8347
 20
114.7234
 11
-60.3562
 21
114.5784
  0
LINE
  8
8
 10
-59.9325
 20
117.7016
 11
-59.8754
 21
120.8098
  0
LINE
  8
8
 10
-59.4499
 20
117.5690
 11
-60.3562
 21
114.5784
  0
LINE
  8
8
 10
-59.4328
 20
117.6805
 11
-59.3756
 21
120.8006
  0
LINE
  8
8
 10
-59.8754
 20
120.8098
 11
-59.3756
 21
120.8006
  0
ENDBLK
  0
BLOCK
  8
0
  2
LDM000222D-VS-F-BK_46
 70
64
 10
0.0000
 20
0.0000
  0
TEXT
  8
1
 10
-78.4715
 20
120.9501
 40
0.250
 50
0.0000
  1
Piece Name: LDM000222D-VS-F-BK
  7
STANDARD
  0
TEXT
  8
1
 10
-78.4715
 20
121.0901
 40
0.250
 50
0.0000
  1
SIZE: 46
  7
STANDARD
  0
POLYLINE
  8
1
 66
1
 70
1
  0
VERTEX
  8
1
 10
-72.4750
 20
131.0374
  0
VERTEX
  8
1
 10
-72.3235
 20
130.8386
  0
VERTEX
  8
1
 10
-71.9203
 20
130.0870
  0
VERTEX
  8
1
 10
-70.8492
 20
128.5797
  0
VERTEX
  8
1
 10
-69.0599
 20
127.3055
  0
VERTEX
  8
1
 10
-66.7042
 20
126.4450
  0
VERTEX
  8
1
 10
-64.6844
 20
125.8816
  0
VERTEX
  8
1
 10
-55.8977
 20
123.7130
  0
VERTEX
  8
1
 10
-55.8977
 20
123.7130
  0
VERTEX
  8
1
 10
-56.4904
 20
121.4063
  0
VERTEX
  8
1
 10
-56.7439
 20
119.7402
  0
VERTEX
  8
1
 10
-56.9273
 20
117.6071
  0
VERTEX
  8
1
 10
-56.9273
 20
117.6071
  0
VERTEX
  8
1
 10
-59.6884
 20
117.6325
  0
VERTEX
  8
1
 10
-59.6884
 20
117.6325
  0
VERTEX
  8
1
 10
-57.0583
 20
116.7917
  0
VERTEX
  8
1
 10
-57.0583
 20
116.7917
  0
VERTEX
  8
1
 10
-57.5262
 20
115.0385
  0
VERTEX
  8
1
 10
-57.8505
 20
113.0336
  0
VERTEX
  8
1
 10
-58.0218
 20
110.8628
  0
VERTEX
  8
1
 10
-58.0218
 20
110.8628
  0
VERTEX
  8
1
 10
-61.5085
 20
110.9485
  0
VERTEX
  8
1
 10
-65.7013
 20
111.3678
  0
VERTEX
  8
1
 10
-72.2505
 20
112.0196
  0
VERTEX
  8
1
 10
-72.2505
 20
112.0196
  0
VERTEX
  8
1
 10
-76.6853
 20
112.6385
  0
VERTEX
  8
1
 10
-85.1055
 20
113.5415
  0
VERTEX
  8
1
 10
-85.1055
 20
113.5415
  0
VERTEX
  8
1
 10
-101.0454
 20
114.7315
  0
VERTEX
  8
1
 10
-101.0454
 20
114.7315
  0
VERTEX
  8
1
 10
-101.0197
 20
125.2465
  0
VERTEX
  8
1
 10
-101.0197
 20
125.2465
  0
VERTEX
  8
1
 10
-85.0955
 20
126.4265
  0
VERTEX
  8
1
 10
-85.0955
 20
126.4265
  0
VERTEX
  8
1
 10
-77.0755
 20
128.4533
  0
VERTEX
  8
1
 10
-73.2942
 20
130.4659
  0
VERTEX
  8
1
 10
-72.4750
 20
131.0374
  0
SEQEND
  8
1
  0
LINE
  8
7
 10
-90.6612
 20
120.3965
 11
-69.6347
 21
120.3965
  0
LINE
  8
5
 10
-90.6612
 20
120.3965
 11
-69.6347
 21
120.3965
  0
LINE
  8
8
 10
-85.1055
 20
113.5415
 11
-85.0955
 21
126.4265
  0
LINE
  8
8
 10
-76.6853
 20
112.6385
 11
-77.0755
 21
128.4533
  0
LINE
  8
8
 10
-73.2942
 20
130.4659
 11
-72.2505
 21
112.0196
  0
LINE
  8
8
 10
-65.7013
 20
111.3678
 11
-64.6844
 21
125.8816
  0
LINE
  8
8
 10
-59.8133
 20
117.6525
 11
-60.7298
 21
114.6793
  0
LINE
  8
8
 10
-60.7298
 20
114.6793
 11
-60.2520
 21
114.5320
  0
LINE
  8
8
 10
-59.8133
 20
117.6525
 11
-59.7473
 21
120.7611
  0
LINE
  8
8
 10
-59.3312
 20
117.5181
 11
-60.2520
 21
114.5320
  0
LINE
  8
8
 10
-59.3136
 20
117.6296
 11
-59.2475
 21
120.7505
  0
LINE
  8
8
 10
-59.7473
 20
120.7611
 11
-59.2475
 21
120.7505
  0
ENDBLK
  0
BLOCK
  8
0
  2
LDM000222D-VS-F-BK_48
 70
64
 10
0.0000
 20
0.0000
  0
TEXT
  8
1
 10
-78.4715
 20
120.9501
 40
0.250
 50
0.0000
  1
Piece Name: LDM000222D-VS-F-BK
  7
STANDARD
  0
TEXT
  8
1
 10
-78.4715
 20
121.0901
 40
0.250
 50
0.0000
  1
SIZE: 48
  7
STANDARD
  0
POLYLINE
  8
1
 66
1
 70
1
  0
VERTEX
  8
1
 10
-72.8038
 20
131.3384
  0
VERTEX
  8
1
 10
-72.6484
 20
131.1427
  0
VERTEX
  8
1
 10
-72.2370
 20
130.3703
  0
VERTEX
  8
1
 10
-71.1426
 20
128.8204
  0
VERTEX
  8
1
 10
-69.3105
 20
127.5075
  0
VERTEX
  8
1
 10
-66.8959
 20
126.6173
  0
VERTEX
  8
1
 10
-64.8252
 20
126.0331
  0
VERTEX
  8
1
 10
-55.6608
 20
123.8842
  0
VERTEX
  8
1
 10
-55.6608
 20
123.8842
  0
VERTEX
  8
1
 10
-56.3078
 20
121.4757
  0
VERTEX
  8
1
 10
-56.5924
 20
119.7341
  0
VERTEX
  8
1
 10
-56.8089
 20
117.5027
  0
VERTEX
  8
1
 10
-56.8089
 20
117.5027
  0
VERTEX
  8
1
 10
-59.5696
 20
117.5527
  0
VERTEX
  8
1
 10
-59.5696
 20
117.5527
  0
VERTEX
  8
1
 10
-56.9472
 20
116.6884
  0
VERTEX
  8
1
 10
-56.9472
 20
116.6884
  0
VERTEX
  8
1
 10
-57.4459
 20
114.8783
  0
VERTEX
  8
1
 10
-57.7983
 20
112.8065
  0
VERTEX
  8
1
 10
-57.9936
 20
110.5618
  0
VERTEX
  8
1
 10
-57.9936
 20
110.5618
  0
VERTEX
  8
1
 10
-61.6364
 20
110.6639
  0
VERTEX
  8
1
 10
-66.0161
 20
111.1170
  0
VERTEX
  8
1
 10
-72.5044
 20
111.8259
  0
VERTEX
  8
1
 10
-72.5044
 20
111.8259
  0
VERTEX
  8
1
 10
-76.9333
 20
112.4527
  0
VERTEX
  8
1
 10
-85.3450
 20
113.3857
  0
VERTEX
  8
1
 10
-85.3450
 20
113.3857
  0
VERTEX
  8
1
 10
-101.2823
 20
114.6067
  0
VERTEX
  8
1
 10
-101.2823
 20
114.6067
  0
VERTEX
  8
1
 10
-101.2531
 20
125.3097
  0
VERTEX
  8
1
 10
-101.2531
 20
125.3097
  0
VERTEX
  8
1
 10
-85.3350
 20
126.5207
  0
VERTEX
  8
1
 10
-85.3350
 20
126.5207
  0
VERTEX
  8
1
 10
-77.3235
 20
128.6773
  0
VERTEX
  8
1
 10
-73.6115
 20
130.7507
  0
VERTEX
  8
1
 10
-72.8038
 20
131.3384
  0
SEQEND
  8
1
  0
LINE
  8
7
 10
-90.9151
 20
120.3657
 11
-69.8886
 21
120.3657
  0
LINE
  8
5
 10
-90.9151
 20
120.3657
 11
-69.8886
 21
120.3657
  0
LINE
  8
8
 10
-85.3450
 20
113.3857
 11
-85.3350
 21
126.5207
  0
LINE
  8
8
 10
-76.9333
 20
112.4527
 11
-77.3235
 21
128.6773
  0
LINE
  8
8
 10
-73.6115
 20
130.7507
 11
-72.5044
 21
111.8259
  0
LINE
  8
8
 10
-66.0161
 20
111.1170
 11
-64.8252
 21
126.0331
  0
LINE
  8
8
 10
-59.6943
 20
117.5738
 11
-60.6750
 21
114.4208
  0
LINE
  8
8
 10
-60.6750
 20
114.4208
 11
-60.1975
 21
114.2723
  0
LINE
  8
8
 10
-59.6943
 20
117.5738
 11
-59.5719
 21
120.8789
  0
LINE
  8
8
 10
-59.2135
 20
117.4351
 11
-60.1975
 21
114.2723
  0
LINE
  8
8
 10
-59.1949
 20
117.5464
 11
-59.0723
 21
120.8604
  0
LINE
  8
8
 10
-59.5719
 20
120.8789
 11
-59.0723
 21
120.8604
  0
ENDBLK
  0
BLOCK
  8
0
  2
LDM000222D-VS-F-BK_50
 70
64
 10
0.0000
 20
0.0000
  0
TEXT
  8
1
 10
-78.4716
 20
120.9501
 40
0.250
 50
0.0000
  1
Piece Name: LDM000222D-VS-F-BK
  7
STANDARD
  0
TEXT
  8
1
 10
-78.4716
 20
121.0901
 40
0.250
 50
0.0000
  1
SIZE: 50
  7
STANDARD
  0
POLYLINE
  8
1
 66
1
 70
1
  0
VERTEX
  8
1
 10
-73.1790
 20
131.6444
  0
VERTEX
  8
1
 10
-73.0172
 20
131.4540
  0
VERTEX
  8
1
 10
-72.5605
 20
130.6408
  0
VERTEX
  8
1
 10
-71.3577
 20
129.0153
  0
VERTEX
  8
1
 10
-69.3745
 20
127.6599
  0
VERTEX
  8
1
 10
-66.7806
 20
126.7688
  0
VERTEX
  8
1
 10
-64.5604
 20
126.1954
  0
VERTEX
  8
1
 10
-55.3947
 20
124.0891
  0
VERTEX
  8
1
 10
-55.3947
 20
124.0891
  0
VERTEX
  8
1
 10
-56.0462
 20
121.5953
  0
VERTEX
  8
1
 10
-56.3280
 20
119.7934
  0
VERTEX
  8
1
 10
-56.5359
 20
117.4856
  0
VERTEX
  8
1
 10
-56.5359
 20
117.4856
  0
VERTEX
  8
1
 10
-59.2970
 20
117.5122
  0
VERTEX
  8
1
 10
-59.2970
 20
117.5122
  0
VERTEX
  8
1
 10
-56.6673
 20
116.6703
  0
VERTEX
  8
1
 10
-56.6673
 20
116.6703
  0
VERTEX
  8
1
 10
-57.1672
 20
114.7729
  0
VERTEX
  8
1
 10
-57.5110
 20
112.6038
  0
VERTEX
  8
1
 10
-57.6887
 20
110.2559
  0
VERTEX
  8
1
 10
-57.6887
 20
110.2559
  0
VERTEX
  8
1
 10
-61.3180
 20
110.3859
  0
VERTEX
  8
1
 10
-65.6790
 20
110.8714
  0
VERTEX
  8
1
 10
-72.7927
 20
111.6376
  0
VERTEX
  8
1
 10
-72.7927
 20
111.6376
  0
VERTEX
  8
1
 10
-77.2023
 20
112.2721
  0
VERTEX
  8
1
 10
-85.6140
 20
113.2351
  0
VERTEX
  8
1
 10
-85.6140
 20
113.2351
  0
VERTEX
  8
1
 10
-101.5485
 20
114.4871
  0
VERTEX
  8
1
 10
-101.5485
 20
114.4871
  0
VERTEX
  8
1
 10
-101.5171
 20
125.3781
  0
VERTEX
  8
1
 10
-101.5171
 20
125.3781
  0
VERTEX
  8
1
 10
-85.6040
 20
126.6201
  0
VERTEX
  8
1
 10
-85.6040
 20
126.6201
  0
VERTEX
  8
1
 10
-77.5925
 20
128.8427
  0
VERTEX
  8
1
 10
-73.9667
 20
131.0301
  0
VERTEX
  8
1
 10
-73.1790
 20
131.6444
  0
SEQEND
  8
1
  0
LINE
  8
7
 10
-91.2034
 20
120.3401
 11
-70.1769
 21
120.3401
  0
LINE
  8
5
 10
-91.2034
 20
120.3401
 11
-70.1769
 21
120.3401
  0
LINE
  8
8
 10
-85.6140
 20
113.2351
 11
-85.6040
 21
126.6201
  0
LINE
  8
8
 10
-77.2023
 20
112.2721
 11
-77.5925
 21
128.8427
  0
LINE
  8
8
 10
-73.9667
 20
131.0301
 11
-72.7927
 21
111.6376
  0
LINE
  8
8
 10
-65.6790
 20
110.8714
 11
-64.5604
 21
126.1954
  0
LINE
  8
8
 10
-59.4218
 20
117.5323
 11
-60.3776
 21
114.3720
  0
LINE
  8
8
 10
-60.3776
 20
114.3720
 11
-59.8989
 21
114.2272
  0
LINE
  8
8
 10
-59.4218
 20
117.5323
 11
-59.3301
 21
120.8337
  0
LINE
  8
8
 10
-58.9399
 20
117.3977
 11
-59.8989
 21
114.2272
  0
LINE
  8
8
 10
-58.9222
 20
117.5091
 11
-58.8304
 21
120.8198
  0
LINE
  8
8
 10
-59.3301
 20
120.8337
 11
-58.8304
 21
120.8198
  0
ENDBLK
  0
BLOCK
  8
0
  2
LDM000222D-VS-F-BK_52
 70
64
 10
0.0000
 20
0.0000
  0
TEXT
  8
1
 10
-78.4716
 20
120.9501
 40
0.250
 50
0.0000
  1
Piece Name: LDM000222D-VS-F-BK
  7
STANDARD
  0
TEXT
  8
1
 10
-78.4716
 20
121.0901
 40
0.250
 50
0.0000
  1
SIZE: 52
  7
STANDARD
  0
POLYLINE
  8
1
 66
1
 70
1
  0
VERTEX
  8
1
 10
-73.5117
 20
131.9454
  0
VERTEX
  8
1
 10
-73.3459
 20
131.7585
  0
VERTEX
  8
1
 10
-72.8810
 20
130.9244
  0
VERTEX
  8
1
 10
-71.6548
 20
129.2561
  0
VERTEX
  8
1
 10
-69.6287
 20
127.8619
  0
VERTEX
  8
1
 10
-66.9758
 20
126.9409
  0
VERTEX
  8
1
 10
-64.7045
 20
126.3466
  0
VERTEX
  8
1
 10
-55.1611
 20
124.2609
  0
VERTEX
  8
1
 10
-55.1611
 20
124.2609
  0
VERTEX
  8
1
 10
-55.8665
 20
121.6637
  0
VERTEX
  8
1
 10
-56.1789
 20
119.7852
  0
VERTEX
  8
1
 10
-56.4192
 20
117.3778
  0
VERTEX
  8
1
 10
-56.4192
 20
117.3778
  0
VERTEX
  8
1
 10
-59.1798
 20
117.4297
  0
VERTEX
  8
1
 10
-59.1798
 20
117.4297
  0
VERTEX
  8
1
 10
-56.5580
 20
116.5636
  0
VERTEX
  8
1
 10
-56.5580
 20
116.5636
  0
VERTEX
  8
1
 10
-57.0875
 20
114.6102
  0
VERTEX
  8
1
 10
-57.4580
 20
112.3754
  0
VERTEX
  8
1
 10
-57.6585
 20
109.9549
  0
VERTEX
  8
1
 10
-57.6585
 20
109.9549
  0
VERTEX
  8
1
 10
-61.4438
 20
110.1014
  0
VERTEX
  8
1
 10
-65.9911
 20
110.6210
  0
VERTEX
  8
1
 10
-73.0447
 20
111.4443
  0
VERTEX
  8
1
 10
-73.0447
 20
111.4443
  0
VERTEX
  8
1
 10
-77.4476
 20
112.0867
  0
VERTEX
  8
1
 10
-85.8505
 20
113.0797
  0
VERTEX
  8
1
 10
-85.8505
 20
113.0797
  0
VERTEX
  8
1
 10
-101.7822
 20
114.3627
  0
VERTEX
  8
1
 10
-101.7822
 20
114.3627
  0
VERTEX
  8
1
 10
-101.7458
 20
125.4417
  0
VERTEX
  8
1
 10
-101.7458
 20
125.4417
  0
VERTEX
  8
1
 10
-85.8405
 20
126.7147
  0
VERTEX
  8
1
 10
-85.8405
 20
126.7147
  0
VERTEX
  8
1
 10
-77.8378
 20
129.0662
  0
VERTEX
  8
1
 10
-74.2862
 20
131.3145
  0
VERTEX
  8
1
 10
-73.5117
 20
131.9454
  0
SEQEND
  8
1
  0
LINE
  8
7
 10
-91.4554
 20
120.3097
 11
-70.4289
 21
120.3097
  0
LINE
  8
5
 10
-91.4554
 20
120.3097
 11
-70.4289
 21
120.3097
  0
LINE
  8
8
 10
-85.8505
 20
113.0797
 11
-85.8405
 21
126.7147
  0
LINE
  8
8
 10
-77.4476
 20
112.0867
 11
-77.8378
 21
129.0662
  0
LINE
  8
8
 10
-74.2862
 20
131.3145
 11
-73.0447
 21
111.4443
  0
LINE
  8
8
 10
-65.9911
 20
110.6210
 11
-64.7045
 21
126.3466
  0
LINE
  8
8
 10
-59.3045
 20
117.4509
 11
-60.2912
 21
114.3005
  0
LINE
  8
8
 10
-60.2912
 20
114.3005
 11
-59.8141
 21
114.1510
  0
LINE
  8
8
 10
-59.3045
 20
117.4509
 11
-59.1850
 21
120.7547
  0
LINE
  8
8
 10
-58.8239
 20
117.3119
 11
-59.8141
 21
114.1510
  0
LINE
  8
8
 10
-58.8051
 20
117.4231
 11
-58.6855
 21
120.7366
  0
LINE
  8
8
 10
-59.1850
 20
120.7547
 11
-58.6855
 21
120.7366
  0
ENDBLK
  0
BLOCK
  8
0
  2
LDM000222D-VS-F-BK_54
 70
64
 10
0.0000
 20
0.0000
  0
TEXT
  8
1
 10
-78.4716
 20
120.9501
 40
0.250
 50
0.0000
  1
Piece Name: LDM000222D-VS-F-BK
  7
STANDARD
  0
TEXT
  8
1
 10
-78.4716
 20
121.0901
 40
0.250
 50
0.0000
  1
SIZE: 54
  7
STANDARD
  0
POLYLINE
  8
1
 66
1
 70
1
  0
VERTEX
  8
1
 10
-73.8770
 20
132.2510
  0
VERTEX
  8
1
 10
-73.7089
 20
132.0661
  0
VERTEX
  8
1
 10
-73.1991
 20
131.1919
  0
VERTEX
  8
1
 10
-71.8659
 20
129.4496
  0
VERTEX
  8
1
 10
-69.6906
 20
128.0139
  0
VERTEX
  8
1
 10
-66.8612
 20
127.0925
  0
VERTEX
  8
1
 10
-64.4425
 20
126.5094
  0
VERTEX
  8
1
 10
-54.8978
 20
124.4669
  0
VERTEX
  8
1
 10
-54.8978
 20
124.4669
  0
VERTEX
  8
1
 10
-55.6066
 20
121.7831
  0
VERTEX
  8
1
 10
-55.9153
 20
119.8434
  0
VERTEX
  8
1
 10
-56.1458
 20
117.3587
  0
VERTEX
  8
1
 10
-56.1458
 20
117.3587
  0
VERTEX
  8
1
 10
-58.9069
 20
117.3893
  0
VERTEX
  8
1
 10
-58.9069
 20
117.3893
  0
VERTEX
  8
1
 10
-56.2783
 20
116.5435
  0
VERTEX
  8
1
 10
-56.2783
 20
116.5435
  0
VERTEX
  8
1
 10
-56.8087
 20
114.5035
  0
VERTEX
  8
1
 10
-57.1705
 20
112.1722
  0
VERTEX
  8
1
 10
-57.3534
 20
109.6493
  0
VERTEX
  8
1
 10
-57.3534
 20
109.6493
  0
VERTEX
  8
1
 10
-61.1249
 20
109.8236
  0
VERTEX
  8
1
 10
-65.6531
 20
110.3754
  0
VERTEX
  8
1
 10
-73.3327
 20
111.2561
  0
VERTEX
  8
1
 10
-73.3327
 20
111.2561
  0
VERTEX
  8
1
 10
-77.7135
 20
111.9061
  0
VERTEX
  8
1
 10
-86.1164
 20
112.9291
  0
VERTEX
  8
1
 10
-86.1164
 20
112.9291
  0
VERTEX
  8
1
 10
-102.0454
 20
114.2431
  0
VERTEX
  8
1
 10
-102.0454
 20
114.2431
  0
VERTEX
  8
1
 10
-102.0008
 20
125.5101
  0
VERTEX
  8
1
 10
-102.0008
 20
125.5101
  0
VERTEX
  8
1
 10
-86.1064
 20
126.8141
  0
VERTEX
  8
1
 10
-86.1064
 20
126.8141
  0
VERTEX
  8
1
 10
-78.1036
 20
129.3556
  0
VERTEX
  8
1
 10
-74.6437
 20
131.6107
  0
VERTEX
  8
1
 10
-73.8770
 20
132.2510
  0
SEQEND
  8
1
  0
LINE
  8
7
 10
-91.7434
 20
120.2841
 11
-70.7169
 21
120.2841
  0
LINE
  8
5
 10
-91.7434
 20
120.2841
 11
-70.7169
 21
120.2841
  0
LINE
  8
8
 10
-86.1164
 20
112.9291
 11
-86.1064
 21
126.8141
  0
LINE
  8
8
 10
-77.7135
 20
111.9061
 11
-78.1036
 21
129.3556
  0
LINE
  8
8
 10
-74.6437
 20
131.6107
 11
-73.3327
 21
111.2561
  0
LINE
  8
8
 10
-65.6531
 20
110.3754
 11
-64.4425
 21
126.5094
  0
LINE
  8
8
 10
-59.0316
 20
117.4095
 11
-59.9948
 21
114.2519
  0
LINE
  8
8
 10
-59.9948
 20
114.2519
 11
-59.5166
 21
114.1060
  0
LINE
  8
8
 10
-59.0316
 20
117.4095
 11
-58.9398
 21
120.7101
  0
LINE
  8
8
 10
-58.5500
 20
117.2742
 11
-59.5166
 21
114.1060
  0
LINE
  8
8
 10
-58.5320
 20
117.3856
 11
-58.4403
 21
120.6962
  0
LINE
  8
8
 10
-58.9398
 20
120.7101
 11
-58.4403
 21
120.6962
  0
ENDBLK
  0
BLOCK
  8
0
  2
LDM000222D-VS-F-BK_56
 70
64
 10
0.0000
 20
0.0000
  0
TEXT
  8
1
 10
-78.4716
 20
120.9501
 40
0.250
 50
0.0000
  1
Piece Name: LDM000222D-VS-F-BK
  7
STANDARD
  0
TEXT
  8
1
 10
-78.4716
 20
121.0901
 40
0.250
 50
0.0000
  1
SIZE: 56
  7
STANDARD
  0
POLYLINE
  8
1
 66
1
 70
1
  0
VERTEX
  8
1
 10
-74.2162
 20
132.5520
  0
VERTEX
  8
1
 10
-74.0439
 20
132.3710
  0
VERTEX
  8
1
 10
-73.5258
 20
131.4758
  0
VERTEX
  8
1
 10
-72.1688
 20
129.6905
  0
VERTEX
  8
1
 10
-69.9502
 20
128.2159
  0
VERTEX
  8
1
 10
-67.0611
 20
127.2647
  0
VERTEX
  8
1
 10
-64.5909
 20
126.6607
  0
VERTEX
  8
1
 10
-54.6686
 20
124.6399
  0
VERTEX
  8
1
 10
-54.6686
 20
124.6399
  0
VERTEX
  8
1
 10
-55.4291
 20
121.8563
  0
VERTEX
  8
1
 10
-55.7670
 20
119.8426
  0
VERTEX
  8
1
 10
-56.0285
 20
117.2618
  0
VERTEX
  8
1
 10
-56.0285
 20
117.2618
  0
VERTEX
  8
1
 10
-58.7893
 20
117.3114
  0
VERTEX
  8
1
 10
-58.7893
 20
117.3114
  0
VERTEX
  8
1
 10
-56.1666
 20
116.4475
  0
VERTEX
  8
1
 10
-56.1666
 20
116.4475
  0
VERTEX
  8
1
 10
-56.7267
 20
114.3482
  0
VERTEX
  8
1
 10
-57.1149
 20
111.9476
  0
VERTEX
  8
1
 10
-57.3199
 20
109.3483
  0
VERTEX
  8
1
 10
-57.3199
 20
109.3483
  0
VERTEX
  8
1
 10
-61.2471
 20
109.5393
  0
VERTEX
  8
1
 10
-65.9615
 20
110.1254
  0
VERTEX
  8
1
 10
-73.5815
 20
111.0632
  0
VERTEX
  8
1
 10
-73.5815
 20
111.0632
  0
VERTEX
  8
1
 10
-77.9548
 20
111.7211
  0
VERTEX
  8
1
 10
-86.3487
 20
112.7741
  0
VERTEX
  8
1
 10
-86.3487
 20
112.7741
  0
VERTEX
  8
1
 10
-102.2746
 20
114.1191
  0
VERTEX
  8
1
 10
-102.2746
 20
114.1191
  0
VERTEX
  8
1
 10
-102.2270
 20
125.5741
  0
VERTEX
  8
1
 10
-102.2270
 20
125.5741
  0
VERTEX
  8
1
 10
-86.3387
 20
126.9091
  0
VERTEX
  8
1
 10
-86.3387
 20
126.9091
  0
VERTEX
  8
1
 10
-78.3450
 20
129.5789
  0
VERTEX
  8
1
 10
-74.9679
 20
131.8942
  0
VERTEX
  8
1
 10
-74.2162
 20
132.5520
  0
SEQEND
  8
1
  0
LINE
  8
7
 10
-91.9922
 20
120.2541
 11
-70.9657
 21
120.2541
  0
LINE
  8
5
 10
-91.9922
 20
120.2541
 11
-70.9657
 21
120.2541
  0
LINE
  8
8
 10
-86.3487
 20
112.7741
 11
-86.3387
 21
126.9091
  0
LINE
  8
8
 10
-77.9548
 20
111.7211
 11
-78.3450
 21
129.5789
  0
LINE
  8
8
 10
-74.9679
 20
131.8942
 11
-73.5815
 21
111.0632
  0
LINE
  8
8
 10
-65.9615
 20
110.1254
 11
-64.5909
 21
126.6607
  0
LINE
  8
8
 10
-58.9139
 20
117.3325
 11
-59.9372
 21
113.9943
  0
LINE
  8
8
 10
-59.9372
 20
113.9943
 11
-59.4591
 21
113.8477
  0
LINE
  8
8
 10
-58.9139
 20
117.3325
 11
-58.7721
 21
120.8277
  0
LINE
  8
8
 10
-58.4332
 20
117.1938
 11
-59.4591
 21
113.8477
  0
LINE
  8
8
 10
-58.4144
 20
117.3051
 11
-58.2727
 21
120.8075
  0
LINE
  8
8
 10
-58.7721
 20
120.8277
 11
-58.2727
 21
120.8075
  0
ENDBLK
  0
BLOCK
  8
0
  2
LDM000222D-VS-F-BK_58
 70
64
 10
0.0000
 20
0.0000
  0
TEXT
  8
1
 10
-78.4716
 20
120.9501
 40
0.250
 50
0.0000
  1
Piece Name: LDM000222D-VS-F-BK
  7
STANDARD
  0
TEXT
  8
1
 10
-78.4716
 20
121.0901
 40
0.250
 50
0.0000
  1
SIZE: 58
  7
STANDARD
  0
POLYLINE
  8
1
 66
1
 70
1
  0
VERTEX
  8
1
 10
-74.5874
 20
132.8576
  0
VERTEX
  8
1
 10
-74.4125
 20
132.6791
  0
VERTEX
  8
1
 10
-73.8499
 20
131.7439
  0
VERTEX
  8
1
 10
-72.3861
 20
129.8848
  0
VERTEX
  8
1
 10
-70.0190
 20
128.3689
  0
VERTEX
  8
1
 10
-66.9540
 20
127.4175
  0
VERTEX
  8
1
 10
-64.3370
 20
126.8245
  0
VERTEX
  8
1
 10
-54.4135
 20
124.8480
  0
VERTEX
  8
1
 10
-54.4135
 20
124.8480
  0
VERTEX
  8
1
 10
-55.1744
 20
121.9779
  0
VERTEX
  8
1
 10
-55.5065
 20
119.9033
  0
VERTEX
  8
1
 10
-55.7556
 20
117.2457
  0
VERTEX
  8
1
 10
-55.7556
 20
117.2457
  0
VERTEX
  8
1
 10
-58.5167
 20
117.2726
  0
VERTEX
  8
1
 10
-58.5167
 20
117.2726
  0
VERTEX
  8
1
 10
-55.8870
 20
116.4304
  0
VERTEX
  8
1
 10
-55.8870
 20
116.4304
  0
VERTEX
  8
1
 10
-56.4464
 20
114.2435
  0
VERTEX
  8
1
 10
-56.8239
 20
111.7453
  0
VERTEX
  8
1
 10
-57.0090
 20
109.0427
  0
VERTEX
  8
1
 10
-57.0090
 20
109.0427
  0
VERTEX
  8
1
 10
-60.9222
 20
109.2617
  0
VERTEX
  8
1
 10
-65.6172
 20
109.8802
  0
VERTEX
  8
1
 10
-73.8639
 20
110.8755
  0
VERTEX
  8
1
 10
-73.8639
 20
110.8755
  0
VERTEX
  8
1
 10
-78.2131
 20
111.5409
  0
VERTEX
  8
1
 10
-86.6069
 20
112.6239
  0
VERTEX
  8
1
 10
-86.6069
 20
112.6239
  0
VERTEX
  8
1
 10
-102.5298
 20
113.9999
  0
VERTEX
  8
1
 10
-102.5298
 20
113.9999
  0
VERTEX
  8
1
 10
-102.4770
 20
125.6429
  0
VERTEX
  8
1
 10
-102.4770
 20
125.6429
  0
VERTEX
  8
1
 10
-86.5969
 20
127.0089
  0
VERTEX
  8
1
 10
-86.5969
 20
127.0089
  0
VERTEX
  8
1
 10
-78.6032
 20
129.8677
  0
VERTEX
  8
1
 10
-75.3293
 20
132.1889
  0
VERTEX
  8
1
 10
-74.5874
 20
132.8576
  0
SEQEND
  8
1
  0
LINE
  8
7
 10
-92.2745
 20
120.2289
 11
-71.2481
 21
120.2289
  0
LINE
  8
5
 10
-92.2745
 20
120.2289
 11
-71.2481
 21
120.2289
  0
LINE
  8
8
 10
-86.6069
 20
112.6239
 11
-86.5969
 21
127.0089
  0
LINE
  8
8
 10
-78.2131
 20
111.5409
 11
-78.6032
 21
129.8677
  0
LINE
  8
8
 10
-75.3293
 20
132.1889
 11
-73.8639
 21
110.8755
  0
LINE
  8
8
 10
-65.6172
 20
109.8802
 11
-64.3370
 21
126.8245
  0
LINE
  8
8
 10
-58.6415
 20
117.2926
 11
-59.6378
 21
113.9463
  0
LINE
  8
8
 10
-59.6378
 20
113.9463
 11
-59.1585
 21
113.8036
  0
LINE
  8
8
 10
-58.6415
 20
117.2926
 11
-58.5308
 21
120.7847
  0
LINE
  8
8
 10
-58.1596
 20
117.1579
 11
-59.1585
 21
113.8036
  0
LINE
  8
8
 10
-58.1418
 20
117.2694
 11
-58.0312
 21
120.7689
  0
LINE
  8
8
 10
-58.5308
 20
120.7847
 11
-58.0312
 21
120.7689
  0
ENDBLK
  0
BLOCK
  8
0
  2
LDM000222D-VS-F-BK_60
 70
64
 10
0.0000
 20
0.0000
  0
TEXT
  8
1
 10
-78.4716
 20
120.9501
 40
0.250
 50
0.0000
  1
Piece Name: LDM000222D-VS-F-BK
  7
STANDARD
  0
TEXT
  8
1
 10
-78.4716
 20
121.0901
 40
0.250
 50
0.0000
  1
SIZE: 60
  7
STANDARD
  0
POLYLINE
  8
1
 66
1
 70
1
  0
VERTEX
  8
1
 10
-74.9322
 20
133.1585
  0
VERTEX
  8
1
 10
-74.7529
 20
132.9845
  0
VERTEX
  8
1
 10
-74.1818
 20
132.0282
  0
VERTEX
  8
1
 10
-72.6940
 20
130.1260
  0
VERTEX
  8
1
 10
-70.2832
 20
128.5711
  0
VERTEX
  8
1
 10
-67.1581
 20
127.5898
  0
VERTEX
  8
1
 10
-64.4893
 20
126.9760
  0
VERTEX
  8
1
 10
-54.1882
 20
125.0223
  0
VERTEX
  8
1
 10
-54.1882
 20
125.0223
  0
VERTEX
  8
1
 10
-54.9999
 20
122.0510
  0
VERTEX
  8
1
 10
-55.3606
 20
119.9016
  0
VERTEX
  8
1
 10
-55.6397
 20
117.1468
  0
VERTEX
  8
1
 10
-55.6397
 20
117.1468
  0
VERTEX
  8
1
 10
-58.4006
 20
117.1928
  0
VERTEX
  8
1
 10
-58.4006
 20
117.1928
  0
VERTEX
  8
1
 10
-55.7767
 20
116.3324
  0
VERTEX
  8
1
 10
-55.7767
 20
116.3324
  0
VERTEX
  8
1
 10
-56.3644
 20
114.0867
  0
VERTEX
  8
1
 10
-56.7669
 20
111.5198
  0
VERTEX
  8
1
 10
-56.9726
 20
108.7417
  0
VERTEX
  8
1
 10
-56.9726
 20
108.7417
  0
VERTEX
  8
1
 10
-61.0413
 20
108.9777
  0
VERTEX
  8
1
 10
-65.9221
 20
109.6305
  0
VERTEX
  8
1
 10
-74.1098
 20
110.6830
  0
VERTEX
  8
1
 10
-74.1098
 20
110.6830
  0
VERTEX
  8
1
 10
-78.4509
 20
111.3562
  0
VERTEX
  8
1
 10
-86.8351
 20
112.4692
  0
VERTEX
  8
1
 10
-86.8351
 20
112.4692
  0
VERTEX
  8
1
 10
-102.7550
 20
113.8762
  0
VERTEX
  8
1
 10
-102.7550
 20
113.8762
  0
VERTEX
  8
1
 10
-102.6991
 20
125.7072
  0
VERTEX
  8
1
 10
-102.6991
 20
125.7072
  0
VERTEX
  8
1
 10
-86.8251
 20
127.1042
  0
VERTEX
  8
1
 10
-86.8251
 20
127.1042
  0
VERTEX
  8
1
 10
-78.8411
 20
130.0900
  0
VERTEX
  8
1
 10
-75.6570
 20
132.4713
  0
VERTEX
  8
1
 10
-74.9322
 20
133.1585
  0
SEQEND
  8
1
  0
LINE
  8
7
 10
-92.5205
 20
120.1992
 11
-71.4940
 21
120.1992
  0
LINE
  8
5
 10
-92.5205
 20
120.1992
 11
-71.4940
 21
120.1992
  0
LINE
  8
8
 10
-86.8351
 20
112.4692
 11
-86.8251
 21
127.1042
  0
LINE
  8
8
 10
-78.4509
 20
111.3562
 11
-78.8411
 21
130.0900
  0
LINE
  8
8
 10
-75.6570
 20
132.4713
 11
-74.1098
 21
110.6830
  0
LINE
  8
8
 10
-65.9221
 20
109.6305
 11
-64.4893
 21
126.9760
  0
LINE
  8
8
 10
-58.5252
 20
117.2136
 11
-59.5462
 21
113.8751
  0
LINE
  8
8
 10
-59.5462
 20
113.8751
 11
-59.0680
 21
113.7288
  0
LINE
  8
8
 10
-58.5252
 20
117.2136
 11
-58.3919
 21
120.7076
  0
LINE
  8
8
 10
-58.0443
 20
117.0756
 11
-59.0680
 21
113.7288
  0
LINE
  8
8
 10
-58.0256
 20
117.1870
 11
-57.8924
 21
120.6886
  0
LINE
  8
8
 10
-58.3919
 20
120.7076
 11
-57.8924
 21
120.6886
  0
ENDBLK
  0
ENDSEC
  0
SECTION
  2
ENTITIES
  0
TEXT
  8
1
 10
0.0000
 20
0.0000
 40
0.250
 50
0.0000
  1
Style Name: L70X- LDM000222D-VS
  7
STANDARD
  0
TEXT
  8
1
 10
0.0000
 20
0.1400
 40
0.250
 50
0.0000
  1
Creation Date: 13-01-2021
  7
STANDARD
  0
TEXT
  8
1
 10
0.0000
 20
0.2800
 40
0.250
 50
0.0000
  1
Creation Time: 14:09
  7
STANDARD
  0
TEXT
  8
1
 10
0.0000
 20
0.4200
 40
0.250
 50
0.0000
  1
Author: GERBER TECHNOLOGY
  7
STANDARD
  0
TEXT
  8
1
 10
0.0000
 20
0.5600
 40
0.250
 50
0.0000
  1
PRODUCT: ACCUMARK
  7
STANDARD
  0
TEXT
  8
1
 10
0.0000
 20
0.7000
 40
0.250
 50
0.0000
  1
VERSION: 12.2.0
  7
STANDARD
  0
TEXT
  8
1
 10
0.0000
 20
0.8400
 40
0.250
 50
0.0000
  1
Sample Size: 32
  7
STANDARD
  0
TEXT
  8
1
 10
0.0000
 20
0.9800
 40
0.250
 50
0.0000
  1
Units: ENGLISH
  7
STANDARD
  0
TEXT
  8
1
 10
0.0000
 20
1.1200
 40
0.250
 50
0.0000
  1
TOLERANCE: .006
  7
STANDARD
  0
INSERT
  8
1
  2
LDM000222D-VS-WB_22
 10
0.0000
 20
0.0000
  0
INSERT
  8
1
  2
LDM000222D-VS-WB_23
 10
0.0000
 20
0.0000
  0
INSERT
  8
1
  2
LDM000222D-VS-WB_24
 10
0.0000
 20
0.0000
  0
INSERT
  8
1
  2
LDM000222D-VS-WB_25
 10
0.0000
 20
0.0000
  0
INSERT
  8
1
  2
LDM000222D-VS-WB_26
 10
0.0000
 20
0.0000
  0
INSERT
  8
1
  2
LDM000222D-VS-WB_27
 10
0.0000
 20
0.0000
  0
INSERT
  8
1
  2
LDM000222D-VS-WB_28
 10
0.0000
 20
0.0000
  0
INSERT
  8
1
  2
LDM000222D-VS-WB_29
 10
0.0000
 20
0.0000
  0
INSERT
  8
1
  2
LDM000222D-VS-WB_30
 10
0.0000
 20
0.0000
  0
INSERT
  8
1
  2
LDM000222D-VS-WB_31
 10
0.0000
 20
0.0000
  0
INSERT
  8
1
  2
LDM000222D-VS-WB_32
 10
0.0000
 20
0.0000
  0
INSERT
  8
1
  2
LDM000222D-VS-WB_33
 10
0.0000
 20
0.0000
  0
INSERT
  8
1
  2
LDM000222D-VS-WB_34
 10
0.0000
 20
0.0000
  0
INSERT
  8
1
  2
LDM000222D-VS-WB_35
 10
0.0000
 20
0.0000
  0
INSERT
  8
1
  2
LDM000222D-VS-WB_36
 10
0.0000
 20
0.0000
  0
INSERT
  8
1
  2
LDM000222D-VS-WB_37
 10
0.0000
 20
0.0000
  0
INSERT
  8
1
  2
LDM000222D-VS-WB_38
 10
0.0000
 20
0.0000
  0
INSERT
  8
1
  2
LDM000222D-VS-WB_40
 10
0.0000
 20
0.0000
  0
INSERT
  8
1
  2
LDM000222D-VS-WB_42
 10
0.0000
 20
0.0000
  0
INSERT
  8
1
  2
LDM000222D-VS-WB_44
 10
0.0000
 20
0.0000
  0
INSERT
  8
1
  2
LDM000222D-VS-WB_46
 10
0.0000
 20
0.0000
  0
INSERT
  8
1
  2
LDM000222D-VS-WB_48
 10
0.0000
 20
0.0000
  0
INSERT
  8
1
  2
LDM000222D-VS-WB_50
 10
0.0000
 20
0.0000
  0
INSERT
  8
1
  2
LDM000222D-VS-WB_52
 10
0.0000
 20
0.0000
  0
INSERT
  8
1
  2
LDM000222D-VS-WB_54
 10
0.0000
 20
0.0000
  0
INSERT
  8
1
  2
LDM000222D-VS-WB_56
 10
0.0000
 20
0.0000
  0
INSERT
  8
1
  2
LDM000222D-VS-WB_58
 10
0.0000
 20
0.0000
  0
INSERT
  8
1
  2
LDM000222D-VS-WB_60
 10
0.0000
 20
0.0000
  0
INSERT
  8
1
  2
LDM000222D-VS-F-FR_22
 10
0.0000
 20
0.0000
  0
INSERT
  8
1
  2
LDM000222D-VS-F-FR_23
 10
0.0000
 20
0.0000
  0
INSERT
  8
1
  2
LDM000222D-VS-F-FR_24
 10
0.0000
 20
0.0000
  0
INSERT
  8
1
  2
LDM000222D-VS-F-FR_25
 10
0.0000
 20
0.0000
  0
INSERT
  8
1
  2
LDM000222D-VS-F-FR_26
 10
0.0000
 20
0.0000
  0
INSERT
  8
1
  2
LDM000222D-VS-F-FR_27
 10
0.0000
 20
0.0000
  0
INSERT
  8
1
  2
LDM000222D-VS-F-FR_28
 10
0.0000
 20
0.0000
  0
INSERT
  8
1
  2
LDM000222D-VS-F-FR_29
 10
0.0000
 20
0.0000
  0
INSERT
  8
1
  2
LDM000222D-VS-F-FR_30
 10
0.0000
 20
0.0000
  0
INSERT
  8
1
  2
LDM000222D-VS-F-FR_31
 10
0.0000
 20
0.0000
  0
INSERT
  8
1
  2
LDM000222D-VS-F-FR_32
 10
0.0000
 20
0.0000
  0
INSERT
  8
1
  2
LDM000222D-VS-F-FR_33
 10
0.0000
 20
0.0000
  0
INSERT
  8
1
  2
LDM000222D-VS-F-FR_34
 10
0.0000
 20
0.0000
  0
INSERT
  8
1
  2
LDM000222D-VS-F-FR_35
 10
0.0000
 20
0.0000
  0
INSERT
  8
1
  2
LDM000222D-VS-F-FR_36
 10
0.0000
 20
0.0000
  0
INSERT
  8
1
  2
LDM000222D-VS-F-FR_37
 10
0.0000
 20
0.0000
  0
INSERT
  8
1
  2
LDM000222D-VS-F-FR_38
 10
0.0000
 20
0.0000
  0
INSERT
  8
1
  2
LDM000222D-VS-F-FR_40
 10
0.0000
 20
0.0000
  0
INSERT
  8
1
  2
LDM000222D-VS-F-FR_42
 10
0.0000
 20
0.0000
  0
INSERT
  8
1
  2
LDM000222D-VS-F-FR_44
 10
0.0000
 20
0.0000
  0
INSERT
  8
1
  2
LDM000222D-VS-F-FR_46
 10
0.0000
 20
0.0000
  0
INSERT
  8
1
  2
LDM000222D-VS-F-FR_48
 10
0.0000
 20
0.0000
  0
INSERT
  8
1
  2
LDM000222D-VS-F-FR_50
 10
0.0000
 20
0.0000
  0
INSERT
  8
1
  2
LDM000222D-VS-F-FR_52
 10
0.0000
 20
0.0000
  0
INSERT
  8
1
  2
LDM000222D-VS-F-FR_54
 10
0.0000
 20
0.0000
  0
INSERT
  8
1
  2
LDM000222D-VS-F-FR_56
 10
0.0000
 20
0.0000
  0
INSERT
  8
1
  2
LDM000222D-VS-F-FR_58
 10
0.0000
 20
0.0000
  0
INSERT
  8
1
  2
LDM000222D-VS-F-FR_60
 10
0.0000
 20
0.0000
  0
INSERT
  8
1
  2
LDM000222D-VS-F-BK_22
 10
0.0000
 20
0.0000
  0
INSERT
  8
1
  2
LDM000222D-VS-F-BK_23
 10
0.0000
 20
0.0000
  0
INSERT
  8
1
  2
LDM000222D-VS-F-BK_24
 10
0.0000
 20
0.0000
  0
INSERT
  8
1
  2
LDM000222D-VS-F-BK_25
 10
0.0000
 20
0.0000
  0
INSERT
  8
1
  2
LDM000222D-VS-F-BK_26
 10
0.0000
 20
0.0000
  0
INSERT
  8
1
  2
LDM000222D-VS-F-BK_27
 10
0.0000
 20
0.0000
  0
INSERT
  8
1
  2
LDM000222D-VS-F-BK_28
 10
0.0000
 20
0.0000
  0
INSERT
  8
1
  2
LDM000222D-VS-F-BK_29
 10
0.0000
 20
0.0000
  0
INSERT
  8
1
  2
LDM000222D-VS-F-BK_30
 10
0.0000
 20
0.0000
  0
INSERT
  8
1
  2
LDM000222D-VS-F-BK_31
 10
0.0000
 20
0.0000
  0
INSERT
  8
1
  2
LDM000222D-VS-F-BK_32
 10
0.0000
 20
0.0000
  0
INSERT
  8
1
  2
LDM000222D-VS-F-BK_33
 10
0.0000
 20
0.0000
  0
INSERT
  8
1
  2
LDM000222D-VS-F-BK_34
 10
0.0000
 20
0.0000
  0
INSERT
  8
1
  2
LDM000222D-VS-F-BK_35
 10
0.0000
 20
0.0000
  0
INSERT
  8
1
  2
LDM000222D-VS-F-BK_36
 10
0.0000
 20
0.0000
  0
INSERT
  8
1
  2
LDM000222D-VS-F-BK_37
 10
0.0000
 20
0.0000
  0
INSERT
  8
1
  2
LDM000222D-VS-F-BK_38
 10
0.0000
 20
0.0000
  0
INSERT
  8
1
  2
LDM000222D-VS-F-BK_40
 10
0.0000
 20
0.0000
  0
INSERT
  8
1
  2
LDM000222D-VS-F-BK_42
 10
0.0000
 20
0.0000
  0
INSERT
  8
1
  2
LDM000222D-VS-F-BK_44
 10
0.0000
 20
0.0000
  0
INSERT
  8
1
  2
LDM000222D-VS-F-BK_46
 10
0.0000
 20
0.0000
  0
INSERT
  8
1
  2
LDM000222D-VS-F-BK_48
 10
0.0000
 20
0.0000
  0
INSERT
  8
1
  2
LDM000222D-VS-F-BK_50
 10
0.0000
 20
0.0000
  0
INSERT
  8
1
  2
LDM000222D-VS-F-BK_52
 10
0.0000
 20
0.0000
  0
INSERT
  8
1
  2
LDM000222D-VS-F-BK_54
 10
0.0000
 20
0.0000
  0
INSERT
  8
1
  2
LDM000222D-VS-F-BK_56
 10
0.0000
 20
0.0000
  0
INSERT
  8
1
  2
LDM000222D-VS-F-BK_58
 10
0.0000
 20
0.0000
  0
INSERT
  8
1
  2
LDM000222D-VS-F-BK_60
 10
0.0000
 20
0.0000
  0
ENDSEC
  0
EOF
