  0
SECTION
  2
HEADER
  0
ENDSEC
  0
SECTION
  2
BLOCKS
  0
BLOCK
  8
0
  2
SLEEVE_L1
 70
64
 10
0.0000
 20
0.0000
  0
TEXT
  8
1
 10
21.2913
 20
-32.4949
 40
0.1400
 50
0.0000
  1
Piece Name:SLEEVE
  7
STANDARD
  0
TEXT
  8
1
 10
21.2913
 20
-32.3349
 40
0.1400
 50
0.0000
  1
SAMPLE SIZE:L
  7
STANDARD
  0
TEXT
  8
1
 10
21.2913
 20
-32.1749
 40
0.1400
 50
0.0000
  1
ANNOTATION:
  7
STANDARD
  0
TEXT
  8
1
 10
21.2913
 20
-32.0149
 40
0.1400
 50
0.0000
  1
CATEGORY: 
  7
STANDARD
  0
TEXT
  8
1
 10
21.2913
 20
-31.8549
 40
0.1400
 50
0.0000
  1
QUANTITY: 2
  7
STANDARD
  0
POLYLINE
  8
1
 66
1
 70
1
  0
VERTEX
  8
1
 10
20.7252
 20
-23.4008
  0
VERTEX
  8
1
 10
21.6654
 20
-25.9315
  0
VERTEX
  8
1
 10
22.4795
 20
-26.9114
  0
VERTEX
  8
1
 10
23.0835
 20
-27.4827
  0
VERTEX
  8
1
 10
24.9728
 20
-29.2043
  0
VERTEX
  8
1
 10
26.2665
 20
-31.9933
  0
VERTEX
  8
1
 10
26.2870
 20
-32.3004
  0
VERTEX
  8
1
 10
26.2890
 20
-32.4941
  0
VERTEX
  8
1
 10
26.1921
 20
-33.5996
  0
VERTEX
  8
1
 10
25.0291
 20
-35.8032
  0
VERTEX
  8
1
 10
22.7969
 20
-38.0110
  0
VERTEX
  8
1
 10
22.5118
 20
-38.3016
  0
VERTEX
  8
1
 10
22.3598
 20
-38.4650
  0
VERTEX
  8
1
 10
21.2425
 20
-40.0488
  0
VERTEX
  8
1
 10
20.7276
 20
-41.5890
  0
VERTEX
  8
1
 10
16.2906
 20
-39.9961
  0
VERTEX
  8
1
 10
16.2898
 20
-32.4957
  0
VERTEX
  8
1
 10
16.2886
 20
-24.9953
  0
VERTEX
  8
1
 10
20.7252
 20
-23.4008
  0
SEQEND
  0
POLYLINE
  8
84
 66
1
 70
1
  0
VERTEX
  8
84
 10
20.7252
 20
-23.4008
  0
VERTEX
  8
84
 10
20.7508
 20
-23.5772
  0
VERTEX
  8
84
 10
20.7807
 20
-23.7512
  0
VERTEX
  8
84
 10
20.8150
 20
-23.9224
  0
VERTEX
  8
84
 10
20.8539
 20
-24.0917
  0
VERTEX
  8
84
 10
20.8972
 20
-24.2583
  0
VERTEX
  8
84
 10
20.9449
 20
-24.4224
  0
VERTEX
  8
84
 10
20.9969
 20
-24.5843
  0
VERTEX
  8
84
 10
21.0535
 20
-24.7437
  0
VERTEX
  8
84
 10
21.1146
 20
-24.9008
  0
VERTEX
  8
84
 10
21.1799
 20
-25.0551
  0
VERTEX
  8
84
 10
21.2496
 20
-25.2075
  0
VERTEX
  8
84
 10
21.3240
 20
-25.3571
  0
VERTEX
  8
84
 10
21.4028
 20
-25.5043
  0
VERTEX
  8
84
 10
21.4858
 20
-25.6492
  0
VERTEX
  8
84
 10
21.5732
 20
-25.7913
  0
VERTEX
  8
84
 10
21.6654
 20
-25.9315
  0
VERTEX
  8
84
 10
21.8394
 20
-26.1744
  0
VERTEX
  8
84
 10
22.0327
 20
-26.4181
  0
VERTEX
  8
84
 10
22.2457
 20
-26.6634
  0
VERTEX
  8
84
 10
22.4795
 20
-26.9114
  0
VERTEX
  8
84
 10
22.7657
 20
-27.1925
  0
VERTEX
  8
84
 10
23.0835
 20
-27.4827
  0
VERTEX
  8
84
 10
23.3528
 20
-27.7161
  0
VERTEX
  8
84
 10
24.0055
 20
-28.2685
  0
VERTEX
  8
84
 10
24.3319
 20
-28.5567
  0
VERTEX
  8
84
 10
24.5130
 20
-28.7256
  0
VERTEX
  8
84
 10
24.6783
 20
-28.8878
  0
VERTEX
  8
84
 10
24.8311
 20
-29.0469
  0
VERTEX
  8
84
 10
24.9728
 20
-29.2043
  0
VERTEX
  8
84
 10
25.1059
 20
-29.3622
  0
VERTEX
  8
84
 10
25.2331
 20
-29.5244
  0
VERTEX
  8
84
 10
25.3543
 20
-29.6906
  0
VERTEX
  8
84
 10
25.4689
 20
-29.8598
  0
VERTEX
  8
84
 10
25.5772
 20
-30.0315
  0
VERTEX
  8
84
 10
25.6783
 20
-30.2059
  0
VERTEX
  8
84
 10
25.7724
 20
-30.3823
  0
VERTEX
  8
84
 10
25.8587
 20
-30.5598
  0
VERTEX
  8
84
 10
25.9374
 20
-30.7386
  0
VERTEX
  8
84
 10
26.0087
 20
-30.9177
  0
VERTEX
  8
84
 10
26.0717
 20
-31.0976
  0
VERTEX
  8
84
 10
26.1268
 20
-31.2776
  0
VERTEX
  8
84
 10
26.1740
 20
-31.4575
  0
VERTEX
  8
84
 10
26.2130
 20
-31.6366
  0
VERTEX
  8
84
 10
26.2441
 20
-31.8154
  0
VERTEX
  8
84
 10
26.2665
 20
-31.9933
  0
VERTEX
  8
84
 10
26.2795
 20
-32.1445
  0
VERTEX
  8
84
 10
26.2870
 20
-32.3004
  0
VERTEX
  8
84
 10
26.2890
 20
-32.4941
  0
VERTEX
  8
84
 10
26.2937
 20
-32.6358
  0
VERTEX
  8
84
 10
26.2933
 20
-32.7764
  0
VERTEX
  8
84
 10
26.2886
 20
-32.9161
  0
VERTEX
  8
84
 10
26.2787
 20
-33.0547
  0
VERTEX
  8
84
 10
26.2642
 20
-33.1925
  0
VERTEX
  8
84
 10
26.2449
 20
-33.3291
  0
VERTEX
  8
84
 10
26.2209
 20
-33.4650
  0
VERTEX
  8
84
 10
26.1921
 20
-33.5996
  0
VERTEX
  8
84
 10
26.1579
 20
-33.7358
  0
VERTEX
  8
84
 10
26.1185
 20
-33.8728
  0
VERTEX
  8
84
 10
26.0736
 20
-34.0098
  0
VERTEX
  8
84
 10
26.0240
 20
-34.1476
  0
VERTEX
  8
84
 10
25.9689
 20
-34.2854
  0
VERTEX
  8
84
 10
25.9087
 20
-34.4232
  0
VERTEX
  8
84
 10
25.8433
 20
-34.5614
  0
VERTEX
  8
84
 10
25.7728
 20
-34.7000
  0
VERTEX
  8
84
 10
25.6968
 20
-34.8386
  0
VERTEX
  8
84
 10
25.6161
 20
-34.9772
  0
VERTEX
  8
84
 10
25.5307
 20
-35.1154
  0
VERTEX
  8
84
 10
25.4402
 20
-35.2535
  0
VERTEX
  8
84
 10
25.3445
 20
-35.3917
  0
VERTEX
  8
84
 10
25.2441
 20
-35.5295
  0
VERTEX
  8
84
 10
25.1390
 20
-35.6665
  0
VERTEX
  8
84
 10
25.0291
 20
-35.8032
  0
VERTEX
  8
84
 10
24.8717
 20
-35.9890
  0
VERTEX
  8
84
 10
24.7020
 20
-36.1776
  0
VERTEX
  8
84
 10
24.5185
 20
-36.3717
  0
VERTEX
  8
84
 10
24.3177
 20
-36.5744
  0
VERTEX
  8
84
 10
24.0008
 20
-36.8803
  0
VERTEX
  8
84
 10
23.1165
 20
-37.7028
  0
VERTEX
  8
84
 10
22.7969
 20
-38.0110
  0
VERTEX
  8
84
 10
22.5118
 20
-38.3016
  0
VERTEX
  8
84
 10
22.3598
 20
-38.4650
  0
VERTEX
  8
84
 10
22.1862
 20
-38.6614
  0
VERTEX
  8
84
 10
22.0220
 20
-38.8583
  0
VERTEX
  8
84
 10
21.8677
 20
-39.0559
  0
VERTEX
  8
84
 10
21.7232
 20
-39.2539
  0
VERTEX
  8
84
 10
21.5882
 20
-39.4520
  0
VERTEX
  8
84
 10
21.4634
 20
-39.6508
  0
VERTEX
  8
84
 10
21.3480
 20
-39.8496
  0
VERTEX
  8
84
 10
21.2425
 20
-40.0488
  0
VERTEX
  8
84
 10
21.1547
 20
-40.2311
  0
VERTEX
  8
84
 10
21.0736
 20
-40.4161
  0
VERTEX
  8
84
 10
20.9992
 20
-40.6043
  0
VERTEX
  8
84
 10
20.9315
 20
-40.7953
  0
VERTEX
  8
84
 10
20.8705
 20
-40.9894
  0
VERTEX
  8
84
 10
20.8161
 20
-41.1862
  0
VERTEX
  8
84
 10
20.7685
 20
-41.3862
  0
VERTEX
  8
84
 10
20.7276
 20
-41.5890
  0
VERTEX
  8
84
 10
16.2906
 20
-39.9961
  0
VERTEX
  8
84
 10
16.2898
 20
-32.4957
  0
VERTEX
  8
84
 10
16.2886
 20
-24.9953
  0
VERTEX
  8
84
 10
20.7252
 20
-23.4008
  0
SEQEND
  0
POINT
  8
2
 10
20.7252
 20
-23.4008
  0
TEXT
  8
1
 10
20.7252
 20
-23.4008
 40
0.1400
  1
# 1
  7
STANDARD
  0
POINT
  8
3
 10
21.6654
 20
-25.9315
  0
POINT
  8
3
 10
22.4795
 20
-26.9114
  0
POINT
  8
3
 10
23.0835
 20
-27.4827
  0
POINT
  8
3
 10
24.9728
 20
-29.2043
  0
POINT
  8
3
 10
26.2665
 20
-31.9933
  0
POINT
  8
3
 10
26.2870
 20
-32.3004
  0
TEXT
  8
1
 10
26.2870
 20
-32.3004
 40
0.1400
  1
# 2
  7
STANDARD
  0
POINT
  8
2
 10
26.2890
 20
-32.4941
  0
TEXT
  8
1
 10
26.2890
 20
-32.4941
 40
0.1400
  1
# 3
  7
STANDARD
  0
POINT
  8
3
 10
26.1921
 20
-33.5996
  0
POINT
  8
3
 10
25.0291
 20
-35.8032
  0
POINT
  8
3
 10
22.7969
 20
-38.0110
  0
POINT
  8
3
 10
22.5118
 20
-38.3016
  0
POINT
  8
3
 10
22.3598
 20
-38.4650
  0
POINT
  8
3
 10
21.2425
 20
-40.0488
  0
POINT
  8
2
 10
20.7276
 20
-41.5890
  0
TEXT
  8
1
 10
20.7276
 20
-41.5890
 40
0.1400
  1
# 4
  7
STANDARD
  0
POINT
  8
2
 10
16.2906
 20
-39.9961
  0
TEXT
  8
1
 10
16.2906
 20
-39.9961
 40
0.1400
  1
# 5
  7
STANDARD
  0
POINT
  8
2
 10
16.2898
 20
-32.4957
  0
TEXT
  8
1
 10
16.2898
 20
-32.4957
 40
0.1400
  1
# 6
  7
STANDARD
  0
POINT
  8
2
 10
16.2886
 20
-24.9953
  0
TEXT
  8
1
 10
16.2886
 20
-24.9953
 40
0.1400
  1
# 7
  7
STANDARD
  0
POINT
  8
80
 10
22.5118
 20
-38.3016
 30
0.0984
 39
0.0984
 50
136.9415
  0
POINT
  8
80
 10
22.7969
 20
-38.0110
 30
0.0984
 39
0.0984
 50
134.3526
  0
POINT
  8
80
 10
26.2870
 20
-32.3004
 30
0.0984
 39
0.0984
 50
181.6039
  0
POINT
  8
80
 10
22.4795
 20
-26.9114
 30
0.0984
 39
0.0984
 50
225.0000
  0
LINE
  8
7
 10
17.8843
 20
-33.3787
 11
24.2587
 21
-33.3787
  0
LINE
  8
5
 10
17.8843
 20
-33.3787
 11
24.2587
 21
-33.3787
  0
POINT
  8
2
 10
17.8843
 20
-33.3787
  0
TEXT
  8
7
 10
17.8843
 20
-33.3787
 40
0.1400
  1
# 8
  7
STANDARD
  0
POINT
  8
2
 10
24.2587
 20
-33.3787
  0
TEXT
  8
7
 10
24.2587
 20
-33.3787
 40
0.1400
  1
# 9
  7
STANDARD
  0
POLYLINE
  8
8
 66
1
 70
0
  0
VERTEX
  8
8
 10
16.2898
 20
-32.4957
  0
VERTEX
  8
8
 10
26.2890
 20
-32.4941
  0
SEQEND
  0
POLYLINE
  8
85
 66
1
 70
0
  0
VERTEX
  8
85
 10
16.2898
 20
-32.4957
  0
VERTEX
  8
85
 10
26.2890
 20
-32.4941
  0
SEQEND
  0
POINT
  8
2
 10
16.2898
 20
-32.4957
  0
TEXT
  8
8
 10
16.2898
 20
-32.4957
 40
0.1400
  1
# 10
  7
STANDARD
  0
POINT
  8
2
 10
26.2890
 20
-32.4941
  0
TEXT
  8
8
 10
26.2890
 20
-32.4941
 40
0.1400
  1
# 11
  7
STANDARD
  0
POLYLINE
  8
8
 66
1
 70
0
  0
VERTEX
  8
8
 10
19.7839
 20
-23.7390
  0
VERTEX
  8
8
 10
19.7850
 20
-32.4949
  0
SEQEND
  0
POLYLINE
  8
85
 66
1
 70
0
  0
VERTEX
  8
85
 10
19.7839
 20
-23.7390
  0
VERTEX
  8
85
 10
19.7850
 20
-32.4949
  0
SEQEND
  0
POINT
  8
2
 10
19.7839
 20
-23.7390
  0
TEXT
  8
8
 10
19.7839
 20
-23.7390
 40
0.1400
  1
# 12
  7
STANDARD
  0
POINT
  8
2
 10
19.7850
 20
-32.4949
  0
TEXT
  8
8
 10
19.7850
 20
-32.4949
 40
0.1400
  1
# 13
  7
STANDARD
  0
POLYLINE
  8
8
 66
1
 70
0
  0
VERTEX
  8
8
 10
19.7858
 20
-41.2508
  0
VERTEX
  8
8
 10
19.7850
 20
-32.4949
  0
SEQEND
  0
POLYLINE
  8
85
 66
1
 70
0
  0
VERTEX
  8
85
 10
19.7858
 20
-41.2508
  0
VERTEX
  8
85
 10
19.7850
 20
-32.4949
  0
SEQEND
  0
POINT
  8
2
 10
19.7858
 20
-41.2508
  0
TEXT
  8
8
 10
19.7858
 20
-41.2508
 40
0.1400
  1
# 14
  7
STANDARD
  0
POINT
  8
2
 10
19.7850
 20
-32.4949
  0
TEXT
  8
8
 10
19.7850
 20
-32.4949
 40
0.1400
  1
# 15
  7
STANDARD
  0
TEXT
  8
15
 10
21.2913
 20
-32.1748
 40
0.14
  50
0.0000
  1

  7
STANDARD
  0
ENDBLK
  0
BLOCK
  8
0
  2
BACK_L2
 70
64
 10
0.0000
 20
0.0000
  0
TEXT
  8
1
 10
-9.4409
 20
-71.9669
 40
0.1400
 50
0.0000
  1
Piece Name:BACK
  7
STANDARD
  0
TEXT
  8
1
 10
-9.4409
 20
-71.8069
 40
0.1400
 50
0.0000
  1
SAMPLE SIZE:L
  7
STANDARD
  0
TEXT
  8
1
 10
-9.4409
 20
-71.6469
 40
0.1400
 50
0.0000
  1
ANNOTATION:
  7
STANDARD
  0
TEXT
  8
1
 10
-9.4409
 20
-71.4869
 40
0.1400
 50
0.0000
  1
CATEGORY: 
  7
STANDARD
  0
TEXT
  8
1
 10
-9.4409
 20
-71.3269
 40
0.1400
 50
0.0000
  1
QUANTITY: 1
  7
STANDARD
  0
POLYLINE
  8
1
 66
1
 70
1
  0
VERTEX
  8
1
 10
-24.6594
 20
-71.9669
  0
VERTEX
  8
1
 10
-24.6594
 20
-60.7173
  0
VERTEX
  8
1
 10
-6.6602
 20
-60.4508
  0
VERTEX
  8
1
 10
-6.3953
 20
-61.0929
  0
VERTEX
  8
1
 10
-3.6299
 20
-62.2571
  0
VERTEX
  8
1
 10
-3.2248
 20
-62.2909
  0
VERTEX
  8
1
 10
-1.6598
 20
-62.3370
  0
VERTEX
  8
1
 10
1.5012
 20
-62.2063
  0
VERTEX
  8
1
 10
3.3398
 20
-61.9669
  0
VERTEX
  8
1
 10
3.5697
 20
-61.9142
  0
VERTEX
  8
1
 10
3.8256
 20
-61.8433
  0
VERTEX
  8
1
 10
5.7768
 20
-67.8185
  0
VERTEX
  8
1
 10
5.5051
 20
-67.9831
  0
VERTEX
  8
1
 10
5.3402
 20
-68.0917
  0
VERTEX
  8
1
 10
4.8374
 20
-68.6894
  0
VERTEX
  8
1
 10
4.7843
 20
-68.8008
  0
VERTEX
  8
1
 10
4.5965
 20
-70.1134
  0
VERTEX
  8
1
 10
4.5898
 20
-70.9992
  0
VERTEX
  8
1
 10
4.5898
 20
-71.9669
  0
VERTEX
  8
1
 10
4.5898
 20
-72.9346
  0
VERTEX
  8
1
 10
4.5965
 20
-73.8205
  0
VERTEX
  8
1
 10
4.7843
 20
-75.1331
  0
VERTEX
  8
1
 10
4.8374
 20
-75.2441
  0
VERTEX
  8
1
 10
5.3402
 20
-75.8421
  0
VERTEX
  8
1
 10
5.5051
 20
-75.9508
  0
VERTEX
  8
1
 10
5.7768
 20
-76.1154
  0
VERTEX
  8
1
 10
3.8256
 20
-82.0906
  0
VERTEX
  8
1
 10
3.5697
 20
-82.0197
  0
VERTEX
  8
1
 10
3.3398
 20
-81.9669
  0
VERTEX
  8
1
 10
1.5012
 20
-81.7276
  0
VERTEX
  8
1
 10
-1.6598
 20
-81.5968
  0
VERTEX
  8
1
 10
-3.2244
 20
-81.6429
  0
VERTEX
  8
1
 10
-3.6295
 20
-81.6768
  0
VERTEX
  8
1
 10
-6.3953
 20
-82.8409
  0
VERTEX
  8
1
 10
-6.6602
 20
-83.4831
  0
VERTEX
  8
1
 10
-24.6594
 20
-83.2165
  0
VERTEX
  8
1
 10
-24.6594
 20
-71.9669
  0
SEQEND
  0
POLYLINE
  8
84
 66
1
 70
1
  0
VERTEX
  8
84
 10
-24.6594
 20
-71.9669
  0
VERTEX
  8
84
 10
-24.6594
 20
-60.7173
  0
VERTEX
  8
84
 10
-6.6602
 20
-60.4508
  0
VERTEX
  8
84
 10
-6.6390
 20
-60.5406
  0
VERTEX
  8
84
 10
-6.6146
 20
-60.6276
  0
VERTEX
  8
84
 10
-6.5862
 20
-60.7118
  0
VERTEX
  8
84
 10
-6.5551
 20
-60.7933
  0
VERTEX
  8
84
 10
-6.5201
 20
-60.8724
  0
VERTEX
  8
84
 10
-6.4819
 20
-60.9484
  0
VERTEX
  8
84
 10
-6.4402
 20
-61.0220
  0
VERTEX
  8
84
 10
-6.3953
 20
-61.0929
  0
VERTEX
  8
84
 10
-6.3091
 20
-61.2094
  0
VERTEX
  8
84
 10
-6.2114
 20
-61.3205
  0
VERTEX
  8
84
 10
-6.1020
 20
-61.4252
  0
VERTEX
  8
84
 10
-5.9815
 20
-61.5244
  0
VERTEX
  8
84
 10
-5.8492
 20
-61.6177
  0
VERTEX
  8
84
 10
-5.7055
 20
-61.7047
  0
VERTEX
  8
84
 10
-5.5504
 20
-61.7862
  0
VERTEX
  8
84
 10
-5.3835
 20
-61.8618
  0
VERTEX
  8
84
 10
-5.2059
 20
-61.9315
  0
VERTEX
  8
84
 10
-5.0165
 20
-61.9949
  0
VERTEX
  8
84
 10
-4.8157
 20
-62.0528
  0
VERTEX
  8
84
 10
-4.6031
 20
-62.1051
  0
VERTEX
  8
84
 10
-4.3791
 20
-62.1512
  0
VERTEX
  8
84
 10
-4.1429
 20
-62.1921
  0
VERTEX
  8
84
 10
-3.8937
 20
-62.2272
  0
VERTEX
  8
84
 10
-3.6299
 20
-62.2571
  0
VERTEX
  8
84
 10
-3.2248
 20
-62.2909
  0
VERTEX
  8
84
 10
-2.8780
 20
-62.3110
  0
VERTEX
  8
84
 10
-2.5075
 20
-62.3252
  0
VERTEX
  8
84
 10
-2.1079
 20
-62.3335
  0
VERTEX
  8
84
 10
-1.6598
 20
-62.3370
  0
VERTEX
  8
84
 10
-1.2264
 20
-62.3358
  0
VERTEX
  8
84
 10
-0.8071
 20
-62.3303
  0
VERTEX
  8
84
 10
-0.3996
 20
-62.3205
  0
VERTEX
  8
84
 10
-0.0028
 20
-62.3063
  0
VERTEX
  8
84
 10
0.3854
 20
-62.2878
  0
VERTEX
  8
84
 10
0.7646
 20
-62.2654
  0
VERTEX
  8
84
 10
1.1366
 20
-62.2378
  0
VERTEX
  8
84
 10
1.5012
 20
-62.2063
  0
VERTEX
  8
84
 10
1.9618
 20
-62.1591
  0
VERTEX
  8
84
 10
2.4217
 20
-62.1031
  0
VERTEX
  8
84
 10
2.8811
 20
-62.0394
  0
VERTEX
  8
84
 10
3.3398
 20
-61.9669
  0
VERTEX
  8
84
 10
3.5697
 20
-61.9142
  0
VERTEX
  8
84
 10
3.8256
 20
-61.8433
  0
VERTEX
  8
84
 10
5.7768
 20
-67.8185
  0
VERTEX
  8
84
 10
5.5051
 20
-67.9831
  0
VERTEX
  8
84
 10
5.3402
 20
-68.0917
  0
VERTEX
  8
84
 10
5.2618
 20
-68.1563
  0
VERTEX
  8
84
 10
5.1878
 20
-68.2236
  0
VERTEX
  8
84
 10
5.1181
 20
-68.2937
  0
VERTEX
  8
84
 10
5.0531
 20
-68.3669
  0
VERTEX
  8
84
 10
4.9925
 20
-68.4433
  0
VERTEX
  8
84
 10
4.9362
 20
-68.5224
  0
VERTEX
  8
84
 10
4.8846
 20
-68.6043
  0
VERTEX
  8
84
 10
4.8374
 20
-68.6894
  0
VERTEX
  8
84
 10
4.7843
 20
-68.8008
  0
VERTEX
  8
84
 10
4.7370
 20
-68.9228
  0
VERTEX
  8
84
 10
4.6972
 20
-69.0524
  0
VERTEX
  8
84
 10
4.6646
 20
-69.1909
  0
VERTEX
  8
84
 10
4.6394
 20
-69.3394
  0
VERTEX
  8
84
 10
4.6209
 20
-69.4949
  0
VERTEX
  8
84
 10
4.6083
 20
-69.6661
  0
VERTEX
  8
84
 10
4.6008
 20
-69.8575
  0
VERTEX
  8
84
 10
4.5965
 20
-70.1134
  0
VERTEX
  8
84
 10
4.5898
 20
-70.9992
  0
VERTEX
  8
84
 10
4.5898
 20
-71.9669
  0
VERTEX
  8
84
 10
4.5898
 20
-72.9346
  0
VERTEX
  8
84
 10
4.5965
 20
-73.8205
  0
VERTEX
  8
84
 10
4.6004
 20
-74.0772
  0
VERTEX
  8
84
 10
4.6079
 20
-74.2681
  0
VERTEX
  8
84
 10
4.6209
 20
-74.4398
  0
VERTEX
  8
84
 10
4.6390
 20
-74.5949
  0
VERTEX
  8
84
 10
4.6646
 20
-74.7433
  0
VERTEX
  8
84
 10
4.6969
 20
-74.8815
  0
VERTEX
  8
84
 10
4.7366
 20
-75.0110
  0
VERTEX
  8
84
 10
4.7843
 20
-75.1331
  0
VERTEX
  8
84
 10
4.8374
 20
-75.2441
  0
VERTEX
  8
84
 10
4.8846
 20
-75.3291
  0
VERTEX
  8
84
 10
4.9366
 20
-75.4110
  0
VERTEX
  8
84
 10
4.9929
 20
-75.4902
  0
VERTEX
  8
84
 10
5.0535
 20
-75.5665
  0
VERTEX
  8
84
 10
5.1185
 20
-75.6398
  0
VERTEX
  8
84
 10
5.1878
 20
-75.7102
  0
VERTEX
  8
84
 10
5.2618
 20
-75.7776
  0
VERTEX
  8
84
 10
5.3402
 20
-75.8421
  0
VERTEX
  8
84
 10
5.5051
 20
-75.9508
  0
VERTEX
  8
84
 10
5.7768
 20
-76.1154
  0
VERTEX
  8
84
 10
3.8256
 20
-82.0906
  0
VERTEX
  8
84
 10
3.5697
 20
-82.0197
  0
VERTEX
  8
84
 10
3.3398
 20
-81.9669
  0
VERTEX
  8
84
 10
2.8811
 20
-81.8945
  0
VERTEX
  8
84
 10
2.4217
 20
-81.8307
  0
VERTEX
  8
84
 10
1.9618
 20
-81.7748
  0
VERTEX
  8
84
 10
1.5012
 20
-81.7276
  0
VERTEX
  8
84
 10
1.1362
 20
-81.6961
  0
VERTEX
  8
84
 10
0.7646
 20
-81.6685
  0
VERTEX
  8
84
 10
0.3850
 20
-81.6461
  0
VERTEX
  8
84
 10
-0.0028
 20
-81.6276
  0
VERTEX
  8
84
 10
-0.3996
 20
-81.6134
  0
VERTEX
  8
84
 10
-0.8071
 20
-81.6035
  0
VERTEX
  8
84
 10
-1.2264
 20
-81.5980
  0
VERTEX
  8
84
 10
-1.6598
 20
-81.5968
  0
VERTEX
  8
84
 10
-2.1075
 20
-81.6004
  0
VERTEX
  8
84
 10
-2.5075
 20
-81.6087
  0
VERTEX
  8
84
 10
-2.8776
 20
-81.6228
  0
VERTEX
  8
84
 10
-3.2244
 20
-81.6429
  0
VERTEX
  8
84
 10
-3.6295
 20
-81.6768
  0
VERTEX
  8
84
 10
-3.8933
 20
-81.7067
  0
VERTEX
  8
84
 10
-4.1425
 20
-81.7417
  0
VERTEX
  8
84
 10
-4.3787
 20
-81.7827
  0
VERTEX
  8
84
 10
-4.6031
 20
-81.8287
  0
VERTEX
  8
84
 10
-4.8157
 20
-81.8811
  0
VERTEX
  8
84
 10
-5.0165
 20
-81.9390
  0
VERTEX
  8
84
 10
-5.2059
 20
-82.0024
  0
VERTEX
  8
84
 10
-5.3835
 20
-82.0720
  0
VERTEX
  8
84
 10
-5.5504
 20
-82.1476
  0
VERTEX
  8
84
 10
-5.7055
 20
-82.2287
  0
VERTEX
  8
84
 10
-5.8492
 20
-82.3161
  0
VERTEX
  8
84
 10
-5.9815
 20
-82.4094
  0
VERTEX
  8
84
 10
-6.1020
 20
-82.5087
  0
VERTEX
  8
84
 10
-6.2114
 20
-82.6134
  0
VERTEX
  8
84
 10
-6.3091
 20
-82.7244
  0
VERTEX
  8
84
 10
-6.3953
 20
-82.8409
  0
VERTEX
  8
84
 10
-6.4402
 20
-82.9118
  0
VERTEX
  8
84
 10
-6.4819
 20
-82.9854
  0
VERTEX
  8
84
 10
-6.5201
 20
-83.0614
  0
VERTEX
  8
84
 10
-6.5551
 20
-83.1405
  0
VERTEX
  8
84
 10
-6.5862
 20
-83.2220
  0
VERTEX
  8
84
 10
-6.6146
 20
-83.3063
  0
VERTEX
  8
84
 10
-6.6390
 20
-83.3933
  0
VERTEX
  8
84
 10
-6.6602
 20
-83.4831
  0
VERTEX
  8
84
 10
-24.6594
 20
-83.2165
  0
VERTEX
  8
84
 10
-24.6594
 20
-71.9669
  0
SEQEND
  0
POINT
  8
2
 10
-24.6594
 20
-71.9669
  0
TEXT
  8
1
 10
-24.6594
 20
-71.9669
 40
0.1400
  1
# 16
  7
STANDARD
  0
POINT
  8
2
 10
-24.6594
 20
-60.7173
  0
TEXT
  8
1
 10
-24.6594
 20
-60.7173
 40
0.1400
  1
# 17
  7
STANDARD
  0
POINT
  8
2
 10
-6.6602
 20
-60.4508
  0
TEXT
  8
1
 10
-6.6602
 20
-60.4508
 40
0.1400
  1
# 18
  7
STANDARD
  0
POINT
  8
3
 10
-6.3953
 20
-61.0929
  0
POINT
  8
3
 10
-3.6299
 20
-62.2571
  0
POINT
  8
3
 10
-3.2248
 20
-62.2909
  0
POINT
  8
3
 10
-1.6598
 20
-62.3370
  0
TEXT
  8
1
 10
-1.6598
 20
-62.3370
 40
0.1400
  1
# 19
  7
STANDARD
  0
POINT
  8
3
 10
1.5012
 20
-62.2063
  0
POINT
  8
2
 10
3.3398
 20
-61.9669
  0
TEXT
  8
1
 10
3.3398
 20
-61.9669
 40
0.1400
  1
# 20
  7
STANDARD
  0
POINT
  8
3
 10
3.5697
 20
-61.9142
  0
POINT
  8
2
 10
3.8256
 20
-61.8433
  0
TEXT
  8
1
 10
3.8256
 20
-61.8433
 40
0.1400
  1
# 21
  7
STANDARD
  0
POINT
  8
2
 10
5.7768
 20
-67.8185
  0
TEXT
  8
1
 10
5.7768
 20
-67.8185
 40
0.1400
  1
# 22
  7
STANDARD
  0
POINT
  8
3
 10
5.5051
 20
-67.9831
  0
POINT
  8
2
 10
5.3402
 20
-68.0917
  0
TEXT
  8
1
 10
5.3402
 20
-68.0917
 40
0.1400
  1
# 23
  7
STANDARD
  0
POINT
  8
3
 10
4.8374
 20
-68.6894
  0
POINT
  8
3
 10
4.7843
 20
-68.8008
  0
POINT
  8
3
 10
4.5965
 20
-70.1134
  0
POINT
  8
3
 10
4.5898
 20
-70.9992
  0
POINT
  8
2
 10
4.5898
 20
-71.9669
  0
TEXT
  8
1
 10
4.5898
 20
-71.9669
 40
0.1400
  1
# 24
  7
STANDARD
  0
POINT
  8
3
 10
4.5898
 20
-72.9346
  0
POINT
  8
3
 10
4.5965
 20
-73.8205
  0
POINT
  8
3
 10
4.7843
 20
-75.1331
  0
POINT
  8
3
 10
4.8374
 20
-75.2441
  0
POINT
  8
2
 10
5.3402
 20
-75.8421
  0
TEXT
  8
1
 10
5.3402
 20
-75.8421
 40
0.1400
  1
# 25
  7
STANDARD
  0
POINT
  8
3
 10
5.5051
 20
-75.9508
  0
POINT
  8
2
 10
5.7768
 20
-76.1154
  0
TEXT
  8
1
 10
5.7768
 20
-76.1154
 40
0.1400
  1
# 26
  7
STANDARD
  0
POINT
  8
2
 10
3.8256
 20
-82.0906
  0
TEXT
  8
1
 10
3.8256
 20
-82.0906
 40
0.1400
  1
# 27
  7
STANDARD
  0
POINT
  8
3
 10
3.5697
 20
-82.0197
  0
POINT
  8
2
 10
3.3398
 20
-81.9669
  0
TEXT
  8
1
 10
3.3398
 20
-81.9669
 40
0.1400
  1
# 28
  7
STANDARD
  0
POINT
  8
3
 10
1.5012
 20
-81.7276
  0
POINT
  8
3
 10
-1.6598
 20
-81.5968
  0
TEXT
  8
1
 10
-1.6598
 20
-81.5968
 40
0.1400
  1
# 29
  7
STANDARD
  0
POINT
  8
3
 10
-3.2244
 20
-81.6429
  0
POINT
  8
3
 10
-3.6295
 20
-81.6768
  0
POINT
  8
3
 10
-6.3953
 20
-82.8409
  0
POINT
  8
2
 10
-6.6602
 20
-83.4831
  0
TEXT
  8
1
 10
-6.6602
 20
-83.4831
 40
0.1400
  1
# 30
  7
STANDARD
  0
POINT
  8
2
 10
-24.6594
 20
-83.2165
  0
TEXT
  8
1
 10
-24.6594
 20
-83.2165
 40
0.1400
  1
# 31
  7
STANDARD
  0
POINT
  8
80
 10
-3.6299
 20
-62.2571
 30
0.0984
 39
0.0984
 50
264.0389
  0
POINT
  8
80
 10
-3.2248
 20
-62.2909
 30
0.0984
 39
0.0984
 50
266.5526
  0
POINT
  8
80
 10
4.8374
 20
-68.6894
 30
0.0984
 39
0.0984
 50
150.4546
  0
POINT
  8
80
 10
-3.6295
 20
-81.6768
 30
0.0984
 39
0.0984
 50
95.9611
  0
POINT
  8
80
 10
-3.2244
 20
-81.6429
 30
0.0984
 39
0.0984
 50
93.4474
  0
LINE
  8
7
 10
-19.3071
 20
-66.9063
 11
-0.3732
 21
-66.9063
  0
LINE
  8
5
 10
-19.3071
 20
-66.9063
 11
-0.3732
 21
-66.9063
  0
POINT
  8
2
 10
-19.3071
 20
-66.9063
  0
TEXT
  8
7
 10
-19.3071
 20
-66.9063
 40
0.1400
  1
# 32
  7
STANDARD
  0
POINT
  8
2
 10
-0.3732
 20
-66.9063
  0
TEXT
  8
7
 10
-0.3732
 20
-66.9063
 40
0.1400
  1
# 33
  7
STANDARD
  0
POLYLINE
  8
8
 66
1
 70
0
  0
VERTEX
  8
8
 10
3.3398
 20
-61.9669
  0
VERTEX
  8
8
 10
5.3402
 20
-68.0917
  0
SEQEND
  0
POLYLINE
  8
85
 66
1
 70
0
  0
VERTEX
  8
85
 10
3.3398
 20
-61.9669
  0
VERTEX
  8
85
 10
5.3402
 20
-68.0917
  0
SEQEND
  0
POINT
  8
2
 10
3.3398
 20
-61.9669
  0
TEXT
  8
8
 10
3.3398
 20
-61.9669
 40
0.1400
  1
# 34
  7
STANDARD
  0
POINT
  8
2
 10
5.3402
 20
-68.0917
  0
TEXT
  8
8
 10
5.3402
 20
-68.0917
 40
0.1400
  1
# 35
  7
STANDARD
  0
TEXT
  8
15
 10
-9.4409
 20
-71.6469
 40
0.14
  50
0.0000
  1

  7
STANDARD
  0
TEXT
  8
15
 10
-9.4409
 20
-72.2870
 40
0.14
  50
180.0000
  1

  7
STANDARD
  0
POLYLINE
  8
8
 66
1
 70
0
  0
VERTEX
  8
8
 10
3.3398
 20
-81.9669
  0
VERTEX
  8
8
 10
5.3402
 20
-75.8421
  0
SEQEND
  0
POLYLINE
  8
85
 66
1
 70
0
  0
VERTEX
  8
85
 10
3.3398
 20
-81.9669
  0
VERTEX
  8
85
 10
5.3402
 20
-75.8421
  0
SEQEND
  0
POINT
  8
2
 10
3.3398
 20
-81.9669
  0
TEXT
  8
8
 10
3.3398
 20
-81.9669
 40
0.1400
  1
# 36
  7
STANDARD
  0
POINT
  8
2
 10
5.3402
 20
-75.8421
  0
TEXT
  8
8
 10
5.3402
 20
-75.8421
 40
0.1400
  1
# 37
  7
STANDARD
  0
ENDBLK
  0
BLOCK
  8
0
  2
FRONT_L3
 70
64
 10
0.0000
 20
0.0000
  0
TEXT
  8
1
 10
-3.1016
 20
-35.1949
 40
0.1400
 50
0.0000
  1
Piece Name:FRONT
  7
STANDARD
  0
TEXT
  8
1
 10
-3.1016
 20
-35.0349
 40
0.1400
 50
0.0000
  1
SAMPLE SIZE:L
  7
STANDARD
  0
TEXT
  8
1
 10
-3.1016
 20
-34.8749
 40
0.1400
 50
0.0000
  1
ANNOTATION:
  7
STANDARD
  0
TEXT
  8
1
 10
-3.1016
 20
-34.7149
 40
0.1400
 50
0.0000
  1
CATEGORY: 
  7
STANDARD
  0
TEXT
  8
1
 10
-3.1016
 20
-34.5549
 40
0.1400
 50
0.0000
  1
QUANTITY: 1
  7
STANDARD
  0
POLYLINE
  8
1
 66
1
 70
1
  0
VERTEX
  8
1
 10
-17.8449
 20
-35.1949
  0
VERTEX
  8
1
 10
-17.8449
 20
-23.9453
  0
VERTEX
  8
1
 10
0.1543
 20
-23.6787
  0
VERTEX
  8
1
 10
0.4409
 20
-24.5654
  0
VERTEX
  8
1
 10
1.3378
 20
-25.4870
  0
VERTEX
  8
1
 10
4.3850
 20
-26.2118
  0
VERTEX
  8
1
 10
5.0295
 20
-26.1949
  0
VERTEX
  8
1
 10
7.1370
 20
-25.9780
  0
VERTEX
  8
1
 10
9.6898
 20
-25.3815
  0
VERTEX
  8
1
 10
11.6409
 20
-31.3567
  0
VERTEX
  8
1
 10
11.3634
 20
-31.3902
  0
VERTEX
  8
1
 10
9.1673
 20
-32.3886
  0
VERTEX
  8
1
 10
8.2469
 20
-33.9827
  0
VERTEX
  8
1
 10
8.1535
 20
-34.8882
  0
VERTEX
  8
1
 10
8.1547
 20
-35.1949
  0
VERTEX
  8
1
 10
8.1535
 20
-35.5016
  0
VERTEX
  8
1
 10
8.2469
 20
-36.4071
  0
VERTEX
  8
1
 10
9.1673
 20
-38.0012
  0
VERTEX
  8
1
 10
11.3634
 20
-38.9996
  0
VERTEX
  8
1
 10
11.6409
 20
-39.0331
  0
VERTEX
  8
1
 10
9.6898
 20
-45.0083
  0
VERTEX
  8
1
 10
7.1370
 20
-44.4118
  0
VERTEX
  8
1
 10
5.0295
 20
-44.1949
  0
VERTEX
  8
1
 10
4.3854
 20
-44.1780
  0
VERTEX
  8
1
 10
1.3378
 20
-44.9028
  0
VERTEX
  8
1
 10
0.4409
 20
-45.8244
  0
VERTEX
  8
1
 10
0.1543
 20
-46.7110
  0
VERTEX
  8
1
 10
-17.8449
 20
-46.4445
  0
VERTEX
  8
1
 10
-17.8449
 20
-35.1949
  0
SEQEND
  0
POLYLINE
  8
84
 66
1
 70
1
  0
VERTEX
  8
84
 10
-17.8449
 20
-35.1949
  0
VERTEX
  8
84
 10
-17.8449
 20
-23.9453
  0
VERTEX
  8
84
 10
0.1543
 20
-23.6787
  0
VERTEX
  8
84
 10
0.1713
 20
-23.7988
  0
VERTEX
  8
84
 10
0.1933
 20
-23.9165
  0
VERTEX
  8
84
 10
0.2209
 20
-24.0315
  0
VERTEX
  8
84
 10
0.2539
 20
-24.1433
  0
VERTEX
  8
84
 10
0.2925
 20
-24.2531
  0
VERTEX
  8
84
 10
0.3366
 20
-24.3598
  0
VERTEX
  8
84
 10
0.3862
 20
-24.4638
  0
VERTEX
  8
84
 10
0.4409
 20
-24.5654
  0
VERTEX
  8
84
 10
0.5205
 20
-24.6937
  0
VERTEX
  8
84
 10
0.6102
 20
-24.8189
  0
VERTEX
  8
84
 10
0.7098
 20
-24.9413
  0
VERTEX
  8
84
 10
0.8189
 20
-25.0598
  0
VERTEX
  8
84
 10
0.9366
 20
-25.1744
  0
VERTEX
  8
84
 10
1.0630
 20
-25.2843
  0
VERTEX
  8
84
 10
1.1972
 20
-25.3886
  0
VERTEX
  8
84
 10
1.3378
 20
-25.4870
  0
VERTEX
  8
84
 10
1.4803
 20
-25.5764
  0
VERTEX
  8
84
 10
1.6287
 20
-25.6594
  0
VERTEX
  8
84
 10
1.7831
 20
-25.7366
  0
VERTEX
  8
84
 10
1.9433
 20
-25.8083
  0
VERTEX
  8
84
 10
2.1098
 20
-25.8736
  0
VERTEX
  8
84
 10
2.2823
 20
-25.9327
  0
VERTEX
  8
84
 10
2.4610
 20
-25.9866
  0
VERTEX
  8
84
 10
2.6465
 20
-26.0343
  0
VERTEX
  8
84
 10
2.8374
 20
-26.0760
  0
VERTEX
  8
84
 10
3.0354
 20
-26.1122
  0
VERTEX
  8
84
 10
3.2402
 20
-26.1425
  0
VERTEX
  8
84
 10
3.4524
 20
-26.1673
  0
VERTEX
  8
84
 10
3.6720
 20
-26.1866
  0
VERTEX
  8
84
 10
3.9000
 20
-26.2004
  0
VERTEX
  8
84
 10
4.1370
 20
-26.2087
  0
VERTEX
  8
84
 10
4.3850
 20
-26.2118
  0
VERTEX
  8
84
 10
4.7091
 20
-26.2079
  0
VERTEX
  8
84
 10
5.0295
 20
-26.1949
  0
VERTEX
  8
84
 10
5.5602
 20
-26.1630
  0
VERTEX
  8
84
 10
6.0882
 20
-26.1161
  0
VERTEX
  8
84
 10
6.6138
 20
-26.0543
  0
VERTEX
  8
84
 10
7.1370
 20
-25.9780
  0
VERTEX
  8
84
 10
7.4594
 20
-25.9232
  0
VERTEX
  8
84
 10
7.7807
 20
-25.8630
  0
VERTEX
  8
84
 10
8.1016
 20
-25.7969
  0
VERTEX
  8
84
 10
8.4209
 20
-25.7252
  0
VERTEX
  8
84
 10
8.7398
 20
-25.6476
  0
VERTEX
  8
84
 10
9.0571
 20
-25.5646
  0
VERTEX
  8
84
 10
9.3740
 20
-25.4760
  0
VERTEX
  8
84
 10
9.6898
 20
-25.3815
  0
VERTEX
  8
84
 10
11.6409
 20
-31.3567
  0
VERTEX
  8
84
 10
11.5024
 20
-31.3713
  0
VERTEX
  8
84
 10
11.3634
 20
-31.3902
  0
VERTEX
  8
84
 10
11.2020
 20
-31.4169
  0
VERTEX
  8
84
 10
11.0421
 20
-31.4492
  0
VERTEX
  8
84
 10
10.8843
 20
-31.4862
  0
VERTEX
  8
84
 10
10.7291
 20
-31.5287
  0
VERTEX
  8
84
 10
10.5768
 20
-31.5756
  0
VERTEX
  8
84
 10
10.4276
 20
-31.6280
  0
VERTEX
  8
84
 10
10.2819
 20
-31.6846
  0
VERTEX
  8
84
 10
10.1402
 20
-31.7457
  0
VERTEX
  8
84
 10
10.0024
 20
-31.8114
  0
VERTEX
  8
84
 10
9.8693
 20
-31.8815
  0
VERTEX
  8
84
 10
9.7402
 20
-31.9559
  0
VERTEX
  8
84
 10
9.6157
 20
-32.0346
  0
VERTEX
  8
84
 10
9.4961
 20
-32.1173
  0
VERTEX
  8
84
 10
9.3815
 20
-32.2039
  0
VERTEX
  8
84
 10
9.2720
 20
-32.2941
  0
VERTEX
  8
84
 10
9.1673
 20
-32.3886
  0
VERTEX
  8
84
 10
9.0843
 20
-32.4701
  0
VERTEX
  8
84
 10
9.0035
 20
-32.5547
  0
VERTEX
  8
84
 10
8.9260
 20
-32.6429
  0
VERTEX
  8
84
 10
8.8516
 20
-32.7339
  0
VERTEX
  8
84
 10
8.7803
 20
-32.8276
  0
VERTEX
  8
84
 10
8.7126
 20
-32.9240
  0
VERTEX
  8
84
 10
8.6480
 20
-33.0224
  0
VERTEX
  8
84
 10
8.5874
 20
-33.1236
  0
VERTEX
  8
84
 10
8.5303
 20
-33.2264
  0
VERTEX
  8
84
 10
8.4772
 20
-33.3311
  0
VERTEX
  8
84
 10
8.4283
 20
-33.4370
  0
VERTEX
  8
84
 10
8.3835
 20
-33.5445
  0
VERTEX
  8
84
 10
8.3429
 20
-33.6528
  0
VERTEX
  8
84
 10
8.3063
 20
-33.7622
  0
VERTEX
  8
84
 10
8.2744
 20
-33.8724
  0
VERTEX
  8
84
 10
8.2469
 20
-33.9827
  0
VERTEX
  8
84
 10
8.2079
 20
-34.1823
  0
VERTEX
  8
84
 10
8.1799
 20
-34.3965
  0
VERTEX
  8
84
 10
8.1622
 20
-34.6283
  0
VERTEX
  8
84
 10
8.1535
 20
-34.8882
  0
VERTEX
  8
84
 10
8.1547
 20
-35.1949
  0
VERTEX
  8
84
 10
8.1535
 20
-35.5016
  0
VERTEX
  8
84
 10
8.1622
 20
-35.7614
  0
VERTEX
  8
84
 10
8.1799
 20
-35.9933
  0
VERTEX
  8
84
 10
8.2079
 20
-36.2075
  0
VERTEX
  8
84
 10
8.2469
 20
-36.4071
  0
VERTEX
  8
84
 10
8.2744
 20
-36.5173
  0
VERTEX
  8
84
 10
8.3063
 20
-36.6276
  0
VERTEX
  8
84
 10
8.3429
 20
-36.7370
  0
VERTEX
  8
84
 10
8.3835
 20
-36.8453
  0
VERTEX
  8
84
 10
8.4283
 20
-36.9528
  0
VERTEX
  8
84
 10
8.4772
 20
-37.0587
  0
VERTEX
  8
84
 10
8.5303
 20
-37.1634
  0
VERTEX
  8
84
 10
8.5874
 20
-37.2661
  0
VERTEX
  8
84
 10
8.6480
 20
-37.3673
  0
VERTEX
  8
84
 10
8.7126
 20
-37.4657
  0
VERTEX
  8
84
 10
8.7803
 20
-37.5622
  0
VERTEX
  8
84
 10
8.8516
 20
-37.6559
  0
VERTEX
  8
84
 10
8.9260
 20
-37.7468
  0
VERTEX
  8
84
 10
9.0035
 20
-37.8350
  0
VERTEX
  8
84
 10
9.0843
 20
-37.9197
  0
VERTEX
  8
84
 10
9.1673
 20
-38.0012
  0
VERTEX
  8
84
 10
9.2720
 20
-38.0957
  0
VERTEX
  8
84
 10
9.3815
 20
-38.1858
  0
VERTEX
  8
84
 10
9.4961
 20
-38.2724
  0
VERTEX
  8
84
 10
9.6157
 20
-38.3551
  0
VERTEX
  8
84
 10
9.7402
 20
-38.4339
  0
VERTEX
  8
84
 10
9.8693
 20
-38.5083
  0
VERTEX
  8
84
 10
10.0024
 20
-38.5783
  0
VERTEX
  8
84
 10
10.1402
 20
-38.6441
  0
VERTEX
  8
84
 10
10.2819
 20
-38.7051
  0
VERTEX
  8
84
 10
10.4276
 20
-38.7618
  0
VERTEX
  8
84
 10
10.5768
 20
-38.8142
  0
VERTEX
  8
84
 10
10.7291
 20
-38.8610
  0
VERTEX
  8
84
 10
10.8843
 20
-38.9035
  0
VERTEX
  8
84
 10
11.0421
 20
-38.9406
  0
VERTEX
  8
84
 10
11.2020
 20
-38.9728
  0
VERTEX
  8
84
 10
11.3634
 20
-38.9996
  0
VERTEX
  8
84
 10
11.5024
 20
-39.0185
  0
VERTEX
  8
84
 10
11.6409
 20
-39.0331
  0
VERTEX
  8
84
 10
9.6898
 20
-45.0083
  0
VERTEX
  8
84
 10
9.3740
 20
-44.9138
  0
VERTEX
  8
84
 10
9.0571
 20
-44.8252
  0
VERTEX
  8
84
 10
8.7398
 20
-44.7421
  0
VERTEX
  8
84
 10
8.4209
 20
-44.6646
  0
VERTEX
  8
84
 10
8.1016
 20
-44.5929
  0
VERTEX
  8
84
 10
7.7807
 20
-44.5268
  0
VERTEX
  8
84
 10
7.4594
 20
-44.4665
  0
VERTEX
  8
84
 10
7.1370
 20
-44.4118
  0
VERTEX
  8
84
 10
6.6138
 20
-44.3354
  0
VERTEX
  8
84
 10
6.0882
 20
-44.2736
  0
VERTEX
  8
84
 10
5.5602
 20
-44.2268
  0
VERTEX
  8
84
 10
5.0295
 20
-44.1949
  0
VERTEX
  8
84
 10
4.7091
 20
-44.1819
  0
VERTEX
  8
84
 10
4.3854
 20
-44.1780
  0
VERTEX
  8
84
 10
4.1374
 20
-44.1811
  0
VERTEX
  8
84
 10
3.9004
 20
-44.1894
  0
VERTEX
  8
84
 10
3.6720
 20
-44.2031
  0
VERTEX
  8
84
 10
3.4524
 20
-44.2224
  0
VERTEX
  8
84
 10
3.2406
 20
-44.2472
  0
VERTEX
  8
84
 10
3.0354
 20
-44.2776
  0
VERTEX
  8
84
 10
2.8378
 20
-44.3138
  0
VERTEX
  8
84
 10
2.6465
 20
-44.3555
  0
VERTEX
  8
84
 10
2.4610
 20
-44.4031
  0
VERTEX
  8
84
 10
2.2823
 20
-44.4567
  0
VERTEX
  8
84
 10
2.1098
 20
-44.5161
  0
VERTEX
  8
84
 10
1.9433
 20
-44.5815
  0
VERTEX
  8
84
 10
1.7831
 20
-44.6528
  0
VERTEX
  8
84
 10
1.6287
 20
-44.7303
  0
VERTEX
  8
84
 10
1.4803
 20
-44.8134
  0
VERTEX
  8
84
 10
1.3378
 20
-44.9028
  0
VERTEX
  8
84
 10
1.1972
 20
-45.0012
  0
VERTEX
  8
84
 10
1.0630
 20
-45.1055
  0
VERTEX
  8
84
 10
0.9366
 20
-45.2154
  0
VERTEX
  8
84
 10
0.8189
 20
-45.3299
  0
VERTEX
  8
84
 10
0.7098
 20
-45.4484
  0
VERTEX
  8
84
 10
0.6102
 20
-45.5709
  0
VERTEX
  8
84
 10
0.5205
 20
-45.6961
  0
VERTEX
  8
84
 10
0.4409
 20
-45.8244
  0
VERTEX
  8
84
 10
0.3862
 20
-45.9260
  0
VERTEX
  8
84
 10
0.3366
 20
-46.0299
  0
VERTEX
  8
84
 10
0.2925
 20
-46.1366
  0
VERTEX
  8
84
 10
0.2539
 20
-46.2465
  0
VERTEX
  8
84
 10
0.2209
 20
-46.3583
  0
VERTEX
  8
84
 10
0.1933
 20
-46.4732
  0
VERTEX
  8
84
 10
0.1713
 20
-46.5909
  0
VERTEX
  8
84
 10
0.1543
 20
-46.7110
  0
VERTEX
  8
84
 10
-17.8449
 20
-46.4445
  0
VERTEX
  8
84
 10
-17.8449
 20
-35.1949
  0
SEQEND
  0
POINT
  8
2
 10
-17.8449
 20
-35.1949
  0
TEXT
  8
1
 10
-17.8449
 20
-35.1949
 40
0.1400
  1
# 38
  7
STANDARD
  0
POINT
  8
2
 10
-17.8449
 20
-23.9453
  0
TEXT
  8
1
 10
-17.8449
 20
-23.9453
 40
0.1400
  1
# 39
  7
STANDARD
  0
POINT
  8
2
 10
0.1543
 20
-23.6787
  0
TEXT
  8
1
 10
0.1543
 20
-23.6787
 40
0.1400
  1
# 40
  7
STANDARD
  0
POINT
  8
3
 10
0.4409
 20
-24.5654
  0
POINT
  8
3
 10
1.3378
 20
-25.4870
  0
POINT
  8
3
 10
4.3850
 20
-26.2118
  0
POINT
  8
2
 10
5.0295
 20
-26.1949
  0
TEXT
  8
1
 10
5.0295
 20
-26.1949
 40
0.1400
  1
# 41
  7
STANDARD
  0
POINT
  8
3
 10
7.1370
 20
-25.9780
  0
POINT
  8
2
 10
9.6898
 20
-25.3815
  0
TEXT
  8
1
 10
9.6898
 20
-25.3815
 40
0.1400
  1
# 42
  7
STANDARD
  0
POINT
  8
2
 10
11.6409
 20
-31.3567
  0
TEXT
  8
1
 10
11.6409
 20
-31.3567
 40
0.1400
  1
# 43
  7
STANDARD
  0
POINT
  8
3
 10
11.3634
 20
-31.3902
  0
POINT
  8
3
 10
9.1673
 20
-32.3886
  0
POINT
  8
3
 10
8.2469
 20
-33.9827
  0
POINT
  8
3
 10
8.1535
 20
-34.8882
  0
POINT
  8
2
 10
8.1547
 20
-35.1949
  0
TEXT
  8
1
 10
8.1547
 20
-35.1949
 40
0.1400
  1
# 44
  7
STANDARD
  0
POINT
  8
3
 10
8.1535
 20
-35.5016
  0
POINT
  8
3
 10
8.2469
 20
-36.4071
  0
POINT
  8
3
 10
9.1673
 20
-38.0012
  0
POINT
  8
3
 10
11.3634
 20
-38.9996
  0
POINT
  8
2
 10
11.6409
 20
-39.0331
  0
TEXT
  8
1
 10
11.6409
 20
-39.0331
 40
0.1400
  1
# 45
  7
STANDARD
  0
POINT
  8
2
 10
9.6898
 20
-45.0083
  0
TEXT
  8
1
 10
9.6898
 20
-45.0083
 40
0.1400
  1
# 46
  7
STANDARD
  0
POINT
  8
3
 10
7.1370
 20
-44.4118
  0
POINT
  8
2
 10
5.0295
 20
-44.1949
  0
TEXT
  8
1
 10
5.0295
 20
-44.1949
 40
0.1400
  1
# 47
  7
STANDARD
  0
POINT
  8
3
 10
4.3854
 20
-44.1780
  0
POINT
  8
3
 10
1.3378
 20
-44.9028
  0
POINT
  8
3
 10
0.4409
 20
-45.8244
  0
POINT
  8
2
 10
0.1543
 20
-46.7110
  0
TEXT
  8
1
 10
0.1543
 20
-46.7110
 40
0.1400
  1
# 48
  7
STANDARD
  0
POINT
  8
2
 10
-17.8449
 20
-46.4445
  0
TEXT
  8
1
 10
-17.8449
 20
-46.4445
 40
0.1400
  1
# 49
  7
STANDARD
  0
POINT
  8
80
 10
4.3850
 20
-26.2118
 30
0.0984
 39
0.0984
 50
272.0618
  0
LINE
  8
7
 10
-12.6906
 20
-30.1780
 11
5.6028
 21
-30.1780
  0
LINE
  8
5
 10
-12.6906
 20
-30.1780
 11
5.6028
 21
-30.1780
  0
POINT
  8
2
 10
-12.6906
 20
-30.1780
  0
TEXT
  8
7
 10
-12.6906
 20
-30.1780
 40
0.1400
  1
# 50
  7
STANDARD
  0
POINT
  8
2
 10
5.6028
 20
-30.1780
  0
TEXT
  8
7
 10
5.6028
 20
-30.1780
 40
0.1400
  1
# 51
  7
STANDARD
  0
POLYLINE
  8
8
 66
1
 70
0
  0
VERTEX
  8
8
 10
-0.8449
 20
-23.7000
  0
VERTEX
  8
8
 10
-0.8449
 20
-35.1949
  0
SEQEND
  0
POLYLINE
  8
85
 66
1
 70
0
  0
VERTEX
  8
85
 10
-0.8449
 20
-23.7000
  0
VERTEX
  8
85
 10
-0.8449
 20
-35.1949
  0
SEQEND
  0
POINT
  8
2
 10
-0.8449
 20
-23.7000
  0
TEXT
  8
8
 10
-0.8449
 20
-23.7000
 40
0.1400
  1
# 52
  7
STANDARD
  0
POINT
  8
2
 10
-0.8449
 20
-35.1949
  0
TEXT
  8
8
 10
-0.8449
 20
-35.1949
 40
0.1400
  1
# 53
  7
STANDARD
  0
TEXT
  8
15
 10
-3.1016
 20
-34.8748
 40
0.14
  50
0.0000
  1

  7
STANDARD
  0
TEXT
  8
15
 10
-3.1016
 20
-35.5150
 40
0.14
  50
180.0000
  1

  7
STANDARD
  0
POLYLINE
  8
8
 66
1
 70
0
  0
VERTEX
  8
8
 10
-0.8449
 20
-46.6898
  0
VERTEX
  8
8
 10
-0.8449
 20
-35.1949
  0
SEQEND
  0
POLYLINE
  8
85
 66
1
 70
0
  0
VERTEX
  8
85
 10
-0.8449
 20
-46.6898
  0
VERTEX
  8
85
 10
-0.8449
 20
-35.1949
  0
SEQEND
  0
POINT
  8
2
 10
-0.8449
 20
-46.6898
  0
TEXT
  8
8
 10
-0.8449
 20
-46.6898
 40
0.1400
  1
# 54
  7
STANDARD
  0
POINT
  8
2
 10
-0.8449
 20
-35.1949
  0
TEXT
  8
8
 10
-0.8449
 20
-35.1949
 40
0.1400
  1
# 55
  7
STANDARD
  0
ENDBLK
  0
BLOCK
  8
0
  2
COLLOR_L4
 70
64
 10
0.0000
 20
0.0000
  0
TEXT
  8
1
 10
9.6358
 20
-33.5339
 40
0.1400
 50
0.0000
  1
Piece Name:COLLOR
  7
STANDARD
  0
TEXT
  8
1
 10
9.6358
 20
-33.3739
 40
0.1400
 50
0.0000
  1
SAMPLE SIZE:L
  7
STANDARD
  0
TEXT
  8
1
 10
9.6358
 20
-33.2139
 40
0.1400
 50
0.0000
  1
ANNOTATION:
  7
STANDARD
  0
TEXT
  8
1
 10
9.6358
 20
-33.0539
 40
0.1400
 50
0.0000
  1
CATEGORY: 
  7
STANDARD
  0
TEXT
  8
1
 10
9.6358
 20
-32.8939
 40
0.1400
 50
0.0000
  1
QUANTITY: 1
  7
STANDARD
  0
POLYLINE
  8
1
 66
1
 70
1
  0
VERTEX
  8
1
 10
8.8543
 20
-24.5339
  0
VERTEX
  8
1
 10
10.4173
 20
-24.5339
  0
VERTEX
  8
1
 10
10.4173
 20
-27.3291
  0
VERTEX
  8
1
 10
10.4173
 20
-31.2268
  0
VERTEX
  8
1
 10
10.4173
 20
-36.3449
  0
VERTEX
  8
1
 10
10.4173
 20
-41.4315
  0
VERTEX
  8
1
 10
10.4173
 20
-42.5339
  0
VERTEX
  8
1
 10
8.8543
 20
-42.5339
  0
VERTEX
  8
1
 10
8.8543
 20
-41.4315
  0
VERTEX
  8
1
 10
8.8543
 20
-36.3449
  0
VERTEX
  8
1
 10
8.8543
 20
-31.2268
  0
VERTEX
  8
1
 10
8.8543
 20
-27.3291
  0
VERTEX
  8
1
 10
8.8543
 20
-24.5339
  0
SEQEND
  0
POLYLINE
  8
84
 66
1
 70
1
  0
VERTEX
  8
84
 10
10.4173
 20
-24.5339
  0
VERTEX
  8
84
 10
10.4173
 20
-27.3291
  0
VERTEX
  8
84
 10
10.4173
 20
-31.2268
  0
VERTEX
  8
84
 10
10.4173
 20
-36.3449
  0
VERTEX
  8
84
 10
10.4173
 20
-41.4315
  0
VERTEX
  8
84
 10
10.4173
 20
-42.5339
  0
VERTEX
  8
84
 10
8.8543
 20
-42.5339
  0
VERTEX
  8
84
 10
8.8543
 20
-41.4315
  0
VERTEX
  8
84
 10
8.8543
 20
-36.3449
  0
VERTEX
  8
84
 10
8.8543
 20
-31.2268
  0
VERTEX
  8
84
 10
8.8543
 20
-27.3291
  0
VERTEX
  8
84
 10
8.8543
 20
-24.5339
  0
VERTEX
  8
84
 10
10.4173
 20
-24.5339
  0
SEQEND
  0
POINT
  8
2
 10
8.8543
 20
-24.5339
  0
TEXT
  8
1
 10
8.8543
 20
-24.5339
 40
0.1400
  1
# 56
  7
STANDARD
  0
POINT
  8
2
 10
10.4173
 20
-24.5339
  0
TEXT
  8
1
 10
10.4173
 20
-24.5339
 40
0.1400
  1
# 57
  7
STANDARD
  0
POINT
  8
2
 10
10.4173
 20
-27.3291
  0
TEXT
  8
1
 10
10.4173
 20
-27.3291
 40
0.1400
  1
# 58
  7
STANDARD
  0
POINT
  8
2
 10
10.4173
 20
-31.2268
  0
TEXT
  8
1
 10
10.4173
 20
-31.2268
 40
0.1400
  1
# 59
  7
STANDARD
  0
POINT
  8
2
 10
10.4173
 20
-36.3449
  0
TEXT
  8
1
 10
10.4173
 20
-36.3449
 40
0.1400
  1
# 60
  7
STANDARD
  0
POINT
  8
2
 10
10.4173
 20
-41.4315
  0
TEXT
  8
1
 10
10.4173
 20
-41.4315
 40
0.1400
  1
# 61
  7
STANDARD
  0
POINT
  8
2
 10
10.4173
 20
-42.5339
  0
TEXT
  8
1
 10
10.4173
 20
-42.5339
 40
0.1400
  1
# 62
  7
STANDARD
  0
POINT
  8
2
 10
8.8543
 20
-42.5339
  0
TEXT
  8
1
 10
8.8543
 20
-42.5339
 40
0.1400
  1
# 63
  7
STANDARD
  0
POINT
  8
2
 10
8.8543
 20
-41.4315
  0
TEXT
  8
1
 10
8.8543
 20
-41.4315
 40
0.1400
  1
# 64
  7
STANDARD
  0
POINT
  8
2
 10
8.8543
 20
-36.3449
  0
TEXT
  8
1
 10
8.8543
 20
-36.3449
 40
0.1400
  1
# 65
  7
STANDARD
  0
POINT
  8
2
 10
8.8543
 20
-31.2268
  0
TEXT
  8
1
 10
8.8543
 20
-31.2268
 40
0.1400
  1
# 66
  7
STANDARD
  0
POINT
  8
2
 10
8.8543
 20
-27.3291
  0
TEXT
  8
1
 10
8.8543
 20
-27.3291
 40
0.1400
  1
# 67
  7
STANDARD
  0
POINT
  8
80
 10
8.8543
 20
-27.3291
 30
0.1969
 39
0.0984
 50
0.0000
  0
POINT
  8
80
 10
10.4173
 20
-27.3291
 30
0.1969
 39
0.0984
 50
180.0000
  0
POINT
  8
80
 10
8.8543
 20
-31.2268
 30
0.1969
 39
0.0984
 50
0.0000
  0
POINT
  8
80
 10
10.4173
 20
-31.2268
 30
0.1969
 39
0.0984
 50
180.0000
  0
POINT
  8
80
 10
8.8543
 20
-36.3449
 30
0.1969
 39
0.0984
 50
0.0000
  0
POINT
  8
80
 10
10.4173
 20
-36.3449
 30
0.1969
 39
0.0984
 50
180.0000
  0
POINT
  8
80
 10
10.4173
 20
-41.4315
 30
0.1969
 39
0.0984
 50
180.0000
  0
POINT
  8
80
 10
8.8543
 20
-41.4315
 30
0.1969
 39
0.0984
 50
0.0000
  0
LINE
  8
7
 10
9.1528
 20
-33.5343
 11
10.1189
 21
-33.5343
  0
LINE
  8
5
 10
9.1528
 20
-33.5343
 11
10.1189
 21
-33.5343
  0
POINT
  8
2
 10
9.1528
 20
-33.5343
  0
TEXT
  8
7
 10
9.1528
 20
-33.5343
 40
0.1400
  1
# 68
  7
STANDARD
  0
POINT
  8
2
 10
10.1189
 20
-33.5343
  0
TEXT
  8
7
 10
10.1189
 20
-33.5343
 40
0.1400
  1
# 69
  7
STANDARD
  0
ENDBLK
  0
ENDSEC
  0
SECTION
  2
ENTITIES
  0
TEXT
  8
1
 10
0.0000
 20
0.0000
 40
0.1400
 50
0.0000
  1
Style Name: S350
  7
STANDARD
  0
TEXT
  8
1
 10
0.0000
 20
0.1600
 40
0.1400
 50
0.0000
  1
Creation Date: 05-22-2023
  7
STANDARD
  0
TEXT
  8
1
 10
0.0000
 20
0.3200
 40
0.1400
 50
0.0000
  1
Creation Time: 02:07:42
  7
STANDARD
  0
TEXT
  8
1
 10
0.0000
 20
0.4800
 40
0.1400
 50
0.0000
  1
Author: RICHPEACE TECHNOLOGY
  7
STANDARD
  0
TEXT
  8
1
 10
0.0000
 20
0.6400
 40
0.1400
 50
0.0000
  1
PRODUCT: RP_Design
  7
STANDARD
  0
TEXT
  8
1
 10
0.0000
 20
0.8000
 40
0.1400
 50
0.0000
  1
VERSION: V9.0
  7
STANDARD
  0
TEXT
  8
1
 10
0.0000
 20
0.9600
 40
0.1400
 50
0.0000
  1
Sample Size: L
  7
STANDARD
  0
TEXT
  8
1
 10
0.0000
 20
1.1200
 40
0.1400
 50
0.0000
  1
Grade Rule Table: S350[4]ÎÞËðºÄ¿î
  7
STANDARD
  0
TEXT
  8
1
 10
5.0000
 20
1.2800
 40
0.1400
 50
0.0000
  1
Units: ENGLISH
  7
STANDARD
  0
TEXT
  8
1
 10
5.0000
 20
1.4400
 40
0.1400
 50
0.0000
  1
TOLERANCE: .0001
  7
STANDARD
  0
INSERT
  8
1
  2
SLEEVE_L1
 10
0.0000
 20
0.0000
  0
INSERT
  8
1
  2
BACK_L2
 10
0.0000
 20
0.0000
  0
INSERT
  8
1
  2
FRONT_L3
 10
0.0000
 20
0.0000
  0
INSERT
  8
1
  2
COLLOR_L4
 10
0.0000
 20
0.0000
  0
ENDSEC
  0
EOF
