  0
SECTION
  2
HEADER
  9
$ACADVER
  1
AC1006
  9
$INSBASE
  10
0.000000
  20
0.000000
  30
0.000000
  9
$EXTMIN
  10
0.000000
  20
0.000000
  9
$EXTMAX
  10
1000.000000
  20
1000.000000
  0
ENDSEC
  0
SECTION
  2
BLOCKS
  0
BLOCK
  8
0
  2
Internal Line_41614_M_M_XS
  70
64
  10
0
  20
0
  0
TEXT
  8
1
  10
-182.571503
  20
865.130676
  50
0.000000
  51
0.000000
  71
0.000000
  1
PIECE NAME: Internal Line_41614_M_M
  7
STANDARD
  0
TEXT
  8
1
  10
-182.571503
  20
860.130676
  50
0.000000
  51
0.000000
  71
0.000000
  1
SIZE: XS
  7
STANDARD
  0
TEXT
  8
1
  10
-182.571503
  20
850.130676
  50
0.000000
  51
0.000000
  71
0.000000
  1
QUANTITY: 1
  7
STANDARD
  0
POLYLINE
  8
1
  66
1
  70
1
  250
2
  0
VERTEX
  8
1
  10
2.386856
  20
1098.425171
  0
VERTEX
  8
1
  10
-77.187660
  20
1143.398682
  0
VERTEX
  8
1
  10
-81.836433
  20
1133.647095
  0
VERTEX
  8
1
  10
-87.494682
  20
1124.435425
  0
VERTEX
  8
1
  10
-93.958481
  20
1115.775635
  0
VERTEX
  8
1
  10
-101.259689
  20
1107.806763
  0
VERTEX
  8
1
  10
-109.366959
  20
1100.660034
  0
VERTEX
  8
1
  10
-118.226479
  20
1094.470215
  0
VERTEX
  8
1
  10
-127.745667
  20
1089.360962
  0
VERTEX
  8
1
  10
-137.869324
  20
1085.585327
  0
VERTEX
  8
1
  10
-147.690430
  20
1083.389160
  0
VERTEX
  8
1
  10
-157.697647
  20
1082.331543
  0
VERTEX
  8
1
  10
-197.940155
  20
1082.214233
  0
VERTEX
  8
1
  10
-207.929489
  20
1083.475708
  0
VERTEX
  8
1
  10
-217.692108
  20
1085.890869
  0
VERTEX
  8
1
  10
-227.411224
  20
1089.734131
  0
VERTEX
  8
1
  10
-236.500031
  20
1094.898926
  0
VERTEX
  8
1
  10
-245.096680
  20
1100.878906
  0
VERTEX
  8
1
  10
-253.066772
  20
1107.617432
  0
VERTEX
  8
1
  10
-260.306885
  20
1115.137573
  0
VERTEX
  8
1
  10
-266.679932
  20
1123.446045
  0
VERTEX
  8
1
  10
-272.040771
  20
1132.401855
  0
VERTEX
  8
1
  10
-276.493835
  20
1141.737183
  0
VERTEX
  8
1
  10
-277.210419
  20
1143.478027
  0
VERTEX
  8
1
  10
-356.864807
  20
1098.513916
  0
VERTEX
  8
1
  10
-354.745239
  20
1087.477905
  0
VERTEX
  8
1
  10
-352.741394
  20
1076.621948
  0
VERTEX
  8
1
  10
-350.449219
  20
1062.862427
  0
VERTEX
  8
1
  10
-348.637299
  20
1049.428955
  0
VERTEX
  8
1
  10
-347.386719
  20
1035.803711
  0
VERTEX
  8
1
  10
-346.734619
  20
1027.220459
  0
VERTEX
  8
1
  10
-346.597412
  20
1019.725464
  0
VERTEX
  8
1
  10
-346.757446
  20
1012.235168
  0
VERTEX
  8
1
  10
-346.821198
  20
1010.834839
  0
VERTEX
  8
1
  10
-347.052429
  20
1005.755615
  0
VERTEX
  8
1
  10
-347.419617
  20
999.244141
  0
VERTEX
  8
1
  10
-348.261658
  20
995.301941
  0
VERTEX
  8
1
  10
-349.509430
  20
991.464905
  0
VERTEX
  8
1
  10
-350.796021
  20
987.650146
  0
VERTEX
  8
1
  10
-351.930969
  20
980.888306
  0
VERTEX
  8
1
  10
-355.682098
  20
971.196167
  0
VERTEX
  8
1
  10
-360.238190
  20
964.264771
  0
VERTEX
  8
1
  10
-366.398254
  20
957.830017
  0
VERTEX
  8
1
  10
-372.266296
  20
953.393066
  0
VERTEX
  8
1
  10
-379.666138
  20
949.321045
  0
VERTEX
  8
1
  10
-385.290771
  20
947.083862
  0
VERTEX
  8
1
  10
-394.737946
  20
944.670532
  0
VERTEX
  8
1
  10
-404.134399
  20
943.695557
  0
VERTEX
  8
1
  10
-410.442505
  20
942.342407
  0
VERTEX
  8
1
  10
-399.230408
  20
895.945129
  0
VERTEX
  8
1
  10
-389.000946
  20
849.322571
  0
VERTEX
  8
1
  10
-380.920197
  20
802.283997
  0
VERTEX
  8
1
  10
-376.199615
  20
754.799255
  0
VERTEX
  8
1
  10
-376.152222
  20
753.699097
  0
VERTEX
  8
1
  10
-375.698059
  20
744.343079
  0
VERTEX
  8
1
  10
-375.429779
  20
734.029785
  0
VERTEX
  8
1
  10
-375.357086
  20
723.713501
  0
VERTEX
  8
1
  10
-375.477234
  20
713.397766
  0
VERTEX
  8
1
  10
-375.768494
  20
703.085266
  0
VERTEX
  8
1
  10
-376.203552
  20
692.777649
  0
VERTEX
  8
1
  10
-376.781952
  20
682.476685
  0
VERTEX
  8
1
  10
-377.469452
  20
672.182434
  0
VERTEX
  8
1
  10
-378.262482
  20
661.896179
  0
VERTEX
  8
1
  10
-379.138794
  20
651.616943
  0
VERTEX
  8
1
  10
-380.073242
  20
641.342773
  0
VERTEX
  8
1
  10
-381.053680
  20
631.072937
  0
VERTEX
  8
1
  10
-382.059082
  20
620.805176
  0
VERTEX
  8
1
  10
-383.078674
  20
610.538513
  0
VERTEX
  8
1
  10
-365.061768
  20
607.270691
  0
VERTEX
  8
1
  10
-347.022858
  20
604.127930
  0
VERTEX
  8
1
  10
-328.958618
  20
601.134949
  0
VERTEX
  8
1
  10
-310.864075
  20
598.331665
  0
VERTEX
  8
1
  10
-299.174591
  20
596.629150
  0
VERTEX
  8
1
  10
-287.472229
  20
595.023865
  0
VERTEX
  8
1
  10
-275.755096
  20
593.530457
  0
VERTEX
  8
1
  10
-264.023987
  20
592.143433
  0
VERTEX
  8
1
  10
-227.411697
  20
588.697632
  0
VERTEX
  8
1
  10
-190.682770
  20
586.903198
  0
VERTEX
  8
1
  10
-153.913208
  20
587.269165
  0
VERTEX
  8
1
  10
-117.214249
  20
589.609253
  0
VERTEX
  8
1
  10
-80.638237
  20
593.424438
  0
VERTEX
  8
1
  10
-71.285286
  20
594.592346
  0
VERTEX
  8
1
  10
-61.941742
  20
595.826172
  0
VERTEX
  8
1
  10
-43.771149
  20
598.416870
  0
VERTEX
  8
1
  10
-25.629059
  20
601.200867
  0
VERTEX
  8
1
  10
-7.515564
  20
604.165894
  0
VERTEX
  8
1
  10
10.571609
  20
607.287903
  0
VERTEX
  8
1
  10
28.639679
  20
610.519531
  0
VERTEX
  8
1
  10
27.127716
  20
623.353516
  0
VERTEX
  8
1
  10
25.272858
  20
636.142212
  0
VERTEX
  8
1
  10
23.209824
  20
648.900146
  0
VERTEX
  8
1
  10
21.021118
  20
661.635620
  0
VERTEX
  8
1
  10
18.809265
  20
674.368774
  0
VERTEX
  8
1
  10
16.694397
  20
687.116882
  0
VERTEX
  8
1
  10
14.753433
  20
699.893372
  0
VERTEX
  8
1
  10
12.857559
  20
714.997742
  0
VERTEX
  8
1
  10
11.536942
  20
730.163696
  0
VERTEX
  8
1
  10
10.975189
  20
745.375732
  0
VERTEX
  8
1
  10
11.075928
  20
753.332458
  0
VERTEX
  8
1
  10
11.429565
  20
761.737244
  0
VERTEX
  8
1
  10
12.878082
  20
779.304504
  0
VERTEX
  8
1
  10
14.899078
  20
796.815552
  0
VERTEX
  8
1
  10
17.407089
  20
814.262512
  0
VERTEX
  8
1
  10
20.125824
  20
830.425476
  0
VERTEX
  8
1
  10
23.163147
  20
846.532654
  0
VERTEX
  8
1
  10
26.477264
  20
862.583679
  0
VERTEX
  8
1
  10
29.997742
  20
878.591919
  0
VERTEX
  8
1
  10
33.695557
  20
894.560303
  0
VERTEX
  8
1
  10
37.508453
  20
910.500244
  0
VERTEX
  8
1
  10
41.394089
  20
926.424194
  0
VERTEX
  8
1
  10
45.299500
  20
942.342407
  0
VERTEX
  8
1
  10
39.473648
  20
944.399902
  0
VERTEX
  8
1
  10
32.796265
  20
946.727234
  0
VERTEX
  8
1
  10
26.482452
  20
949.874756
  0
VERTEX
  8
1
  10
20.350174
  20
954.030212
  0
VERTEX
  8
1
  10
15.656586
  20
958.186523
  0
VERTEX
  8
1
  10
11.250198
  20
961.257568
  0
VERTEX
  8
1
  10
6.685715
  20
965.413757
  0
VERTEX
  8
1
  10
2.760742
  20
970.181152
  0
VERTEX
  8
1
  10
-0.455597
  20
975.448914
  0
VERTEX
  8
1
  10
-2.874817
  20
981.123840
  0
VERTEX
  8
1
  10
-4.535675
  20
987.068665
  0
VERTEX
  8
1
  10
-5.549286
  20
993.146301
  0
VERTEX
  8
1
  10
-7.019943
  20
999.137024
  0
VERTEX
  8
1
  10
-7.467361
  20
1003.185669
  0
VERTEX
  8
1
  10
-7.942612
  20
1008.052002
  0
VERTEX
  8
1
  10
-8.296600
  20
1013.285400
  0
VERTEX
  8
1
  10
-8.303833
  20
1013.392273
  0
VERTEX
  8
1
  10
-8.414032
  20
1017.811157
  0
VERTEX
  8
1
  10
-8.263077
  20
1022.886169
  0
VERTEX
  8
1
  10
-7.785019
  20
1031.951904
  0
VERTEX
  8
1
  10
-6.975967
  20
1041.285522
  0
VERTEX
  8
1
  10
-5.817459
  20
1051.148193
  0
VERTEX
  8
1
  10
-4.196426
  20
1062.289551
  0
VERTEX
  8
1
  10
-1.916443
  20
1075.700806
  0
VERTEX
  8
1
  10
0.414215
  20
1088.197144
  0
SEQEND
  0
TEXT
  8
1
  10
2.386856
  20
1098.425171
  40
0.250000
  50
0.000000
  1
# 8
  7
STANDARD
  0
TEXT
  8
1
  10
-77.187660
  20
1143.398682
  40
0.250000
  50
0.000000
  1
# 7
  7
STANDARD
  0
TEXT
  8
1
  10
-81.836433
  20
1133.647095
  40
0.250000
  50
0.000000
  1
# 30
  7
STANDARD
  0
TEXT
  8
1
  10
-87.494682
  20
1124.435425
  40
0.250000
  50
0.000000
  1
# 29
  7
STANDARD
  0
TEXT
  8
1
  10
-93.958481
  20
1115.775635
  40
0.250000
  50
0.000000
  1
# 28
  7
STANDARD
  0
TEXT
  8
1
  10
-101.259689
  20
1107.806763
  40
0.250000
  50
0.000000
  1
# 27
  7
STANDARD
  0
TEXT
  8
1
  10
-109.366959
  20
1100.660034
  40
0.250000
  50
0.000000
  1
# 26
  7
STANDARD
  0
TEXT
  8
1
  10
-118.226479
  20
1094.470215
  40
0.250000
  50
0.000000
  1
# 25
  7
STANDARD
  0
TEXT
  8
1
  10
-127.745667
  20
1089.360962
  40
0.250000
  50
0.000000
  1
# 24
  7
STANDARD
  0
TEXT
  8
1
  10
-137.869324
  20
1085.585327
  40
0.250000
  50
0.000000
  1
# 23
  7
STANDARD
  0
TEXT
  8
1
  10
-147.690430
  20
1083.389160
  40
0.250000
  50
0.000000
  1
# 22
  7
STANDARD
  0
TEXT
  8
1
  10
-157.697647
  20
1082.331543
  40
0.250000
  50
0.000000
  1
# 21
  7
STANDARD
  0
TEXT
  8
1
  10
-197.940155
  20
1082.214233
  40
0.250000
  50
0.000000
  1
# 20
  7
STANDARD
  0
TEXT
  8
1
  10
-207.929489
  20
1083.475708
  40
0.250000
  50
0.000000
  1
# 19
  7
STANDARD
  0
TEXT
  8
1
  10
-217.692108
  20
1085.890869
  40
0.250000
  50
0.000000
  1
# 18
  7
STANDARD
  0
TEXT
  8
1
  10
-227.411224
  20
1089.734131
  40
0.250000
  50
0.000000
  1
# 17
  7
STANDARD
  0
TEXT
  8
1
  10
-236.500031
  20
1094.898926
  40
0.250000
  50
0.000000
  1
# 16
  7
STANDARD
  0
TEXT
  8
1
  10
-245.096680
  20
1100.878906
  40
0.250000
  50
0.000000
  1
# 15
  7
STANDARD
  0
TEXT
  8
1
  10
-253.066772
  20
1107.617432
  40
0.250000
  50
0.000000
  1
# 14
  7
STANDARD
  0
TEXT
  8
1
  10
-260.306885
  20
1115.137573
  40
0.250000
  50
0.000000
  1
# 13
  7
STANDARD
  0
TEXT
  8
1
  10
-266.679932
  20
1123.446045
  40
0.250000
  50
0.000000
  1
# 12
  7
STANDARD
  0
TEXT
  8
1
  10
-272.040771
  20
1132.401855
  40
0.250000
  50
0.000000
  1
# 11
  7
STANDARD
  0
TEXT
  8
1
  10
-276.493835
  20
1141.737183
  40
0.250000
  50
0.000000
  1
# 10
  7
STANDARD
  0
TEXT
  8
1
  10
-277.210419
  20
1143.478027
  40
0.250000
  50
0.000000
  1
# 6
  7
STANDARD
  0
TEXT
  8
1
  10
-356.864807
  20
1098.513916
  40
0.250000
  50
0.000000
  1
# 5
  7
STANDARD
  0
TEXT
  8
1
  10
-354.745239
  20
1087.477905
  40
0.250000
  50
0.000000
  1
# 52
  7
STANDARD
  0
TEXT
  8
1
  10
-352.741394
  20
1076.621948
  40
0.250000
  50
0.000000
  1
# 51
  7
STANDARD
  0
TEXT
  8
1
  10
-350.449219
  20
1062.862427
  40
0.250000
  50
0.000000
  1
# 50
  7
STANDARD
  0
TEXT
  8
1
  10
-348.637299
  20
1049.428955
  40
0.250000
  50
0.000000
  1
# 49
  7
STANDARD
  0
TEXT
  8
1
  10
-347.386719
  20
1035.803711
  40
0.250000
  50
0.000000
  1
# 48
  7
STANDARD
  0
TEXT
  8
1
  10
-346.734619
  20
1027.220459
  40
0.250000
  50
0.000000
  1
# 47
  7
STANDARD
  0
TEXT
  8
1
  10
-346.597412
  20
1019.725464
  40
0.250000
  50
0.000000
  1
# 46
  7
STANDARD
  0
TEXT
  8
1
  10
-346.757446
  20
1012.235168
  40
0.250000
  50
0.000000
  1
# 45
  7
STANDARD
  0
TEXT
  8
1
  10
-347.052429
  20
1005.755615
  40
0.250000
  50
0.000000
  1
# 44
  7
STANDARD
  0
TEXT
  8
1
  10
-347.419617
  20
999.244141
  40
0.250000
  50
0.000000
  1
# 43
  7
STANDARD
  0
TEXT
  8
1
  10
-348.261658
  20
995.301941
  40
0.250000
  50
0.000000
  1
# 42
  7
STANDARD
  0
TEXT
  8
1
  10
-349.509430
  20
991.464905
  40
0.250000
  50
0.000000
  1
# 41
  7
STANDARD
  0
TEXT
  8
1
  10
-350.796021
  20
987.650146
  40
0.250000
  50
0.000000
  1
# 40
  7
STANDARD
  0
TEXT
  8
1
  10
-351.930969
  20
980.888306
  40
0.250000
  50
0.000000
  1
# 39
  7
STANDARD
  0
TEXT
  8
1
  10
-355.682098
  20
971.196167
  40
0.250000
  50
0.000000
  1
# 38
  7
STANDARD
  0
TEXT
  8
1
  10
-360.238190
  20
964.264771
  40
0.250000
  50
0.000000
  1
# 37
  7
STANDARD
  0
TEXT
  8
1
  10
-366.398254
  20
957.830017
  40
0.250000
  50
0.000000
  1
# 36
  7
STANDARD
  0
TEXT
  8
1
  10
-372.266296
  20
953.393066
  40
0.250000
  50
0.000000
  1
# 35
  7
STANDARD
  0
TEXT
  8
1
  10
-379.666138
  20
949.321045
  40
0.250000
  50
0.000000
  1
# 34
  7
STANDARD
  0
TEXT
  8
1
  10
-385.290771
  20
947.083862
  40
0.250000
  50
0.000000
  1
# 33
  7
STANDARD
  0
TEXT
  8
1
  10
-394.737946
  20
944.670532
  40
0.250000
  50
0.000000
  1
# 32
  7
STANDARD
  0
TEXT
  8
1
  10
-404.134399
  20
943.695557
  40
0.250000
  50
0.000000
  1
# 31
  7
STANDARD
  0
TEXT
  8
1
  10
-410.442505
  20
942.342407
  40
0.250000
  50
0.000000
  1
# 4
  7
STANDARD
  0
TEXT
  8
1
  10
-399.230408
  20
895.945129
  40
0.250000
  50
0.000000
  1
# 56
  7
STANDARD
  0
TEXT
  8
1
  10
-389.000946
  20
849.322571
  40
0.250000
  50
0.000000
  1
# 55
  7
STANDARD
  0
TEXT
  8
1
  10
-380.920197
  20
802.283997
  40
0.250000
  50
0.000000
  1
# 54
  7
STANDARD
  0
TEXT
  8
1
  10
-376.199615
  20
754.799255
  40
0.250000
  50
0.000000
  1
# 53
  7
STANDARD
  0
TEXT
  8
1
  10
-376.152222
  20
753.699097
  40
0.250000
  50
0.000000
  1
# 3
  7
STANDARD
  0
TEXT
  8
1
  10
-375.698059
  20
744.343079
  40
0.250000
  50
0.000000
  1
# 69
  7
STANDARD
  0
TEXT
  8
1
  10
-375.429779
  20
734.029785
  40
0.250000
  50
0.000000
  1
# 68
  7
STANDARD
  0
TEXT
  8
1
  10
-375.357086
  20
723.713501
  40
0.250000
  50
0.000000
  1
# 67
  7
STANDARD
  0
TEXT
  8
1
  10
-375.477234
  20
713.397766
  40
0.250000
  50
0.000000
  1
# 66
  7
STANDARD
  0
TEXT
  8
1
  10
-375.768494
  20
703.085266
  40
0.250000
  50
0.000000
  1
# 65
  7
STANDARD
  0
TEXT
  8
1
  10
-376.203552
  20
692.777649
  40
0.250000
  50
0.000000
  1
# 64
  7
STANDARD
  0
TEXT
  8
1
  10
-376.781952
  20
682.476685
  40
0.250000
  50
0.000000
  1
# 63
  7
STANDARD
  0
TEXT
  8
1
  10
-377.469452
  20
672.182434
  40
0.250000
  50
0.000000
  1
# 62
  7
STANDARD
  0
TEXT
  8
1
  10
-378.262482
  20
661.896179
  40
0.250000
  50
0.000000
  1
# 61
  7
STANDARD
  0
TEXT
  8
1
  10
-379.138794
  20
651.616943
  40
0.250000
  50
0.000000
  1
# 60
  7
STANDARD
  0
TEXT
  8
1
  10
-380.073242
  20
641.342773
  40
0.250000
  50
0.000000
  1
# 59
  7
STANDARD
  0
TEXT
  8
1
  10
-381.053680
  20
631.072937
  40
0.250000
  50
0.000000
  1
# 58
  7
STANDARD
  0
TEXT
  8
1
  10
-382.059082
  20
620.805176
  40
0.250000
  50
0.000000
  1
# 57
  7
STANDARD
  0
TEXT
  8
1
  10
-383.078674
  20
610.538513
  40
0.250000
  50
0.000000
  1
# 2
  7
STANDARD
  0
TEXT
  8
1
  10
-365.061768
  20
607.270691
  40
0.250000
  50
0.000000
  1
# 88
  7
STANDARD
  0
TEXT
  8
1
  10
-347.022858
  20
604.127930
  40
0.250000
  50
0.000000
  1
# 87
  7
STANDARD
  0
TEXT
  8
1
  10
-328.958618
  20
601.134949
  40
0.250000
  50
0.000000
  1
# 86
  7
STANDARD
  0
TEXT
  8
1
  10
-310.864075
  20
598.331665
  40
0.250000
  50
0.000000
  1
# 85
  7
STANDARD
  0
TEXT
  8
1
  10
-299.174591
  20
596.629150
  40
0.250000
  50
0.000000
  1
# 84
  7
STANDARD
  0
TEXT
  8
1
  10
-287.472229
  20
595.023865
  40
0.250000
  50
0.000000
  1
# 83
  7
STANDARD
  0
TEXT
  8
1
  10
-275.755096
  20
593.530457
  40
0.250000
  50
0.000000
  1
# 82
  7
STANDARD
  0
TEXT
  8
1
  10
-264.023987
  20
592.143433
  40
0.250000
  50
0.000000
  1
# 81
  7
STANDARD
  0
TEXT
  8
1
  10
-227.411697
  20
588.697632
  40
0.250000
  50
0.000000
  1
# 80
  7
STANDARD
  0
TEXT
  8
1
  10
-190.682770
  20
586.903198
  40
0.250000
  50
0.000000
  1
# 79
  7
STANDARD
  0
TEXT
  8
1
  10
-153.913208
  20
587.269165
  40
0.250000
  50
0.000000
  1
# 78
  7
STANDARD
  0
TEXT
  8
1
  10
-117.214249
  20
589.609253
  40
0.250000
  50
0.000000
  1
# 77
  7
STANDARD
  0
TEXT
  8
1
  10
-80.638237
  20
593.424438
  40
0.250000
  50
0.000000
  1
# 76
  7
STANDARD
  0
TEXT
  8
1
  10
-71.285286
  20
594.592346
  40
0.250000
  50
0.000000
  1
# 75
  7
STANDARD
  0
TEXT
  8
1
  10
-61.941742
  20
595.826172
  40
0.250000
  50
0.000000
  1
# 74
  7
STANDARD
  0
TEXT
  8
1
  10
-43.771149
  20
598.416870
  40
0.250000
  50
0.000000
  1
# 73
  7
STANDARD
  0
TEXT
  8
1
  10
-25.629059
  20
601.200867
  40
0.250000
  50
0.000000
  1
# 72
  7
STANDARD
  0
TEXT
  8
1
  10
-7.515564
  20
604.165894
  40
0.250000
  50
0.000000
  1
# 71
  7
STANDARD
  0
TEXT
  8
1
  10
10.571609
  20
607.287903
  40
0.250000
  50
0.000000
  1
# 70
  7
STANDARD
  0
TEXT
  8
1
  10
28.639679
  20
610.519531
  40
0.250000
  50
0.000000
  1
# 1
  7
STANDARD
  0
TEXT
  8
1
  10
27.127716
  20
623.353516
  40
0.250000
  50
0.000000
  1
# 98
  7
STANDARD
  0
TEXT
  8
1
  10
25.272858
  20
636.142212
  40
0.250000
  50
0.000000
  1
# 97
  7
STANDARD
  0
TEXT
  8
1
  10
23.209824
  20
648.900146
  40
0.250000
  50
0.000000
  1
# 96
  7
STANDARD
  0
TEXT
  8
1
  10
21.021118
  20
661.635620
  40
0.250000
  50
0.000000
  1
# 95
  7
STANDARD
  0
TEXT
  8
1
  10
18.809265
  20
674.368774
  40
0.250000
  50
0.000000
  1
# 94
  7
STANDARD
  0
TEXT
  8
1
  10
16.694397
  20
687.116882
  40
0.250000
  50
0.000000
  1
# 93
  7
STANDARD
  0
TEXT
  8
1
  10
14.753433
  20
699.893372
  40
0.250000
  50
0.000000
  1
# 92
  7
STANDARD
  0
TEXT
  8
1
  10
12.857559
  20
714.997742
  40
0.250000
  50
0.000000
  1
# 91
  7
STANDARD
  0
TEXT
  8
1
  10
11.536942
  20
730.163696
  40
0.250000
  50
0.000000
  1
# 90
  7
STANDARD
  0
TEXT
  8
1
  10
10.975189
  20
745.375732
  40
0.250000
  50
0.000000
  1
# 89
  7
STANDARD
  0
TEXT
  8
1
  10
11.075928
  20
753.332458
  40
0.250000
  50
0.000000
  1
# 0
  7
STANDARD
  0
TEXT
  8
1
  10
11.429565
  20
761.737244
  40
0.250000
  50
0.000000
  1
# 109
  7
STANDARD
  0
TEXT
  8
1
  10
12.878082
  20
779.304504
  40
0.250000
  50
0.000000
  1
# 108
  7
STANDARD
  0
TEXT
  8
1
  10
14.899078
  20
796.815552
  40
0.250000
  50
0.000000
  1
# 107
  7
STANDARD
  0
TEXT
  8
1
  10
17.407089
  20
814.262512
  40
0.250000
  50
0.000000
  1
# 106
  7
STANDARD
  0
TEXT
  8
1
  10
20.125824
  20
830.425476
  40
0.250000
  50
0.000000
  1
# 105
  7
STANDARD
  0
TEXT
  8
1
  10
23.163147
  20
846.532654
  40
0.250000
  50
0.000000
  1
# 104
  7
STANDARD
  0
TEXT
  8
1
  10
26.477264
  20
862.583679
  40
0.250000
  50
0.000000
  1
# 103
  7
STANDARD
  0
TEXT
  8
1
  10
29.997742
  20
878.591919
  40
0.250000
  50
0.000000
  1
# 102
  7
STANDARD
  0
TEXT
  8
1
  10
33.695557
  20
894.560303
  40
0.250000
  50
0.000000
  1
# 101
  7
STANDARD
  0
TEXT
  8
1
  10
37.508453
  20
910.500244
  40
0.250000
  50
0.000000
  1
# 100
  7
STANDARD
  0
TEXT
  8
1
  10
41.394089
  20
926.424194
  40
0.250000
  50
0.000000
  1
# 99
  7
STANDARD
  0
TEXT
  8
1
  10
45.299500
  20
942.342407
  40
0.250000
  50
0.000000
  1
# 9
  7
STANDARD
  0
TEXT
  8
1
  10
39.473648
  20
944.399902
  40
0.250000
  50
0.000000
  1
# 133
  7
STANDARD
  0
TEXT
  8
1
  10
32.796265
  20
946.727234
  40
0.250000
  50
0.000000
  1
# 132
  7
STANDARD
  0
TEXT
  8
1
  10
26.482452
  20
949.874756
  40
0.250000
  50
0.000000
  1
# 131
  7
STANDARD
  0
TEXT
  8
1
  10
20.350174
  20
954.030212
  40
0.250000
  50
0.000000
  1
# 130
  7
STANDARD
  0
TEXT
  8
1
  10
15.656586
  20
958.186523
  40
0.250000
  50
0.000000
  1
# 129
  7
STANDARD
  0
TEXT
  8
1
  10
11.250198
  20
961.257568
  40
0.250000
  50
0.000000
  1
# 128
  7
STANDARD
  0
TEXT
  8
1
  10
6.685715
  20
965.413757
  40
0.250000
  50
0.000000
  1
# 127
  7
STANDARD
  0
TEXT
  8
1
  10
2.760742
  20
970.181152
  40
0.250000
  50
0.000000
  1
# 126
  7
STANDARD
  0
TEXT
  8
1
  10
-0.455597
  20
975.448914
  40
0.250000
  50
0.000000
  1
# 125
  7
STANDARD
  0
TEXT
  8
1
  10
-2.874817
  20
981.123840
  40
0.250000
  50
0.000000
  1
# 124
  7
STANDARD
  0
TEXT
  8
1
  10
-4.535675
  20
987.068665
  40
0.250000
  50
0.000000
  1
# 123
  7
STANDARD
  0
TEXT
  8
1
  10
-5.549286
  20
993.146301
  40
0.250000
  50
0.000000
  1
# 122
  7
STANDARD
  0
TEXT
  8
1
  10
-7.019943
  20
999.137024
  40
0.250000
  50
0.000000
  1
# 121
  7
STANDARD
  0
TEXT
  8
1
  10
-7.467361
  20
1003.185669
  40
0.250000
  50
0.000000
  1
# 120
  7
STANDARD
  0
TEXT
  8
1
  10
-7.942612
  20
1008.052002
  40
0.250000
  50
0.000000
  1
# 119
  7
STANDARD
  0
TEXT
  8
1
  10
-8.303833
  20
1013.392273
  40
0.250000
  50
0.000000
  1
# 118
  7
STANDARD
  0
TEXT
  8
1
  10
-8.414032
  20
1017.811157
  40
0.250000
  50
0.000000
  1
# 117
  7
STANDARD
  0
TEXT
  8
1
  10
-8.263077
  20
1022.886169
  40
0.250000
  50
0.000000
  1
# 116
  7
STANDARD
  0
TEXT
  8
1
  10
-7.785019
  20
1031.951904
  40
0.250000
  50
0.000000
  1
# 115
  7
STANDARD
  0
TEXT
  8
1
  10
-6.975967
  20
1041.285522
  40
0.250000
  50
0.000000
  1
# 114
  7
STANDARD
  0
TEXT
  8
1
  10
-5.817459
  20
1051.148193
  40
0.250000
  50
0.000000
  1
# 113
  7
STANDARD
  0
TEXT
  8
1
  10
-4.196426
  20
1062.289551
  40
0.250000
  50
0.000000
  1
# 112
  7
STANDARD
  0
TEXT
  8
1
  10
-1.916443
  20
1075.700806
  40
0.250000
  50
0.000000
  1
# 111
  7
STANDARD
  0
TEXT
  8
1
  10
0.414215
  20
1088.197144
  40
0.250000
  50
0.000000
  1
# 110
  7
STANDARD
  0
POINT
  8
2
  10
2.386856
  20
1098.425171
  0
POINT
  8
2
  10
-77.187660
  20
1143.398682
  0
POINT
  8
2
  10
-277.210419
  20
1143.478027
  0
POINT
  8
2
  10
-356.864807
  20
1098.513916
  0
POINT
  8
2
  10
-410.442505
  20
942.342407
  0
POINT
  8
2
  10
-376.152222
  20
753.699097
  0
POINT
  8
2
  10
-383.078674
  20
610.538513
  0
POINT
  8
2
  10
28.639679
  20
610.519531
  0
POINT
  8
2
  10
11.075928
  20
753.332458
  0
POINT
  8
2
  10
45.299500
  20
942.342407
  0
POINT
  8
3
  10
-81.836433
  20
1133.647095
  0
POINT
  8
3
  10
-87.494682
  20
1124.435425
  0
POINT
  8
3
  10
-93.958481
  20
1115.775635
  0
POINT
  8
3
  10
-101.259689
  20
1107.806763
  0
POINT
  8
3
  10
-109.366959
  20
1100.660034
  0
POINT
  8
3
  10
-118.226479
  20
1094.470215
  0
POINT
  8
3
  10
-127.745667
  20
1089.360962
  0
POINT
  8
3
  10
-137.869324
  20
1085.585327
  0
POINT
  8
3
  10
-147.690430
  20
1083.389160
  0
POINT
  8
3
  10
-157.697647
  20
1082.331543
  0
POINT
  8
3
  10
-197.940155
  20
1082.214233
  0
POINT
  8
3
  10
-207.929489
  20
1083.475708
  0
POINT
  8
3
  10
-217.692108
  20
1085.890869
  0
POINT
  8
3
  10
-227.411224
  20
1089.734131
  0
POINT
  8
3
  10
-236.500031
  20
1094.898926
  0
POINT
  8
3
  10
-245.096680
  20
1100.878906
  0
POINT
  8
3
  10
-253.066772
  20
1107.617432
  0
POINT
  8
3
  10
-260.306885
  20
1115.137573
  0
POINT
  8
3
  10
-266.679932
  20
1123.446045
  0
POINT
  8
3
  10
-272.040771
  20
1132.401855
  0
POINT
  8
3
  10
-276.493835
  20
1141.737183
  0
POINT
  8
3
  10
-354.745239
  20
1087.477905
  0
POINT
  8
3
  10
-352.741394
  20
1076.621948
  0
POINT
  8
3
  10
-350.449219
  20
1062.862427
  0
POINT
  8
3
  10
-348.637299
  20
1049.428955
  0
POINT
  8
3
  10
-347.386719
  20
1035.803711
  0
POINT
  8
3
  10
-346.734619
  20
1027.220459
  0
POINT
  8
3
  10
-346.597412
  20
1019.725464
  0
POINT
  8
3
  10
-346.757446
  20
1012.235168
  0
POINT
  8
3
  10
-346.821198
  20
1010.834839
  0
POINT
  8
3
  10
-347.052429
  20
1005.755615
  0
POINT
  8
3
  10
-347.419617
  20
999.244141
  0
POINT
  8
3
  10
-348.261658
  20
995.301941
  0
POINT
  8
3
  10
-349.509430
  20
991.464905
  0
POINT
  8
3
  10
-350.796021
  20
987.650146
  0
POINT
  8
3
  10
-351.930969
  20
980.888306
  0
POINT
  8
3
  10
-355.682098
  20
971.196167
  0
POINT
  8
3
  10
-360.238190
  20
964.264771
  0
POINT
  8
3
  10
-366.398254
  20
957.830017
  0
POINT
  8
3
  10
-372.266296
  20
953.393066
  0
POINT
  8
3
  10
-379.666138
  20
949.321045
  0
POINT
  8
3
  10
-385.290771
  20
947.083862
  0
POINT
  8
3
  10
-394.737946
  20
944.670532
  0
POINT
  8
3
  10
-404.134399
  20
943.695557
  0
POINT
  8
3
  10
-399.230408
  20
895.945129
  0
POINT
  8
3
  10
-389.000946
  20
849.322571
  0
POINT
  8
3
  10
-380.920197
  20
802.283997
  0
POINT
  8
3
  10
-376.199615
  20
754.799255
  0
POINT
  8
3
  10
-375.698059
  20
744.343079
  0
POINT
  8
3
  10
-375.429779
  20
734.029785
  0
POINT
  8
3
  10
-375.357086
  20
723.713501
  0
POINT
  8
3
  10
-375.477234
  20
713.397766
  0
POINT
  8
3
  10
-375.768494
  20
703.085266
  0
POINT
  8
3
  10
-376.203552
  20
692.777649
  0
POINT
  8
3
  10
-376.781952
  20
682.476685
  0
POINT
  8
3
  10
-377.469452
  20
672.182434
  0
POINT
  8
3
  10
-378.262482
  20
661.896179
  0
POINT
  8
3
  10
-379.138794
  20
651.616943
  0
POINT
  8
3
  10
-380.073242
  20
641.342773
  0
POINT
  8
3
  10
-381.053680
  20
631.072937
  0
POINT
  8
3
  10
-382.059082
  20
620.805176
  0
POINT
  8
3
  10
-365.061768
  20
607.270691
  0
POINT
  8
3
  10
-347.022858
  20
604.127930
  0
POINT
  8
3
  10
-328.958618
  20
601.134949
  0
POINT
  8
3
  10
-310.864075
  20
598.331665
  0
POINT
  8
3
  10
-299.174591
  20
596.629150
  0
POINT
  8
3
  10
-287.472229
  20
595.023865
  0
POINT
  8
3
  10
-275.755096
  20
593.530457
  0
POINT
  8
3
  10
-264.023987
  20
592.143433
  0
POINT
  8
3
  10
-227.411697
  20
588.697632
  0
POINT
  8
3
  10
-190.682770
  20
586.903198
  0
POINT
  8
3
  10
-153.913208
  20
587.269165
  0
POINT
  8
3
  10
-117.214249
  20
589.609253
  0
POINT
  8
3
  10
-80.638237
  20
593.424438
  0
POINT
  8
3
  10
-71.285286
  20
594.592346
  0
POINT
  8
3
  10
-61.941742
  20
595.826172
  0
POINT
  8
3
  10
-43.771149
  20
598.416870
  0
POINT
  8
3
  10
-25.629059
  20
601.200867
  0
POINT
  8
3
  10
-7.515564
  20
604.165894
  0
POINT
  8
3
  10
10.571609
  20
607.287903
  0
POINT
  8
3
  10
27.127716
  20
623.353516
  0
POINT
  8
3
  10
25.272858
  20
636.142212
  0
POINT
  8
3
  10
23.209824
  20
648.900146
  0
POINT
  8
3
  10
21.021118
  20
661.635620
  0
POINT
  8
3
  10
18.809265
  20
674.368774
  0
POINT
  8
3
  10
16.694397
  20
687.116882
  0
POINT
  8
3
  10
14.753433
  20
699.893372
  0
POINT
  8
3
  10
12.857559
  20
714.997742
  0
POINT
  8
3
  10
11.536942
  20
730.163696
  0
POINT
  8
3
  10
10.975189
  20
745.375732
  0
POINT
  8
3
  10
11.429565
  20
761.737244
  0
POINT
  8
3
  10
12.878082
  20
779.304504
  0
POINT
  8
3
  10
14.899078
  20
796.815552
  0
POINT
  8
3
  10
17.407089
  20
814.262512
  0
POINT
  8
3
  10
20.125824
  20
830.425476
  0
POINT
  8
3
  10
23.163147
  20
846.532654
  0
POINT
  8
3
  10
26.477264
  20
862.583679
  0
POINT
  8
3
  10
29.997742
  20
878.591919
  0
POINT
  8
3
  10
33.695557
  20
894.560303
  0
POINT
  8
3
  10
37.508453
  20
910.500244
  0
POINT
  8
3
  10
41.394089
  20
926.424194
  0
POINT
  8
3
  10
39.473648
  20
944.399902
  0
POINT
  8
3
  10
32.796265
  20
946.727234
  0
POINT
  8
3
  10
26.482452
  20
949.874756
  0
POINT
  8
3
  10
20.350174
  20
954.030212
  0
POINT
  8
3
  10
15.656586
  20
958.186523
  0
POINT
  8
3
  10
11.250198
  20
961.257568
  0
POINT
  8
3
  10
6.685715
  20
965.413757
  0
POINT
  8
3
  10
2.760742
  20
970.181152
  0
POINT
  8
3
  10
-0.455597
  20
975.448914
  0
POINT
  8
3
  10
-2.874817
  20
981.123840
  0
POINT
  8
3
  10
-4.535675
  20
987.068665
  0
POINT
  8
3
  10
-5.549286
  20
993.146301
  0
POINT
  8
3
  10
-7.019943
  20
999.137024
  0
POINT
  8
3
  10
-7.467361
  20
1003.185669
  0
POINT
  8
3
  10
-7.942612
  20
1008.052002
  0
POINT
  8
3
  10
-8.296600
  20
1013.285400
  0
POINT
  8
3
  10
-8.303833
  20
1013.392273
  0
POINT
  8
3
  10
-8.414032
  20
1017.811157
  0
POINT
  8
3
  10
-8.263077
  20
1022.886169
  0
POINT
  8
3
  10
-7.785019
  20
1031.951904
  0
POINT
  8
3
  10
-6.975967
  20
1041.285522
  0
POINT
  8
3
  10
-5.817459
  20
1051.148193
  0
POINT
  8
3
  10
-4.196426
  20
1062.289551
  0
POINT
  8
3
  10
-1.916443
  20
1075.700806
  0
POINT
  8
3
  10
0.414215
  20
1088.197144
  0
POINT
  8
4
  10
-346.821198
  20
1010.834839
  30
7.000000
  39
0.000000
  50
357.393829
  0
POINT
  8
4
  10
-8.296600
  20
1013.285400
  30
7.000000
  39
0.000000
  50
184.694824
  0
POLYLINE
  8
84
  66
1
  70
1
  250
2
  0
VERTEX
  8
84
  10
2.386856
  20
1098.425171
  0
VERTEX
  8
84
  10
-77.187660
  20
1143.398682
  0
VERTEX
  8
84
  10
-79.428001
  20
1138.479004
  0
VERTEX
  8
84
  10
-81.836433
  20
1133.647095
  0
VERTEX
  8
84
  10
-83.607399
  20
1130.509766
  0
VERTEX
  8
84
  10
-85.501549
  20
1127.442749
  0
VERTEX
  8
84
  10
-87.494682
  20
1124.435425
  0
VERTEX
  8
84
  10
-90.630005
  20
1120.031372
  0
VERTEX
  8
84
  10
-93.958481
  20
1115.775635
  0
VERTEX
  8
84
  10
-96.298126
  20
1113.034668
  0
VERTEX
  8
84
  10
-98.732544
  20
1110.377808
  0
VERTEX
  8
84
  10
-101.259689
  20
1107.806763
  0
VERTEX
  8
84
  10
-103.875397
  20
1105.326172
  0
VERTEX
  8
84
  10
-106.577560
  20
1102.942261
  0
VERTEX
  8
84
  10
-109.366959
  20
1100.660034
  0
VERTEX
  8
84
  10
-112.241150
  20
1098.485352
  0
VERTEX
  8
84
  10
-115.195244
  20
1096.421875
  0
VERTEX
  8
84
  10
-118.226479
  20
1094.470215
  0
VERTEX
  8
84
  10
-121.328796
  20
1092.635498
  0
VERTEX
  8
84
  10
-124.501328
  20
1090.928467
  0
VERTEX
  8
84
  10
-127.745667
  20
1089.360962
  0
VERTEX
  8
84
  10
-131.059647
  20
1087.944336
  0
VERTEX
  8
84
  10
-134.435913
  20
1086.684814
  0
VERTEX
  8
84
  10
-137.869324
  20
1085.585327
  0
VERTEX
  8
84
  10
-141.111023
  20
1084.708740
  0
VERTEX
  8
84
  10
-144.386612
  20
1083.976440
  0
VERTEX
  8
84
  10
-147.690430
  20
1083.389160
  0
VERTEX
  8
84
  10
-152.681030
  20
1082.760986
  0
VERTEX
  8
84
  10
-157.697647
  20
1082.331543
  0
VERTEX
  8
84
  10
-160.569794
  20
1082.129150
  0
VERTEX
  8
84
  10
-163.443573
  20
1081.950317
  0
VERTEX
  8
84
  10
-166.318695
  20
1081.796753
  0
VERTEX
  8
84
  10
-169.194809
  20
1081.669922
  0
VERTEX
  8
84
  10
-172.071609
  20
1081.571411
  0
VERTEX
  8
84
  10
-174.948761
  20
1081.502808
  0
VERTEX
  8
84
  10
-177.825958
  20
1081.465576
  0
VERTEX
  8
84
  10
-180.702866
  20
1081.461182
  0
VERTEX
  8
84
  10
-183.579147
  20
1081.491455
  0
VERTEX
  8
84
  10
-186.454514
  20
1081.557739
  0
VERTEX
  8
84
  10
-189.328613
  20
1081.661621
  0
VERTEX
  8
84
  10
-192.201141
  20
1081.804565
  0
VERTEX
  8
84
  10
-195.071762
  20
1081.988281
  0
VERTEX
  8
84
  10
-197.940155
  20
1082.214233
  0
VERTEX
  8
84
  10
-202.950943
  20
1082.730347
  0
VERTEX
  8
84
  10
-207.929489
  20
1083.475708
  0
VERTEX
  8
84
  10
-211.216080
  20
1084.140869
  0
VERTEX
  8
84
  10
-214.471558
  20
1084.946655
  0
VERTEX
  8
84
  10
-217.692108
  20
1085.890869
  0
VERTEX
  8
84
  10
-220.993790
  20
1087.017090
  0
VERTEX
  8
84
  10
-224.237000
  20
1088.295654
  0
VERTEX
  8
84
  10
-227.411224
  20
1089.734131
  0
VERTEX
  8
84
  10
-230.507812
  20
1091.332520
  0
VERTEX
  8
84
  10
-233.532822
  20
1093.064453
  0
VERTEX
  8
84
  10
-236.500031
  20
1094.898926
  0
VERTEX
  8
84
  10
-240.863159
  20
1097.798096
  0
VERTEX
  8
84
  10
-245.096680
  20
1100.878906
  0
VERTEX
  8
84
  10
-247.827072
  20
1103.036743
  0
VERTEX
  8
84
  10
-250.484650
  20
1105.282959
  0
VERTEX
  8
84
  10
-253.066772
  20
1107.617432
  0
VERTEX
  8
84
  10
-255.568634
  20
1110.038574
  0
VERTEX
  8
84
  10
-257.983398
  20
1112.544800
  0
VERTEX
  8
84
  10
-260.306885
  20
1115.137573
  0
VERTEX
  8
84
  10
-262.539215
  20
1117.824097
  0
VERTEX
  8
84
  10
-264.665466
  20
1120.593750
  0
VERTEX
  8
84
  10
-266.679932
  20
1123.446045
  0
VERTEX
  8
84
  10
-268.572021
  20
1126.366943
  0
VERTEX
  8
84
  10
-270.355133
  20
1129.355225
  0
VERTEX
  8
84
  10
-272.040771
  20
1132.401855
  0
VERTEX
  8
84
  10
-274.377136
  20
1137.018311
  0
VERTEX
  8
84
  10
-276.493835
  20
1141.737183
  0
VERTEX
  8
84
  10
-277.210419
  20
1143.478027
  0
VERTEX
  8
84
  10
-356.864807
  20
1098.513916
  0
VERTEX
  8
84
  10
-354.745239
  20
1087.477905
  0
VERTEX
  8
84
  10
-352.741394
  20
1076.621948
  0
VERTEX
  8
84
  10
-350.449219
  20
1062.862427
  0
VERTEX
  8
84
  10
-349.470001
  20
1056.154785
  0
VERTEX
  8
84
  10
-348.637299
  20
1049.428955
  0
VERTEX
  8
84
  10
-347.386719
  20
1035.803711
  0
VERTEX
  8
84
  10
-346.734619
  20
1027.220459
  0
VERTEX
  8
84
  10
-346.597412
  20
1019.725464
  0
VERTEX
  8
84
  10
-346.757446
  20
1012.235168
  0
VERTEX
  8
84
  10
-346.821198
  20
1010.834839
  0
VERTEX
  8
84
  10
-347.052429
  20
1005.755615
  0
VERTEX
  8
84
  10
-347.419617
  20
999.244141
  0
VERTEX
  8
84
  10
-348.261658
  20
995.301941
  0
VERTEX
  8
84
  10
-349.509430
  20
991.464905
  0
VERTEX
  8
84
  10
-350.796021
  20
987.650146
  0
VERTEX
  8
84
  10
-351.412445
  20
984.283691
  0
VERTEX
  8
84
  10
-351.930969
  20
980.888306
  0
VERTEX
  8
84
  10
-352.417664
  20
978.867615
  0
VERTEX
  8
84
  10
-353.058472
  20
976.887634
  0
VERTEX
  8
84
  10
-353.831055
  20
974.948792
  0
VERTEX
  8
84
  10
-354.713074
  20
973.051514
  0
VERTEX
  8
84
  10
-355.682098
  20
971.196167
  0
VERTEX
  8
84
  10
-357.076630
  20
968.796997
  0
VERTEX
  8
84
  10
-358.592285
  20
966.484009
  0
VERTEX
  8
84
  10
-360.238190
  20
964.264771
  0
VERTEX
  8
84
  10
-362.155029
  20
961.995239
  0
VERTEX
  8
84
  10
-364.213562
  20
959.849365
  0
VERTEX
  8
84
  10
-366.398254
  20
957.830017
  0
VERTEX
  8
84
  10
-369.256165
  20
955.510010
  0
VERTEX
  8
84
  10
-372.266296
  20
953.393066
  0
VERTEX
  8
84
  10
-374.663818
  20
951.911133
  0
VERTEX
  8
84
  10
-377.132751
  20
950.553040
  0
VERTEX
  8
84
  10
-379.666138
  20
949.321045
  0
VERTEX
  8
84
  10
-385.290771
  20
947.083862
  0
VERTEX
  8
84
  10
-388.392761
  20
946.085510
  0
VERTEX
  8
84
  10
-391.542603
  20
945.264282
  0
VERTEX
  8
84
  10
-394.737946
  20
944.670532
  0
VERTEX
  8
84
  10
-399.438965
  20
944.191589
  0
VERTEX
  8
84
  10
-404.134399
  20
943.695557
  0
VERTEX
  8
84
  10
-410.442505
  20
942.342407
  0
VERTEX
  8
84
  10
-407.603882
  20
930.749756
  0
VERTEX
  8
84
  10
-404.779968
  20
919.157959
  0
VERTEX
  8
84
  10
-401.984283
  20
907.559021
  0
VERTEX
  8
84
  10
-399.230408
  20
895.945129
  0
VERTEX
  8
84
  10
-397.873840
  20
890.132385
  0
VERTEX
  8
84
  10
-396.534271
  20
884.317322
  0
VERTEX
  8
84
  10
-395.214355
  20
878.498901
  0
VERTEX
  8
84
  10
-393.916626
  20
872.676208
  0
VERTEX
  8
84
  10
-392.643829
  20
866.848145
  0
VERTEX
  8
84
  10
-391.398560
  20
861.013855
  0
VERTEX
  8
84
  10
-390.183350
  20
855.172302
  0
VERTEX
  8
84
  10
-389.000946
  20
849.322571
  0
VERTEX
  8
84
  10
-388.080444
  20
844.637939
  0
VERTEX
  8
84
  10
-387.183472
  20
839.949951
  0
VERTEX
  8
84
  10
-386.310516
  20
835.258179
  0
VERTEX
  8
84
  10
-385.462158
  20
830.562317
  0
VERTEX
  8
84
  10
-384.639008
  20
825.862061
  0
VERTEX
  8
84
  10
-383.841553
  20
821.157166
  0
VERTEX
  8
84
  10
-383.070435
  20
816.447205
  0
VERTEX
  8
84
  10
-382.326080
  20
811.731873
  0
VERTEX
  8
84
  10
-381.609192
  20
807.010925
  0
VERTEX
  8
84
  10
-380.920197
  20
802.283997
  0
VERTEX
  8
84
  10
-380.409973
  20
798.645142
  0
VERTEX
  8
84
  10
-379.918365
  20
795.004150
  0
VERTEX
  8
84
  10
-379.446960
  20
791.360962
  0
VERTEX
  8
84
  10
-378.997406
  20
787.715576
  0
VERTEX
  8
84
  10
-378.571289
  20
784.067932
  0
VERTEX
  8
84
  10
-378.170227
  20
780.417969
  0
VERTEX
  8
84
  10
-377.795837
  20
776.765625
  0
VERTEX
  8
84
  10
-377.449707
  20
773.110840
  0
VERTEX
  8
84
  10
-377.133484
  20
769.453674
  0
VERTEX
  8
84
  10
-376.848724
  20
765.793945
  0
VERTEX
  8
84
  10
-376.597107
  20
762.131653
  0
VERTEX
  8
84
  10
-376.380188
  20
758.466797
  0
VERTEX
  8
84
  10
-376.199615
  20
754.799255
  0
VERTEX
  8
84
  10
-376.152222
  20
753.699097
  0
VERTEX
  8
84
  10
-375.698059
  20
744.343079
  0
VERTEX
  8
84
  10
-375.429779
  20
734.029785
  0
VERTEX
  8
84
  10
-375.357086
  20
723.713501
  0
VERTEX
  8
84
  10
-375.477234
  20
713.397766
  0
VERTEX
  8
84
  10
-375.768494
  20
703.085266
  0
VERTEX
  8
84
  10
-376.203552
  20
692.777649
  0
VERTEX
  8
84
  10
-376.781952
  20
682.476685
  0
VERTEX
  8
84
  10
-377.469452
  20
672.182434
  0
VERTEX
  8
84
  10
-378.262482
  20
661.896179
  0
VERTEX
  8
84
  10
-379.138794
  20
651.616943
  0
VERTEX
  8
84
  10
-380.073242
  20
641.342773
  0
VERTEX
  8
84
  10
-381.053680
  20
631.072937
  0
VERTEX
  8
84
  10
-382.059082
  20
620.805176
  0
VERTEX
  8
84
  10
-383.078674
  20
610.538513
  0
VERTEX
  8
84
  10
-365.061768
  20
607.270691
  0
VERTEX
  8
84
  10
-347.022858
  20
604.127930
  0
VERTEX
  8
84
  10
-328.958618
  20
601.134949
  0
VERTEX
  8
84
  10
-310.864075
  20
598.331665
  0
VERTEX
  8
84
  10
-299.174591
  20
596.629150
  0
VERTEX
  8
84
  10
-287.472229
  20
595.023865
  0
VERTEX
  8
84
  10
-275.755096
  20
593.530457
  0
VERTEX
  8
84
  10
-264.023987
  20
592.143433
  0
VERTEX
  8
84
  10
-257.929993
  20
591.472534
  0
VERTEX
  8
84
  10
-251.833984
  20
590.838501
  0
VERTEX
  8
84
  10
-245.735016
  20
590.242676
  0
VERTEX
  8
84
  10
-239.632248
  20
589.686401
  0
VERTEX
  8
84
  10
-233.524765
  20
589.170898
  0
VERTEX
  8
84
  10
-227.411697
  20
588.697632
  0
VERTEX
  8
84
  10
-222.169189
  20
588.326904
  0
VERTEX
  8
84
  10
-216.925888
  20
587.990601
  0
VERTEX
  8
84
  10
-211.681366
  20
587.690918
  0
VERTEX
  8
84
  10
-206.435196
  20
587.430176
  0
VERTEX
  8
84
  10
-201.186981
  20
587.210449
  0
VERTEX
  8
84
  10
-195.936310
  20
587.034058
  0
VERTEX
  8
84
  10
-190.682770
  20
586.903198
  0
VERTEX
  8
84
  10
-186.085098
  20
586.827454
  0
VERTEX
  8
84
  10
-181.488129
  20
586.787720
  0
VERTEX
  8
84
  10
-176.891708
  20
586.783325
  0
VERTEX
  8
84
  10
-172.295715
  20
586.813599
  0
VERTEX
  8
84
  10
-167.699997
  20
586.877930
  0
VERTEX
  8
84
  10
-163.104431
  20
586.975769
  0
VERTEX
  8
84
  10
-158.508881
  20
587.106384
  0
VERTEX
  8
84
  10
-153.913208
  20
587.269165
  0
VERTEX
  8
84
  10
-148.662506
  20
587.493652
  0
VERTEX
  8
84
  10
-143.415344
  20
587.757507
  0
VERTEX
  8
84
  10
-138.171173
  20
588.059082
  0
VERTEX
  8
84
  10
-132.929489
  20
588.396729
  0
VERTEX
  8
84
  10
-127.689781
  20
588.768799
  0
VERTEX
  8
84
  10
-122.451538
  20
589.173462
  0
VERTEX
  8
84
  10
-117.214249
  20
589.609253
  0
VERTEX
  8
84
  10
-111.107376
  20
590.154663
  0
VERTEX
  8
84
  10
-105.006111
  20
590.738159
  0
VERTEX
  8
84
  10
-98.909500
  20
591.358276
  0
VERTEX
  8
84
  10
-92.816612
  20
592.013672
  0
VERTEX
  8
84
  10
-86.726501
  20
592.702881
  0
VERTEX
  8
84
  10
-80.638237
  20
593.424438
  0
VERTEX
  8
84
  10
-71.285286
  20
594.592346
  0
VERTEX
  8
84
  10
-61.941742
  20
595.826172
  0
VERTEX
  8
84
  10
-43.771149
  20
598.416870
  0
VERTEX
  8
84
  10
-25.629059
  20
601.200867
  0
VERTEX
  8
84
  10
-7.515564
  20
604.165894
  0
VERTEX
  8
84
  10
10.571609
  20
607.287903
  0
VERTEX
  8
84
  10
28.639679
  20
610.519531
  0
VERTEX
  8
84
  10
27.127716
  20
623.353516
  0
VERTEX
  8
84
  10
25.272858
  20
636.142212
  0
VERTEX
  8
84
  10
23.209824
  20
648.900146
  0
VERTEX
  8
84
  10
21.021118
  20
661.635620
  0
VERTEX
  8
84
  10
18.809265
  20
674.368774
  0
VERTEX
  8
84
  10
16.694397
  20
687.116882
  0
VERTEX
  8
84
  10
14.753433
  20
699.893372
  0
VERTEX
  8
84
  10
13.742188
  20
707.437744
  0
VERTEX
  8
84
  10
12.857559
  20
714.997742
  0
VERTEX
  8
84
  10
12.118301
  20
722.573425
  0
VERTEX
  8
84
  10
11.536942
  20
730.163696
  0
VERTEX
  8
84
  10
11.245514
  20
735.231567
  0
VERTEX
  8
84
  10
11.051071
  20
740.301819
  0
VERTEX
  8
84
  10
10.975189
  20
745.375732
  0
VERTEX
  8
84
  10
11.075928
  20
753.332458
  0
VERTEX
  8
84
  10
11.429565
  20
761.737244
  0
VERTEX
  8
84
  10
11.812286
  20
767.600586
  0
VERTEX
  8
84
  10
12.306107
  20
773.454834
  0
VERTEX
  8
84
  10
12.878082
  20
779.304504
  0
VERTEX
  8
84
  10
13.830643
  20
788.067261
  0
VERTEX
  8
84
  10
14.899078
  20
796.815552
  0
VERTEX
  8
84
  10
16.093842
  20
805.547363
  0
VERTEX
  8
84
  10
17.407089
  20
814.262512
  0
VERTEX
  8
84
  10
18.723969
  20
822.351135
  0
VERTEX
  8
84
  10
20.125824
  20
830.425476
  0
VERTEX
  8
84
  10
21.606735
  20
838.486206
  0
VERTEX
  8
84
  10
23.163147
  20
846.532654
  0
VERTEX
  8
84
  10
26.477264
  20
862.583679
  0
VERTEX
  8
84
  10
29.997742
  20
878.591919
  0
VERTEX
  8
84
  10
33.695557
  20
894.560303
  0
VERTEX
  8
84
  10
37.508453
  20
910.500244
  0
VERTEX
  8
84
  10
41.394089
  20
926.424194
  0
VERTEX
  8
84
  10
45.299500
  20
942.342407
  0
VERTEX
  8
84
  10
39.473648
  20
944.399902
  0
VERTEX
  8
84
  10
32.796265
  20
946.727234
  0
VERTEX
  8
84
  10
29.591156
  20
948.192993
  0
VERTEX
  8
84
  10
26.482452
  20
949.874756
  0
VERTEX
  8
84
  10
23.318710
  20
951.818665
  0
VERTEX
  8
84
  10
20.350174
  20
954.030212
  0
VERTEX
  8
84
  10
15.656586
  20
958.186523
  0
VERTEX
  8
84
  10
11.250198
  20
961.257568
  0
VERTEX
  8
84
  10
8.875702
  20
963.229614
  0
VERTEX
  8
84
  10
6.685715
  20
965.413757
  0
VERTEX
  8
84
  10
4.644363
  20
967.734497
  0
VERTEX
  8
84
  10
2.760742
  20
970.181152
  0
VERTEX
  8
84
  10
1.054657
  20
972.755493
  0
VERTEX
  8
84
  10
-0.455597
  20
975.448914
  0
VERTEX
  8
84
  10
-1.758286
  20
978.245117
  0
VERTEX
  8
84
  10
-2.874817
  20
981.123840
  0
VERTEX
  8
84
  10
-3.818314
  20
984.067139
  0
VERTEX
  8
84
  10
-4.535675
  20
987.068665
  0
VERTEX
  8
84
  10
-5.549286
  20
993.146301
  0
VERTEX
  8
84
  10
-7.019943
  20
999.137024
  0
VERTEX
  8
84
  10
-7.467361
  20
1003.185669
  0
VERTEX
  8
84
  10
-7.942612
  20
1008.052002
  0
VERTEX
  8
84
  10
-8.296600
  20
1013.285400
  0
VERTEX
  8
84
  10
-8.303833
  20
1013.392273
  0
VERTEX
  8
84
  10
-8.414032
  20
1017.811157
  0
VERTEX
  8
84
  10
-8.263077
  20
1022.886169
  0
VERTEX
  8
84
  10
-7.785019
  20
1031.951904
  0
VERTEX
  8
84
  10
-6.975967
  20
1041.285522
  0
VERTEX
  8
84
  10
-5.817459
  20
1051.148193
  0
VERTEX
  8
84
  10
-4.196426
  20
1062.289551
  0
VERTEX
  8
84
  10
-1.916443
  20
1075.700806
  0
VERTEX
  8
84
  10
0.414215
  20
1088.197144
  0
SEQEND
  0
TEXT
  8
84
  10
2.386856
  20
1098.425171
  40
0.250000
  50
0.000000
  1
# 8
  7
STANDARD
  0
TEXT
  8
84
  10
-77.187660
  20
1143.398682
  40
0.250000
  50
0.000000
  1
# 7
  7
STANDARD
  0
TEXT
  8
84
  10
-277.210419
  20
1143.478027
  40
0.250000
  50
0.000000
  1
# 6
  7
STANDARD
  0
TEXT
  8
84
  10
-356.864807
  20
1098.513916
  40
0.250000
  50
0.000000
  1
# 5
  7
STANDARD
  0
TEXT
  8
84
  10
-410.442505
  20
942.342407
  40
0.250000
  50
0.000000
  1
# 4
  7
STANDARD
  0
TEXT
  8
84
  10
-376.152222
  20
753.699097
  40
0.250000
  50
0.000000
  1
# 3
  7
STANDARD
  0
TEXT
  8
84
  10
-383.078674
  20
610.538513
  40
0.250000
  50
0.000000
  1
# 2
  7
STANDARD
  0
TEXT
  8
84
  10
28.639679
  20
610.519531
  40
0.250000
  50
0.000000
  1
# 1
  7
STANDARD
  0
TEXT
  8
84
  10
11.075928
  20
753.332458
  40
0.250000
  50
0.000000
  1
# 0
  7
STANDARD
  0
TEXT
  8
84
  10
45.299500
  20
942.342407
  40
0.250000
  50
0.000000
  1
# 9
  7
STANDARD
  0
POINT
  8
2
  10
2.386856
  20
1098.425171
  0
POINT
  8
2
  10
-77.187660
  20
1143.398682
  0
POINT
  8
2
  10
-277.210419
  20
1143.478027
  0
POINT
  8
2
  10
-356.864807
  20
1098.513916
  0
POINT
  8
2
  10
-410.442505
  20
942.342407
  0
POINT
  8
2
  10
-376.152222
  20
753.699097
  0
POINT
  8
2
  10
-383.078674
  20
610.538513
  0
POINT
  8
2
  10
28.639679
  20
610.519531
  0
POINT
  8
2
  10
11.075928
  20
753.332458
  0
POINT
  8
2
  10
45.299500
  20
942.342407
  0
POINT
  8
3
  10
-81.836433
  20
1133.647095
  0
POINT
  8
3
  10
-87.494682
  20
1124.435425
  0
POINT
  8
3
  10
-93.958481
  20
1115.775635
  0
POINT
  8
3
  10
-101.259689
  20
1107.806763
  0
POINT
  8
3
  10
-109.366959
  20
1100.660034
  0
POINT
  8
3
  10
-118.226479
  20
1094.470215
  0
POINT
  8
3
  10
-127.745667
  20
1089.360962
  0
POINT
  8
3
  10
-137.869324
  20
1085.585327
  0
POINT
  8
3
  10
-147.690430
  20
1083.389160
  0
POINT
  8
3
  10
-157.697647
  20
1082.331543
  0
POINT
  8
3
  10
-197.940155
  20
1082.214233
  0
POINT
  8
3
  10
-207.929489
  20
1083.475708
  0
POINT
  8
3
  10
-217.692108
  20
1085.890869
  0
POINT
  8
3
  10
-227.411224
  20
1089.734131
  0
POINT
  8
3
  10
-236.500031
  20
1094.898926
  0
POINT
  8
3
  10
-245.096680
  20
1100.878906
  0
POINT
  8
3
  10
-253.066772
  20
1107.617432
  0
POINT
  8
3
  10
-260.306885
  20
1115.137573
  0
POINT
  8
3
  10
-266.679932
  20
1123.446045
  0
POINT
  8
3
  10
-272.040771
  20
1132.401855
  0
POINT
  8
3
  10
-276.493835
  20
1141.737183
  0
POINT
  8
3
  10
-354.745239
  20
1087.477905
  0
POINT
  8
3
  10
-352.741394
  20
1076.621948
  0
POINT
  8
3
  10
-350.449219
  20
1062.862427
  0
POINT
  8
3
  10
-348.637299
  20
1049.428955
  0
POINT
  8
3
  10
-347.386719
  20
1035.803711
  0
POINT
  8
3
  10
-346.734619
  20
1027.220459
  0
POINT
  8
3
  10
-346.597412
  20
1019.725464
  0
POINT
  8
3
  10
-346.757446
  20
1012.235168
  0
POINT
  8
3
  10
-346.821198
  20
1010.834839
  0
POINT
  8
3
  10
-347.052429
  20
1005.755615
  0
POINT
  8
3
  10
-347.419617
  20
999.244141
  0
POINT
  8
3
  10
-348.261658
  20
995.301941
  0
POINT
  8
3
  10
-349.509430
  20
991.464905
  0
POINT
  8
3
  10
-350.796021
  20
987.650146
  0
POINT
  8
3
  10
-351.930969
  20
980.888306
  0
POINT
  8
3
  10
-355.682098
  20
971.196167
  0
POINT
  8
3
  10
-360.238190
  20
964.264771
  0
POINT
  8
3
  10
-366.398254
  20
957.830017
  0
POINT
  8
3
  10
-372.266296
  20
953.393066
  0
POINT
  8
3
  10
-379.666138
  20
949.321045
  0
POINT
  8
3
  10
-385.290771
  20
947.083862
  0
POINT
  8
3
  10
-394.737946
  20
944.670532
  0
POINT
  8
3
  10
-404.134399
  20
943.695557
  0
POINT
  8
3
  10
-399.230408
  20
895.945129
  0
POINT
  8
3
  10
-389.000946
  20
849.322571
  0
POINT
  8
3
  10
-380.920197
  20
802.283997
  0
POINT
  8
3
  10
-376.199615
  20
754.799255
  0
POINT
  8
3
  10
-375.698059
  20
744.343079
  0
POINT
  8
3
  10
-375.429779
  20
734.029785
  0
POINT
  8
3
  10
-375.357086
  20
723.713501
  0
POINT
  8
3
  10
-375.477234
  20
713.397766
  0
POINT
  8
3
  10
-375.768494
  20
703.085266
  0
POINT
  8
3
  10
-376.203552
  20
692.777649
  0
POINT
  8
3
  10
-376.781952
  20
682.476685
  0
POINT
  8
3
  10
-377.469452
  20
672.182434
  0
POINT
  8
3
  10
-378.262482
  20
661.896179
  0
POINT
  8
3
  10
-379.138794
  20
651.616943
  0
POINT
  8
3
  10
-380.073242
  20
641.342773
  0
POINT
  8
3
  10
-381.053680
  20
631.072937
  0
POINT
  8
3
  10
-382.059082
  20
620.805176
  0
POINT
  8
3
  10
-365.061768
  20
607.270691
  0
POINT
  8
3
  10
-347.022858
  20
604.127930
  0
POINT
  8
3
  10
-328.958618
  20
601.134949
  0
POINT
  8
3
  10
-310.864075
  20
598.331665
  0
POINT
  8
3
  10
-299.174591
  20
596.629150
  0
POINT
  8
3
  10
-287.472229
  20
595.023865
  0
POINT
  8
3
  10
-275.755096
  20
593.530457
  0
POINT
  8
3
  10
-264.023987
  20
592.143433
  0
POINT
  8
3
  10
-227.411697
  20
588.697632
  0
POINT
  8
3
  10
-190.682770
  20
586.903198
  0
POINT
  8
3
  10
-153.913208
  20
587.269165
  0
POINT
  8
3
  10
-117.214249
  20
589.609253
  0
POINT
  8
3
  10
-80.638237
  20
593.424438
  0
POINT
  8
3
  10
-71.285286
  20
594.592346
  0
POINT
  8
3
  10
-61.941742
  20
595.826172
  0
POINT
  8
3
  10
-43.771149
  20
598.416870
  0
POINT
  8
3
  10
-25.629059
  20
601.200867
  0
POINT
  8
3
  10
-7.515564
  20
604.165894
  0
POINT
  8
3
  10
10.571609
  20
607.287903
  0
POINT
  8
3
  10
27.127716
  20
623.353516
  0
POINT
  8
3
  10
25.272858
  20
636.142212
  0
POINT
  8
3
  10
23.209824
  20
648.900146
  0
POINT
  8
3
  10
21.021118
  20
661.635620
  0
POINT
  8
3
  10
18.809265
  20
674.368774
  0
POINT
  8
3
  10
16.694397
  20
687.116882
  0
POINT
  8
3
  10
14.753433
  20
699.893372
  0
POINT
  8
3
  10
12.857559
  20
714.997742
  0
POINT
  8
3
  10
11.536942
  20
730.163696
  0
POINT
  8
3
  10
10.975189
  20
745.375732
  0
POINT
  8
3
  10
11.429565
  20
761.737244
  0
POINT
  8
3
  10
12.878082
  20
779.304504
  0
POINT
  8
3
  10
14.899078
  20
796.815552
  0
POINT
  8
3
  10
17.407089
  20
814.262512
  0
POINT
  8
3
  10
20.125824
  20
830.425476
  0
POINT
  8
3
  10
23.163147
  20
846.532654
  0
POINT
  8
3
  10
26.477264
  20
862.583679
  0
POINT
  8
3
  10
29.997742
  20
878.591919
  0
POINT
  8
3
  10
33.695557
  20
894.560303
  0
POINT
  8
3
  10
37.508453
  20
910.500244
  0
POINT
  8
3
  10
41.394089
  20
926.424194
  0
POINT
  8
3
  10
39.473648
  20
944.399902
  0
POINT
  8
3
  10
32.796265
  20
946.727234
  0
POINT
  8
3
  10
26.482452
  20
949.874756
  0
POINT
  8
3
  10
20.350174
  20
954.030212
  0
POINT
  8
3
  10
15.656586
  20
958.186523
  0
POINT
  8
3
  10
11.250198
  20
961.257568
  0
POINT
  8
3
  10
6.685715
  20
965.413757
  0
POINT
  8
3
  10
2.760742
  20
970.181152
  0
POINT
  8
3
  10
-0.455597
  20
975.448914
  0
POINT
  8
3
  10
-2.874817
  20
981.123840
  0
POINT
  8
3
  10
-4.535675
  20
987.068665
  0
POINT
  8
3
  10
-5.549286
  20
993.146301
  0
POINT
  8
3
  10
-7.019943
  20
999.137024
  0
POINT
  8
3
  10
-7.467361
  20
1003.185669
  0
POINT
  8
3
  10
-7.942612
  20
1008.052002
  0
POINT
  8
3
  10
-8.296600
  20
1013.285400
  0
POINT
  8
3
  10
-8.303833
  20
1013.392273
  0
POINT
  8
3
  10
-8.414032
  20
1017.811157
  0
POINT
  8
3
  10
-8.263077
  20
1022.886169
  0
POINT
  8
3
  10
-7.785019
  20
1031.951904
  0
POINT
  8
3
  10
-6.975967
  20
1041.285522
  0
POINT
  8
3
  10
-5.817459
  20
1051.148193
  0
POINT
  8
3
  10
-4.196426
  20
1062.289551
  0
POINT
  8
3
  10
-1.916443
  20
1075.700806
  0
POINT
  8
3
  10
0.414215
  20
1088.197144
  0
LINE
  8
7
  10
-182.571503
  20
775.130676
  11
-182.571503
  21
955.130676
  0
POLYLINE
  8
8
  66
1
  70
0
  250
0
  0
VERTEX
  8
8
  10
10.700012
  20
745.392395
  0
VERTEX
  8
8
  10
10.989990
  20
746.482422
  0
SEQEND
  0
TEXT
  8
8
  10
10.700012
  20
745.392395
  40
0.250000
  50
0.000000
  1
# 135
  7
STANDARD
  0
TEXT
  8
8
  10
10.989990
  20
746.482422
  40
0.250000
  50
0.000000
  1
# 134
  7
STANDARD
  0
POINT
  8
2
  10
10.700012
  20
745.392395
  0
POINT
  8
2
  10
10.989990
  20
746.482422
  0
POLYLINE
  8
85
  66
1
  70
0
  250
1
  0
VERTEX
  8
85
  10
10.700012
  20
745.392395
  0
VERTEX
  8
85
  10
10.989990
  20
746.482422
  0
SEQEND
  0
TEXT
  8
85
  10
10.700012
  20
745.392395
  40
0.250000
  50
0.000000
  1
# 135
  7
STANDARD
  0
TEXT
  8
85
  10
10.989990
  20
746.482422
  40
0.250000
  50
0.000000
  1
# 134
  7
STANDARD
  0
POINT
  8
2
  10
10.700012
  20
745.392395
  0
POINT
  8
2
  10
10.989990
  20
746.482422
  0
POLYLINE
  8
8
  66
1
  70
0
  250
0
  0
VERTEX
  8
8
  10
-365.140015
  20
745.392395
  0
VERTEX
  8
8
  10
-365.429993
  20
746.492371
  0
SEQEND
  0
TEXT
  8
8
  10
-365.140015
  20
745.392395
  40
0.250000
  50
0.000000
  1
# 137
  7
STANDARD
  0
TEXT
  8
8
  10
-365.429993
  20
746.492371
  40
0.250000
  50
0.000000
  1
# 136
  7
STANDARD
  0
POINT
  8
2
  10
-365.140015
  20
745.392395
  0
POINT
  8
2
  10
-365.429993
  20
746.492371
  0
POLYLINE
  8
85
  66
1
  70
0
  250
1
  0
VERTEX
  8
85
  10
-365.140015
  20
745.392395
  0
VERTEX
  8
85
  10
-365.429993
  20
746.492371
  0
SEQEND
  0
TEXT
  8
85
  10
-365.140015
  20
745.392395
  40
0.250000
  50
0.000000
  1
# 137
  7
STANDARD
  0
TEXT
  8
85
  10
-365.429993
  20
746.492371
  40
0.250000
  50
0.000000
  1
# 136
  7
STANDARD
  0
POINT
  8
2
  10
-365.140015
  20
745.392395
  0
POINT
  8
2
  10
-365.429993
  20
746.492371
  0
ENDBLK
  0
BLOCK
  8
0
  2
Pattern_3750586_M_M_XS
  70
64
  10
0
  20
0
  0
TEXT
  8
1
  10
-176.135315
  20
1273.800781
  50
0.000000
  51
0.000000
  71
0.000000
  1
PIECE NAME: Pattern_3750586_M_M
  7
STANDARD
  0
TEXT
  8
1
  10
-176.135315
  20
1268.800781
  50
0.000000
  51
0.000000
  71
0.000000
  1
SIZE: XS
  7
STANDARD
  0
TEXT
  8
1
  10
-176.135315
  20
1258.800781
  50
0.000000
  51
0.000000
  71
0.000000
  1
QUANTITY: 1
  7
STANDARD
  0
POLYLINE
  8
1
  66
1
  70
1
  250
2
  0
VERTEX
  8
1
  10
-351.135315
  20
1273.801392
  0
VERTEX
  8
1
  10
-351.135315
  20
1263.801270
  0
VERTEX
  8
1
  10
-1.135315
  20
1263.800415
  0
VERTEX
  8
1
  10
-1.135315
  20
1273.800415
  0
VERTEX
  8
1
  10
-1.135315
  20
1283.800415
  0
VERTEX
  8
1
  10
-351.135315
  20
1283.801270
  0
SEQEND
  0
TEXT
  8
1
  10
-351.135315
  20
1273.801392
  40
0.250000
  50
0.000000
  1
# 143
  7
STANDARD
  0
TEXT
  8
1
  10
-351.135315
  20
1263.801270
  40
0.250000
  50
0.000000
  1
# 142
  7
STANDARD
  0
TEXT
  8
1
  10
-1.135315
  20
1263.800415
  40
0.250000
  50
0.000000
  1
# 141
  7
STANDARD
  0
TEXT
  8
1
  10
-1.135315
  20
1273.800415
  40
0.250000
  50
0.000000
  1
# 140
  7
STANDARD
  0
TEXT
  8
1
  10
-1.135315
  20
1283.800415
  40
0.250000
  50
0.000000
  1
# 139
  7
STANDARD
  0
TEXT
  8
1
  10
-351.135315
  20
1283.801270
  40
0.250000
  50
0.000000
  1
# 138
  7
STANDARD
  0
POINT
  8
2
  10
-351.135315
  20
1273.801392
  0
POINT
  8
2
  10
-351.135315
  20
1263.801270
  0
POINT
  8
2
  10
-1.135315
  20
1263.800415
  0
POINT
  8
2
  10
-1.135315
  20
1273.800415
  0
POINT
  8
2
  10
-1.135315
  20
1283.800415
  0
POINT
  8
2
  10
-351.135315
  20
1283.801270
  0
POLYLINE
  8
84
  66
1
  70
1
  250
2
  0
VERTEX
  8
84
  10
-351.135315
  20
1273.801392
  0
VERTEX
  8
84
  10
-351.135315
  20
1263.801270
  0
VERTEX
  8
84
  10
-1.135315
  20
1263.800415
  0
VERTEX
  8
84
  10
-1.135315
  20
1273.800415
  0
VERTEX
  8
84
  10
-1.135315
  20
1283.800415
  0
VERTEX
  8
84
  10
-351.135315
  20
1283.801270
  0
SEQEND
  0
TEXT
  8
84
  10
-351.135315
  20
1273.801392
  40
0.250000
  50
0.000000
  1
# 143
  7
STANDARD
  0
TEXT
  8
84
  10
-351.135315
  20
1263.801270
  40
0.250000
  50
0.000000
  1
# 142
  7
STANDARD
  0
TEXT
  8
84
  10
-1.135315
  20
1263.800415
  40
0.250000
  50
0.000000
  1
# 141
  7
STANDARD
  0
TEXT
  8
84
  10
-1.135315
  20
1273.800415
  40
0.250000
  50
0.000000
  1
# 140
  7
STANDARD
  0
TEXT
  8
84
  10
-1.135315
  20
1283.800415
  40
0.250000
  50
0.000000
  1
# 139
  7
STANDARD
  0
TEXT
  8
84
  10
-351.135315
  20
1283.801270
  40
0.250000
  50
0.000000
  1
# 138
  7
STANDARD
  0
POINT
  8
2
  10
-351.135315
  20
1273.801392
  0
POINT
  8
2
  10
-351.135315
  20
1263.801270
  0
POINT
  8
2
  10
-1.135315
  20
1263.800415
  0
POINT
  8
2
  10
-1.135315
  20
1273.800415
  0
POINT
  8
2
  10
-1.135315
  20
1283.800415
  0
POINT
  8
2
  10
-351.135315
  20
1283.801270
  0
LINE
  8
7
  10
-176.135315
  20
1183.800781
  11
-176.135315
  21
1363.800781
  0
ENDBLK
  0
BLOCK
  8
0
  2
Pattern_528568_M_1_M_XS
  70
64
  10
0
  20
0
  0
TEXT
  8
1
  10
303.065765
  20
1063.528198
  50
0.000000
  51
0.000000
  71
0.000000
  1
PIECE NAME: Pattern_528568_M_1_M
  7
STANDARD
  0
TEXT
  8
1
  10
303.065765
  20
1058.528198
  50
0.000000
  51
0.000000
  71
0.000000
  1
SIZE: XS
  7
STANDARD
  0
TEXT
  8
1
  10
303.065765
  20
1048.528198
  50
0.000000
  51
0.000000
  71
0.000000
  1
QUANTITY: 1
  7
STANDARD
  0
POLYLINE
  8
1
  66
1
  70
1
  250
2
  0
VERTEX
  8
1
  10
169.879608
  20
974.846191
  0
VERTEX
  8
1
  10
437.350037
  20
974.623230
  0
VERTEX
  8
1
  10
439.992950
  20
989.707336
  0
VERTEX
  8
1
  10
442.012299
  20
1000.222351
  0
VERTEX
  8
1
  10
444.330872
  20
1011.605225
  0
VERTEX
  8
1
  10
446.715759
  20
1022.974487
  0
VERTEX
  8
1
  10
440.659241
  20
1032.966431
  0
VERTEX
  8
1
  10
433.355621
  20
1045.090820
  0
VERTEX
  8
1
  10
426.379211
  20
1057.406128
  0
VERTEX
  8
1
  10
420.732178
  20
1067.634888
  0
VERTEX
  8
1
  10
415.508270
  20
1077.500488
  0
VERTEX
  8
1
  10
410.122528
  20
1087.277588
  0
VERTEX
  8
1
  10
409.115112
  20
1088.956055
  0
VERTEX
  8
1
  10
403.371948
  20
1097.193481
  0
VERTEX
  8
1
  10
399.860535
  20
1101.872803
  0
VERTEX
  8
1
  10
396.140564
  20
1106.872314
  0
VERTEX
  8
1
  10
388.646332
  20
1116.234497
  0
VERTEX
  8
1
  10
380.714600
  20
1125.229980
  0
VERTEX
  8
1
  10
374.761475
  20
1131.219482
  0
VERTEX
  8
1
  10
368.311188
  20
1136.669434
  0
VERTEX
  8
1
  10
361.364807
  20
1141.472046
  0
VERTEX
  8
1
  10
353.944000
  20
1145.502686
  0
VERTEX
  8
1
  10
346.175873
  20
1148.811157
  0
VERTEX
  8
1
  10
338.110657
  20
1151.323486
  0
VERTEX
  8
1
  10
329.748993
  20
1152.412476
  0
VERTEX
  8
1
  10
327.273651
  20
1152.433105
  0
VERTEX
  8
1
  10
318.168457
  20
1151.404541
  0
VERTEX
  8
1
  10
309.396179
  20
1148.845947
  0
VERTEX
  8
1
  10
300.995331
  20
1145.004517
  0
VERTEX
  8
1
  10
293.023895
  20
1140.098022
  0
VERTEX
  8
1
  10
285.510742
  20
1134.363525
  0
VERTEX
  8
1
  10
278.504150
  20
1128.028687
  0
VERTEX
  8
1
  10
272.042603
  20
1121.340454
  0
VERTEX
  8
1
  10
266.174469
  20
1114.516602
  0
VERTEX
  8
1
  10
254.987183
  20
1099.606567
  0
VERTEX
  8
1
  10
245.673752
  20
1085.465942
  0
VERTEX
  8
1
  10
240.507416
  20
1076.240723
  0
VERTEX
  8
1
  10
235.349777
  20
1067.011719
  0
VERTEX
  8
1
  10
232.922058
  20
1063.018311
  0
VERTEX
  8
1
  10
229.774261
  20
1058.464233
  0
VERTEX
  8
1
  10
224.519165
  20
1051.665771
  0
VERTEX
  8
1
  10
218.794937
  20
1045.035767
  0
VERTEX
  8
1
  10
212.653244
  20
1038.804565
  0
VERTEX
  8
1
  10
206.136154
  20
1033.194092
  0
VERTEX
  8
1
  10
199.052216
  20
1028.755737
  0
VERTEX
  8
1
  10
191.596802
  20
1025.920776
  0
VERTEX
  8
1
  10
183.844299
  20
1024.298096
  0
VERTEX
  8
1
  10
175.851578
  20
1023.524902
  0
VERTEX
  8
1
  10
167.683838
  20
1023.209961
  0
VERTEX
  8
1
  10
159.415771
  20
1022.971558
  0
VERTEX
  8
1
  10
163.244080
  20
1006.267578
  0
VERTEX
  8
1
  10
165.496780
  20
996.474487
  0
VERTEX
  8
1
  10
167.555054
  20
986.639587
  0
SEQEND
  0
TEXT
  8
1
  10
169.879608
  20
974.846191
  40
0.250000
  50
0.000000
  1
# 151
  7
STANDARD
  0
TEXT
  8
1
  10
437.350037
  20
974.623230
  40
0.250000
  50
0.000000
  1
# 150
  7
STANDARD
  0
TEXT
  8
1
  10
439.992950
  20
989.707336
  40
0.250000
  50
0.000000
  1
# 154
  7
STANDARD
  0
TEXT
  8
1
  10
442.012299
  20
1000.222351
  40
0.250000
  50
0.000000
  1
# 153
  7
STANDARD
  0
TEXT
  8
1
  10
444.330872
  20
1011.605225
  40
0.250000
  50
0.000000
  1
# 152
  7
STANDARD
  0
TEXT
  8
1
  10
446.715759
  20
1022.974487
  40
0.250000
  50
0.000000
  1
# 149
  7
STANDARD
  0
TEXT
  8
1
  10
440.659241
  20
1032.966431
  40
0.250000
  50
0.000000
  1
# 160
  7
STANDARD
  0
TEXT
  8
1
  10
433.355621
  20
1045.090820
  40
0.250000
  50
0.000000
  1
# 159
  7
STANDARD
  0
TEXT
  8
1
  10
426.379211
  20
1057.406128
  40
0.250000
  50
0.000000
  1
# 158
  7
STANDARD
  0
TEXT
  8
1
  10
420.732178
  20
1067.634888
  40
0.250000
  50
0.000000
  1
# 157
  7
STANDARD
  0
TEXT
  8
1
  10
415.508270
  20
1077.500488
  40
0.250000
  50
0.000000
  1
# 156
  7
STANDARD
  0
TEXT
  8
1
  10
410.122528
  20
1087.277588
  40
0.250000
  50
0.000000
  1
# 155
  7
STANDARD
  0
TEXT
  8
1
  10
409.115112
  20
1088.956055
  40
0.250000
  50
0.000000
  1
# 148
  7
STANDARD
  0
TEXT
  8
1
  10
403.371948
  20
1097.193481
  40
0.250000
  50
0.000000
  1
# 161
  7
STANDARD
  0
TEXT
  8
1
  10
399.860535
  20
1101.872803
  40
0.250000
  50
0.000000
  1
# 147
  7
STANDARD
  0
TEXT
  8
1
  10
396.140564
  20
1106.872314
  40
0.250000
  50
0.000000
  1
# 170
  7
STANDARD
  0
TEXT
  8
1
  10
388.646332
  20
1116.234497
  40
0.250000
  50
0.000000
  1
# 169
  7
STANDARD
  0
TEXT
  8
1
  10
380.714600
  20
1125.229980
  40
0.250000
  50
0.000000
  1
# 168
  7
STANDARD
  0
TEXT
  8
1
  10
374.761475
  20
1131.219482
  40
0.250000
  50
0.000000
  1
# 167
  7
STANDARD
  0
TEXT
  8
1
  10
368.311188
  20
1136.669434
  40
0.250000
  50
0.000000
  1
# 166
  7
STANDARD
  0
TEXT
  8
1
  10
361.364807
  20
1141.472046
  40
0.250000
  50
0.000000
  1
# 165
  7
STANDARD
  0
TEXT
  8
1
  10
353.944000
  20
1145.502686
  40
0.250000
  50
0.000000
  1
# 164
  7
STANDARD
  0
TEXT
  8
1
  10
346.175873
  20
1148.811157
  40
0.250000
  50
0.000000
  1
# 163
  7
STANDARD
  0
TEXT
  8
1
  10
338.110657
  20
1151.323486
  40
0.250000
  50
0.000000
  1
# 162
  7
STANDARD
  0
TEXT
  8
1
  10
329.748993
  20
1152.412476
  40
0.250000
  50
0.000000
  1
# 146
  7
STANDARD
  0
TEXT
  8
1
  10
327.273651
  20
1152.433105
  40
0.250000
  50
0.000000
  1
# 183
  7
STANDARD
  0
TEXT
  8
1
  10
318.168457
  20
1151.404541
  40
0.250000
  50
0.000000
  1
# 182
  7
STANDARD
  0
TEXT
  8
1
  10
309.396179
  20
1148.845947
  40
0.250000
  50
0.000000
  1
# 181
  7
STANDARD
  0
TEXT
  8
1
  10
300.995331
  20
1145.004517
  40
0.250000
  50
0.000000
  1
# 180
  7
STANDARD
  0
TEXT
  8
1
  10
293.023895
  20
1140.098022
  40
0.250000
  50
0.000000
  1
# 179
  7
STANDARD
  0
TEXT
  8
1
  10
285.510742
  20
1134.363525
  40
0.250000
  50
0.000000
  1
# 178
  7
STANDARD
  0
TEXT
  8
1
  10
278.504150
  20
1128.028687
  40
0.250000
  50
0.000000
  1
# 177
  7
STANDARD
  0
TEXT
  8
1
  10
272.042603
  20
1121.340454
  40
0.250000
  50
0.000000
  1
# 176
  7
STANDARD
  0
TEXT
  8
1
  10
266.174469
  20
1114.516602
  40
0.250000
  50
0.000000
  1
# 175
  7
STANDARD
  0
TEXT
  8
1
  10
254.987183
  20
1099.606567
  40
0.250000
  50
0.000000
  1
# 174
  7
STANDARD
  0
TEXT
  8
1
  10
245.673752
  20
1085.465942
  40
0.250000
  50
0.000000
  1
# 173
  7
STANDARD
  0
TEXT
  8
1
  10
240.507416
  20
1076.240723
  40
0.250000
  50
0.000000
  1
# 172
  7
STANDARD
  0
TEXT
  8
1
  10
235.349777
  20
1067.011719
  40
0.250000
  50
0.000000
  1
# 171
  7
STANDARD
  0
TEXT
  8
1
  10
232.922058
  20
1063.018311
  40
0.250000
  50
0.000000
  1
# 145
  7
STANDARD
  0
TEXT
  8
1
  10
229.774261
  20
1058.464233
  40
0.250000
  50
0.000000
  1
# 193
  7
STANDARD
  0
TEXT
  8
1
  10
224.519165
  20
1051.665771
  40
0.250000
  50
0.000000
  1
# 192
  7
STANDARD
  0
TEXT
  8
1
  10
218.794937
  20
1045.035767
  40
0.250000
  50
0.000000
  1
# 191
  7
STANDARD
  0
TEXT
  8
1
  10
212.653244
  20
1038.804565
  40
0.250000
  50
0.000000
  1
# 190
  7
STANDARD
  0
TEXT
  8
1
  10
206.136154
  20
1033.194092
  40
0.250000
  50
0.000000
  1
# 189
  7
STANDARD
  0
TEXT
  8
1
  10
199.052216
  20
1028.755737
  40
0.250000
  50
0.000000
  1
# 188
  7
STANDARD
  0
TEXT
  8
1
  10
191.596802
  20
1025.920776
  40
0.250000
  50
0.000000
  1
# 187
  7
STANDARD
  0
TEXT
  8
1
  10
183.844299
  20
1024.298096
  40
0.250000
  50
0.000000
  1
# 186
  7
STANDARD
  0
TEXT
  8
1
  10
175.851578
  20
1023.524902
  40
0.250000
  50
0.000000
  1
# 185
  7
STANDARD
  0
TEXT
  8
1
  10
167.683838
  20
1023.209961
  40
0.250000
  50
0.000000
  1
# 184
  7
STANDARD
  0
TEXT
  8
1
  10
159.415771
  20
1022.971558
  40
0.250000
  50
0.000000
  1
# 144
  7
STANDARD
  0
TEXT
  8
1
  10
163.244080
  20
1006.267578
  40
0.250000
  50
0.000000
  1
# 196
  7
STANDARD
  0
TEXT
  8
1
  10
165.496780
  20
996.474487
  40
0.250000
  50
0.000000
  1
# 195
  7
STANDARD
  0
TEXT
  8
1
  10
167.555054
  20
986.639587
  40
0.250000
  50
0.000000
  1
# 194
  7
STANDARD
  0
POINT
  8
2
  10
169.879608
  20
974.846191
  0
POINT
  8
2
  10
437.350037
  20
974.623230
  0
POINT
  8
2
  10
446.715759
  20
1022.974487
  0
POINT
  8
2
  10
409.115112
  20
1088.956055
  0
POINT
  8
2
  10
399.860535
  20
1101.872803
  0
POINT
  8
2
  10
329.748993
  20
1152.412476
  0
POINT
  8
2
  10
232.922058
  20
1063.018311
  0
POINT
  8
2
  10
159.415771
  20
1022.971558
  0
POINT
  8
3
  10
439.992950
  20
989.707336
  0
POINT
  8
3
  10
442.012299
  20
1000.222351
  0
POINT
  8
3
  10
444.330872
  20
1011.605225
  0
POINT
  8
3
  10
440.659241
  20
1032.966431
  0
POINT
  8
3
  10
433.355621
  20
1045.090820
  0
POINT
  8
3
  10
426.379211
  20
1057.406128
  0
POINT
  8
3
  10
420.732178
  20
1067.634888
  0
POINT
  8
3
  10
415.508270
  20
1077.500488
  0
POINT
  8
3
  10
410.122528
  20
1087.277588
  0
POINT
  8
3
  10
403.371948
  20
1097.193481
  0
POINT
  8
3
  10
396.140564
  20
1106.872314
  0
POINT
  8
3
  10
388.646332
  20
1116.234497
  0
POINT
  8
3
  10
380.714600
  20
1125.229980
  0
POINT
  8
3
  10
374.761475
  20
1131.219482
  0
POINT
  8
3
  10
368.311188
  20
1136.669434
  0
POINT
  8
3
  10
361.364807
  20
1141.472046
  0
POINT
  8
3
  10
353.944000
  20
1145.502686
  0
POINT
  8
3
  10
346.175873
  20
1148.811157
  0
POINT
  8
3
  10
338.110657
  20
1151.323486
  0
POINT
  8
3
  10
327.273651
  20
1152.433105
  0
POINT
  8
3
  10
318.168457
  20
1151.404541
  0
POINT
  8
3
  10
309.396179
  20
1148.845947
  0
POINT
  8
3
  10
300.995331
  20
1145.004517
  0
POINT
  8
3
  10
293.023895
  20
1140.098022
  0
POINT
  8
3
  10
285.510742
  20
1134.363525
  0
POINT
  8
3
  10
278.504150
  20
1128.028687
  0
POINT
  8
3
  10
272.042603
  20
1121.340454
  0
POINT
  8
3
  10
266.174469
  20
1114.516602
  0
POINT
  8
3
  10
254.987183
  20
1099.606567
  0
POINT
  8
3
  10
245.673752
  20
1085.465942
  0
POINT
  8
3
  10
240.507416
  20
1076.240723
  0
POINT
  8
3
  10
235.349777
  20
1067.011719
  0
POINT
  8
3
  10
229.774261
  20
1058.464233
  0
POINT
  8
3
  10
224.519165
  20
1051.665771
  0
POINT
  8
3
  10
218.794937
  20
1045.035767
  0
POINT
  8
3
  10
212.653244
  20
1038.804565
  0
POINT
  8
3
  10
206.136154
  20
1033.194092
  0
POINT
  8
3
  10
199.052216
  20
1028.755737
  0
POINT
  8
3
  10
191.596802
  20
1025.920776
  0
POINT
  8
3
  10
183.844299
  20
1024.298096
  0
POINT
  8
3
  10
175.851578
  20
1023.524902
  0
POINT
  8
3
  10
167.683838
  20
1023.209961
  0
POINT
  8
3
  10
163.244080
  20
1006.267578
  0
POINT
  8
3
  10
165.496780
  20
996.474487
  0
POINT
  8
3
  10
167.555054
  20
986.639587
  0
POINT
  8
4
  10
409.115112
  20
1088.956055
  30
7.000000
  39
0.000000
  50
213.296265
  0
POINT
  8
4
  10
399.860535
  20
1101.872803
  30
7.000000
  39
0.000000
  50
216.136902
  0
POINT
  8
4
  10
329.748993
  20
1152.412476
  30
7.000000
  39
0.000000
  50
266.912323
  0
POINT
  8
4
  10
232.922058
  20
1063.018311
  30
7.000000
  39
0.000000
  50
327.022827
  0
POLYLINE
  8
84
  66
1
  70
1
  250
2
  0
VERTEX
  8
84
  10
169.879608
  20
974.846191
  0
VERTEX
  8
84
  10
437.350037
  20
974.623230
  0
VERTEX
  8
84
  10
439.992950
  20
989.707336
  0
VERTEX
  8
84
  10
442.012299
  20
1000.222351
  0
VERTEX
  8
84
  10
444.330872
  20
1011.605225
  0
VERTEX
  8
84
  10
446.715759
  20
1022.974487
  0
VERTEX
  8
84
  10
440.659241
  20
1032.966431
  0
VERTEX
  8
84
  10
433.355621
  20
1045.090820
  0
VERTEX
  8
84
  10
426.379211
  20
1057.406128
  0
VERTEX
  8
84
  10
420.732178
  20
1067.634888
  0
VERTEX
  8
84
  10
415.508270
  20
1077.500488
  0
VERTEX
  8
84
  10
412.876007
  20
1082.423462
  0
VERTEX
  8
84
  10
410.122528
  20
1087.277588
  0
VERTEX
  8
84
  10
409.115112
  20
1088.956055
  0
VERTEX
  8
84
  10
403.371948
  20
1097.193481
  0
VERTEX
  8
84
  10
399.860535
  20
1101.872803
  0
VERTEX
  8
84
  10
396.140564
  20
1106.872314
  0
VERTEX
  8
84
  10
392.450623
  20
1111.598755
  0
VERTEX
  8
84
  10
388.646332
  20
1116.234497
  0
VERTEX
  8
84
  10
384.740173
  20
1120.784790
  0
VERTEX
  8
84
  10
380.714600
  20
1125.229980
  0
VERTEX
  8
84
  10
377.790649
  20
1128.277710
  0
VERTEX
  8
84
  10
374.761475
  20
1131.219482
  0
VERTEX
  8
84
  10
371.600891
  20
1134.020020
  0
VERTEX
  8
84
  10
368.311188
  20
1136.669434
  0
VERTEX
  8
84
  10
364.899719
  20
1139.160522
  0
VERTEX
  8
84
  10
361.364807
  20
1141.472046
  0
VERTEX
  8
84
  10
357.707001
  20
1143.585327
  0
VERTEX
  8
84
  10
353.944000
  20
1145.502686
  0
VERTEX
  8
84
  10
350.096680
  20
1147.235596
  0
VERTEX
  8
84
  10
346.175873
  20
1148.811157
  0
VERTEX
  8
84
  10
343.522949
  20
1149.779175
  0
VERTEX
  8
84
  10
340.836914
  20
1150.634888
  0
VERTEX
  8
84
  10
338.110657
  20
1151.323486
  0
VERTEX
  8
84
  10
333.954956
  20
1151.993042
  0
VERTEX
  8
84
  10
329.748993
  20
1152.412476
  0
VERTEX
  8
84
  10
327.273651
  20
1152.433105
  0
VERTEX
  8
84
  10
324.221191
  20
1152.288818
  0
VERTEX
  8
84
  10
321.182465
  20
1151.939453
  0
VERTEX
  8
84
  10
318.168457
  20
1151.404541
  0
VERTEX
  8
84
  10
315.199646
  20
1150.704346
  0
VERTEX
  8
84
  10
312.274628
  20
1149.848755
  0
VERTEX
  8
84
  10
309.396179
  20
1148.845947
  0
VERTEX
  8
84
  10
306.538940
  20
1147.692627
  0
VERTEX
  8
84
  10
303.738403
  20
1146.408936
  0
VERTEX
  8
84
  10
300.995331
  20
1145.004517
  0
VERTEX
  8
84
  10
296.941528
  20
1142.661987
  0
VERTEX
  8
84
  10
293.023895
  20
1140.098022
  0
VERTEX
  8
84
  10
289.201874
  20
1137.316406
  0
VERTEX
  8
84
  10
285.510742
  20
1134.363525
  0
VERTEX
  8
84
  10
281.948212
  20
1131.261719
  0
VERTEX
  8
84
  10
278.504150
  20
1128.028687
  0
VERTEX
  8
84
  10
275.221375
  20
1124.734741
  0
VERTEX
  8
84
  10
272.042603
  20
1121.340454
  0
VERTEX
  8
84
  10
266.174469
  20
1114.516602
  0
VERTEX
  8
84
  10
263.273010
  20
1110.869751
  0
VERTEX
  8
84
  10
260.451752
  20
1107.161987
  0
VERTEX
  8
84
  10
257.695038
  20
1103.404053
  0
VERTEX
  8
84
  10
254.987183
  20
1099.606567
  0
VERTEX
  8
84
  10
252.563675
  20
1096.131104
  0
VERTEX
  8
84
  10
250.190643
  20
1092.624023
  0
VERTEX
  8
84
  10
247.887527
  20
1089.073120
  0
VERTEX
  8
84
  10
245.673752
  20
1085.465942
  0
VERTEX
  8
84
  10
240.507416
  20
1076.240723
  0
VERTEX
  8
84
  10
235.349777
  20
1067.011719
  0
VERTEX
  8
84
  10
232.922058
  20
1063.018311
  0
VERTEX
  8
84
  10
229.774261
  20
1058.464233
  0
VERTEX
  8
84
  10
224.519165
  20
1051.665771
  0
VERTEX
  8
84
  10
218.794937
  20
1045.035767
  0
VERTEX
  8
84
  10
215.778259
  20
1041.867676
  0
VERTEX
  8
84
  10
212.653244
  20
1038.804565
  0
VERTEX
  8
84
  10
209.472595
  20
1035.908569
  0
VERTEX
  8
84
  10
206.136154
  20
1033.194092
  0
VERTEX
  8
84
  10
203.865540
  20
1031.570435
  0
VERTEX
  8
84
  10
201.505005
  20
1030.082886
  0
VERTEX
  8
84
  10
199.052216
  20
1028.755737
  0
VERTEX
  8
84
  10
196.628830
  20
1027.656982
  0
VERTEX
  8
84
  10
194.138702
  20
1026.716064
  0
VERTEX
  8
84
  10
191.596802
  20
1025.920776
  0
VERTEX
  8
84
  10
187.746902
  20
1024.980713
  0
VERTEX
  8
84
  10
183.844299
  20
1024.298096
  0
VERTEX
  8
84
  10
179.856445
  20
1023.826233
  0
VERTEX
  8
84
  10
175.851578
  20
1023.524902
  0
VERTEX
  8
84
  10
167.683838
  20
1023.209961
  0
VERTEX
  8
84
  10
159.415771
  20
1022.971558
  0
VERTEX
  8
84
  10
163.244080
  20
1006.267578
  0
VERTEX
  8
84
  10
165.496780
  20
996.474487
  0
VERTEX
  8
84
  10
167.555054
  20
986.639587
  0
SEQEND
  0
TEXT
  8
84
  10
169.879608
  20
974.846191
  40
0.250000
  50
0.000000
  1
# 151
  7
STANDARD
  0
TEXT
  8
84
  10
437.350037
  20
974.623230
  40
0.250000
  50
0.000000
  1
# 150
  7
STANDARD
  0
TEXT
  8
84
  10
446.715759
  20
1022.974487
  40
0.250000
  50
0.000000
  1
# 149
  7
STANDARD
  0
TEXT
  8
84
  10
409.115112
  20
1088.956055
  40
0.250000
  50
0.000000
  1
# 148
  7
STANDARD
  0
TEXT
  8
84
  10
399.860535
  20
1101.872803
  40
0.250000
  50
0.000000
  1
# 147
  7
STANDARD
  0
TEXT
  8
84
  10
329.748993
  20
1152.412476
  40
0.250000
  50
0.000000
  1
# 146
  7
STANDARD
  0
TEXT
  8
84
  10
232.922058
  20
1063.018311
  40
0.250000
  50
0.000000
  1
# 145
  7
STANDARD
  0
TEXT
  8
84
  10
159.415771
  20
1022.971558
  40
0.250000
  50
0.000000
  1
# 144
  7
STANDARD
  0
POINT
  8
2
  10
169.879608
  20
974.846191
  0
POINT
  8
2
  10
437.350037
  20
974.623230
  0
POINT
  8
2
  10
446.715759
  20
1022.974487
  0
POINT
  8
2
  10
409.115112
  20
1088.956055
  0
POINT
  8
2
  10
399.860535
  20
1101.872803
  0
POINT
  8
2
  10
329.748993
  20
1152.412476
  0
POINT
  8
2
  10
232.922058
  20
1063.018311
  0
POINT
  8
2
  10
159.415771
  20
1022.971558
  0
POINT
  8
3
  10
439.992950
  20
989.707336
  0
POINT
  8
3
  10
442.012299
  20
1000.222351
  0
POINT
  8
3
  10
444.330872
  20
1011.605225
  0
POINT
  8
3
  10
440.659241
  20
1032.966431
  0
POINT
  8
3
  10
433.355621
  20
1045.090820
  0
POINT
  8
3
  10
426.379211
  20
1057.406128
  0
POINT
  8
3
  10
420.732178
  20
1067.634888
  0
POINT
  8
3
  10
415.508270
  20
1077.500488
  0
POINT
  8
3
  10
410.122528
  20
1087.277588
  0
POINT
  8
3
  10
403.371948
  20
1097.193481
  0
POINT
  8
3
  10
396.140564
  20
1106.872314
  0
POINT
  8
3
  10
388.646332
  20
1116.234497
  0
POINT
  8
3
  10
380.714600
  20
1125.229980
  0
POINT
  8
3
  10
374.761475
  20
1131.219482
  0
POINT
  8
3
  10
368.311188
  20
1136.669434
  0
POINT
  8
3
  10
361.364807
  20
1141.472046
  0
POINT
  8
3
  10
353.944000
  20
1145.502686
  0
POINT
  8
3
  10
346.175873
  20
1148.811157
  0
POINT
  8
3
  10
338.110657
  20
1151.323486
  0
POINT
  8
3
  10
327.273651
  20
1152.433105
  0
POINT
  8
3
  10
318.168457
  20
1151.404541
  0
POINT
  8
3
  10
309.396179
  20
1148.845947
  0
POINT
  8
3
  10
300.995331
  20
1145.004517
  0
POINT
  8
3
  10
293.023895
  20
1140.098022
  0
POINT
  8
3
  10
285.510742
  20
1134.363525
  0
POINT
  8
3
  10
278.504150
  20
1128.028687
  0
POINT
  8
3
  10
272.042603
  20
1121.340454
  0
POINT
  8
3
  10
266.174469
  20
1114.516602
  0
POINT
  8
3
  10
254.987183
  20
1099.606567
  0
POINT
  8
3
  10
245.673752
  20
1085.465942
  0
POINT
  8
3
  10
240.507416
  20
1076.240723
  0
POINT
  8
3
  10
235.349777
  20
1067.011719
  0
POINT
  8
3
  10
229.774261
  20
1058.464233
  0
POINT
  8
3
  10
224.519165
  20
1051.665771
  0
POINT
  8
3
  10
218.794937
  20
1045.035767
  0
POINT
  8
3
  10
212.653244
  20
1038.804565
  0
POINT
  8
3
  10
206.136154
  20
1033.194092
  0
POINT
  8
3
  10
199.052216
  20
1028.755737
  0
POINT
  8
3
  10
191.596802
  20
1025.920776
  0
POINT
  8
3
  10
183.844299
  20
1024.298096
  0
POINT
  8
3
  10
175.851578
  20
1023.524902
  0
POINT
  8
3
  10
167.683838
  20
1023.209961
  0
POINT
  8
3
  10
163.244080
  20
1006.267578
  0
POINT
  8
3
  10
165.496780
  20
996.474487
  0
POINT
  8
3
  10
167.555054
  20
986.639587
  0
LINE
  8
7
  10
303.065765
  20
973.528198
  11
303.065765
  21
1153.528198
  0
ENDBLK
  0
BLOCK
  8
0
  2
Pattern_528568_M_1_M_1_XS
  70
64
  10
0
  20
0
  0
TEXT
  8
1
  10
-599.263184
  20
1082.539551
  50
0.000000
  51
0.000000
  71
0.000000
  1
PIECE NAME: Pattern_528568_M_1_M_1
  7
STANDARD
  0
TEXT
  8
1
  10
-599.263184
  20
1077.539551
  50
0.000000
  51
0.000000
  71
0.000000
  1
SIZE: XS
  7
STANDARD
  0
TEXT
  8
1
  10
-599.263184
  20
1067.539551
  50
0.000000
  51
0.000000
  71
0.000000
  1
QUANTITY: 1
  7
STANDARD
  0
POLYLINE
  8
1
  66
1
  70
1
  250
2
  0
VERTEX
  8
1
  10
-466.076996
  20
993.857544
  0
VERTEX
  8
1
  10
-733.547424
  20
993.634583
  0
VERTEX
  8
1
  10
-736.190308
  20
1008.718689
  0
VERTEX
  8
1
  10
-738.209717
  20
1019.233704
  0
VERTEX
  8
1
  10
-740.528259
  20
1030.616577
  0
VERTEX
  8
1
  10
-742.913147
  20
1041.985840
  0
VERTEX
  8
1
  10
-736.856628
  20
1051.977783
  0
VERTEX
  8
1
  10
-729.552979
  20
1064.102173
  0
VERTEX
  8
1
  10
-722.576599
  20
1076.417480
  0
VERTEX
  8
1
  10
-716.929565
  20
1086.646240
  0
VERTEX
  8
1
  10
-711.705688
  20
1096.511841
  0
VERTEX
  8
1
  10
-706.319946
  20
1106.288940
  0
VERTEX
  8
1
  10
-705.312500
  20
1107.967407
  0
VERTEX
  8
1
  10
-699.569336
  20
1116.204834
  0
VERTEX
  8
1
  10
-696.057922
  20
1120.884155
  0
VERTEX
  8
1
  10
-692.337952
  20
1125.883667
  0
VERTEX
  8
1
  10
-684.843750
  20
1135.245850
  0
VERTEX
  8
1
  10
-676.911987
  20
1144.241333
  0
VERTEX
  8
1
  10
-670.958862
  20
1150.230835
  0
VERTEX
  8
1
  10
-664.508545
  20
1155.680786
  0
VERTEX
  8
1
  10
-657.562195
  20
1160.483398
  0
VERTEX
  8
1
  10
-650.141357
  20
1164.514038
  0
VERTEX
  8
1
  10
-642.373230
  20
1167.822510
  0
VERTEX
  8
1
  10
-634.307983
  20
1170.334839
  0
VERTEX
  8
1
  10
-625.946350
  20
1171.423828
  0
VERTEX
  8
1
  10
-623.471069
  20
1171.444580
  0
VERTEX
  8
1
  10
-614.365845
  20
1170.415894
  0
VERTEX
  8
1
  10
-605.593567
  20
1167.857422
  0
VERTEX
  8
1
  10
-597.192749
  20
1164.015869
  0
VERTEX
  8
1
  10
-589.221313
  20
1159.109375
  0
VERTEX
  8
1
  10
-581.708130
  20
1153.374878
  0
VERTEX
  8
1
  10
-574.701538
  20
1147.040039
  0
VERTEX
  8
1
  10
-568.239990
  20
1140.351807
  0
VERTEX
  8
1
  10
-562.371887
  20
1133.527954
  0
VERTEX
  8
1
  10
-551.184570
  20
1118.617920
  0
VERTEX
  8
1
  10
-541.871155
  20
1104.477295
  0
VERTEX
  8
1
  10
-536.704834
  20
1095.252075
  0
VERTEX
  8
1
  10
-531.547180
  20
1086.023071
  0
VERTEX
  8
1
  10
-529.119446
  20
1082.029663
  0
VERTEX
  8
1
  10
-525.971680
  20
1077.475586
  0
VERTEX
  8
1
  10
-520.716553
  20
1070.677124
  0
VERTEX
  8
1
  10
-514.992310
  20
1064.047119
  0
VERTEX
  8
1
  10
-508.850647
  20
1057.815918
  0
VERTEX
  8
1
  10
-502.333557
  20
1052.205444
  0
VERTEX
  8
1
  10
-495.249603
  20
1047.767090
  0
VERTEX
  8
1
  10
-487.794189
  20
1044.932129
  0
VERTEX
  8
1
  10
-480.041687
  20
1043.309448
  0
VERTEX
  8
1
  10
-472.048950
  20
1042.536255
  0
VERTEX
  8
1
  10
-463.881226
  20
1042.221313
  0
VERTEX
  8
1
  10
-455.613159
  20
1041.982910
  0
VERTEX
  8
1
  10
-459.441467
  20
1025.278931
  0
VERTEX
  8
1
  10
-461.694153
  20
1015.485840
  0
VERTEX
  8
1
  10
-463.752441
  20
1005.650940
  0
SEQEND
  0
TEXT
  8
1
  10
-466.076996
  20
993.857544
  40
0.250000
  50
0.000000
  1
# 204
  7
STANDARD
  0
TEXT
  8
1
  10
-733.547424
  20
993.634583
  40
0.250000
  50
0.000000
  1
# 203
  7
STANDARD
  0
TEXT
  8
1
  10
-736.190308
  20
1008.718689
  40
0.250000
  50
0.000000
  1
# 207
  7
STANDARD
  0
TEXT
  8
1
  10
-738.209717
  20
1019.233704
  40
0.250000
  50
0.000000
  1
# 206
  7
STANDARD
  0
TEXT
  8
1
  10
-740.528259
  20
1030.616577
  40
0.250000
  50
0.000000
  1
# 205
  7
STANDARD
  0
TEXT
  8
1
  10
-742.913147
  20
1041.985840
  40
0.250000
  50
0.000000
  1
# 202
  7
STANDARD
  0
TEXT
  8
1
  10
-736.856628
  20
1051.977783
  40
0.250000
  50
0.000000
  1
# 213
  7
STANDARD
  0
TEXT
  8
1
  10
-729.552979
  20
1064.102173
  40
0.250000
  50
0.000000
  1
# 212
  7
STANDARD
  0
TEXT
  8
1
  10
-722.576599
  20
1076.417480
  40
0.250000
  50
0.000000
  1
# 211
  7
STANDARD
  0
TEXT
  8
1
  10
-716.929565
  20
1086.646240
  40
0.250000
  50
0.000000
  1
# 210
  7
STANDARD
  0
TEXT
  8
1
  10
-711.705688
  20
1096.511841
  40
0.250000
  50
0.000000
  1
# 209
  7
STANDARD
  0
TEXT
  8
1
  10
-706.319946
  20
1106.288940
  40
0.250000
  50
0.000000
  1
# 208
  7
STANDARD
  0
TEXT
  8
1
  10
-705.312500
  20
1107.967407
  40
0.250000
  50
0.000000
  1
# 201
  7
STANDARD
  0
TEXT
  8
1
  10
-699.569336
  20
1116.204834
  40
0.250000
  50
0.000000
  1
# 214
  7
STANDARD
  0
TEXT
  8
1
  10
-696.057922
  20
1120.884155
  40
0.250000
  50
0.000000
  1
# 200
  7
STANDARD
  0
TEXT
  8
1
  10
-692.337952
  20
1125.883667
  40
0.250000
  50
0.000000
  1
# 223
  7
STANDARD
  0
TEXT
  8
1
  10
-684.843750
  20
1135.245850
  40
0.250000
  50
0.000000
  1
# 222
  7
STANDARD
  0
TEXT
  8
1
  10
-676.911987
  20
1144.241333
  40
0.250000
  50
0.000000
  1
# 221
  7
STANDARD
  0
TEXT
  8
1
  10
-670.958862
  20
1150.230835
  40
0.250000
  50
0.000000
  1
# 220
  7
STANDARD
  0
TEXT
  8
1
  10
-664.508545
  20
1155.680786
  40
0.250000
  50
0.000000
  1
# 219
  7
STANDARD
  0
TEXT
  8
1
  10
-657.562195
  20
1160.483398
  40
0.250000
  50
0.000000
  1
# 218
  7
STANDARD
  0
TEXT
  8
1
  10
-650.141357
  20
1164.514038
  40
0.250000
  50
0.000000
  1
# 217
  7
STANDARD
  0
TEXT
  8
1
  10
-642.373230
  20
1167.822510
  40
0.250000
  50
0.000000
  1
# 216
  7
STANDARD
  0
TEXT
  8
1
  10
-634.307983
  20
1170.334839
  40
0.250000
  50
0.000000
  1
# 215
  7
STANDARD
  0
TEXT
  8
1
  10
-625.946350
  20
1171.423828
  40
0.250000
  50
0.000000
  1
# 199
  7
STANDARD
  0
TEXT
  8
1
  10
-623.471069
  20
1171.444580
  40
0.250000
  50
0.000000
  1
# 236
  7
STANDARD
  0
TEXT
  8
1
  10
-614.365845
  20
1170.415894
  40
0.250000
  50
0.000000
  1
# 235
  7
STANDARD
  0
TEXT
  8
1
  10
-605.593567
  20
1167.857422
  40
0.250000
  50
0.000000
  1
# 234
  7
STANDARD
  0
TEXT
  8
1
  10
-597.192749
  20
1164.015869
  40
0.250000
  50
0.000000
  1
# 233
  7
STANDARD
  0
TEXT
  8
1
  10
-589.221313
  20
1159.109375
  40
0.250000
  50
0.000000
  1
# 232
  7
STANDARD
  0
TEXT
  8
1
  10
-581.708130
  20
1153.374878
  40
0.250000
  50
0.000000
  1
# 231
  7
STANDARD
  0
TEXT
  8
1
  10
-574.701538
  20
1147.040039
  40
0.250000
  50
0.000000
  1
# 230
  7
STANDARD
  0
TEXT
  8
1
  10
-568.239990
  20
1140.351807
  40
0.250000
  50
0.000000
  1
# 229
  7
STANDARD
  0
TEXT
  8
1
  10
-562.371887
  20
1133.527954
  40
0.250000
  50
0.000000
  1
# 228
  7
STANDARD
  0
TEXT
  8
1
  10
-551.184570
  20
1118.617920
  40
0.250000
  50
0.000000
  1
# 227
  7
STANDARD
  0
TEXT
  8
1
  10
-541.871155
  20
1104.477295
  40
0.250000
  50
0.000000
  1
# 226
  7
STANDARD
  0
TEXT
  8
1
  10
-536.704834
  20
1095.252075
  40
0.250000
  50
0.000000
  1
# 225
  7
STANDARD
  0
TEXT
  8
1
  10
-531.547180
  20
1086.023071
  40
0.250000
  50
0.000000
  1
# 224
  7
STANDARD
  0
TEXT
  8
1
  10
-529.119446
  20
1082.029663
  40
0.250000
  50
0.000000
  1
# 198
  7
STANDARD
  0
TEXT
  8
1
  10
-525.971680
  20
1077.475586
  40
0.250000
  50
0.000000
  1
# 246
  7
STANDARD
  0
TEXT
  8
1
  10
-520.716553
  20
1070.677124
  40
0.250000
  50
0.000000
  1
# 245
  7
STANDARD
  0
TEXT
  8
1
  10
-514.992310
  20
1064.047119
  40
0.250000
  50
0.000000
  1
# 244
  7
STANDARD
  0
TEXT
  8
1
  10
-508.850647
  20
1057.815918
  40
0.250000
  50
0.000000
  1
# 243
  7
STANDARD
  0
TEXT
  8
1
  10
-502.333557
  20
1052.205444
  40
0.250000
  50
0.000000
  1
# 242
  7
STANDARD
  0
TEXT
  8
1
  10
-495.249603
  20
1047.767090
  40
0.250000
  50
0.000000
  1
# 241
  7
STANDARD
  0
TEXT
  8
1
  10
-487.794189
  20
1044.932129
  40
0.250000
  50
0.000000
  1
# 240
  7
STANDARD
  0
TEXT
  8
1
  10
-480.041687
  20
1043.309448
  40
0.250000
  50
0.000000
  1
# 239
  7
STANDARD
  0
TEXT
  8
1
  10
-472.048950
  20
1042.536255
  40
0.250000
  50
0.000000
  1
# 238
  7
STANDARD
  0
TEXT
  8
1
  10
-463.881226
  20
1042.221313
  40
0.250000
  50
0.000000
  1
# 237
  7
STANDARD
  0
TEXT
  8
1
  10
-455.613159
  20
1041.982910
  40
0.250000
  50
0.000000
  1
# 197
  7
STANDARD
  0
TEXT
  8
1
  10
-459.441467
  20
1025.278931
  40
0.250000
  50
0.000000
  1
# 249
  7
STANDARD
  0
TEXT
  8
1
  10
-461.694153
  20
1015.485840
  40
0.250000
  50
0.000000
  1
# 248
  7
STANDARD
  0
TEXT
  8
1
  10
-463.752441
  20
1005.650940
  40
0.250000
  50
0.000000
  1
# 247
  7
STANDARD
  0
POINT
  8
2
  10
-466.076996
  20
993.857544
  0
POINT
  8
2
  10
-733.547424
  20
993.634583
  0
POINT
  8
2
  10
-742.913147
  20
1041.985840
  0
POINT
  8
2
  10
-705.312500
  20
1107.967407
  0
POINT
  8
2
  10
-696.057922
  20
1120.884155
  0
POINT
  8
2
  10
-625.946350
  20
1171.423828
  0
POINT
  8
2
  10
-529.119446
  20
1082.029663
  0
POINT
  8
2
  10
-455.613159
  20
1041.982910
  0
POINT
  8
3
  10
-736.190308
  20
1008.718689
  0
POINT
  8
3
  10
-738.209717
  20
1019.233704
  0
POINT
  8
3
  10
-740.528259
  20
1030.616577
  0
POINT
  8
3
  10
-736.856628
  20
1051.977783
  0
POINT
  8
3
  10
-729.552979
  20
1064.102173
  0
POINT
  8
3
  10
-722.576599
  20
1076.417480
  0
POINT
  8
3
  10
-716.929565
  20
1086.646240
  0
POINT
  8
3
  10
-711.705688
  20
1096.511841
  0
POINT
  8
3
  10
-706.319946
  20
1106.288940
  0
POINT
  8
3
  10
-699.569336
  20
1116.204834
  0
POINT
  8
3
  10
-692.337952
  20
1125.883667
  0
POINT
  8
3
  10
-684.843750
  20
1135.245850
  0
POINT
  8
3
  10
-676.911987
  20
1144.241333
  0
POINT
  8
3
  10
-670.958862
  20
1150.230835
  0
POINT
  8
3
  10
-664.508545
  20
1155.680786
  0
POINT
  8
3
  10
-657.562195
  20
1160.483398
  0
POINT
  8
3
  10
-650.141357
  20
1164.514038
  0
POINT
  8
3
  10
-642.373230
  20
1167.822510
  0
POINT
  8
3
  10
-634.307983
  20
1170.334839
  0
POINT
  8
3
  10
-623.471069
  20
1171.444580
  0
POINT
  8
3
  10
-614.365845
  20
1170.415894
  0
POINT
  8
3
  10
-605.593567
  20
1167.857422
  0
POINT
  8
3
  10
-597.192749
  20
1164.015869
  0
POINT
  8
3
  10
-589.221313
  20
1159.109375
  0
POINT
  8
3
  10
-581.708130
  20
1153.374878
  0
POINT
  8
3
  10
-574.701538
  20
1147.040039
  0
POINT
  8
3
  10
-568.239990
  20
1140.351807
  0
POINT
  8
3
  10
-562.371887
  20
1133.527954
  0
POINT
  8
3
  10
-551.184570
  20
1118.617920
  0
POINT
  8
3
  10
-541.871155
  20
1104.477295
  0
POINT
  8
3
  10
-536.704834
  20
1095.252075
  0
POINT
  8
3
  10
-531.547180
  20
1086.023071
  0
POINT
  8
3
  10
-525.971680
  20
1077.475586
  0
POINT
  8
3
  10
-520.716553
  20
1070.677124
  0
POINT
  8
3
  10
-514.992310
  20
1064.047119
  0
POINT
  8
3
  10
-508.850647
  20
1057.815918
  0
POINT
  8
3
  10
-502.333557
  20
1052.205444
  0
POINT
  8
3
  10
-495.249603
  20
1047.767090
  0
POINT
  8
3
  10
-487.794189
  20
1044.932129
  0
POINT
  8
3
  10
-480.041687
  20
1043.309448
  0
POINT
  8
3
  10
-472.048950
  20
1042.536255
  0
POINT
  8
3
  10
-463.881226
  20
1042.221313
  0
POINT
  8
3
  10
-459.441467
  20
1025.278931
  0
POINT
  8
3
  10
-461.694153
  20
1015.485840
  0
POINT
  8
3
  10
-463.752441
  20
1005.650940
  0
POINT
  8
4
  10
-705.312500
  20
1107.967407
  30
7.000000
  39
0.000000
  50
326.703735
  0
POINT
  8
4
  10
-696.057922
  20
1120.884155
  30
7.000000
  39
0.000000
  50
323.863098
  0
POINT
  8
4
  10
-625.946350
  20
1171.423828
  30
7.000000
  39
0.000000
  50
273.085938
  0
POINT
  8
4
  10
-529.119446
  20
1082.029663
  30
7.000000
  39
0.000000
  50
212.976227
  0
POLYLINE
  8
84
  66
1
  70
1
  250
2
  0
VERTEX
  8
84
  10
-466.076996
  20
993.857544
  0
VERTEX
  8
84
  10
-733.547424
  20
993.634583
  0
VERTEX
  8
84
  10
-736.190308
  20
1008.718689
  0
VERTEX
  8
84
  10
-738.209717
  20
1019.233704
  0
VERTEX
  8
84
  10
-740.528259
  20
1030.616577
  0
VERTEX
  8
84
  10
-742.913147
  20
1041.985840
  0
VERTEX
  8
84
  10
-736.856628
  20
1051.977783
  0
VERTEX
  8
84
  10
-729.552979
  20
1064.102173
  0
VERTEX
  8
84
  10
-722.576599
  20
1076.417480
  0
VERTEX
  8
84
  10
-716.929565
  20
1086.646240
  0
VERTEX
  8
84
  10
-711.705688
  20
1096.511841
  0
VERTEX
  8
84
  10
-709.073364
  20
1101.434814
  0
VERTEX
  8
84
  10
-706.319946
  20
1106.288940
  0
VERTEX
  8
84
  10
-705.312500
  20
1107.967407
  0
VERTEX
  8
84
  10
-699.569336
  20
1116.204834
  0
VERTEX
  8
84
  10
-696.057922
  20
1120.884155
  0
VERTEX
  8
84
  10
-692.337952
  20
1125.883667
  0
VERTEX
  8
84
  10
-688.648071
  20
1130.610107
  0
VERTEX
  8
84
  10
-684.843750
  20
1135.245850
  0
VERTEX
  8
84
  10
-680.937561
  20
1139.796143
  0
VERTEX
  8
84
  10
-676.911987
  20
1144.241333
  0
VERTEX
  8
84
  10
-673.988037
  20
1147.289062
  0
VERTEX
  8
84
  10
-670.958862
  20
1150.230835
  0
VERTEX
  8
84
  10
-667.798218
  20
1153.031494
  0
VERTEX
  8
84
  10
-664.508545
  20
1155.680786
  0
VERTEX
  8
84
  10
-661.097046
  20
1158.171875
  0
VERTEX
  8
84
  10
-657.562195
  20
1160.483398
  0
VERTEX
  8
84
  10
-653.904358
  20
1162.596680
  0
VERTEX
  8
84
  10
-650.141357
  20
1164.514038
  0
VERTEX
  8
84
  10
-646.294006
  20
1166.246948
  0
VERTEX
  8
84
  10
-642.373230
  20
1167.822510
  0
VERTEX
  8
84
  10
-639.720276
  20
1168.790527
  0
VERTEX
  8
84
  10
-637.034241
  20
1169.646240
  0
VERTEX
  8
84
  10
-634.307983
  20
1170.334839
  0
VERTEX
  8
84
  10
-630.152283
  20
1171.004395
  0
VERTEX
  8
84
  10
-625.946350
  20
1171.423828
  0
VERTEX
  8
84
  10
-623.471069
  20
1171.444580
  0
VERTEX
  8
84
  10
-620.418579
  20
1171.300171
  0
VERTEX
  8
84
  10
-617.379883
  20
1170.950806
  0
VERTEX
  8
84
  10
-614.365845
  20
1170.415894
  0
VERTEX
  8
84
  10
-611.397034
  20
1169.715698
  0
VERTEX
  8
84
  10
-608.471985
  20
1168.860107
  0
VERTEX
  8
84
  10
-605.593567
  20
1167.857422
  0
VERTEX
  8
84
  10
-602.736328
  20
1166.703979
  0
VERTEX
  8
84
  10
-599.935791
  20
1165.420288
  0
VERTEX
  8
84
  10
-597.192749
  20
1164.015869
  0
VERTEX
  8
84
  10
-593.138916
  20
1161.673340
  0
VERTEX
  8
84
  10
-589.221313
  20
1159.109375
  0
VERTEX
  8
84
  10
-585.399231
  20
1156.327759
  0
VERTEX
  8
84
  10
-581.708130
  20
1153.374878
  0
VERTEX
  8
84
  10
-578.145630
  20
1150.273071
  0
VERTEX
  8
84
  10
-574.701538
  20
1147.040039
  0
VERTEX
  8
84
  10
-571.418762
  20
1143.746094
  0
VERTEX
  8
84
  10
-568.239990
  20
1140.351807
  0
VERTEX
  8
84
  10
-562.371887
  20
1133.527954
  0
VERTEX
  8
84
  10
-559.470398
  20
1129.881104
  0
VERTEX
  8
84
  10
-556.649170
  20
1126.173340
  0
VERTEX
  8
84
  10
-553.892456
  20
1122.415283
  0
VERTEX
  8
84
  10
-551.184570
  20
1118.617920
  0
VERTEX
  8
84
  10
-548.761047
  20
1115.142456
  0
VERTEX
  8
84
  10
-546.388062
  20
1111.635376
  0
VERTEX
  8
84
  10
-544.084900
  20
1108.084473
  0
VERTEX
  8
84
  10
-541.871155
  20
1104.477295
  0
VERTEX
  8
84
  10
-536.704834
  20
1095.252075
  0
VERTEX
  8
84
  10
-531.547180
  20
1086.023071
  0
VERTEX
  8
84
  10
-529.119446
  20
1082.029663
  0
VERTEX
  8
84
  10
-525.971680
  20
1077.475586
  0
VERTEX
  8
84
  10
-520.716553
  20
1070.677124
  0
VERTEX
  8
84
  10
-514.992310
  20
1064.047119
  0
VERTEX
  8
84
  10
-511.975647
  20
1060.879150
  0
VERTEX
  8
84
  10
-508.850647
  20
1057.815918
  0
VERTEX
  8
84
  10
-505.669983
  20
1054.919922
  0
VERTEX
  8
84
  10
-502.333557
  20
1052.205444
  0
VERTEX
  8
84
  10
-500.062927
  20
1050.581787
  0
VERTEX
  8
84
  10
-497.702393
  20
1049.094238
  0
VERTEX
  8
84
  10
-495.249603
  20
1047.767090
  0
VERTEX
  8
84
  10
-492.826233
  20
1046.668335
  0
VERTEX
  8
84
  10
-490.336090
  20
1045.727539
  0
VERTEX
  8
84
  10
-487.794189
  20
1044.932129
  0
VERTEX
  8
84
  10
-483.944275
  20
1043.992065
  0
VERTEX
  8
84
  10
-480.041687
  20
1043.309448
  0
VERTEX
  8
84
  10
-476.053833
  20
1042.837646
  0
VERTEX
  8
84
  10
-472.048950
  20
1042.536255
  0
VERTEX
  8
84
  10
-463.881226
  20
1042.221313
  0
VERTEX
  8
84
  10
-455.613159
  20
1041.982910
  0
VERTEX
  8
84
  10
-459.441467
  20
1025.278931
  0
VERTEX
  8
84
  10
-461.694153
  20
1015.485840
  0
VERTEX
  8
84
  10
-463.752441
  20
1005.650940
  0
SEQEND
  0
TEXT
  8
84
  10
-466.076996
  20
993.857544
  40
0.250000
  50
0.000000
  1
# 204
  7
STANDARD
  0
TEXT
  8
84
  10
-733.547424
  20
993.634583
  40
0.250000
  50
0.000000
  1
# 203
  7
STANDARD
  0
TEXT
  8
84
  10
-742.913147
  20
1041.985840
  40
0.250000
  50
0.000000
  1
# 202
  7
STANDARD
  0
TEXT
  8
84
  10
-705.312500
  20
1107.967407
  40
0.250000
  50
0.000000
  1
# 201
  7
STANDARD
  0
TEXT
  8
84
  10
-696.057922
  20
1120.884155
  40
0.250000
  50
0.000000
  1
# 200
  7
STANDARD
  0
TEXT
  8
84
  10
-625.946350
  20
1171.423828
  40
0.250000
  50
0.000000
  1
# 199
  7
STANDARD
  0
TEXT
  8
84
  10
-529.119446
  20
1082.029663
  40
0.250000
  50
0.000000
  1
# 198
  7
STANDARD
  0
TEXT
  8
84
  10
-455.613159
  20
1041.982910
  40
0.250000
  50
0.000000
  1
# 197
  7
STANDARD
  0
POINT
  8
2
  10
-466.076996
  20
993.857544
  0
POINT
  8
2
  10
-733.547424
  20
993.634583
  0
POINT
  8
2
  10
-742.913147
  20
1041.985840
  0
POINT
  8
2
  10
-705.312500
  20
1107.967407
  0
POINT
  8
2
  10
-696.057922
  20
1120.884155
  0
POINT
  8
2
  10
-625.946350
  20
1171.423828
  0
POINT
  8
2
  10
-529.119446
  20
1082.029663
  0
POINT
  8
2
  10
-455.613159
  20
1041.982910
  0
POINT
  8
3
  10
-736.190308
  20
1008.718689
  0
POINT
  8
3
  10
-738.209717
  20
1019.233704
  0
POINT
  8
3
  10
-740.528259
  20
1030.616577
  0
POINT
  8
3
  10
-736.856628
  20
1051.977783
  0
POINT
  8
3
  10
-729.552979
  20
1064.102173
  0
POINT
  8
3
  10
-722.576599
  20
1076.417480
  0
POINT
  8
3
  10
-716.929565
  20
1086.646240
  0
POINT
  8
3
  10
-711.705688
  20
1096.511841
  0
POINT
  8
3
  10
-706.319946
  20
1106.288940
  0
POINT
  8
3
  10
-699.569336
  20
1116.204834
  0
POINT
  8
3
  10
-692.337952
  20
1125.883667
  0
POINT
  8
3
  10
-684.843750
  20
1135.245850
  0
POINT
  8
3
  10
-676.911987
  20
1144.241333
  0
POINT
  8
3
  10
-670.958862
  20
1150.230835
  0
POINT
  8
3
  10
-664.508545
  20
1155.680786
  0
POINT
  8
3
  10
-657.562195
  20
1160.483398
  0
POINT
  8
3
  10
-650.141357
  20
1164.514038
  0
POINT
  8
3
  10
-642.373230
  20
1167.822510
  0
POINT
  8
3
  10
-634.307983
  20
1170.334839
  0
POINT
  8
3
  10
-623.471069
  20
1171.444580
  0
POINT
  8
3
  10
-614.365845
  20
1170.415894
  0
POINT
  8
3
  10
-605.593567
  20
1167.857422
  0
POINT
  8
3
  10
-597.192749
  20
1164.015869
  0
POINT
  8
3
  10
-589.221313
  20
1159.109375
  0
POINT
  8
3
  10
-581.708130
  20
1153.374878
  0
POINT
  8
3
  10
-574.701538
  20
1147.040039
  0
POINT
  8
3
  10
-568.239990
  20
1140.351807
  0
POINT
  8
3
  10
-562.371887
  20
1133.527954
  0
POINT
  8
3
  10
-551.184570
  20
1118.617920
  0
POINT
  8
3
  10
-541.871155
  20
1104.477295
  0
POINT
  8
3
  10
-536.704834
  20
1095.252075
  0
POINT
  8
3
  10
-531.547180
  20
1086.023071
  0
POINT
  8
3
  10
-525.971680
  20
1077.475586
  0
POINT
  8
3
  10
-520.716553
  20
1070.677124
  0
POINT
  8
3
  10
-514.992310
  20
1064.047119
  0
POINT
  8
3
  10
-508.850647
  20
1057.815918
  0
POINT
  8
3
  10
-502.333557
  20
1052.205444
  0
POINT
  8
3
  10
-495.249603
  20
1047.767090
  0
POINT
  8
3
  10
-487.794189
  20
1044.932129
  0
POINT
  8
3
  10
-480.041687
  20
1043.309448
  0
POINT
  8
3
  10
-472.048950
  20
1042.536255
  0
POINT
  8
3
  10
-463.881226
  20
1042.221313
  0
POINT
  8
3
  10
-459.441467
  20
1025.278931
  0
POINT
  8
3
  10
-461.694153
  20
1015.485840
  0
POINT
  8
3
  10
-463.752441
  20
1005.650940
  0
LINE
  8
7
  10
-599.263184
  20
992.539551
  11
-599.263184
  21
1172.539551
  0
ENDBLK
  0
BLOCK
  8
0
  2
Internal Line_41616_M_M_2_XS
  70
64
  10
0
  20
0
  0
TEXT
  8
1
  10
824.958801
  20
853.695190
  50
0.000000
  51
0.000000
  71
0.000000
  1
PIECE NAME: Internal Line_41616_M_M_2
  7
STANDARD
  0
TEXT
  8
1
  10
824.958801
  20
848.695190
  50
0.000000
  51
0.000000
  71
0.000000
  1
SIZE: XS
  7
STANDARD
  0
TEXT
  8
1
  10
824.958801
  20
838.695190
  50
0.000000
  51
0.000000
  71
0.000000
  1
QUANTITY: 1
  7
STANDARD
  0
POLYLINE
  8
1
  66
1
  70
1
  250
2
  0
VERTEX
  8
1
  10
824.810730
  20
1107.114868
  0
VERTEX
  8
1
  10
822.103760
  20
1107.019775
  0
VERTEX
  8
1
  10
808.075562
  20
1107.200562
  0
VERTEX
  8
1
  10
794.073914
  20
1108.131836
  0
VERTEX
  8
1
  10
780.098694
  20
1109.438477
  0
VERTEX
  8
1
  10
770.642761
  20
1110.887451
  0
VERTEX
  8
1
  10
761.371704
  20
1113.509766
  0
VERTEX
  8
1
  10
754.072327
  20
1116.809937
  0
VERTEX
  8
1
  10
747.155273
  20
1120.892700
  0
VERTEX
  8
1
  10
742.017212
  20
1124.419922
  0
VERTEX
  8
1
  10
651.749695
  20
1082.948730
  0
VERTEX
  8
1
  10
655.091675
  20
1068.497925
  0
VERTEX
  8
1
  10
659.955383
  20
1046.183350
  0
VERTEX
  8
1
  10
663.752991
  20
1023.659607
  0
VERTEX
  8
1
  10
664.913940
  20
1016.227478
  0
VERTEX
  8
1
  10
665.875427
  20
1008.334900
  0
VERTEX
  8
1
  10
666.514282
  20
1000.103394
  0
VERTEX
  8
1
  10
666.672119
  20
997.351013
  0
VERTEX
  8
1
  10
666.766479
  20
989.485657
  0
VERTEX
  8
1
  10
666.730835
  20
986.691162
  0
VERTEX
  8
1
  10
665.826416
  20
975.026978
  0
VERTEX
  8
1
  10
664.613159
  20
967.446167
  0
VERTEX
  8
1
  10
662.847534
  20
959.975464
  0
VERTEX
  8
1
  10
660.518555
  20
952.660339
  0
VERTEX
  8
1
  10
657.074097
  20
945.799133
  0
VERTEX
  8
1
  10
652.261536
  20
939.945312
  0
VERTEX
  8
1
  10
646.375061
  20
935.237000
  0
VERTEX
  8
1
  10
641.048950
  20
932.500244
  0
VERTEX
  8
1
  10
635.463867
  20
930.595398
  0
VERTEX
  8
1
  10
629.702209
  20
929.038574
  0
VERTEX
  8
1
  10
636.571899
  20
897.920227
  0
VERTEX
  8
1
  10
642.506226
  20
866.610657
  0
VERTEX
  8
1
  10
647.475098
  20
835.133789
  0
VERTEX
  8
1
  10
651.419800
  20
803.512268
  0
VERTEX
  8
1
  10
654.336914
  20
771.779541
  0
VERTEX
  8
1
  10
656.201660
  20
739.967224
  0
VERTEX
  8
1
  10
656.017761
  20
712.475464
  0
VERTEX
  8
1
  10
654.001892
  20
694.677979
  0
VERTEX
  8
1
  10
650.895996
  20
677.036377
  0
VERTEX
  8
1
  10
647.121277
  20
659.524780
  0
VERTEX
  8
1
  10
643.123047
  20
642.062439
  0
VERTEX
  8
1
  10
639.907288
  20
627.439941
  0
VERTEX
  8
1
  10
637.059692
  20
612.740417
  0
VERTEX
  8
1
  10
634.834656
  20
597.935669
  0
VERTEX
  8
1
  10
659.590637
  20
595.187256
  0
VERTEX
  8
1
  10
684.362305
  20
592.598389
  0
VERTEX
  8
1
  10
704.845825
  20
590.597717
  0
VERTEX
  8
1
  10
725.341919
  20
588.739990
  0
VERTEX
  8
1
  10
745.851685
  20
587.039368
  0
VERTEX
  8
1
  10
766.377075
  20
585.529236
  0
VERTEX
  8
1
  10
777.441772
  20
584.811157
  0
VERTEX
  8
1
  10
788.510376
  20
584.176636
  0
VERTEX
  8
1
  10
799.584229
  20
583.640991
  0
VERTEX
  8
1
  10
810.664001
  20
583.229248
  0
VERTEX
  8
1
  10
821.746765
  20
582.970459
  0
VERTEX
  8
1
  10
828.170715
  20
582.970459
  0
VERTEX
  8
1
  10
839.253479
  20
583.229248
  0
VERTEX
  8
1
  10
850.333252
  20
583.640991
  0
VERTEX
  8
1
  10
861.407104
  20
584.176636
  0
VERTEX
  8
1
  10
872.475708
  20
584.811157
  0
VERTEX
  8
1
  10
883.540405
  20
585.529236
  0
VERTEX
  8
1
  10
904.065796
  20
587.039368
  0
VERTEX
  8
1
  10
924.575562
  20
588.739990
  0
VERTEX
  8
1
  10
945.071655
  20
590.597717
  0
VERTEX
  8
1
  10
965.555176
  20
592.598389
  0
VERTEX
  8
1
  10
990.326843
  20
595.187134
  0
VERTEX
  8
1
  10
1015.082825
  20
597.935547
  0
VERTEX
  8
1
  10
1012.857788
  20
612.740295
  0
VERTEX
  8
1
  10
1010.010193
  20
627.439819
  0
VERTEX
  8
1
  10
1006.794434
  20
642.062317
  0
VERTEX
  8
1
  10
1002.796204
  20
659.524658
  0
VERTEX
  8
1
  10
999.021484
  20
677.036377
  0
VERTEX
  8
1
  10
995.915710
  20
694.677979
  0
VERTEX
  8
1
  10
993.899841
  20
712.475464
  0
VERTEX
  8
1
  10
993.715942
  20
739.967102
  0
VERTEX
  8
1
  10
995.580688
  20
771.779541
  0
VERTEX
  8
1
  10
998.497803
  20
803.512146
  0
VERTEX
  8
1
  10
1002.442505
  20
835.133789
  0
VERTEX
  8
1
  10
1007.411377
  20
866.610535
  0
VERTEX
  8
1
  10
1013.345703
  20
897.920105
  0
VERTEX
  8
1
  10
1020.215393
  20
929.038574
  0
VERTEX
  8
1
  10
1014.453735
  20
930.595276
  0
VERTEX
  8
1
  10
1008.868652
  20
932.500244
  0
VERTEX
  8
1
  10
1003.542542
  20
935.236877
  0
VERTEX
  8
1
  10
997.656067
  20
939.945312
  0
VERTEX
  8
1
  10
992.843506
  20
945.799011
  0
VERTEX
  8
1
  10
989.450256
  20
952.527588
  0
VERTEX
  8
1
  10
986.982483
  20
960.515930
  0
VERTEX
  8
1
  10
985.148926
  20
969.626648
  0
VERTEX
  8
1
  10
984.570312
  20
974.165955
  0
VERTEX
  8
1
  10
984.012878
  20
981.168091
  0
VERTEX
  8
1
  10
983.868286
  20
985.192566
  0
VERTEX
  8
1
  10
983.875305
  20
989.370239
  0
VERTEX
  8
1
  10
983.880920
  20
992.723267
  0
VERTEX
  8
1
  10
984.188660
  20
1000.023682
  0
VERTEX
  8
1
  10
984.223572
  20
1000.852661
  0
VERTEX
  8
1
  10
985.015137
  20
1013.278381
  0
VERTEX
  8
1
  10
986.164795
  20
1023.659546
  0
VERTEX
  8
1
  10
987.978516
  20
1035.886597
  0
VERTEX
  8
1
  10
989.962341
  20
1046.183350
  0
VERTEX
  8
1
  10
992.326172
  20
1057.478516
  0
VERTEX
  8
1
  10
994.826050
  20
1068.498047
  0
VERTEX
  8
1
  10
998.168030
  20
1082.948608
  0
VERTEX
  8
1
  10
907.897522
  20
1124.417847
  0
VERTEX
  8
1
  10
902.735718
  20
1120.881592
  0
VERTEX
  8
1
  10
895.783325
  20
1116.786743
  0
VERTEX
  8
1
  10
888.447632
  20
1113.478516
  0
VERTEX
  8
1
  10
879.131897
  20
1110.853149
  0
VERTEX
  8
1
  10
869.631592
  20
1109.406494
  0
VERTEX
  8
1
  10
855.591614
  20
1108.107178
  0
VERTEX
  8
1
  10
841.525391
  20
1107.185059
  0
VERTEX
  8
1
  10
827.433228
  20
1107.016846
  0
SEQEND
  0
TEXT
  8
1
  10
824.810730
  20
1107.114868
  40
0.250000
  50
0.000000
  1
# 260
  7
STANDARD
  0
TEXT
  8
1
  10
822.103760
  20
1107.019775
  40
0.250000
  50
0.000000
  1
# 268
  7
STANDARD
  0
TEXT
  8
1
  10
808.075562
  20
1107.200562
  40
0.250000
  50
0.000000
  1
# 267
  7
STANDARD
  0
TEXT
  8
1
  10
794.073914
  20
1108.131836
  40
0.250000
  50
0.000000
  1
# 266
  7
STANDARD
  0
TEXT
  8
1
  10
780.098694
  20
1109.438477
  40
0.250000
  50
0.000000
  1
# 265
  7
STANDARD
  0
TEXT
  8
1
  10
770.642761
  20
1110.887451
  40
0.250000
  50
0.000000
  1
# 264
  7
STANDARD
  0
TEXT
  8
1
  10
761.371704
  20
1113.509766
  40
0.250000
  50
0.000000
  1
# 263
  7
STANDARD
  0
TEXT
  8
1
  10
754.072327
  20
1116.809937
  40
0.250000
  50
0.000000
  1
# 262
  7
STANDARD
  0
TEXT
  8
1
  10
747.155273
  20
1120.892700
  40
0.250000
  50
0.000000
  1
# 261
  7
STANDARD
  0
TEXT
  8
1
  10
742.017212
  20
1124.419922
  40
0.250000
  50
0.000000
  1
# 259
  7
STANDARD
  0
TEXT
  8
1
  10
651.749695
  20
1082.948730
  40
0.250000
  50
0.000000
  1
# 258
  7
STANDARD
  0
TEXT
  8
1
  10
655.091675
  20
1068.497925
  40
0.250000
  50
0.000000
  1
# 284
  7
STANDARD
  0
TEXT
  8
1
  10
659.955383
  20
1046.183350
  40
0.250000
  50
0.000000
  1
# 283
  7
STANDARD
  0
TEXT
  8
1
  10
663.752991
  20
1023.659607
  40
0.250000
  50
0.000000
  1
# 282
  7
STANDARD
  0
TEXT
  8
1
  10
664.913940
  20
1016.227478
  40
0.250000
  50
0.000000
  1
# 281
  7
STANDARD
  0
TEXT
  8
1
  10
665.875427
  20
1008.334900
  40
0.250000
  50
0.000000
  1
# 280
  7
STANDARD
  0
TEXT
  8
1
  10
666.672119
  20
997.351013
  40
0.250000
  50
0.000000
  1
# 279
  7
STANDARD
  0
TEXT
  8
1
  10
666.730835
  20
986.691162
  40
0.250000
  50
0.000000
  1
# 278
  7
STANDARD
  0
TEXT
  8
1
  10
665.826416
  20
975.026978
  40
0.250000
  50
0.000000
  1
# 277
  7
STANDARD
  0
TEXT
  8
1
  10
664.613159
  20
967.446167
  40
0.250000
  50
0.000000
  1
# 276
  7
STANDARD
  0
TEXT
  8
1
  10
662.847534
  20
959.975464
  40
0.250000
  50
0.000000
  1
# 275
  7
STANDARD
  0
TEXT
  8
1
  10
660.518555
  20
952.660339
  40
0.250000
  50
0.000000
  1
# 274
  7
STANDARD
  0
TEXT
  8
1
  10
657.074097
  20
945.799133
  40
0.250000
  50
0.000000
  1
# 273
  7
STANDARD
  0
TEXT
  8
1
  10
652.261536
  20
939.945312
  40
0.250000
  50
0.000000
  1
# 272
  7
STANDARD
  0
TEXT
  8
1
  10
646.375061
  20
935.237000
  40
0.250000
  50
0.000000
  1
# 271
  7
STANDARD
  0
TEXT
  8
1
  10
641.048950
  20
932.500244
  40
0.250000
  50
0.000000
  1
# 270
  7
STANDARD
  0
TEXT
  8
1
  10
635.463867
  20
930.595398
  40
0.250000
  50
0.000000
  1
# 269
  7
STANDARD
  0
TEXT
  8
1
  10
629.702209
  20
929.038574
  40
0.250000
  50
0.000000
  1
# 257
  7
STANDARD
  0
TEXT
  8
1
  10
636.571899
  20
897.920227
  40
0.250000
  50
0.000000
  1
# 289
  7
STANDARD
  0
TEXT
  8
1
  10
642.506226
  20
866.610657
  40
0.250000
  50
0.000000
  1
# 288
  7
STANDARD
  0
TEXT
  8
1
  10
647.475098
  20
835.133789
  40
0.250000
  50
0.000000
  1
# 287
  7
STANDARD
  0
TEXT
  8
1
  10
651.419800
  20
803.512268
  40
0.250000
  50
0.000000
  1
# 286
  7
STANDARD
  0
TEXT
  8
1
  10
654.336914
  20
771.779541
  40
0.250000
  50
0.000000
  1
# 285
  7
STANDARD
  0
TEXT
  8
1
  10
656.201660
  20
739.967224
  40
0.250000
  50
0.000000
  1
# 256
  7
STANDARD
  0
TEXT
  8
1
  10
656.017761
  20
712.475464
  40
0.250000
  50
0.000000
  1
# 296
  7
STANDARD
  0
TEXT
  8
1
  10
654.001892
  20
694.677979
  40
0.250000
  50
0.000000
  1
# 295
  7
STANDARD
  0
TEXT
  8
1
  10
650.895996
  20
677.036377
  40
0.250000
  50
0.000000
  1
# 294
  7
STANDARD
  0
TEXT
  8
1
  10
647.121277
  20
659.524780
  40
0.250000
  50
0.000000
  1
# 293
  7
STANDARD
  0
TEXT
  8
1
  10
643.123047
  20
642.062439
  40
0.250000
  50
0.000000
  1
# 292
  7
STANDARD
  0
TEXT
  8
1
  10
639.907288
  20
627.439941
  40
0.250000
  50
0.000000
  1
# 291
  7
STANDARD
  0
TEXT
  8
1
  10
637.059692
  20
612.740417
  40
0.250000
  50
0.000000
  1
# 290
  7
STANDARD
  0
TEXT
  8
1
  10
634.834656
  20
597.935669
  40
0.250000
  50
0.000000
  1
# 255
  7
STANDARD
  0
TEXT
  8
1
  10
659.590637
  20
595.187256
  40
0.250000
  50
0.000000
  1
# 318
  7
STANDARD
  0
TEXT
  8
1
  10
684.362305
  20
592.598389
  40
0.250000
  50
0.000000
  1
# 317
  7
STANDARD
  0
TEXT
  8
1
  10
704.845825
  20
590.597717
  40
0.250000
  50
0.000000
  1
# 316
  7
STANDARD
  0
TEXT
  8
1
  10
725.341919
  20
588.739990
  40
0.250000
  50
0.000000
  1
# 315
  7
STANDARD
  0
TEXT
  8
1
  10
745.851685
  20
587.039368
  40
0.250000
  50
0.000000
  1
# 314
  7
STANDARD
  0
TEXT
  8
1
  10
766.377075
  20
585.529236
  40
0.250000
  50
0.000000
  1
# 313
  7
STANDARD
  0
TEXT
  8
1
  10
777.441772
  20
584.811157
  40
0.250000
  50
0.000000
  1
# 312
  7
STANDARD
  0
TEXT
  8
1
  10
788.510376
  20
584.176636
  40
0.250000
  50
0.000000
  1
# 311
  7
STANDARD
  0
TEXT
  8
1
  10
799.584229
  20
583.640991
  40
0.250000
  50
0.000000
  1
# 310
  7
STANDARD
  0
TEXT
  8
1
  10
810.664001
  20
583.229248
  40
0.250000
  50
0.000000
  1
# 309
  7
STANDARD
  0
TEXT
  8
1
  10
821.746765
  20
582.970459
  40
0.250000
  50
0.000000
  1
# 308
  7
STANDARD
  0
TEXT
  8
1
  10
828.170715
  20
582.970459
  40
0.250000
  50
0.000000
  1
# 307
  7
STANDARD
  0
TEXT
  8
1
  10
839.253479
  20
583.229248
  40
0.250000
  50
0.000000
  1
# 306
  7
STANDARD
  0
TEXT
  8
1
  10
850.333252
  20
583.640991
  40
0.250000
  50
0.000000
  1
# 305
  7
STANDARD
  0
TEXT
  8
1
  10
861.407104
  20
584.176636
  40
0.250000
  50
0.000000
  1
# 304
  7
STANDARD
  0
TEXT
  8
1
  10
872.475708
  20
584.811157
  40
0.250000
  50
0.000000
  1
# 303
  7
STANDARD
  0
TEXT
  8
1
  10
883.540405
  20
585.529236
  40
0.250000
  50
0.000000
  1
# 302
  7
STANDARD
  0
TEXT
  8
1
  10
904.065796
  20
587.039368
  40
0.250000
  50
0.000000
  1
# 301
  7
STANDARD
  0
TEXT
  8
1
  10
924.575562
  20
588.739990
  40
0.250000
  50
0.000000
  1
# 300
  7
STANDARD
  0
TEXT
  8
1
  10
945.071655
  20
590.597717
  40
0.250000
  50
0.000000
  1
# 299
  7
STANDARD
  0
TEXT
  8
1
  10
965.555176
  20
592.598389
  40
0.250000
  50
0.000000
  1
# 298
  7
STANDARD
  0
TEXT
  8
1
  10
990.326843
  20
595.187134
  40
0.250000
  50
0.000000
  1
# 297
  7
STANDARD
  0
TEXT
  8
1
  10
1015.082825
  20
597.935547
  40
0.250000
  50
0.000000
  1
# 254
  7
STANDARD
  0
TEXT
  8
1
  10
1012.857788
  20
612.740295
  40
0.250000
  50
0.000000
  1
# 325
  7
STANDARD
  0
TEXT
  8
1
  10
1010.010193
  20
627.439819
  40
0.250000
  50
0.000000
  1
# 324
  7
STANDARD
  0
TEXT
  8
1
  10
1006.794434
  20
642.062317
  40
0.250000
  50
0.000000
  1
# 323
  7
STANDARD
  0
TEXT
  8
1
  10
1002.796204
  20
659.524658
  40
0.250000
  50
0.000000
  1
# 322
  7
STANDARD
  0
TEXT
  8
1
  10
999.021484
  20
677.036377
  40
0.250000
  50
0.000000
  1
# 321
  7
STANDARD
  0
TEXT
  8
1
  10
995.915710
  20
694.677979
  40
0.250000
  50
0.000000
  1
# 320
  7
STANDARD
  0
TEXT
  8
1
  10
993.899841
  20
712.475464
  40
0.250000
  50
0.000000
  1
# 319
  7
STANDARD
  0
TEXT
  8
1
  10
993.715942
  20
739.967102
  40
0.250000
  50
0.000000
  1
# 253
  7
STANDARD
  0
TEXT
  8
1
  10
995.580688
  20
771.779541
  40
0.250000
  50
0.000000
  1
# 330
  7
STANDARD
  0
TEXT
  8
1
  10
998.497803
  20
803.512146
  40
0.250000
  50
0.000000
  1
# 329
  7
STANDARD
  0
TEXT
  8
1
  10
1002.442505
  20
835.133789
  40
0.250000
  50
0.000000
  1
# 328
  7
STANDARD
  0
TEXT
  8
1
  10
1007.411377
  20
866.610535
  40
0.250000
  50
0.000000
  1
# 327
  7
STANDARD
  0
TEXT
  8
1
  10
1013.345703
  20
897.920105
  40
0.250000
  50
0.000000
  1
# 326
  7
STANDARD
  0
TEXT
  8
1
  10
1020.215393
  20
929.038574
  40
0.250000
  50
0.000000
  1
# 252
  7
STANDARD
  0
TEXT
  8
1
  10
1014.453735
  20
930.595276
  40
0.250000
  50
0.000000
  1
# 349
  7
STANDARD
  0
TEXT
  8
1
  10
1008.868652
  20
932.500244
  40
0.250000
  50
0.000000
  1
# 348
  7
STANDARD
  0
TEXT
  8
1
  10
1003.542542
  20
935.236877
  40
0.250000
  50
0.000000
  1
# 347
  7
STANDARD
  0
TEXT
  8
1
  10
997.656067
  20
939.945312
  40
0.250000
  50
0.000000
  1
# 346
  7
STANDARD
  0
TEXT
  8
1
  10
992.843506
  20
945.799011
  40
0.250000
  50
0.000000
  1
# 345
  7
STANDARD
  0
TEXT
  8
1
  10
989.450256
  20
952.527588
  40
0.250000
  50
0.000000
  1
# 344
  7
STANDARD
  0
TEXT
  8
1
  10
986.982483
  20
960.515930
  40
0.250000
  50
0.000000
  1
# 343
  7
STANDARD
  0
TEXT
  8
1
  10
985.148926
  20
969.626648
  40
0.250000
  50
0.000000
  1
# 342
  7
STANDARD
  0
TEXT
  8
1
  10
984.570312
  20
974.165955
  40
0.250000
  50
0.000000
  1
# 341
  7
STANDARD
  0
TEXT
  8
1
  10
984.012878
  20
981.168091
  40
0.250000
  50
0.000000
  1
# 340
  7
STANDARD
  0
TEXT
  8
1
  10
983.868286
  20
985.192566
  40
0.250000
  50
0.000000
  1
# 339
  7
STANDARD
  0
TEXT
  8
1
  10
983.880920
  20
992.723267
  40
0.250000
  50
0.000000
  1
# 338
  7
STANDARD
  0
TEXT
  8
1
  10
984.223572
  20
1000.852661
  40
0.250000
  50
0.000000
  1
# 337
  7
STANDARD
  0
TEXT
  8
1
  10
985.015137
  20
1013.278381
  40
0.250000
  50
0.000000
  1
# 336
  7
STANDARD
  0
TEXT
  8
1
  10
986.164795
  20
1023.659546
  40
0.250000
  50
0.000000
  1
# 335
  7
STANDARD
  0
TEXT
  8
1
  10
987.978516
  20
1035.886597
  40
0.250000
  50
0.000000
  1
# 334
  7
STANDARD
  0
TEXT
  8
1
  10
989.962341
  20
1046.183350
  40
0.250000
  50
0.000000
  1
# 333
  7
STANDARD
  0
TEXT
  8
1
  10
992.326172
  20
1057.478516
  40
0.250000
  50
0.000000
  1
# 332
  7
STANDARD
  0
TEXT
  8
1
  10
994.826050
  20
1068.498047
  40
0.250000
  50
0.000000
  1
# 331
  7
STANDARD
  0
TEXT
  8
1
  10
998.168030
  20
1082.948608
  40
0.250000
  50
0.000000
  1
# 251
  7
STANDARD
  0
TEXT
  8
1
  10
907.897522
  20
1124.417847
  40
0.250000
  50
0.000000
  1
# 250
  7
STANDARD
  0
TEXT
  8
1
  10
902.735718
  20
1120.881592
  40
0.250000
  50
0.000000
  1
# 357
  7
STANDARD
  0
TEXT
  8
1
  10
895.783325
  20
1116.786743
  40
0.250000
  50
0.000000
  1
# 356
  7
STANDARD
  0
TEXT
  8
1
  10
888.447632
  20
1113.478516
  40
0.250000
  50
0.000000
  1
# 355
  7
STANDARD
  0
TEXT
  8
1
  10
879.131897
  20
1110.853149
  40
0.250000
  50
0.000000
  1
# 354
  7
STANDARD
  0
TEXT
  8
1
  10
869.631592
  20
1109.406494
  40
0.250000
  50
0.000000
  1
# 353
  7
STANDARD
  0
TEXT
  8
1
  10
855.591614
  20
1108.107178
  40
0.250000
  50
0.000000
  1
# 352
  7
STANDARD
  0
TEXT
  8
1
  10
841.525391
  20
1107.185059
  40
0.250000
  50
0.000000
  1
# 351
  7
STANDARD
  0
TEXT
  8
1
  10
827.433228
  20
1107.016846
  40
0.250000
  50
0.000000
  1
# 350
  7
STANDARD
  0
POINT
  8
2
  10
824.810730
  20
1107.114868
  0
POINT
  8
2
  10
742.017212
  20
1124.419922
  0
POINT
  8
2
  10
651.749695
  20
1082.948730
  0
POINT
  8
2
  10
629.702209
  20
929.038574
  0
POINT
  8
2
  10
656.201660
  20
739.967224
  0
POINT
  8
2
  10
634.834656
  20
597.935669
  0
POINT
  8
2
  10
1015.082825
  20
597.935547
  0
POINT
  8
2
  10
993.715942
  20
739.967102
  0
POINT
  8
2
  10
1020.215393
  20
929.038574
  0
POINT
  8
2
  10
998.168030
  20
1082.948608
  0
POINT
  8
2
  10
907.897522
  20
1124.417847
  0
POINT
  8
3
  10
822.103760
  20
1107.019775
  0
POINT
  8
3
  10
808.075562
  20
1107.200562
  0
POINT
  8
3
  10
794.073914
  20
1108.131836
  0
POINT
  8
3
  10
780.098694
  20
1109.438477
  0
POINT
  8
3
  10
770.642761
  20
1110.887451
  0
POINT
  8
3
  10
761.371704
  20
1113.509766
  0
POINT
  8
3
  10
754.072327
  20
1116.809937
  0
POINT
  8
3
  10
747.155273
  20
1120.892700
  0
POINT
  8
3
  10
655.091675
  20
1068.497925
  0
POINT
  8
3
  10
659.955383
  20
1046.183350
  0
POINT
  8
3
  10
663.752991
  20
1023.659607
  0
POINT
  8
3
  10
664.913940
  20
1016.227478
  0
POINT
  8
3
  10
665.875427
  20
1008.334900
  0
POINT
  8
3
  10
666.514282
  20
1000.103394
  0
POINT
  8
3
  10
666.672119
  20
997.351013
  0
POINT
  8
3
  10
666.766479
  20
989.485657
  0
POINT
  8
3
  10
666.730835
  20
986.691162
  0
POINT
  8
3
  10
665.826416
  20
975.026978
  0
POINT
  8
3
  10
664.613159
  20
967.446167
  0
POINT
  8
3
  10
662.847534
  20
959.975464
  0
POINT
  8
3
  10
660.518555
  20
952.660339
  0
POINT
  8
3
  10
657.074097
  20
945.799133
  0
POINT
  8
3
  10
652.261536
  20
939.945312
  0
POINT
  8
3
  10
646.375061
  20
935.237000
  0
POINT
  8
3
  10
641.048950
  20
932.500244
  0
POINT
  8
3
  10
635.463867
  20
930.595398
  0
POINT
  8
3
  10
636.571899
  20
897.920227
  0
POINT
  8
3
  10
642.506226
  20
866.610657
  0
POINT
  8
3
  10
647.475098
  20
835.133789
  0
POINT
  8
3
  10
651.419800
  20
803.512268
  0
POINT
  8
3
  10
654.336914
  20
771.779541
  0
POINT
  8
3
  10
656.017761
  20
712.475464
  0
POINT
  8
3
  10
654.001892
  20
694.677979
  0
POINT
  8
3
  10
650.895996
  20
677.036377
  0
POINT
  8
3
  10
647.121277
  20
659.524780
  0
POINT
  8
3
  10
643.123047
  20
642.062439
  0
POINT
  8
3
  10
639.907288
  20
627.439941
  0
POINT
  8
3
  10
637.059692
  20
612.740417
  0
POINT
  8
3
  10
659.590637
  20
595.187256
  0
POINT
  8
3
  10
684.362305
  20
592.598389
  0
POINT
  8
3
  10
704.845825
  20
590.597717
  0
POINT
  8
3
  10
725.341919
  20
588.739990
  0
POINT
  8
3
  10
745.851685
  20
587.039368
  0
POINT
  8
3
  10
766.377075
  20
585.529236
  0
POINT
  8
3
  10
777.441772
  20
584.811157
  0
POINT
  8
3
  10
788.510376
  20
584.176636
  0
POINT
  8
3
  10
799.584229
  20
583.640991
  0
POINT
  8
3
  10
810.664001
  20
583.229248
  0
POINT
  8
3
  10
821.746765
  20
582.970459
  0
POINT
  8
3
  10
828.170715
  20
582.970459
  0
POINT
  8
3
  10
839.253479
  20
583.229248
  0
POINT
  8
3
  10
850.333252
  20
583.640991
  0
POINT
  8
3
  10
861.407104
  20
584.176636
  0
POINT
  8
3
  10
872.475708
  20
584.811157
  0
POINT
  8
3
  10
883.540405
  20
585.529236
  0
POINT
  8
3
  10
904.065796
  20
587.039368
  0
POINT
  8
3
  10
924.575562
  20
588.739990
  0
POINT
  8
3
  10
945.071655
  20
590.597717
  0
POINT
  8
3
  10
965.555176
  20
592.598389
  0
POINT
  8
3
  10
990.326843
  20
595.187134
  0
POINT
  8
3
  10
1012.857788
  20
612.740295
  0
POINT
  8
3
  10
1010.010193
  20
627.439819
  0
POINT
  8
3
  10
1006.794434
  20
642.062317
  0
POINT
  8
3
  10
1002.796204
  20
659.524658
  0
POINT
  8
3
  10
999.021484
  20
677.036377
  0
POINT
  8
3
  10
995.915710
  20
694.677979
  0
POINT
  8
3
  10
993.899841
  20
712.475464
  0
POINT
  8
3
  10
995.580688
  20
771.779541
  0
POINT
  8
3
  10
998.497803
  20
803.512146
  0
POINT
  8
3
  10
1002.442505
  20
835.133789
  0
POINT
  8
3
  10
1007.411377
  20
866.610535
  0
POINT
  8
3
  10
1013.345703
  20
897.920105
  0
POINT
  8
3
  10
1014.453735
  20
930.595276
  0
POINT
  8
3
  10
1008.868652
  20
932.500244
  0
POINT
  8
3
  10
1003.542542
  20
935.236877
  0
POINT
  8
3
  10
997.656067
  20
939.945312
  0
POINT
  8
3
  10
992.843506
  20
945.799011
  0
POINT
  8
3
  10
989.450256
  20
952.527588
  0
POINT
  8
3
  10
986.982483
  20
960.515930
  0
POINT
  8
3
  10
985.148926
  20
969.626648
  0
POINT
  8
3
  10
984.570312
  20
974.165955
  0
POINT
  8
3
  10
984.012878
  20
981.168091
  0
POINT
  8
3
  10
983.868286
  20
985.192566
  0
POINT
  8
3
  10
983.875305
  20
989.370239
  0
POINT
  8
3
  10
983.880920
  20
992.723267
  0
POINT
  8
3
  10
984.188660
  20
1000.023682
  0
POINT
  8
3
  10
984.223572
  20
1000.852661
  0
POINT
  8
3
  10
985.015137
  20
1013.278381
  0
POINT
  8
3
  10
986.164795
  20
1023.659546
  0
POINT
  8
3
  10
987.978516
  20
1035.886597
  0
POINT
  8
3
  10
989.962341
  20
1046.183350
  0
POINT
  8
3
  10
992.326172
  20
1057.478516
  0
POINT
  8
3
  10
994.826050
  20
1068.498047
  0
POINT
  8
3
  10
902.735718
  20
1120.881592
  0
POINT
  8
3
  10
895.783325
  20
1116.786743
  0
POINT
  8
3
  10
888.447632
  20
1113.478516
  0
POINT
  8
3
  10
879.131897
  20
1110.853149
  0
POINT
  8
3
  10
869.631592
  20
1109.406494
  0
POINT
  8
3
  10
855.591614
  20
1108.107178
  0
POINT
  8
3
  10
841.525391
  20
1107.185059
  0
POINT
  8
3
  10
827.433228
  20
1107.016846
  0
POINT
  8
4
  10
666.514282
  20
1000.103394
  30
7.000000
  39
0.000000
  50
4.438664
  0
POINT
  8
4
  10
666.766479
  20
989.485657
  30
7.000000
  39
0.000000
  50
0.688702
  0
POINT
  8
4
  10
983.875305
  20
989.370239
  30
7.000000
  39
0.000000
  50
179.903091
  0
POINT
  8
4
  10
984.188660
  20
1000.023682
  30
7.000000
  39
0.000000
  50
177.586288
  0
POLYLINE
  8
84
  66
1
  70
1
  250
2
  0
VERTEX
  8
84
  10
824.810730
  20
1107.114868
  0
VERTEX
  8
84
  10
822.103760
  20
1107.019775
  0
VERTEX
  8
84
  10
817.427124
  20
1106.958252
  0
VERTEX
  8
84
  10
812.750916
  20
1107.026245
  0
VERTEX
  8
84
  10
808.075562
  20
1107.200562
  0
VERTEX
  8
84
  10
801.070801
  20
1107.609985
  0
VERTEX
  8
84
  10
794.073914
  20
1108.131836
  0
VERTEX
  8
84
  10
787.080322
  20
1108.720093
  0
VERTEX
  8
84
  10
780.098694
  20
1109.438477
  0
VERTEX
  8
84
  10
775.354980
  20
1110.060913
  0
VERTEX
  8
84
  10
770.642761
  20
1110.887451
  0
VERTEX
  8
84
  10
767.508362
  20
1111.604736
  0
VERTEX
  8
84
  10
764.413696
  20
1112.473877
  0
VERTEX
  8
84
  10
761.371704
  20
1113.509766
  0
VERTEX
  8
84
  10
757.670532
  20
1115.043701
  0
VERTEX
  8
84
  10
754.072327
  20
1116.809937
  0
VERTEX
  8
84
  10
750.564636
  20
1118.769409
  0
VERTEX
  8
84
  10
747.155273
  20
1120.892700
  0
VERTEX
  8
84
  10
742.017212
  20
1124.419922
  0
VERTEX
  8
84
  10
651.749695
  20
1082.948730
  0
VERTEX
  8
84
  10
655.091675
  20
1068.497925
  0
VERTEX
  8
84
  10
656.373718
  20
1062.931885
  0
VERTEX
  8
84
  10
657.629028
  20
1057.361938
  0
VERTEX
  8
84
  10
658.831543
  20
1051.781372
  0
VERTEX
  8
84
  10
659.955383
  20
1046.183350
  0
VERTEX
  8
84
  10
661.308533
  20
1038.690918
  0
VERTEX
  8
84
  10
662.549194
  20
1031.179810
  0
VERTEX
  8
84
  10
663.752991
  20
1023.659607
  0
VERTEX
  8
84
  10
664.913940
  20
1016.227478
  0
VERTEX
  8
84
  10
665.875427
  20
1008.334900
  0
VERTEX
  8
84
  10
666.514282
  20
1000.103394
  0
VERTEX
  8
84
  10
666.672119
  20
997.351013
  0
VERTEX
  8
84
  10
666.766479
  20
989.485657
  0
VERTEX
  8
84
  10
666.730835
  20
986.691162
  0
VERTEX
  8
84
  10
666.565796
  20
982.794312
  0
VERTEX
  8
84
  10
666.259338
  20
978.905640
  0
VERTEX
  8
84
  10
665.826416
  20
975.026978
  0
VERTEX
  8
84
  10
664.613159
  20
967.446167
  0
VERTEX
  8
84
  10
662.847534
  20
959.975464
  0
VERTEX
  8
84
  10
661.781128
  20
956.286621
  0
VERTEX
  8
84
  10
660.518555
  20
952.660339
  0
VERTEX
  8
84
  10
659.521912
  20
950.297363
  0
VERTEX
  8
84
  10
658.379333
  20
948.002808
  0
VERTEX
  8
84
  10
657.074097
  20
945.799133
  0
VERTEX
  8
84
  10
655.616943
  20
943.733337
  0
VERTEX
  8
84
  10
654.006531
  20
941.781921
  0
VERTEX
  8
84
  10
652.261536
  20
939.945312
  0
VERTEX
  8
84
  10
650.409668
  20
938.236938
  0
VERTEX
  8
84
  10
648.447205
  20
936.661987
  0
VERTEX
  8
84
  10
646.375061
  20
935.237000
  0
VERTEX
  8
84
  10
643.771362
  20
933.753418
  0
VERTEX
  8
84
  10
641.048950
  20
932.500244
  0
VERTEX
  8
84
  10
635.463867
  20
930.595398
  0
VERTEX
  8
84
  10
629.702209
  20
929.038574
  0
VERTEX
  8
84
  10
632.050659
  20
918.677002
  0
VERTEX
  8
84
  10
634.354797
  20
908.309570
  0
VERTEX
  8
84
  10
636.571899
  20
897.920227
  0
VERTEX
  8
84
  10
637.843933
  20
891.673645
  0
VERTEX
  8
84
  10
639.070801
  20
885.420105
  0
VERTEX
  8
84
  10
640.255005
  20
879.158875
  0
VERTEX
  8
84
  10
641.399292
  20
872.889282
  0
VERTEX
  8
84
  10
642.506226
  20
866.610657
  0
VERTEX
  8
84
  10
643.577148
  20
860.325928
  0
VERTEX
  8
84
  10
644.610901
  20
854.037354
  0
VERTEX
  8
84
  10
645.606079
  20
847.743469
  0
VERTEX
  8
84
  10
646.561218
  20
841.442810
  0
VERTEX
  8
84
  10
647.475098
  20
835.133789
  0
VERTEX
  8
84
  10
648.346069
  20
828.818726
  0
VERTEX
  8
84
  10
649.174683
  20
822.500122
  0
VERTEX
  8
84
  10
649.962280
  20
816.176941
  0
VERTEX
  8
84
  10
650.710205
  20
809.848022
  0
VERTEX
  8
84
  10
651.419800
  20
803.512268
  0
VERTEX
  8
84
  10
652.091309
  20
797.172241
  0
VERTEX
  8
84
  10
652.721924
  20
790.830383
  0
VERTEX
  8
84
  10
653.308350
  20
784.485168
  0
VERTEX
  8
84
  10
653.847778
  20
778.135376
  0
VERTEX
  8
84
  10
654.336914
  20
771.779541
  0
VERTEX
  8
84
  10
654.876831
  20
763.830017
  0
VERTEX
  8
84
  10
655.353333
  20
755.879150
  0
VERTEX
  8
84
  10
655.787842
  20
747.925354
  0
VERTEX
  8
84
  10
656.201660
  20
739.967224
  0
VERTEX
  8
84
  10
656.288330
  20
736.033203
  0
VERTEX
  8
84
  10
656.361023
  20
732.101013
  0
VERTEX
  8
84
  10
656.405518
  20
728.170898
  0
VERTEX
  8
84
  10
656.407715
  20
724.243103
  0
VERTEX
  8
84
  10
656.353210
  20
720.317749
  0
VERTEX
  8
84
  10
656.228027
  20
716.395142
  0
VERTEX
  8
84
  10
656.017761
  20
712.475464
  0
VERTEX
  8
84
  10
655.662964
  20
708.012939
  0
VERTEX
  8
84
  10
655.197266
  20
703.559448
  0
VERTEX
  8
84
  10
654.637878
  20
699.114624
  0
VERTEX
  8
84
  10
654.001892
  20
694.677979
  0
VERTEX
  8
84
  10
653.059937
  20
688.779053
  0
VERTEX
  8
84
  10
652.022095
  20
682.900269
  0
VERTEX
  8
84
  10
650.895996
  20
677.036377
  0
VERTEX
  8
84
  10
649.066406
  20
668.268677
  0
VERTEX
  8
84
  10
647.121277
  20
659.524780
  0
VERTEX
  8
84
  10
643.123047
  20
642.062439
  0
VERTEX
  8
84
  10
639.907288
  20
627.439941
  0
VERTEX
  8
84
  10
638.411011
  20
620.103516
  0
VERTEX
  8
84
  10
637.059692
  20
612.740417
  0
VERTEX
  8
84
  10
635.893555
  20
605.346985
  0
VERTEX
  8
84
  10
634.834656
  20
597.935669
  0
VERTEX
  8
84
  10
659.590637
  20
595.187256
  0
VERTEX
  8
84
  10
684.362305
  20
592.598389
  0
VERTEX
  8
84
  10
704.845825
  20
590.597717
  0
VERTEX
  8
84
  10
725.341919
  20
588.739990
  0
VERTEX
  8
84
  10
745.851685
  20
587.039368
  0
VERTEX
  8
84
  10
766.377075
  20
585.529236
  0
VERTEX
  8
84
  10
777.441772
  20
584.811157
  0
VERTEX
  8
84
  10
788.510376
  20
584.176636
  0
VERTEX
  8
84
  10
799.584229
  20
583.640991
  0
VERTEX
  8
84
  10
810.664001
  20
583.229248
  0
VERTEX
  8
84
  10
821.746765
  20
582.970459
  0
VERTEX
  8
84
  10
828.170715
  20
582.970459
  0
VERTEX
  8
84
  10
839.253479
  20
583.229248
  0
VERTEX
  8
84
  10
850.333252
  20
583.640991
  0
VERTEX
  8
84
  10
861.407104
  20
584.176636
  0
VERTEX
  8
84
  10
872.475708
  20
584.811157
  0
VERTEX
  8
84
  10
883.540405
  20
585.529236
  0
VERTEX
  8
84
  10
904.065796
  20
587.039368
  0
VERTEX
  8
84
  10
924.575562
  20
588.739990
  0
VERTEX
  8
84
  10
945.071655
  20
590.597717
  0
VERTEX
  8
84
  10
965.555176
  20
592.598389
  0
VERTEX
  8
84
  10
990.326843
  20
595.187134
  0
VERTEX
  8
84
  10
1015.082825
  20
597.935547
  0
VERTEX
  8
84
  10
1014.023926
  20
605.346863
  0
VERTEX
  8
84
  10
1012.857788
  20
612.740295
  0
VERTEX
  8
84
  10
1011.506470
  20
620.103394
  0
VERTEX
  8
84
  10
1010.010193
  20
627.439819
  0
VERTEX
  8
84
  10
1006.794434
  20
642.062317
  0
VERTEX
  8
84
  10
1002.796204
  20
659.524658
  0
VERTEX
  8
84
  10
1000.851135
  20
668.268616
  0
VERTEX
  8
84
  10
999.021484
  20
677.036377
  0
VERTEX
  8
84
  10
997.895447
  20
682.900208
  0
VERTEX
  8
84
  10
996.857605
  20
688.779053
  0
VERTEX
  8
84
  10
995.915710
  20
694.677979
  0
VERTEX
  8
84
  10
995.279785
  20
699.114624
  0
VERTEX
  8
84
  10
994.720337
  20
703.559448
  0
VERTEX
  8
84
  10
994.254639
  20
708.012939
  0
VERTEX
  8
84
  10
993.899841
  20
712.475464
  0
VERTEX
  8
84
  10
993.689575
  20
716.395142
  0
VERTEX
  8
84
  10
993.564331
  20
720.317749
  0
VERTEX
  8
84
  10
993.509888
  20
724.243042
  0
VERTEX
  8
84
  10
993.512085
  20
728.170837
  0
VERTEX
  8
84
  10
993.556580
  20
732.100952
  0
VERTEX
  8
84
  10
993.629272
  20
736.033081
  0
VERTEX
  8
84
  10
993.715942
  20
739.967102
  0
VERTEX
  8
84
  10
994.129761
  20
747.925293
  0
VERTEX
  8
84
  10
994.564209
  20
755.879089
  0
VERTEX
  8
84
  10
995.040771
  20
763.830017
  0
VERTEX
  8
84
  10
995.580688
  20
771.779541
  0
VERTEX
  8
84
  10
996.069824
  20
778.135376
  0
VERTEX
  8
84
  10
996.609192
  20
784.485168
  0
VERTEX
  8
84
  10
997.195740
  20
790.830322
  0
VERTEX
  8
84
  10
997.826294
  20
797.172180
  0
VERTEX
  8
84
  10
998.497803
  20
803.512146
  0
VERTEX
  8
84
  10
999.207458
  20
809.847900
  0
VERTEX
  8
84
  10
999.955322
  20
816.176880
  0
VERTEX
  8
84
  10
1000.742920
  20
822.500122
  0
VERTEX
  8
84
  10
1001.571533
  20
828.818726
  0
VERTEX
  8
84
  10
1002.442505
  20
835.133789
  0
VERTEX
  8
84
  10
1003.356323
  20
841.442810
  0
VERTEX
  8
84
  10
1004.311523
  20
847.743469
  0
VERTEX
  8
84
  10
1005.306641
  20
854.037292
  0
VERTEX
  8
84
  10
1006.340393
  20
860.325867
  0
VERTEX
  8
84
  10
1007.411377
  20
866.610535
  0
VERTEX
  8
84
  10
1008.518311
  20
872.889160
  0
VERTEX
  8
84
  10
1009.662537
  20
879.158752
  0
VERTEX
  8
84
  10
1010.846802
  20
885.419983
  0
VERTEX
  8
84
  10
1012.073608
  20
891.673523
  0
VERTEX
  8
84
  10
1013.345703
  20
897.920105
  0
VERTEX
  8
84
  10
1015.562805
  20
908.309509
  0
VERTEX
  8
84
  10
1017.866943
  20
918.676941
  0
VERTEX
  8
84
  10
1020.215393
  20
929.038574
  0
VERTEX
  8
84
  10
1014.453735
  20
930.595276
  0
VERTEX
  8
84
  10
1008.868652
  20
932.500244
  0
VERTEX
  8
84
  10
1006.146240
  20
933.753357
  0
VERTEX
  8
84
  10
1003.542542
  20
935.236877
  0
VERTEX
  8
84
  10
1001.470337
  20
936.661865
  0
VERTEX
  8
84
  10
999.507874
  20
938.236816
  0
VERTEX
  8
84
  10
997.656067
  20
939.945312
  0
VERTEX
  8
84
  10
995.911377
  20
941.782043
  0
VERTEX
  8
84
  10
994.301025
  20
943.733459
  0
VERTEX
  8
84
  10
992.843506
  20
945.799011
  0
VERTEX
  8
84
  10
991.559814
  20
947.960632
  0
VERTEX
  8
84
  10
990.433594
  20
950.210449
  0
VERTEX
  8
84
  10
989.450256
  20
952.527588
  0
VERTEX
  8
84
  10
988.087891
  20
956.481506
  0
VERTEX
  8
84
  10
986.982483
  20
960.515930
  0
VERTEX
  8
84
  10
985.958191
  20
965.050842
  0
VERTEX
  8
84
  10
985.148926
  20
969.626648
  0
VERTEX
  8
84
  10
984.570312
  20
974.165955
  0
VERTEX
  8
84
  10
984.012878
  20
981.168091
  0
VERTEX
  8
84
  10
983.868286
  20
985.192566
  0
VERTEX
  8
84
  10
983.875305
  20
989.370239
  0
VERTEX
  8
84
  10
983.880920
  20
992.723267
  0
VERTEX
  8
84
  10
984.188660
  20
1000.023682
  0
VERTEX
  8
84
  10
984.223572
  20
1000.852661
  0
VERTEX
  8
84
  10
984.545654
  20
1007.070374
  0
VERTEX
  8
84
  10
985.015137
  20
1013.278381
  0
VERTEX
  8
84
  10
986.164795
  20
1023.659546
  0
VERTEX
  8
84
  10
987.002502
  20
1029.783936
  0
VERTEX
  8
84
  10
987.978516
  20
1035.886597
  0
VERTEX
  8
84
  10
989.962341
  20
1046.183350
  0
VERTEX
  8
84
  10
992.326172
  20
1057.478516
  0
VERTEX
  8
84
  10
994.826050
  20
1068.498047
  0
VERTEX
  8
84
  10
998.168030
  20
1082.948608
  0
VERTEX
  8
84
  10
907.897522
  20
1124.417847
  0
VERTEX
  8
84
  10
902.735718
  20
1120.881592
  0
VERTEX
  8
84
  10
899.308838
  20
1118.751831
  0
VERTEX
  8
84
  10
895.783325
  20
1116.786743
  0
VERTEX
  8
84
  10
892.167114
  20
1115.015869
  0
VERTEX
  8
84
  10
888.447632
  20
1113.478516
  0
VERTEX
  8
84
  10
885.390808
  20
1112.440918
  0
VERTEX
  8
84
  10
882.281250
  20
1111.570801
  0
VERTEX
  8
84
  10
879.131897
  20
1110.853149
  0
VERTEX
  8
84
  10
874.397461
  20
1110.027466
  0
VERTEX
  8
84
  10
869.631592
  20
1109.406494
  0
VERTEX
  8
84
  10
862.617493
  20
1108.691284
  0
VERTEX
  8
84
  10
855.591614
  20
1108.107178
  0
VERTEX
  8
84
  10
848.562439
  20
1107.590576
  0
VERTEX
  8
84
  10
841.525391
  20
1107.185059
  0
VERTEX
  8
84
  10
836.828552
  20
1107.012451
  0
VERTEX
  8
84
  10
832.130981
  20
1106.947388
  0
VERTEX
  8
84
  10
827.433228
  20
1107.016846
  0
SEQEND
  0
TEXT
  8
84
  10
824.810730
  20
1107.114868
  40
0.250000
  50
0.000000
  1
# 260
  7
STANDARD
  0
TEXT
  8
84
  10
742.017212
  20
1124.419922
  40
0.250000
  50
0.000000
  1
# 259
  7
STANDARD
  0
TEXT
  8
84
  10
651.749695
  20
1082.948730
  40
0.250000
  50
0.000000
  1
# 258
  7
STANDARD
  0
TEXT
  8
84
  10
629.702209
  20
929.038574
  40
0.250000
  50
0.000000
  1
# 257
  7
STANDARD
  0
TEXT
  8
84
  10
656.201660
  20
739.967224
  40
0.250000
  50
0.000000
  1
# 256
  7
STANDARD
  0
TEXT
  8
84
  10
634.834656
  20
597.935669
  40
0.250000
  50
0.000000
  1
# 255
  7
STANDARD
  0
TEXT
  8
84
  10
1015.082825
  20
597.935547
  40
0.250000
  50
0.000000
  1
# 254
  7
STANDARD
  0
TEXT
  8
84
  10
993.715942
  20
739.967102
  40
0.250000
  50
0.000000
  1
# 253
  7
STANDARD
  0
TEXT
  8
84
  10
1020.215393
  20
929.038574
  40
0.250000
  50
0.000000
  1
# 252
  7
STANDARD
  0
TEXT
  8
84
  10
998.168030
  20
1082.948608
  40
0.250000
  50
0.000000
  1
# 251
  7
STANDARD
  0
TEXT
  8
84
  10
907.897522
  20
1124.417847
  40
0.250000
  50
0.000000
  1
# 250
  7
STANDARD
  0
POINT
  8
2
  10
824.810730
  20
1107.114868
  0
POINT
  8
2
  10
742.017212
  20
1124.419922
  0
POINT
  8
2
  10
651.749695
  20
1082.948730
  0
POINT
  8
2
  10
629.702209
  20
929.038574
  0
POINT
  8
2
  10
656.201660
  20
739.967224
  0
POINT
  8
2
  10
634.834656
  20
597.935669
  0
POINT
  8
2
  10
1015.082825
  20
597.935547
  0
POINT
  8
2
  10
993.715942
  20
739.967102
  0
POINT
  8
2
  10
1020.215393
  20
929.038574
  0
POINT
  8
2
  10
998.168030
  20
1082.948608
  0
POINT
  8
2
  10
907.897522
  20
1124.417847
  0
POINT
  8
3
  10
822.103760
  20
1107.019775
  0
POINT
  8
3
  10
808.075562
  20
1107.200562
  0
POINT
  8
3
  10
794.073914
  20
1108.131836
  0
POINT
  8
3
  10
780.098694
  20
1109.438477
  0
POINT
  8
3
  10
770.642761
  20
1110.887451
  0
POINT
  8
3
  10
761.371704
  20
1113.509766
  0
POINT
  8
3
  10
754.072327
  20
1116.809937
  0
POINT
  8
3
  10
747.155273
  20
1120.892700
  0
POINT
  8
3
  10
655.091675
  20
1068.497925
  0
POINT
  8
3
  10
659.955383
  20
1046.183350
  0
POINT
  8
3
  10
663.752991
  20
1023.659607
  0
POINT
  8
3
  10
664.913940
  20
1016.227478
  0
POINT
  8
3
  10
665.875427
  20
1008.334900
  0
POINT
  8
3
  10
666.514282
  20
1000.103394
  0
POINT
  8
3
  10
666.672119
  20
997.351013
  0
POINT
  8
3
  10
666.766479
  20
989.485657
  0
POINT
  8
3
  10
666.730835
  20
986.691162
  0
POINT
  8
3
  10
665.826416
  20
975.026978
  0
POINT
  8
3
  10
664.613159
  20
967.446167
  0
POINT
  8
3
  10
662.847534
  20
959.975464
  0
POINT
  8
3
  10
660.518555
  20
952.660339
  0
POINT
  8
3
  10
657.074097
  20
945.799133
  0
POINT
  8
3
  10
652.261536
  20
939.945312
  0
POINT
  8
3
  10
646.375061
  20
935.237000
  0
POINT
  8
3
  10
641.048950
  20
932.500244
  0
POINT
  8
3
  10
635.463867
  20
930.595398
  0
POINT
  8
3
  10
636.571899
  20
897.920227
  0
POINT
  8
3
  10
642.506226
  20
866.610657
  0
POINT
  8
3
  10
647.475098
  20
835.133789
  0
POINT
  8
3
  10
651.419800
  20
803.512268
  0
POINT
  8
3
  10
654.336914
  20
771.779541
  0
POINT
  8
3
  10
656.017761
  20
712.475464
  0
POINT
  8
3
  10
654.001892
  20
694.677979
  0
POINT
  8
3
  10
650.895996
  20
677.036377
  0
POINT
  8
3
  10
647.121277
  20
659.524780
  0
POINT
  8
3
  10
643.123047
  20
642.062439
  0
POINT
  8
3
  10
639.907288
  20
627.439941
  0
POINT
  8
3
  10
637.059692
  20
612.740417
  0
POINT
  8
3
  10
659.590637
  20
595.187256
  0
POINT
  8
3
  10
684.362305
  20
592.598389
  0
POINT
  8
3
  10
704.845825
  20
590.597717
  0
POINT
  8
3
  10
725.341919
  20
588.739990
  0
POINT
  8
3
  10
745.851685
  20
587.039368
  0
POINT
  8
3
  10
766.377075
  20
585.529236
  0
POINT
  8
3
  10
777.441772
  20
584.811157
  0
POINT
  8
3
  10
788.510376
  20
584.176636
  0
POINT
  8
3
  10
799.584229
  20
583.640991
  0
POINT
  8
3
  10
810.664001
  20
583.229248
  0
POINT
  8
3
  10
821.746765
  20
582.970459
  0
POINT
  8
3
  10
828.170715
  20
582.970459
  0
POINT
  8
3
  10
839.253479
  20
583.229248
  0
POINT
  8
3
  10
850.333252
  20
583.640991
  0
POINT
  8
3
  10
861.407104
  20
584.176636
  0
POINT
  8
3
  10
872.475708
  20
584.811157
  0
POINT
  8
3
  10
883.540405
  20
585.529236
  0
POINT
  8
3
  10
904.065796
  20
587.039368
  0
POINT
  8
3
  10
924.575562
  20
588.739990
  0
POINT
  8
3
  10
945.071655
  20
590.597717
  0
POINT
  8
3
  10
965.555176
  20
592.598389
  0
POINT
  8
3
  10
990.326843
  20
595.187134
  0
POINT
  8
3
  10
1012.857788
  20
612.740295
  0
POINT
  8
3
  10
1010.010193
  20
627.439819
  0
POINT
  8
3
  10
1006.794434
  20
642.062317
  0
POINT
  8
3
  10
1002.796204
  20
659.524658
  0
POINT
  8
3
  10
999.021484
  20
677.036377
  0
POINT
  8
3
  10
995.915710
  20
694.677979
  0
POINT
  8
3
  10
993.899841
  20
712.475464
  0
POINT
  8
3
  10
995.580688
  20
771.779541
  0
POINT
  8
3
  10
998.497803
  20
803.512146
  0
POINT
  8
3
  10
1002.442505
  20
835.133789
  0
POINT
  8
3
  10
1007.411377
  20
866.610535
  0
POINT
  8
3
  10
1013.345703
  20
897.920105
  0
POINT
  8
3
  10
1014.453735
  20
930.595276
  0
POINT
  8
3
  10
1008.868652
  20
932.500244
  0
POINT
  8
3
  10
1003.542542
  20
935.236877
  0
POINT
  8
3
  10
997.656067
  20
939.945312
  0
POINT
  8
3
  10
992.843506
  20
945.799011
  0
POINT
  8
3
  10
989.450256
  20
952.527588
  0
POINT
  8
3
  10
986.982483
  20
960.515930
  0
POINT
  8
3
  10
985.148926
  20
969.626648
  0
POINT
  8
3
  10
984.570312
  20
974.165955
  0
POINT
  8
3
  10
984.012878
  20
981.168091
  0
POINT
  8
3
  10
983.868286
  20
985.192566
  0
POINT
  8
3
  10
983.875305
  20
989.370239
  0
POINT
  8
3
  10
983.880920
  20
992.723267
  0
POINT
  8
3
  10
984.188660
  20
1000.023682
  0
POINT
  8
3
  10
984.223572
  20
1000.852661
  0
POINT
  8
3
  10
985.015137
  20
1013.278381
  0
POINT
  8
3
  10
986.164795
  20
1023.659546
  0
POINT
  8
3
  10
987.978516
  20
1035.886597
  0
POINT
  8
3
  10
989.962341
  20
1046.183350
  0
POINT
  8
3
  10
992.326172
  20
1057.478516
  0
POINT
  8
3
  10
994.826050
  20
1068.498047
  0
POINT
  8
3
  10
902.735718
  20
1120.881592
  0
POINT
  8
3
  10
895.783325
  20
1116.786743
  0
POINT
  8
3
  10
888.447632
  20
1113.478516
  0
POINT
  8
3
  10
879.131897
  20
1110.853149
  0
POINT
  8
3
  10
869.631592
  20
1109.406494
  0
POINT
  8
3
  10
855.591614
  20
1108.107178
  0
POINT
  8
3
  10
841.525391
  20
1107.185059
  0
POINT
  8
3
  10
827.433228
  20
1107.016846
  0
LINE
  8
7
  10
824.958801
  20
763.695190
  11
824.958801
  21
943.695190
  0
POLYLINE
  8
8
  66
1
  70
0
  250
0
  0
VERTEX
  8
8
  10
669.654663
  20
730.828552
  0
VERTEX
  8
8
  10
669.404663
  20
731.928528
  0
SEQEND
  0
TEXT
  8
8
  10
669.654663
  20
730.828552
  40
0.250000
  50
0.000000
  1
# 359
  7
STANDARD
  0
TEXT
  8
8
  10
669.404663
  20
731.928528
  40
0.250000
  50
0.000000
  1
# 358
  7
STANDARD
  0
POINT
  8
2
  10
669.654663
  20
730.828552
  0
POINT
  8
2
  10
669.404663
  20
731.928528
  0
POLYLINE
  8
85
  66
1
  70
0
  250
1
  0
VERTEX
  8
85
  10
669.654663
  20
730.828552
  0
VERTEX
  8
85
  10
669.404663
  20
731.928528
  0
SEQEND
  0
TEXT
  8
85
  10
669.654663
  20
730.828552
  40
0.250000
  50
0.000000
  1
# 359
  7
STANDARD
  0
TEXT
  8
85
  10
669.404663
  20
731.928528
  40
0.250000
  50
0.000000
  1
# 358
  7
STANDARD
  0
POINT
  8
2
  10
669.654663
  20
730.828552
  0
POINT
  8
2
  10
669.404663
  20
731.928528
  0
POLYLINE
  8
8
  66
1
  70
0
  250
0
  0
VERTEX
  8
8
  10
627.704651
  20
919.038574
  0
VERTEX
  8
8
  10
627.274658
  20
920.958557
  0
SEQEND
  0
TEXT
  8
8
  10
627.704651
  20
919.038574
  40
0.250000
  50
0.000000
  1
# 361
  7
STANDARD
  0
TEXT
  8
8
  10
627.274658
  20
920.958557
  40
0.250000
  50
0.000000
  1
# 360
  7
STANDARD
  0
POINT
  8
2
  10
627.704651
  20
919.038574
  0
POINT
  8
2
  10
627.274658
  20
920.958557
  0
POLYLINE
  8
85
  66
1
  70
0
  250
1
  0
VERTEX
  8
85
  10
627.704651
  20
919.038574
  0
VERTEX
  8
85
  10
627.274658
  20
920.958557
  0
SEQEND
  0
TEXT
  8
85
  10
627.704651
  20
919.038574
  40
0.250000
  50
0.000000
  1
# 361
  7
STANDARD
  0
TEXT
  8
85
  10
627.274658
  20
920.958557
  40
0.250000
  50
0.000000
  1
# 360
  7
STANDARD
  0
POINT
  8
2
  10
627.704651
  20
919.038574
  0
POINT
  8
2
  10
627.274658
  20
920.958557
  0
POLYLINE
  8
8
  66
1
  70
0
  250
0
  0
VERTEX
  8
8
  10
980.262878
  20
730.828491
  0
VERTEX
  8
8
  10
980.512878
  20
731.928467
  0
SEQEND
  0
TEXT
  8
8
  10
980.262878
  20
730.828491
  40
0.250000
  50
0.000000
  1
# 363
  7
STANDARD
  0
TEXT
  8
8
  10
980.512878
  20
731.928467
  40
0.250000
  50
0.000000
  1
# 362
  7
STANDARD
  0
POINT
  8
2
  10
980.262878
  20
730.828491
  0
POINT
  8
2
  10
980.512878
  20
731.928467
  0
POLYLINE
  8
85
  66
1
  70
0
  250
1
  0
VERTEX
  8
85
  10
980.262878
  20
730.828491
  0
VERTEX
  8
85
  10
980.512878
  20
731.928467
  0
SEQEND
  0
TEXT
  8
85
  10
980.262878
  20
730.828491
  40
0.250000
  50
0.000000
  1
# 363
  7
STANDARD
  0
TEXT
  8
85
  10
980.512878
  20
731.928467
  40
0.250000
  50
0.000000
  1
# 362
  7
STANDARD
  0
POINT
  8
2
  10
980.262878
  20
730.828491
  0
POINT
  8
2
  10
980.512878
  20
731.928467
  0
POLYLINE
  8
8
  66
1
  70
0
  250
0
  0
VERTEX
  8
8
  10
1022.212952
  20
919.038513
  0
VERTEX
  8
8
  10
1022.642944
  20
920.958496
  0
SEQEND
  0
TEXT
  8
8
  10
1022.212952
  20
919.038513
  40
0.250000
  50
0.000000
  1
# 365
  7
STANDARD
  0
TEXT
  8
8
  10
1022.642944
  20
920.958496
  40
0.250000
  50
0.000000
  1
# 364
  7
STANDARD
  0
POINT
  8
2
  10
1022.212952
  20
919.038513
  0
POINT
  8
2
  10
1022.642944
  20
920.958496
  0
POLYLINE
  8
85
  66
1
  70
0
  250
1
  0
VERTEX
  8
85
  10
1022.212952
  20
919.038513
  0
VERTEX
  8
85
  10
1022.642944
  20
920.958496
  0
SEQEND
  0
TEXT
  8
85
  10
1022.212952
  20
919.038513
  40
0.250000
  50
0.000000
  1
# 365
  7
STANDARD
  0
TEXT
  8
85
  10
1022.642944
  20
920.958496
  40
0.250000
  50
0.000000
  1
# 364
  7
STANDARD
  0
POINT
  8
2
  10
1022.212952
  20
919.038513
  0
POINT
  8
2
  10
1022.642944
  20
920.958496
  0
ENDBLK
  0
ENDSEC
  0
SECTION
  2
ENTITIES
  0
INSERT
  8
1
  2
Internal Line_41614_M_M_XS
  10
0.000000
  20
0.000000
  0
INSERT
  8
1
  2
Pattern_3750586_M_M_XS
  10
0.000000
  20
0.000000
  0
INSERT
  8
1
  2
Pattern_528568_M_1_M_XS
  10
0.000000
  20
0.000000
  0
INSERT
  8
1
  2
Pattern_528568_M_1_M_1_XS
  10
0.000000
  20
0.000000
  0
INSERT
  8
1
  2
Internal Line_41616_M_M_2_XS
  10
0.000000
  20
0.000000
  0
TEXT
  8
1
  10
0.000000
  20
0.000000
  40
0.250000
  50
0.000000
  1
STYLE NAME: W SS Graded
  7
STANDARD
  0
TEXT
  8
1
  10
0.000000
  20
0.000000
  40
0.250000
  50
0.000000
  1
CREATION DATE: 20-09-2023
  7
STANDARD
  0
TEXT
  8
1
  10
0.000000
  20
0.000000
  40
0.250000
  50
0.000000
  1
CREATION TIME: 14:45
  7
STANDARD
  0
TEXT
  8
1
  10
0.000000
  20
0.000000
  40
0.250000
  50
0.000000
  1
AUTHOR: CLO Virtual Fashion Inc.
  7
STANDARD
  0
TEXT
  8
1
  10
0.000000
  20
0.000000
  40
0.250000
  50
0.000000
  1
PRODUCT: CLO Standalone OnlineAuth 7.2.116
  7
STANDARD
  0
TEXT
  8
1
  10
0.000000
  20
0.000000
  40
0.250000
  50
0.000000
  1
VERSION: 3
  7
STANDARD
  0
TEXT
  8
1
  10
0.000000
  20
0.000000
  40
0.250000
  50
0.000000
  1
SAMPLE SIZE: XS
  7
STANDARD
  0
TEXT
  8
1
  10
0.000000
  20
0.000000
  40
0.250000
  50
0.000000
  1
Grade Rule Table: W SS
  7
STANDARD
  0
TEXT
  8
1
  10
0.000000
  20
0.000000
  40
0.250000
  50
0.000000
  1
UNITS: METRIC
  7
STANDARD
  0
ENDSEC
  0
EOF
